<svg width="509" height="41" viewBox="0 0 509 41" fill="none" xmlns="http://www.w3.org/2000/svg">
<path d="M21.15 10.05C15 10.05 9.1 11.15 3.1 13.1L6.15 19.35C12.2 17.55 16.9 17.2 20.75 17.2C24.75 17.2 31.95 17.65 31.95 23.25C28.1 21.95 23.45 21.15 18.4 21.15C9.05 21.15 0.65 23.55 0.65 31.2C0.65 37.85 5.8 40.5 14.05 40.5C21 40.5 26.75 38.9 31.95 36.35V40H40.55V25.15C40.45 14 33.45 10.05 21.15 10.05ZM31.95 30.85C27.55 32.75 21.15 34.2 16.5 34.2C12.05 34.2 9.2 33.95 9.2 30.85C9.2 27.85 13.05 26.75 19.45 26.75C24.9 26.75 28.95 27.6 31.95 28.55V30.85ZM70.0629 10.05C62.9129 10.05 57.1129 12.4 52.9129 15.7V10.55H44.3629V40H52.9129V23.5C55.5629 20.4 61.7629 17.45 67.5129 17.45C74.5629 17.45 76.6629 20.7 76.6629 26.95V40H85.2629L85.3629 23.7C85.2629 12.85 77.9129 10.05 70.0629 10.05ZM140.434 10.05C133.134 10.05 127.884 12.6 124.084 15.45C121.834 11.35 117.634 10.05 113.184 10.05C105.884 10.05 101.084 12.8 97.8836 15.35V10.55H89.3336V40H97.8836V22.65C100.334 20 105.134 17.45 110.084 17.45C116.184 17.45 117.234 20.7 117.234 26.95V40H125.784L125.884 23.5C125.884 22.95 125.884 22.45 125.834 21.95C128.434 19.6 132.834 17.45 137.334 17.45C143.434 17.45 144.484 20.7 144.484 26.95V40H153.034L153.134 23.5C153.034 12.85 147.034 10.05 140.434 10.05ZM176.568 40.5C188.718 40.5 196.968 36.1 196.968 25.3C196.968 14.45 188.718 10.05 176.568 10.05C164.368 10.05 156.168 14.45 156.168 25.3C156.168 36.1 164.368 40.5 176.568 40.5ZM176.568 33.35C168.618 33.35 164.718 31.4 164.718 25.3C164.718 19.15 168.618 17.2 176.568 17.2C184.468 17.2 188.368 19.15 188.368 25.3C188.368 31.4 184.468 33.35 176.568 33.35ZM200.222 -5.96046e-07V40H208.772V-5.96046e-07H200.222ZM257.371 10.55H242.771L221.321 23.8V-5.96046e-07H212.771V40H221.321V33.2L231.371 27.15L245.471 40H257.371L238.271 22.6L257.371 10.55ZM290.923 10.55V27.05C288.273 30.15 282.073 33.1 276.323 33.1C269.273 33.1 267.173 29.85 267.173 23.6V10.55H258.573L258.473 26.85C258.573 37.7 265.923 40.5 273.773 40.5C280.923 40.5 286.723 38.15 290.923 34.85V40H299.473V10.55H290.923ZM354.594 10.05C347.294 10.05 342.044 12.6 338.244 15.45C335.994 11.35 331.794 10.05 327.344 10.05C320.044 10.05 315.244 12.8 312.044 15.35V10.55H303.494V40H312.044V22.65C314.494 20 319.294 17.45 324.244 17.45C330.344 17.45 331.394 20.7 331.394 26.95V40H339.944L340.044 23.5C340.044 22.95 340.044 22.45 339.994 21.95C342.594 19.6 346.994 17.45 351.494 17.45C357.594 17.45 358.644 20.7 358.644 26.95V40H367.194L367.294 23.5C367.194 12.85 361.194 10.05 354.594 10.05ZM390.828 10.05C384.678 10.05 378.778 11.15 372.778 13.1L375.828 19.35C381.878 17.55 386.578 17.2 390.428 17.2C394.428 17.2 401.628 17.65 401.628 23.25C397.778 21.95 393.128 21.15 388.078 21.15C378.728 21.15 370.328 23.55 370.328 31.2C370.328 37.85 375.478 40.5 383.728 40.5C390.678 40.5 396.428 38.9 401.628 36.35V40H410.228V25.15C410.128 14 403.128 10.05 390.828 10.05ZM401.628 30.85C397.228 32.75 390.828 34.2 386.178 34.2C381.728 34.2 378.878 33.95 378.878 30.85C378.878 27.85 382.728 26.75 389.128 26.75C394.578 26.75 398.628 27.6 401.628 28.55V30.85ZM437.691 10.05C432.191 10.05 426.991 11.6 422.591 15.55V10.55H414.041V40H422.591V22.35C427.791 18.3 433.291 17.2 438.091 17.2C440.591 17.2 442.841 17.5 445.641 18.2V11.05C443.641 10.55 441.191 10.05 437.691 10.05ZM442.312 33.3V40H450.862V33.3H442.312ZM455.154 -5.96046e-07V7.45H463.704V-5.96046e-07H455.154ZM455.154 10.55V40H463.704V10.55H455.154ZM493.696 10.05C486.546 10.05 480.746 12.4 476.546 15.7V10.55H467.996V40H476.546V23.5C479.196 20.4 485.396 17.45 491.146 17.45C498.196 17.45 500.296 20.7 500.296 26.95V40H508.896L508.996 23.7C508.896 12.85 501.546 10.05 493.696 10.05Z" fill="black"/>
</svg>
