<svg width="242" height="267" viewBox="0 0 242 267" fill="none" xmlns="http://www.w3.org/2000/svg">
<path fill-rule="evenodd" clip-rule="evenodd" d="M108.627 0.421903C109.231 -0.262659 110.161 -0.0278659 110.725 0.513451C111.093 0.6218 111.449 0.782924 111.785 0.996177C112.546 0.898598 113.342 0.898598 114.088 0.925954C114.269 0.824498 114.463 0.734242 114.674 0.656696C116.181 0.105471 117.516 0.385499 118.617 1.12348C119.147 0.621585 119.816 0.30666 120.671 0.354265C121.434 0.396916 121.978 0.756214 122.445 1.22946C122.909 0.558902 123.661 0.0804836 124.597 0.013923C125.906 -0.0791327 127.164 0.445813 128.206 1.25854C128.814 0.561486 129.642 0.16083 130.565 0.156953C131.172 0.0466648 131.813 0.0901769 132.392 0.265087C133.232 0.519051 133.97 0.994884 134.558 1.61245C135.488 0.721533 136.627 0.0804836 137.939 0.17397C139.638 0.296752 141.046 1.54633 141.701 3.08433C142.851 3.54508 143.912 4.20229 144.799 5.13931C144.847 5.18863 144.892 5.24033 144.939 5.29224C145.417 5.46866 145.867 5.71875 146.263 6.04811C147.519 7.09304 147.799 8.6052 147.383 10.087C147.441 10.3241 147.491 10.5654 147.536 10.8064C148.712 10.9852 149.78 11.664 150.387 12.769C151.218 14.2855 151.054 16.2842 150.154 17.732C149.767 18.3547 149.276 18.8794 148.725 19.3383C149.348 20.7556 149.049 22.447 148.043 23.5934C147.798 23.9887 147.498 24.3454 147.159 24.6683C147.533 26.1337 146.868 27.6456 145.542 28.4286L145.428 28.7127C145.409 28.7599 145.39 28.8069 145.37 28.8534C145.355 28.9137 145.337 28.9721 145.319 29.0309C145.288 29.5509 145.116 30.0612 144.777 30.542C144.081 31.5273 143.219 32.1698 142.762 33.3201L142.716 33.4409C142.519 33.9853 141.884 34.3693 141.344 34.2013C144.347 40.3708 145.921 47.2356 147.002 53.9631C147.541 57.3194 147.957 60.6873 148.294 64.0681L148.625 67.4348C148.916 70.4273 149.175 73.4298 149.177 76.4322C149.181 83.2242 147.239 89.7572 143.07 95.162C139.128 100.271 133.549 103.974 127.246 105.432C120.739 106.936 113.106 106.344 107.271 102.901C105.55 101.889 107.058 99.4548 108.808 100.269C112.122 101.812 115.49 102.958 119.163 103.214C122.744 103.466 126.333 103.018 129.729 101.846C135.347 99.9053 140.127 95.8405 143.199 90.7785C144.713 88.2839 145.809 85.5764 146.393 82.7156C147.119 79.15 147.01 75.4646 146.743 71.8534L146.724 71.6073C146.197 64.6495 145.501 57.6487 144.377 50.7603C143.384 44.6688 141.856 38.7007 139.873 32.8647C139.096 32.1806 138.227 31.6145 137.297 31.1845C130.487 30.9 123.665 30.9831 116.863 31.4532C111.063 31.8566 105.291 32.5392 99.5622 33.5341L98.9486 33.6419C97.6803 33.8679 96.2721 33.9971 95.0771 34.5078C94.0522 34.9473 93.6366 35.7917 93.3782 36.8297C92.7279 39.4555 92.6289 42.3292 92.5191 45.0218C92.4114 47.6539 92.6547 50.3079 92.4437 52.9313C92.265 55.1263 91.703 57.373 90.0773 58.9608C89.2268 59.792 88.1803 60.2465 87.1984 60.8777C86.5632 61.285 86.2941 61.7048 86.3759 62.4588C86.5525 64.1088 87.881 66.1875 86.3888 67.6005C86.1261 67.8482 85.6718 67.8806 85.4134 67.6005C84.7976 66.9308 83.9471 66.4201 83.2171 65.8794C82.9114 65.6556 83.1655 65.2205 83.5121 65.3754C83.9686 65.5802 84.4337 65.8215 84.9096 66.0326C83.8588 65.1666 82.3645 64.7421 81.1199 64.4901C80.4933 64.3651 79.8344 64.3285 79.182 64.3869C78.6997 64.6171 78.2066 64.8306 77.7135 65.0393C77.0869 65.3023 76.4539 65.5412 75.8165 65.7676C73.6052 67.5704 72.5501 70.5023 73.0109 73.3693C73.2628 74.9524 73.9927 76.6737 75.3686 77.5978C76.9986 78.692 79.182 78.2222 80.9433 79.0345C82.5927 79.7947 83.5961 81.3308 84.3476 82.9205L84.6609 83.5823C85.3584 85.0477 86.0753 86.4742 87.0283 87.8078C88.1308 89.3523 89.4809 90.7395 90.9537 91.9309C91.6682 92.5075 92.4297 93.0261 93.2168 93.4985L93.432 93.6262C94.2287 94.0936 94.7993 94.5393 94.8532 95.528C94.8704 95.8726 94.6529 96.1871 94.373 96.3659C93.1672 97.1306 91.9678 96.1742 90.9644 95.5064C89.8814 94.787 88.8457 93.9773 87.8875 93.0941C86.0659 91.4182 84.4897 89.4279 83.2774 87.2671C82.3537 85.6216 81.8283 83.306 80.3684 82.0308C79.477 81.253 78.2174 81.2467 77.1041 81.1044C76.0684 80.971 75.0887 80.7556 74.1671 80.2451C70.4184 78.1621 69.359 73.1195 70.2483 69.2228C70.399 68.5655 70.61 67.9258 70.8706 67.3097C69.4753 67.5424 67.9077 66.0994 68.474 64.643C68.5171 64.5331 68.5666 64.43 68.614 64.3242C67.6946 63.7189 66.9689 62.8015 66.6244 61.6015C66.4478 60.9811 66.422 60.3542 66.5146 59.749C66.0689 59.4498 65.7007 59.0381 65.4638 58.5319C64.7231 58.1894 64.0664 57.677 63.6745 56.9446C63.1319 55.9341 63.2008 55.0036 63.6142 54.1656C63.5561 54.0603 63.5001 53.9526 63.4463 53.8425C61.9282 52.8799 60.8688 51.221 60.9894 49.3814C61.0282 48.7718 61.1789 48.2226 61.4115 47.7273C61.3921 47.6649 61.3727 47.6 61.3555 47.5376C60.0851 46.8913 59.0343 45.8296 58.6596 44.4122C58.285 42.986 58.7264 41.5643 59.6092 40.4701C58.3173 39.5247 57.54 38.2042 58.0115 36.2072C58.2032 35.3953 58.5886 34.6562 59.1097 34.0337C59.1075 34.0146 59.1032 33.9952 59.0989 33.9756L58.978 33.8818C57.3831 32.6227 56.4663 31.0182 57.4452 29.0449C57.8845 28.1576 58.5111 27.5392 59.2475 27.1321L59.2841 27.0158V27.0158C58.7565 25.8849 58.5778 24.6291 58.9417 23.3086C59.2389 22.221 59.943 21.3549 60.843 20.78C60.7827 20.2929 60.7913 19.774 60.8882 19.2116C61.0497 18.2619 61.5213 17.4326 62.2103 16.8445C62.2361 16.7193 62.2684 16.5968 62.305 16.4738C62.5376 15.7222 62.9725 14.9058 63.4764 14.3003C63.892 13.7984 64.3571 13.6153 64.9255 13.596C64.8911 13.133 64.9147 12.6632 65.0095 12.1872C65.3002 10.7183 66.2347 9.33736 67.6192 8.71053C68.1876 8.4542 68.7862 8.37902 69.3633 8.44127C69.8542 7.40732 70.8124 6.65792 71.9902 6.49637C72.4489 6.43175 72.8752 6.43584 73.2671 6.49421C73.4889 6.3906 73.7193 6.29819 73.9604 6.21397C74.1198 6.15796 74.2813 6.10627 74.4428 6.05478C74.9875 5.37841 75.7045 4.83752 76.5421 4.51247C77.5089 4.13551 78.493 4.17407 79.365 4.49072L79.6428 4.43256V4.43256C80.0777 3.67863 80.7711 3.09488 81.8369 2.82993C83.047 2.53052 84.2894 2.94841 85.2412 3.70901C85.2455 3.70901 85.2498 3.70901 85.2562 3.70664C85.7536 2.59299 86.6042 1.81752 88.0317 1.87137C88.921 1.90584 89.7242 2.34764 90.3443 2.97662C90.6888 2.93333 91.0333 2.89455 91.38 2.856C91.7461 2.42712 92.153 2.02668 92.603 1.66695C93.3394 1.07652 94.2976 1.12413 94.8402 1.95538C94.9587 2.13632 95.0685 2.31942 95.1783 2.50251L95.6757 2.46805V2.46805C96.2614 1.67751 97.0602 1.1433 98.154 1.10043C99.1574 1.05929 99.8723 1.55063 100.417 2.23756C100.861 2.22679 101.306 2.21839 101.752 2.21172C102.271 1.61073 102.883 1.08083 103.58 0.641402C104.114 0.305368 104.902 0.419749 105.335 0.867795C105.627 1.17238 105.9 1.49032 106.153 1.81946C106.805 1.08794 107.686 0.606076 108.627 0.421903ZM76.9362 68.8241C77.9417 68.2511 79.2939 68.8715 80.2672 69.3583C81.4536 69.9507 82.6314 70.8446 83.3571 71.9647C84.3454 73.4898 82.0221 74.7219 80.9821 73.3541C80.3426 72.5119 79.8322 71.6632 79.0571 70.9265C78.3487 70.2501 77.3216 69.7978 76.9146 68.906C76.8996 68.8758 76.9039 68.8413 76.9362 68.8241Z" fill="black"/>
<path fill-rule="evenodd" clip-rule="evenodd" d="M149.337 61.1611C147.706 74.6822 133.851 76.5417 131.027 63.2369C131.418 63.0528 131.694 62.7036 131.617 62.0419C131.525 59.1285 132.347 56.0248 134.932 54.3344C137.602 52.5901 140.775 52.3396 143.919 52.2981C149.911 51.9956 149.918 57.0126 149.337 61.1611ZM128.654 55.8505C126.77 55.8212 124.391 55.9511 122.736 57.1429C122.239 55.9068 120.999 54.6058 119.764 53.9255C124.29 53.9374 128.933 53.3682 133.479 52.9012C132.409 53.6739 131.424 54.8183 130.799 56.1275C130.178 55.8174 129.303 55.8712 128.654 55.8505ZM120.553 63.3569C115.813 81.4639 102.58 73.9792 101.098 71.7143C98.4356 67.9719 97.7071 58.7217 99.8721 56.1856C103.006 53.861 107.543 54.317 111.314 54.1615C118.247 54.0705 123.225 56.0136 120.553 63.3569ZM155.316 54.1609C153.894 54.0132 152.378 54.0162 151.076 54.6757C150.624 52.9608 149.312 51.5521 147.857 50.9555C147.677 50.7417 147.7 50.6236 147.106 50.6723C143.424 49.6715 139.353 50.3613 135.873 51.5809C130.342 52.1955 124.537 52.7185 118.964 53.5109C113.665 51.2979 97.8545 51.374 97.0269 57.1982C95.7868 57.0463 93.6572 56.1297 92.6543 57.4767C85.0062 56.3882 77.1868 58.3923 69.5614 59.3952C67.6461 59.8011 66.7564 63.6489 68.9399 63.5385C70.1594 63.1722 68.8388 61.1599 70.4887 60.9619C77.8451 59.9593 85.0311 58.6235 92.4809 58.2911C92.2559 59.5855 97.4471 59.5311 97.5037 58.7772C97.5149 58.7826 97.5267 58.786 97.5381 58.7907C96.3832 63.6053 97.7238 70.4542 100.12 73.3568C103.47 77.1518 111.651 78.0483 115.199 75.4547C119.799 73.0255 124.341 61.326 122.877 57.5183C125.328 56.6685 127.779 56.8388 130.356 57.1697C129.813 58.8455 128.907 62.9591 130.376 63.2747C130.324 71.3953 137.84 76.2613 144.556 72.7518C150.371 69.8292 152.198 61.0201 151.336 55.7257C152.107 57.1234 158.221 55.4165 155.316 54.1609Z" fill="black"/>
<path fill-rule="evenodd" clip-rule="evenodd" d="M89.425 95.9214C90.4485 93.3482 93.9084 94.3485 93.5227 97.0517C93.2918 98.6709 92.4053 100.381 91.6091 101.8C90.9607 102.955 90.2211 104.083 89.2183 104.949C91.0034 106.615 92.8562 108.22 94.756 109.744C96.8291 111.407 99.009 112.94 101.262 114.349C103.238 115.584 105.303 116.679 107.166 118.089C108.897 119.399 110.475 120.975 111.278 123.033C112.133 125.224 111.761 127.487 111.131 129.677L111.059 129.925C110.416 132.094 109.302 134.709 110.846 136.753C111.633 137.794 112.775 138.531 113.762 139.362C114.639 140.102 115.463 140.906 116.218 141.769C117.864 143.652 119.203 145.771 120.048 148.131L120.124 148.346C120.848 150.435 121.377 152.995 120.398 155.047C120.118 155.635 119.212 155.444 119.055 154.871C118.699 153.574 118.718 152.215 118.42 150.9C118.11 149.531 117.593 148.233 116.919 147.004C115.615 144.627 113.848 142.596 111.761 140.879L111.136 140.371C109.508 139.034 108.012 137.616 107.681 135.404C107.327 133.037 108.275 130.782 108.885 128.542C109.31 126.98 109.448 125.484 108.989 124.073C108.429 124.988 107.663 125.858 107.058 126.633C105.853 128.178 104.636 129.713 103.423 131.251C102.178 132.828 100.965 134.43 99.8091 136.074C99.2922 136.809 98.7808 137.549 98.2711 138.289C97.8878 138.846 97.3532 139.402 96.9354 139.969C97.037 140.273 97.0293 140.623 96.8452 140.871C94.6296 143.866 91.4776 137.617 90.6555 136.039C88.9814 132.824 87.7355 129.408 86.0559 126.194C84.3155 122.862 82.3337 119.618 80.1248 116.576C78.7887 114.736 77.2912 113.008 76.0689 111.11C73.1895 113.722 69.4004 115.473 65.9201 117.061C62.0961 118.805 58.1235 120.23 54.2029 121.743L53.0447 122.193C46.2894 124.831 39.369 127.728 33.7541 132.413C27.156 137.918 23.2525 145.591 20.3466 153.536C17.0013 162.683 14.2338 172.077 11.654 181.465C10.3338 186.268 9.0811 191.093 7.90346 195.934C6.86573 200.199 6.00554 204.505 4.80427 208.726C7.24059 208.64 10.0192 209.583 12.0992 209.856C21.579 211.097 30.9311 213.076 39.8811 216.502C40.9866 216.925 41.3064 218.03 41.0657 218.925C41.7032 218.745 42.3403 218.563 42.9778 218.383C42.2794 217.313 42.6127 215.399 42.6677 214.212L42.671 214.13C42.7275 212.549 42.899 210.966 43.0102 209.388C43.2219 206.379 43.4976 203.392 43.8641 200.4L43.9577 199.652C44.3731 196.397 44.6801 193.123 45.1334 189.874L45.1869 189.502C44.9696 188.671 44.7166 187.849 44.451 187.032C43.7432 184.854 42.7443 182.804 41.869 180.695C41.7657 180.446 42.1193 180.304 42.2846 180.453C43.7671 181.787 44.9448 183.479 45.8908 185.25C45.9072 185.166 45.9217 185.083 45.9388 184.999L46.0468 184.467C46.313 183.171 46.6368 181.807 47.4317 180.756C47.5164 180.644 47.6838 180.621 47.7639 180.756C48.5247 182.044 48.6099 183.675 48.7269 185.14C48.8593 186.798 48.8759 188.477 48.8525 190.139C48.8069 193.388 48.578 196.646 48.3957 199.89C48.2168 203.077 47.8654 206.224 47.4126 209.38L47.3266 209.972C47.1052 211.474 46.924 212.995 46.6321 214.487L46.5496 214.893C46.3935 215.633 46.2975 216.676 45.9868 217.543C53.9804 215.312 61.9862 213.132 70.0073 210.991C75.8045 209.444 81.6078 207.919 87.4087 206.385C87.7148 205.833 88.0959 205.317 88.5716 204.857C90.1388 203.338 92.2157 202.661 94.1206 203.83C94.2755 203.925 94.2885 204.168 94.1206 204.26C93.7557 204.459 93.39 204.664 93.0308 204.877L96.514 203.933C99.1175 203.227 101.752 202.345 104.417 201.853C109.325 199.43 114.604 197.677 119.774 195.943L120.383 195.737C123.031 194.834 125.769 193.823 128.504 193.323C130.507 192.956 132.857 193.398 133.662 195.451C134.682 196.123 135.641 196.913 136.566 197.689C137.235 198.251 137.877 198.847 138.529 199.428L138.649 199.534C139.183 199.997 139.605 200.307 139.736 201.044C139.803 201.424 139.562 201.939 139.093 201.888C137.657 201.734 136.49 200.07 135.516 199.076C134.764 198.308 134.006 197.513 133.319 196.669C132.919 196.887 132.371 196.848 132.116 196.365C130.795 193.863 127.176 195.597 125.174 196.19L122.306 197.039C120.872 197.464 119.439 197.892 118.008 198.327C114.075 199.521 110.162 200.858 106.193 201.956C106.548 202.346 106.499 203.041 105.825 203.305C102.718 204.524 99.3103 205.155 96.083 205.992C94.0454 206.52 92.009 207.052 89.9733 207.587C89.6243 208.153 89.3732 208.793 89.2675 209.538C88.8791 212.277 89.6283 215.437 90.3581 218.086L90.468 218.481C91.068 220.611 91.9506 223.222 93.7875 224.567C94.2359 224.895 94.8069 225.123 95.3825 225.175C98.9783 223.323 102.574 221.472 106.172 219.624C106.838 219.282 107.454 219.745 107.604 220.296C108.872 220.088 110.138 219.76 111.291 219.369C113.228 218.71 114.74 217.455 116.556 216.587C120.07 214.908 123.658 216.971 126.804 218.539L127.529 218.895C128.939 219.58 131.874 220.896 132.551 219.023C133.206 217.211 131.136 215.275 129.799 214.459C128.206 213.487 126.35 212.967 124.549 212.533C123.521 212.286 122.48 212.084 121.433 211.936C120.245 211.769 119.018 211.794 117.875 211.409C117.306 211.218 117.219 210.315 117.875 210.166C119.635 209.765 121.736 210.202 123.574 210.649L124.534 210.885C126.385 211.34 128.253 211.91 129.939 212.816C131.165 213.476 132.459 214.477 133.304 215.703C134.038 215.021 134.952 215.044 135.903 215.297L136.42 215.441C137.273 215.677 137.964 215.84 138.794 215.676C138.905 215.072 139.018 214.468 139.138 213.863C140.321 207.924 141.618 202.007 143.049 196.121C145.517 185.97 148.374 175.93 151.594 165.992L151.917 164.999C152.66 162.726 153.258 160.25 154.455 158.161C155.588 156.187 157.402 155.05 159.558 154.447C162.005 153.764 164.575 153.406 167.071 152.945C167.628 152.842 168.186 152.744 168.743 152.643C168.272 151.793 167.921 150.827 167.604 150.086L167.549 149.958C166.868 148.406 166.257 146.827 165.667 145.239L165.226 144.046C164.161 141.172 163.061 138.345 161.563 135.656C159.987 132.827 157.895 130.514 155.288 128.6C149.972 124.696 143.564 122.705 138.408 118.534C138.197 118.363 138.468 118.07 138.682 118.179C142.164 119.929 145.922 121.118 149.543 122.543L150.258 122.825C153.12 123.96 156.026 125.196 158.504 127.034C161.266 129.083 163.441 131.628 165.076 134.654C166.687 137.637 167.718 140.976 168.855 144.163L169.159 145.012C169.618 146.285 170.091 147.554 170.634 148.793C171.065 149.777 171.869 150.899 172.234 152.023C173.234 151.849 174.234 151.675 175.235 151.508C196.912 147.888 218.832 145.76 240.801 145.138C241.66 145.113 242.105 145.934 241.978 146.684C239.87 159.155 237.996 171.669 235.941 184.15C235.043 189.597 234.128 195.04 233.192 200.481C232.717 203.237 232.169 205.983 231.719 208.743C231.356 210.972 231.093 213.219 230.47 215.397C229.911 217.349 229.054 219.232 227.646 220.722C226.128 222.327 224.01 223.105 221.878 223.472C216.464 224.404 210.912 224.784 205.455 225.405L176.401 228.712C176.825 232.573 176.857 236.373 176.662 240.279L176.551 242.411C176.46 244.126 176.352 245.844 176.106 247.541C175.797 249.67 174.823 251.473 173.389 253.063C172.072 254.523 170.473 255.77 168.917 256.964C167.301 258.204 165.632 259.4 163.733 260.167L163.487 260.265C161.821 260.915 158.695 261.923 156.418 261.555C156.716 263.047 157.292 264.651 156.781 266.128C156.544 266.813 155.648 267.155 155.099 266.572C154.011 265.416 153.926 263.889 153.669 262.38C153.401 260.811 153.17 259.236 152.964 257.657C152.567 254.604 152.258 251.523 152.164 248.445C152.067 245.283 152.104 242.117 152.275 238.958C152.362 237.337 152.471 235.716 152.677 234.104C152.764 233.417 152.854 232.729 152.957 232.044C152.994 231.794 153.036 231.545 153.08 231.296L150.472 231.591C146.474 232.037 142.473 232.441 138.446 232.503C137.969 232.511 137.603 232.293 137.363 231.977C137.107 232.393 136.662 232.691 136.025 232.689C130.402 232.668 125.165 230.828 120.05 228.66C117.472 227.567 114.934 226.384 112.352 225.3C109.942 224.288 107.365 223.566 105.013 222.427L98.8334 225.67C98.788 225.829 98.7299 225.98 98.6681 226.106C98.2658 226.928 97.4724 227.374 96.6621 227.709C95.8844 228.032 95.079 228.133 94.2943 228.051C89.6074 230.508 84.9193 232.963 80.2281 235.412L75.5358 237.859C66.1871 242.728 56.8753 247.678 47.4677 252.433L46.7751 252.782C43.5257 254.412 40.0365 256.064 36.4304 257.297C36.3662 258.21 36.4068 259.098 36.4832 260.064L36.5016 260.275C36.6092 261.417 36.8397 262.848 35.9238 263.661C35.4474 264.084 34.5964 264.086 34.2725 263.448C33.6846 262.292 34.2124 260.469 34.3986 259.213C34.4647 258.767 34.5453 258.307 34.6644 257.862C30.5304 259.093 26.2712 259.69 22.0643 258.999C17.9684 258.326 14.7961 255.745 12.2387 252.587C9.53966 249.256 7.62172 245.373 6.59267 241.21C5.42155 236.474 5.34508 231.582 5.37258 226.731C5.40177 221.564 5.59282 216.372 6.22095 211.241C5.53275 211.079 4.76953 210.939 4.07409 210.987C3.72963 211.539 3.06145 211.771 2.45768 211.699C1.14471 213.148 4.475 214.628 5.53926 214.999C5.90881 215.128 5.86925 215.728 5.44302 215.71L5.17453 215.697C3.53005 215.61 1.83107 215.329 0.864175 213.8C0.0893754 212.575 0.322153 211.123 1.24579 210.124C1.85583 204.353 3.31425 198.734 4.67159 193.105C6.00361 187.58 7.48495 182.091 9.05505 176.629L9.75894 174.185C12.231 165.621 14.815 156.988 18.225 148.764C19.9278 144.658 21.8894 140.627 24.5484 137.047C27.0269 133.709 29.9532 130.853 33.3167 128.414C39.5873 123.866 46.9451 121.119 54.1744 118.501L54.498 118.383C58.2444 117.028 61.9817 115.656 65.6854 114.187C68.9609 112.888 72.0989 111.241 75.359 109.922C75.2531 109.73 75.1508 109.536 75.0524 109.339L74.9922 109.39C74.9819 109.398 74.9713 109.406 74.9603 109.413C74.6325 109.641 74.1498 109.529 73.8796 109.274C73.1168 108.554 73.375 107.754 73.8842 107.008L73.9505 106.913C74.5734 106.04 75.1289 105.117 75.7037 104.212L76.0637 103.647C77.0286 102.136 78.0425 100.615 79.329 99.3659C79.9248 98.7872 80.5771 98.3543 81.2682 98.0317C81.2091 97.9067 81.7272 97.6511 81.8741 97.7797C84.0637 96.9781 86.5828 97.146 88.9699 97.3671M174.996 228.872L171.952 229.218C168.603 229.599 165.253 229.968 161.902 230.333L154.624 231.124C154.605 231.539 154.555 231.945 154.545 232.259C154.498 233.875 154.462 235.492 154.429 237.108C154.362 240.349 154.435 243.592 154.649 246.826C154.855 249.96 155.128 253.094 155.55 256.207L155.637 256.829L155.687 257.156C156.032 257.19 156.372 257.354 156.654 257.691C157.269 258.426 159.498 257.711 160.369 257.402C161.801 256.892 163.149 256.031 164.393 255.167C165.608 254.324 166.701 253.341 167.753 252.306L168.613 251.455C169.468 250.604 170.325 249.698 170.849 248.628C171.56 247.177 171.652 245.397 171.86 243.816C172.117 241.873 172.423 239.93 172.746 237.996M86.6237 208.471L86.3079 208.554C74.8376 211.603 63.3844 214.742 51.8789 217.656C46.1851 219.099 40.4643 220.436 34.7635 221.851L33.8405 222.082C29.3432 223.219 24.7919 224.588 21.348 227.851C21.2209 227.971 21.0363 227.787 21.156 227.659C24.8676 223.706 30.1465 222.033 35.2151 220.582C36.152 220.314 37.0901 220.052 38.0272 219.786C31.1341 217.328 24.1322 215.189 16.9686 213.663C15.124 213.271 13.2579 212.982 11.4147 212.588C10.1293 212.313 8.87394 211.915 7.60207 211.585L6.60165 211.333L6.58836 214.496C6.57171 218.976 6.57966 223.453 6.80813 227.932L6.85138 228.762C7.11795 233.747 7.53403 238.835 9.30236 243.536C10.7393 247.355 13.0297 250.953 16.025 253.736C17.5405 255.143 19.17 256.239 21.1842 256.78C23.0544 257.282 25.0138 257.341 26.9364 257.207C36.158 256.563 44.3668 251.552 52.3772 247.403C65.4797 240.616 78.5835 233.833 91.6992 227.073C91.3446 226.83 91.0108 226.551 90.7071 226.237C88.9483 224.42 88.0206 221.932 87.4113 219.523C86.7626 216.959 86.3747 214.211 86.3296 211.563M103.312 229.692C103.428 229.63 103.562 229.708 103.567 229.839C103.608 230.841 103.054 231.829 102.64 232.732L102.597 232.829C102.094 233.947 101.544 235.05 100.975 236.136C99.8375 238.306 98.6555 240.452 97.4219 242.568C94.9412 246.825 92.1845 250.903 88.9261 254.61C88.1901 255.447 86.9797 254.373 87.452 253.472C89.7291 249.126 92.3837 245.022 95.1163 240.954C96.4842 238.918 97.8512 236.879 99.2327 234.852C99.809 234.006 100.393 233.163 100.992 232.332L101.354 231.836M239.349 147.627C227.839 147.975 216.342 148.726 204.886 149.902C194.232 150.997 183.618 152.454 173.063 154.27C170.858 154.649 168.656 155.044 166.457 155.454L165.138 155.702C162.939 156.119 160.252 156.291 158.293 157.467C156.229 158.706 155.671 161.296 154.984 163.432C154.176 165.943 153.389 168.462 152.623 170.987C149.582 181.012 146.804 191.124 144.326 201.302C143.095 206.355 142.004 211.436 140.854 216.506C139.832 221.012 138.704 225.466 137.526 229.926C137.672 229.813 137.85 229.728 138.065 229.682C143.914 228.437 149.884 227.896 155.821 227.208L156.395 227.141C162.537 226.418 168.678 225.701 174.823 225.01L215.507 220.433C217.906 220.163 220.477 220.127 222.812 219.482C226.782 218.387 227.712 213.947 228.378 210.411L228.398 210.304C230.407 199.62 232.005 188.843 233.878 178.132M138.473 217.507C136.894 217.402 134.732 215.955 133.533 216.059C134.162 217.115 134.446 218.319 134.084 219.606C133.075 223.185 128.512 221.333 126.314 220.24C124.511 219.343 122.771 218.245 120.776 217.825C118.516 217.35 116.985 218.249 115.075 219.285C113.507 220.136 111.799 220.748 110.042 221.064C109.108 221.232 108.221 221.25 107.335 221.185C107.282 221.228 107.222 221.268 107.153 221.304L106.685 221.55C108.803 221.647 110.961 222.301 112.932 222.9C114.975 223.52 116.98 224.268 118.974 225.032L120.937 225.787C125.777 227.641 130.787 229.402 136.025 229.386C136.402 229.385 136.71 229.489 136.953 229.66M129.636 206.292C131.196 206.101 132.637 206.305 133.884 207.322C135.387 208.547 136.398 210.579 138.559 210.713C139.19 210.752 139.336 211.638 138.71 211.824C137.101 212.3 135.798 211.429 134.701 210.299L133.964 209.528C132.881 208.406 131.882 207.538 130.043 207.605C128.074 207.677 126.102 208.132 124.146 208.364C121.93 208.626 119.715 208.849 117.492 209.042C117.389 209.051 117.371 208.888 117.468 208.864L119.957 208.245M128.132 199.91L128.389 199.884C130.655 199.664 132.727 199.656 134.751 200.875L135.139 201.11C136.964 202.219 138.95 203.526 140.091 205.322C140.277 205.617 139.969 205.962 139.656 205.888C137.463 205.361 135.86 203.751 134.016 202.547C131.946 201.195 129.809 201.418 127.449 201.628C125.164 201.831 122.88 202.111 120.618 202.492C118.492 202.849 116.359 203.414 114.212 203.594L114.212 203.59C113.967 203.589 113.827 203.221 114.077 203.096C116.256 202.007 118.78 201.492 121.151 200.995M50.5371 138.27C50.5343 138.091 50.7863 138.024 50.8744 138.179C52.3487 140.774 53.1194 143.954 53.9049 146.813C54.7274 149.808 55.3915 152.833 55.9881 155.88C57.1963 162.051 57.8402 168.186 57.8838 174.476C57.8898 175.373 56.4276 175.612 56.2845 174.692C55.3348 168.575 54.4249 162.451 53.468 156.335C52.9865 153.259 52.4262 150.195 51.8899 147.128M65.1341 142.79C65.0256 142.432 65.5461 142.312 65.6793 142.639C68.6381 149.905 69.6401 158.139 67.7405 165.805C67.4498 166.977 65.7331 166.469 65.9524 165.311M103.299 136.333C103.284 136.066 103.632 136.023 103.763 136.208C105.165 138.184 105.746 140.83 108.206 141.852C109.434 142.362 110.816 142.273 111.901 143.134C112.627 143.71 113.183 144.619 112.638 145.492C112.463 145.774 111.971 145.915 111.733 145.608C111.385 145.162 111.201 144.628 110.728 144.294C110.062 143.822 109.163 143.793 108.399 143.571C107.41 143.284 106.539 142.782 105.826 142.037M126.721 103.374C126.866 103.3 127.005 103.347 127.097 103.472C127.229 103.65 127.213 103.824 127.051 103.946C127.267 104.387 127.522 105.493 127.558 105.654C127.706 106.306 127.863 106.955 128.027 107.603C128.359 108.91 128.649 110.228 128.981 111.535C129.333 112.921 129.752 114.293 130.218 115.644C130.248 115.732 130.281 115.821 130.316 115.912L130.369 116.049L130.382 116.028C130.477 115.878 130.674 115.983 130.651 116.141C130.629 116.286 130.6 116.429 130.575 116.574L130.624 116.703C130.929 117.524 131.138 118.389 130.578 119.114C130.369 119.385 130.138 119.545 129.851 119.593C129.391 121.111 128.814 122.6 128.195 124.031L128.014 124.449C127.105 126.536 126.135 128.596 124.687 130.373C123.106 132.313 120.931 133.638 119.554 135.764C118.913 136.753 118.468 137.793 118.106 138.91L117.97 139.334C117.713 140.124 117.417 140.889 116.676 141.353C116.439 141.5 116.085 141.453 115.895 141.252C114.376 139.644 115.966 136.643 116.882 135.087C118.155 132.922 119.998 131.538 121.843 129.905C123.832 128.145 125.1 125.791 126.327 123.472C127.079 122.051 127.805 120.599 128.569 119.172C127.77 118.467 127.515 117.065 127.245 116.09L127.22 116.003C126.773 114.443 126.418 112.842 126.194 111.234C125.978 109.688 125.888 108.164 125.945 106.609L125.961 106.213M129.689 110.732C129.513 110.49 129.805 110.216 130.047 110.267C131.518 110.571 132.956 111.462 134.276 112.182L134.417 112.258C135.471 112.827 136.532 113.523 137.085 114.628C137.687 115.828 137.637 117.211 137.555 118.516L137.547 118.638C137.447 120.202 137.431 121.828 137.1 123.364C136.93 124.15 136.219 124.371 135.61 124.186C134.886 126.473 132.852 128.158 131.366 129.963C129.471 132.265 129.828 135.372 130.026 138.143C130.106 139.265 128.711 139.584 127.992 138.986L126.336 137.61C126.06 137.38 125.785 137.15 125.51 136.919C125.275 136.721 125.042 136.521 124.81 136.319L124.465 136.014C124.312 135.877 123.636 135.122 123.439 135.09C122.96 135.014 121.823 136.276 121.434 136.672L121.385 136.721C120.653 137.439 119.991 138.212 119.375 139.032C119.261 139.183 119.039 139.058 119.121 138.884C119.673 137.7 120.315 136.569 121.077 135.51L121.231 135.299C121.739 134.615 122.42 133.408 123.315 133.206C124.408 132.959 125.5 134.056 126.296 134.665L126.346 134.703C126.725 134.987 127.099 135.276 127.472 135.567C127.433 133.504 127.694 131.419 128.759 129.64C129.509 128.386 130.634 127.457 131.597 126.38C132.669 125.18 133.229 123.705 134.199 122.455C134.324 122.294 134.496 122.208 134.682 122.18C134.72 121.175 134.868 120.161 134.982 119.167L135.015 118.869C135.131 117.789 135.404 116.47 134.875 115.459C134.376 114.504 133.23 113.829 132.382 113.181L131.69 112.644M81.9487 99.3131C81.5058 99.5694 81.0919 99.8882 80.7163 100.287C79.5341 101.541 78.6888 103.102 77.8662 104.604C77.4234 105.413 76.9964 106.231 76.5499 107.038C76.3557 107.389 76.156 107.736 75.9541 108.083C75.8607 108.243 75.5833 108.561 75.4458 108.756C75.5986 108.97 75.7566 109.181 75.9177 109.39C75.9792 109.469 80.22 114.091 81.6983 115.9C83.9619 118.67 85.9853 121.597 87.7151 124.729C89.4089 127.796 90.6985 131.044 92.2676 134.171C93.0531 135.736 93.9301 137.29 95.0482 138.645C95.0914 138.698 95.137 138.748 95.1811 138.8C95.6078 137.647 96.7012 136.412 97.2382 135.703L97.2884 135.636C98.5063 133.994 99.7925 132.401 101.107 130.835C102.307 129.405 103.538 128.006 104.798 126.63L105.273 126.115C106.151 125.166 107.267 123.746 108.552 123.068C108.415 122.822 108.255 122.579 108.072 122.339C106.867 120.765 105.164 119.622 103.484 118.591L102.394 117.928C98.2867 115.423 94.2432 112.803 90.6773 109.55C88.7907 107.828 86.9301 106.025 85.3443 104.017L84.7835 103.307M88.8016 98.0735C86.8781 98.235 84.8009 98.1966 83.0233 98.8235C84.6036 100.318 86.1057 101.932 87.6488 103.451C87.786 102.423 88.0668 101.408 88.3046 100.406" fill="black"/>
<path d="M196.324 188.518C195.268 192.535 191.939 194.913 189.053 194.154C186.166 193.395 184.438 189.687 185.494 185.671C186.55 181.654 189.879 179.275 192.765 180.034C195.652 180.793 197.38 184.501 196.324 188.518Z" stroke="black"/>
<path d="M185.342 186.676L196.253 184.916M185.342 189.14L196.253 187.732" stroke="black"/>
</svg>
