<svg width="285" height="261" viewBox="0 0 285 261" fill="none" xmlns="http://www.w3.org/2000/svg">
<path fill-rule="evenodd" clip-rule="evenodd" d="M25.2186 161.564C24.4737 161.472 23.7435 161.206 23.0181 160.997C21.9105 160.673 20.8249 160.296 19.7563 159.865C17.5509 158.981 15.4113 157.936 13.4055 156.658C10.1656 154.59 7.30304 151.941 5.14393 148.751L4.9957 148.528C3.76307 146.65 1.48936 142.479 4.03881 141.053C2.39567 139.68 0.842668 137.213 0.930298 135.309C1.05444 132.615 4.35518 132.652 6.06154 133.794C7.17883 134.542 8.01619 135.589 8.85598 136.619C9.78583 137.763 10.779 138.854 11.8111 139.904C12.0849 140.181 12.3615 140.454 12.6429 140.721L12.9259 140.987C12.8821 140.883 12.8432 140.776 12.8091 140.666C12.2395 138.891 12.9186 136.58 14.6931 135.767C15.7791 135.269 16.9069 135.573 17.9592 135.995L18.1204 136.061C19.5371 136.648 20.9709 137.167 22.446 137.583C28.4584 139.281 34.7337 139.563 40.8946 140.41C43.2679 140.739 45.6851 141.153 48.0462 141.762C48.9468 137.936 51.1546 134.269 53.5498 131.252C65.0197 116.819 83.9357 112.049 101.24 108.961C102.818 108.681 104.125 110.77 105.042 110.276C106.783 109.341 108.314 108.016 109.658 106.577C112.523 103.506 114.555 99.8947 116.943 96.4734C118.124 94.7834 120.84 96.2956 119.745 98.1098L119.208 98.9964C116.999 102.628 114.552 106.371 111.384 109.187C109.699 110.682 107.83 111.863 105.692 112.601C104.074 113.159 101.803 113.629 100.031 113.088L99.8178 112.778C99.8882 112.882 99.9591 112.985 100.031 113.088C104.655 119.792 110.458 125.466 116.573 130.821C122.745 136.223 129.403 141.06 136.102 145.79L136.66 146.184C147.572 138.221 156.79 127.835 163.258 115.969C161.902 115.806 160.561 114.937 159.403 114.289C158.008 113.505 156.696 112.57 155.673 111.323C153.446 108.608 153.736 105.108 153.334 101.814C153.31 101.609 153.58 101.558 153.704 101.66C154.911 102.663 155.335 104.307 155.839 105.727C156.394 107.288 157.022 108.574 158.295 109.672C159.48 110.695 160.926 111.447 162.331 112.117C163.055 112.46 166.651 113.343 167.06 114.075C173.272 112.616 179.324 115.136 183.927 119.388C188.374 123.496 191.638 128.836 194.52 134.108C197.595 139.733 200.114 145.597 202.285 151.624C204.486 157.741 206.173 163.992 207.1 170.431C207.883 175.859 208.363 181.372 208.674 186.861L208.712 187.547C213.307 180.332 218.017 173.192 222.825 166.116C221.732 163.196 222.942 160.215 224.989 157.96C227.258 155.464 230.395 154.305 233.397 152.956L233.791 152.778C235.238 152.118 236.679 151.391 237.929 150.402C239.131 149.447 240.015 148.132 241.281 147.253C243.121 145.972 246.461 146.245 246.546 149.043C246.59 150.58 245.93 152.265 245.326 153.645C244.642 155.206 243.72 156.621 242.624 157.921C242.574 157.982 242.519 158.03 242.462 158.068L242.42 158.094C243.934 158.345 245.46 158.547 247.016 158.618C250.153 158.762 253.325 158.53 256.397 157.868C259.542 157.191 262.59 156.09 265.418 154.556C267.835 153.246 270.075 151.551 272.82 151.152C273.074 151.113 273.329 151.088 273.592 151.074C274.03 151.05 274.468 151.566 274.296 151.999C274.201 152.238 274.101 152.474 273.991 152.713C273.042 154.804 271.586 156.834 269.77 158.374L269.629 158.491C270.269 158.27 270.9 158.021 271.521 157.741C275.169 156.098 278.48 153.614 282.392 152.615C282.577 152.567 282.764 152.523 282.952 152.481C284.161 152.221 284.799 153.536 284.088 154.437C283.974 154.583 283.86 154.727 283.74 154.87C281.995 157.037 280.07 159.049 277.947 160.856C277.219 161.474 276.469 162.073 275.705 162.646C275.383 162.888 275.059 163.126 274.732 163.359L274.571 163.473C274.953 163.203 275.33 162.928 275.705 162.646C278.1 161.92 280.461 161.06 282.771 160.108C283.689 159.731 284.402 160.661 284.5 161.425C284.826 163.987 281.983 165.841 280.133 167.073C278.278 168.31 276.236 169.25 274.145 170.004C270.124 171.458 265.902 172.118 261.686 172.709L259.638 172.995C251.533 174.129 243.068 175.484 237.252 181.793C233.993 185.329 231.788 189.722 229.77 194.044C227.754 198.362 225.984 202.794 224.305 207.25C222.564 211.862 221.048 216.559 219.437 221.218C217.957 225.495 216.189 229.718 214.438 233.898L214.162 234.557C210.445 243.441 206.005 251.808 199.817 259.225C198.797 260.45 197.149 258.712 198.091 257.499C204.564 249.151 209.067 239.301 212.784 229.475C214.476 225.004 215.892 220.426 217.518 215.931L218.486 213.261C219.778 209.701 221.081 206.145 222.44 202.613C224.161 198.145 226.053 193.73 228.217 189.459L228.446 189.009C230.565 184.888 233.082 180.827 236.546 177.709C242.782 172.094 251.08 170.747 259.102 169.68L261.626 169.347C265.018 168.897 268.419 168.399 271.718 167.491C273.621 166.971 275.481 166.303 277.229 165.383C277.925 165.017 278.604 164.616 279.261 164.177C277.387 164.728 275.486 165.178 273.551 165.531C272.604 165.704 271.667 165.833 270.732 165.923C268.325 166.162 265.937 166.152 263.471 166.023C263.262 166.011 263.193 165.682 263.417 165.641C265.135 165.335 266.854 164.953 268.566 164.539L269.079 164.413C269.089 164.129 269.201 163.827 269.435 163.539C270.287 162.502 271.905 161.971 273.027 161.238C274.203 160.471 275.342 159.643 276.428 158.757C277.421 157.946 278.375 157.089 279.293 156.193L279.568 155.922C279.477 156.013 279.385 156.103 279.293 156.193C276.815 157.337 274.466 158.805 271.878 159.711C269.822 160.434 267.665 160.922 265.489 161.094L265.354 161.105L265.219 161.114C262.947 161.277 260.662 161.211 258.425 161.703C258.174 161.759 258.096 161.423 258.32 161.328C260.275 160.515 262.307 160.201 264.362 159.821C264.406 159.66 264.517 159.516 264.712 159.424L265.238 159.173C266.803 158.421 268.262 157.662 269.564 156.441C270.712 155.362 271.669 154.101 272.387 152.703C269.512 153.334 266.988 155.513 264.374 156.738C261.526 158.075 258.512 159.034 255.416 159.58L255.063 159.64C249.277 160.606 242.319 160.483 237.135 157.473C236.97 157.376 237.089 157.155 237.26 157.181C238.73 157.422 240.185 157.707 241.641 157.96C241.356 157.7 241.23 157.232 241.558 156.857C242.866 155.358 243.9 153.645 244.561 151.771L244.687 151.404C244.991 150.535 245.506 149.184 244.981 148.4C244.479 147.652 243.299 147.755 242.593 148.071C241.125 148.734 240.149 150.387 238.912 151.386C237.564 152.476 236.03 153.285 234.46 154.008L234.129 154.159C231.413 155.381 228.512 156.41 226.376 158.567C225.227 159.726 224.239 161.175 223.908 162.799C223.757 163.544 223.757 164.311 223.957 165.049C224.115 165.626 224.446 165.982 224.256 166.569C224.008 167.326 223.129 168.232 222.676 168.906C222.151 169.686 221.627 170.467 221.104 171.249C220.06 172.812 219.02 174.38 217.981 175.946C215.902 179.083 213.845 182.234 211.805 185.395C211.142 186.424 210.48 187.454 209.821 188.486L208.833 190.033L208.312 190.85L207.421 192.249C207.453 192.379 207.451 192.515 207.409 192.634C207.258 193.066 206.973 193.362 206.62 193.576L206.557 193.613C201.363 201.827 196.251 210.094 191.088 218.327C190.813 220.84 190.555 223.356 190.331 225.871C189.822 231.564 189.474 237.273 189.362 242.988C189.309 245.754 189.53 248.537 189.65 251.301C189.708 252.62 189.788 253.938 189.892 255.255L189.969 256.189C190.072 257.472 190.13 258.745 189.669 259.968C189.26 261.042 188.014 261.283 187.276 260.465C177.654 260.078 168.024 259.783 158.395 259.6C141.158 259.269 123.915 259.32 106.676 259.654C98.0174 259.822 89.3566 260.058 80.7007 260.35C76.436 260.491 72.1689 260.691 67.9018 260.75C65.6028 260.781 61.9845 259.944 61.799 257.356L61.7944 257.277C61.5072 257.355 61.2102 257.418 60.906 257.465C60.7705 257.485 60.6404 257.479 60.5202 257.451L60.4605 257.435C57.0335 258.48 52.6985 256.989 49.4421 256.121L49.1733 256.05C46.0648 255.239 43.5674 254.08 41.53 251.503C37.9639 246.991 36.7468 240.932 36.1139 235.349C35.52 230.094 35.4859 224.741 36.2089 219.496C35.7829 215.223 36.1991 210.813 36.6835 206.563C36.922 204.462 37.202 202.362 37.5379 200.273C37.7253 199.107 37.9712 197.952 38.2219 196.801C38.322 196.34 38.4053 195.845 38.5322 195.366L38.5894 195.162C38.2 195.213 37.774 195.128 37.3626 194.901C36.3841 194.363 36.0993 193.275 36.0822 192.233C36.0287 189.091 36.4035 185.86 36.7346 182.738C37.0681 179.621 37.5257 176.492 38.1245 173.414L38.2795 172.62C38.7332 170.318 39.2524 167.941 40.1668 165.777C36.7322 165.193 33.3073 164.572 29.975 163.515C28.3489 162.996 26.7472 162.351 25.2186 161.564ZM202.96 194.256C202.907 194.268 202.856 194.283 202.804 194.297C201.432 194.682 200.044 195.008 198.661 195.359C196.271 195.961 193.934 196.633 191.712 197.677C191.246 203.556 190.556 209.415 189.9 215.277L189.769 216.45C190.777 214.58 191.809 212.724 192.888 210.891C196.171 205.302 199.53 199.757 202.96 194.256ZM37.9002 194.838C37.9075 195.537 37.7615 196.263 37.6836 196.935C37.557 198.026 37.4548 199.122 37.3258 200.212C37.0629 202.404 36.8389 204.598 36.6758 206.799C36.5712 208.205 36.503 209.615 36.4422 211.025C37.8224 205.864 39.6504 200.816 41.3884 195.761C41.0979 195.73 40.8009 195.659 40.4946 195.578L39.9789 195.439C39.6748 195.361 38.6883 195.118 37.9002 194.838ZM207.307 190.033L207.317 190.265C207.354 191.085 206.862 191.548 206.265 191.667C206.611 191.122 206.959 190.576 207.307 190.033ZM49.3774 151.14C50.8307 151.268 52.2546 151.578 53.6129 152.114L53.744 152.165C54.7486 152.553 56.2175 153.04 56.5461 154.113C56.6386 154.417 56.3903 154.668 56.1055 154.693C55.015 154.78 53.7298 153.611 52.7196 153.217C51.595 152.778 50.4168 152.452 49.2241 152.279C46.5441 151.887 43.7496 152.184 41.2278 153.161C41.0793 153.219 40.9868 152.983 41.1207 152.912C43.662 151.529 46.4881 150.884 49.3774 151.14ZM18.5831 158.104C18.415 157.955 18.2471 157.799 18.0815 157.644C16.7765 156.409 15.6208 154.967 14.7651 153.383L14.5399 152.955C13.8429 151.605 12.9871 149.682 14.625 148.709C15.6035 148.127 16.7817 148.273 17.8722 148.626C17.9428 148.648 18.0134 148.673 18.084 148.697C18.5708 148.868 19.0406 149.072 19.4593 149.267C21.2776 150.102 22.8817 151.317 24.5613 152.389C26.3812 153.55 28.1782 154.293 30.2786 154.728L30.4764 154.768C32.448 155.158 34.5853 155.408 35.9606 157.03C36.3062 157.439 35.9898 158.206 35.3934 158.004C31.5912 156.721 27.5675 156.438 24.0769 154.332C22.631 153.46 21.263 152.459 19.7855 151.634C19.0017 151.195 18.1924 150.812 17.33 150.549L16.8589 150.41C16.5829 150.329 16.2535 150.249 16.032 150.329C15.6103 150.475 15.7449 150.701 15.8753 151.095L15.8883 151.135C16.9131 154.305 19.8341 156.959 22.5409 158.715C23.1617 159.119 23.797 159.49 24.4445 159.833C28.8273 162.17 33.7314 163.258 38.548 164.549C38.548 164.549 41.3329 165.327 42.2554 165.619C43.2826 165.533 44.4535 165.896 45.2275 166.33C45.9797 166.751 46.5858 167.316 47.0434 167.981C47.0434 167.981 47.484 168.349 47.5644 168.918C47.7956 169.447 47.9514 170.016 48.0293 170.611C48.0731 170.959 47.9855 171.227 47.8199 171.417C48.3178 179.061 46.2538 186.663 43.9267 193.928L43.6961 194.644L43.548 195.098C41.0383 202.801 38.1587 210.447 36.8735 218.478C36.0142 223.843 36.041 229.395 36.6714 234.784L36.7159 235.155C37.337 240.25 38.5322 245.966 41.771 250.067C43.423 252.159 45.3802 253.089 47.8825 253.763L48.0195 253.8C50.2833 254.396 52.6201 255.241 54.9545 255.497C57.1209 255.733 58.9368 254.927 60.8866 254.172L60.889 254.17C64.9955 250.534 66.86 245.24 68.2378 239.897C71.8087 226.071 71.3657 211.718 69.3405 197.689C68.284 190.36 66.8479 183.093 65.4166 175.829C64.7009 172.199 63.9293 168.575 63.2891 164.932L62.9089 162.788C62.6991 161.597 62.4962 160.405 62.3227 159.207C62.0891 157.597 62.0185 156.015 61.9381 154.395C59.9713 151.135 57.116 148.449 53.808 146.522C51.4395 145.142 48.9323 144.185 46.3448 143.491C38.9473 141.496 30.8829 141.638 23.4392 140.103C20.9385 139.589 18.5648 138.824 16.1924 137.909L15.8689 137.783C14.7808 137.359 13.6708 137.123 13.1304 138.406C12.7458 139.319 12.9747 140.269 13.5516 141.036C14.9658 142.916 17.8089 143.788 19.9486 144.465C21.2363 144.874 22.5507 145.198 23.8798 145.439C25.2088 145.68 26.5428 145.741 27.8183 146.211C28.31 146.391 28.4073 147.173 27.8183 147.311C26.202 147.689 24.5759 147.365 22.9694 147.051C21.2046 146.702 19.4666 146.208 17.7773 145.583C17.4657 145.468 17.1432 145.346 16.8148 145.218L16.5675 145.12C16.8231 145.305 17.0787 145.488 17.3367 145.67C17.4049 145.719 17.3635 145.848 17.2734 145.816C13.3013 144.334 9.68718 141.659 6.88735 138.494L6.74803 138.336C5.76219 137.206 3.51545 133.787 1.62166 134.739C-0.156654 135.632 2.87475 139.074 4.02677 140.482L4.16055 140.647C5.47014 140.681 6.73835 141.496 7.79965 142.154C9.64232 143.296 11.5678 144.28 13.5297 145.2C17.4293 147.034 21.5698 148.327 25.428 150.253C25.4791 150.28 25.4401 150.345 25.3914 150.338C22.9354 149.946 20.5061 149.32 18.1327 148.544L18.0268 148.511L17.921 148.475C16.4385 147.988 14.9756 147.438 13.537 146.851C11.9377 146.199 10.375 145.466 8.85851 144.635C7.48564 143.885 5.96184 142.534 4.36989 142.334C4.1995 142.312 4.04858 142.31 3.91714 142.322C2.08909 142.475 3.60072 145.505 4.11189 146.41C4.94682 147.898 5.95457 149.272 7.1108 150.526C9.45491 153.073 12.2956 155.092 15.37 156.662C16.4191 157.198 17.4926 157.67 18.5831 158.104Z" fill="black"/>
<path fill-rule="evenodd" clip-rule="evenodd" d="M133.627 0.421903C134.231 -0.262659 135.161 -0.0278659 135.725 0.513451C136.093 0.6218 136.449 0.782924 136.785 0.996177C137.546 0.898598 138.342 0.898598 139.088 0.925954C139.269 0.824498 139.463 0.734242 139.674 0.656696C141.181 0.105471 142.516 0.385499 143.617 1.12348C144.147 0.621585 144.816 0.30666 145.671 0.354265C146.434 0.396916 146.978 0.756214 147.445 1.22946C147.909 0.558902 148.661 0.0804836 149.597 0.013923C150.906 -0.0791327 152.164 0.445813 153.206 1.25854C153.814 0.561486 154.642 0.16083 155.565 0.156953C156.172 0.0466648 156.813 0.0901769 157.392 0.265087C158.232 0.519051 158.97 0.994884 159.558 1.61245C160.488 0.721533 161.627 0.0804836 162.939 0.17397C164.638 0.296752 166.046 1.54633 166.701 3.08433C167.851 3.54508 168.912 4.20229 169.799 5.13931C169.847 5.18863 169.892 5.24033 169.939 5.29224C170.417 5.46866 170.867 5.71875 171.263 6.04811C172.519 7.09304 172.799 8.6052 172.383 10.087C172.441 10.3241 172.491 10.5654 172.536 10.8064C173.712 10.9852 174.78 11.664 175.387 12.769C176.218 14.2855 176.054 16.2842 175.154 17.732C174.767 18.3547 174.276 18.8794 173.725 19.3383C174.348 20.7556 174.049 22.447 173.043 23.5934C172.798 23.9887 172.498 24.3454 172.159 24.6683C172.533 26.1337 171.868 27.6456 170.542 28.4286L170.428 28.7127C170.409 28.7599 170.39 28.8069 170.37 28.8534C170.355 28.9137 170.337 28.9721 170.319 29.0309C170.288 29.5509 170.116 30.0612 169.777 30.542C169.081 31.5273 168.219 32.1698 167.762 33.3201L167.716 33.4409C167.519 33.9853 166.884 34.3693 166.344 34.2013C169.347 40.3708 170.921 47.2356 172.002 53.9631C172.541 57.3194 172.957 60.6873 173.294 64.0681L173.625 67.4348C173.916 70.4273 174.175 73.4298 174.177 76.4322C174.181 83.2242 172.239 89.7572 168.07 95.162C164.128 100.271 158.549 103.974 152.246 105.432C145.739 106.936 138.106 106.344 132.271 102.901C130.55 101.889 132.058 99.4548 133.808 100.269C137.122 101.812 140.49 102.958 144.163 103.214C147.744 103.466 151.333 103.018 154.729 101.846C160.347 99.9053 165.127 95.8405 168.199 90.7785C169.713 88.2839 170.809 85.5764 171.393 82.7156C172.119 79.15 172.01 75.4646 171.743 71.8534L171.724 71.6073C171.197 64.6495 170.501 57.6487 169.377 50.7603C168.384 44.6688 166.856 38.7007 164.873 32.8647C164.096 32.1806 163.227 31.6145 162.297 31.1845C155.487 30.9 148.665 30.9831 141.863 31.4532C136.063 31.8566 130.291 32.5392 124.562 33.5341L123.949 33.6419C122.68 33.8679 121.272 33.9971 120.077 34.5078C119.052 34.9473 118.637 35.7917 118.378 36.8297C117.728 39.4555 117.629 42.3292 117.519 45.0218C117.411 47.6539 117.655 50.3079 117.444 52.9313C117.265 55.1263 116.703 57.373 115.077 58.9608C114.227 59.792 113.18 60.2465 112.198 60.8777C111.563 61.285 111.294 61.7048 111.376 62.4588C111.552 64.1088 112.881 66.1875 111.389 67.6005C111.126 67.8482 110.672 67.8806 110.413 67.6005C109.798 66.9308 108.947 66.4201 108.217 65.8794C107.911 65.6556 108.165 65.2205 108.512 65.3754C108.969 65.5802 109.434 65.8215 109.91 66.0326C108.859 65.1666 107.364 64.7421 106.12 64.4901C105.493 64.3651 104.834 64.3285 104.182 64.3869C103.7 64.6171 103.207 64.8306 102.714 65.0393C102.087 65.3023 101.454 65.5412 100.817 65.7676C98.6052 67.5704 97.5501 70.5023 98.0109 73.3693C98.2628 74.9524 98.9927 76.6737 100.369 77.5978C101.999 78.692 104.182 78.2222 105.943 79.0345C107.593 79.7947 108.596 81.3308 109.348 82.9205L109.661 83.5823C110.358 85.0477 111.075 86.4742 112.028 87.8078C113.131 89.3523 114.481 90.7395 115.954 91.9309C116.668 92.5075 117.43 93.0261 118.217 93.4985L118.432 93.6262C119.229 94.0936 119.799 94.5393 119.853 95.528C119.87 95.8726 119.653 96.1871 119.373 96.3659C118.167 97.1306 116.968 96.1742 115.964 95.5064C114.881 94.787 113.846 93.9773 112.887 93.0941C111.066 91.4182 109.49 89.4279 108.277 87.2671C107.354 85.6216 106.828 83.306 105.368 82.0308C104.477 81.253 103.217 81.2467 102.104 81.1044C101.068 80.971 100.089 80.7556 99.1671 80.2451C95.4184 78.1621 94.359 73.1195 95.2483 69.2228C95.399 68.5655 95.61 67.9258 95.8706 67.3097C94.4753 67.5424 92.9077 66.0994 93.474 64.643C93.5171 64.5331 93.5666 64.43 93.614 64.3242C92.6946 63.7189 91.9689 62.8015 91.6244 61.6015C91.4478 60.9811 91.422 60.3542 91.5146 59.749C91.0689 59.4498 90.7007 59.0381 90.4638 58.5319C89.7231 58.1894 89.0664 57.677 88.6745 56.9446C88.1319 55.9341 88.2008 55.0036 88.6142 54.1656C88.5561 54.0603 88.5001 53.9526 88.4463 53.8425C86.9282 52.8799 85.8688 51.221 85.9894 49.3814C86.0282 48.7718 86.1789 48.2226 86.4115 47.7273C86.3921 47.6649 86.3727 47.6 86.3555 47.5376C85.0851 46.8913 84.0343 45.8296 83.6596 44.4122C83.285 42.986 83.7264 41.5643 84.6092 40.4701C83.3173 39.5247 82.54 38.2042 83.0115 36.2072C83.2032 35.3953 83.5886 34.6562 84.1097 34.0337C84.1075 34.0146 84.1032 33.9952 84.0989 33.9756L83.978 33.8818C82.3831 32.6227 81.4663 31.0182 82.4452 29.0449C82.8845 28.1576 83.5111 27.5392 84.2475 27.1321L84.2841 27.0158V27.0158C83.7565 25.8849 83.5778 24.6291 83.9417 23.3086C84.2389 22.221 84.943 21.3549 85.843 20.78C85.7827 20.2929 85.7913 19.774 85.8882 19.2116C86.0497 18.2619 86.5213 17.4326 87.2103 16.8445C87.2361 16.7193 87.2684 16.5968 87.305 16.4738C87.5376 15.7222 87.9725 14.9058 88.4764 14.3003C88.892 13.7984 89.3571 13.6153 89.9255 13.596C89.8911 13.133 89.9147 12.6632 90.0095 12.1872C90.3002 10.7183 91.2347 9.33736 92.6192 8.71053C93.1876 8.4542 93.7862 8.37902 94.3633 8.44127C94.8542 7.40732 95.8124 6.65792 96.9902 6.49637C97.4489 6.43175 97.8752 6.43584 98.2671 6.49421C98.4889 6.3906 98.7193 6.29819 98.9604 6.21397C99.1198 6.15796 99.2813 6.10627 99.4428 6.05478C99.9875 5.37841 100.705 4.83752 101.542 4.51247C102.509 4.13551 103.493 4.17407 104.365 4.49072L104.643 4.43256V4.43256C105.078 3.67863 105.771 3.09488 106.837 2.82993C108.047 2.53052 109.289 2.94841 110.241 3.70901C110.245 3.70901 110.25 3.70901 110.256 3.70664C110.754 2.59299 111.604 1.81752 113.032 1.87137C113.921 1.90584 114.724 2.34764 115.344 2.97662C115.689 2.93333 116.033 2.89455 116.38 2.856C116.746 2.42712 117.153 2.02668 117.603 1.66695C118.339 1.07652 119.298 1.12413 119.84 1.95538C119.959 2.13632 120.068 2.31942 120.178 2.50251L120.676 2.46805V2.46805C121.261 1.67751 122.06 1.1433 123.154 1.10043C124.157 1.05929 124.872 1.55063 125.417 2.23756C125.861 2.22679 126.306 2.21839 126.752 2.21172C127.271 1.61073 127.883 1.08083 128.58 0.641402C129.114 0.305368 129.902 0.419749 130.335 0.867795C130.627 1.17238 130.9 1.49032 131.153 1.81946C131.805 1.08794 132.686 0.606076 133.627 0.421903ZM101.936 68.8241C102.942 68.2511 104.294 68.8715 105.267 69.3583C106.454 69.9507 107.631 70.8446 108.357 71.9647C109.345 73.4898 107.022 74.7219 105.982 73.3541C105.343 72.5119 104.832 71.6632 104.057 70.9265C103.349 70.2501 102.322 69.7978 101.915 68.906C101.9 68.8758 101.904 68.8413 101.936 68.8241Z" fill="black"/>
<path fill-rule="evenodd" clip-rule="evenodd" d="M175.337 61.1611C173.706 74.6822 159.851 76.5417 157.027 63.2369C157.418 63.0528 157.694 62.7036 157.617 62.0419C157.525 59.1285 158.347 56.0248 160.932 54.3344C163.602 52.5901 166.775 52.3396 169.919 52.2981C175.911 51.9956 175.918 57.0126 175.337 61.1611M154.654 55.8505C152.77 55.8212 150.391 55.9511 148.736 57.1429C148.239 55.9068 146.999 54.6058 145.764 53.9255C150.29 53.9374 154.933 53.3682 159.479 52.9012C158.409 53.6739 157.424 54.8183 156.799 56.1275C156.178 55.8174 155.303 55.8712 154.654 55.8505M146.553 63.3569C141.813 81.4639 128.58 73.9792 127.098 71.7143C124.436 67.9719 123.707 58.7217 125.872 56.1856C129.006 53.861 133.543 54.317 137.314 54.1615C144.247 54.0705 149.225 56.0136 146.553 63.3569M181.316 54.1609C179.894 54.0132 178.378 54.0162 177.076 54.6757C176.624 52.9608 175.312 51.5521 173.856 50.9555C173.677 50.7417 173.7 50.6236 173.106 50.6723C169.424 49.6715 165.353 50.3613 161.873 51.5809C156.342 52.1955 150.537 52.7185 144.964 53.5109C139.665 51.2979 123.855 51.374 123.027 57.1982C121.787 57.0463 119.657 56.1297 118.654 57.4767C111.006 56.3882 103.187 58.3923 95.5614 59.3952C93.6461 59.8011 92.7564 63.6489 94.9399 63.5385C96.1594 63.1722 94.8388 61.1599 96.4887 60.9619C103.845 59.9593 111.031 58.6235 118.481 58.2911C118.256 59.5855 123.447 59.5311 123.504 58.7772C123.515 58.7826 123.527 58.786 123.538 58.7907C122.383 63.6053 123.724 70.4542 126.12 73.3568C129.47 77.1518 137.651 78.0483 141.199 75.4547C145.799 73.0255 150.341 61.326 148.877 57.5183C151.328 56.6685 153.779 56.8388 156.356 57.1697C155.813 58.8455 154.907 62.9591 156.376 63.2747C156.324 71.3953 163.84 76.2613 170.556 72.7518C176.371 69.8292 178.198 61.0201 177.336 55.7257C178.107 57.1234 184.221 55.4165 181.316 54.1609" fill="black"/>
</svg>
