<svg width="905" height="816" viewBox="0 0 905 816" fill="none" xmlns="http://www.w3.org/2000/svg">
<path d="M467.695 813.293L903 628.342V2H4L467.695 813.293Z" fill="white" stroke="black" stroke-width="4"/>
<mask id="mask0" mask-type="alpha" maskUnits="userSpaceOnUse" x="0" y="0" width="905" height="816">
<path d="M467.695 813.293L903 628.342V2H4L467.695 813.293Z" fill="white" stroke="white" stroke-width="4"/>
</mask>
<g mask="url(#mask0)">
<path fill-rule="evenodd" clip-rule="evenodd" d="M477.275 83.6825C492.042 26.4207 505.622 2.14224 531.853 -17.7603C556.389 -36.3763 592.205 -52.0116 644.465 -63.4327C698.897 -72.9477 700.441 -101.233 714.089 -146.693C718.07 -160.36 737.8 -163.996 746.316 -154.146C747.516 -155.441 748.768 -156.628 750.064 -157.7C748.904 -164.218 758.396 -182.899 758.079 -189.134C754.769 -254.21 776.059 -286.889 829.196 -299.037C840.752 -301.68 919.246 -303.236 930.513 -300.122C979.772 -286.505 1028.26 -243.273 1020.84 -191.194C1036.3 -170.991 1051.44 -158.66 1075.29 -152.151C1128.38 -145.411 1181.46 -139.419 1234.57 -134.288C1338.51 -117.989 1435.97 -62.9796 1502.58 17.2469C1508.72 24.6525 1510.5 34.7045 1505.08 42.6018C1509.32 60.7911 1533.23 104.913 1514.42 117.383C1545.36 191.358 1616.54 334.344 1616.67 375.194C1617.23 546.803 1598.69 770.175 1429.32 865.142C1422.53 871.807 1421.56 879.183 1418.63 889.1C1411.18 920.342 1384.14 942.67 1354.54 940.848C1208.72 944.088 1067.49 926.302 921.674 925.44C857.368 925.06 780.035 934.657 724.173 941.05C668.311 947.444 611.921 941.789 558.313 925.44C553.792 932.556 544.653 936.701 535.382 934.657C479.808 923.618 434.867 889.377 395.725 851.953C383.763 830.198 337.051 768.213 355.618 746.637C338.786 675.496 339.661 599.055 369.571 531.313C365.331 518.895 373.059 505.248 369.571 492.425C367.047 483.145 360.582 479.307 357.328 470.118C352.749 457.187 357.729 439.84 362.884 426.645C364.997 420.068 358.996 412.99 357.328 406.279C349.418 374.628 367.531 377.418 380.589 356.258C380.395 356.193 376.999 341.087 377.014 341.163C375.015 330.378 380.024 316.562 384.393 307.559C387.346 301.475 393.671 297.667 399.956 298.365C393.627 276.882 385.622 259.005 377.014 238.307C361.791 201.823 342.521 166.886 320.661 133.862C311.709 120.34 323.732 104.673 338.219 103.751C385.109 100.773 431.485 94.0231 477.275 83.6825Z" fill="white"/>
<path fill-rule="evenodd" clip-rule="evenodd" d="M614.123 359.587C632.877 352.235 653.071 348.17 673.367 346.593C662.44 344.679 651.48 342.832 640.433 341.884C632.725 341.223 625.577 341.291 619.783 347.137C615.919 351.032 614.106 356.046 611.565 360.655C612.395 360.282 613.259 359.926 614.123 359.587ZM412.826 290.839C443.54 292.399 474.289 299.701 502.073 312.931C513.44 318.352 523.741 326.179 526.756 339.054C528.281 345.629 527.908 352.423 527.097 359.064C526.485 364.094 526.333 370.514 521.962 373.92C521.217 374.496 520.42 374.936 519.59 375.258C529.84 379.883 539.6 385.441 548.274 391.166C556.2 396.401 564.349 404.465 568.009 413.562C568.313 412.529 568.618 411.565 568.923 410.648C575.158 392.218 584.764 377.123 599.892 366.974C597.215 365.772 595.369 362.925 596.233 358.996C599.824 342.578 614.989 328.313 632.115 329.33C650.869 330.431 671.012 337.258 687.972 345.882C694.154 345.746 700.322 345.831 706.419 346.102C707.47 346.136 707.419 347.56 706.419 347.677C701.473 348.306 696.526 348.999 691.579 349.812C679.822 351.694 668.098 354.081 656.631 357.046C642.872 360.605 628.642 364.178 615.783 370.396C590.847 382.477 575.412 414.055 578.58 441.533C579.105 446.039 580.85 459.66 587.103 458.254C592.387 457.068 594.488 446.039 596.335 441.956C601.281 431.114 610.193 424.032 620.883 419.238C633.436 413.596 646.871 409.784 659.883 405.347C667.251 402.823 674.621 400.297 682.007 397.79C689.563 395.2 696.746 391.623 704.793 393.436C709.655 394.537 710.214 400.331 707.487 403.653C703.336 408.717 697.17 410.208 691.189 412.292C683.295 415.036 675.417 417.782 667.539 420.525C655.36 424.761 642.601 428.335 630.727 433.519L631.098 434.366C632.066 434.095 633.201 435.061 633.013 436.247C631.234 447.208 628.76 459.88 631.506 470.86C633.673 479.566 641.316 489.207 651.241 486.647C649.683 485.224 649.107 482.768 650.157 480.498C654.089 472.095 705.589 438.924 710.18 451.242C710.333 451.68 709.86 452.002 709.486 451.936C705.572 451.121 699.016 457.796 695.884 459.914C691.36 462.965 686.769 465.945 682.295 469.079C677.399 472.503 672.621 476.095 667.963 479.803C664.303 482.719 661.542 485.749 657.342 487.225C659.543 488.274 661.289 490.222 662.033 492.712C663.931 499.201 667.59 504.707 673.943 507.572C680.601 510.552 688.106 508.671 695.12 509.401C704.675 510.365 713.01 514.907 719.973 521.396C734.593 535.049 741.929 559.107 762.377 565.56C774.592 569.408 788.145 566.983 800.512 565.238C814.319 563.29 827.77 561.748 841.679 563.781C854.995 565.731 867.583 570.338 879.747 575.962C891.148 581.231 903.752 587.196 913.866 595.055C915.95 588.634 918.051 582.281 919.645 575.725C923.404 560.225 925.437 544.434 925.93 528.51C926.386 513.349 925.539 498.118 924.236 483.022C923.591 475.483 922.574 467.978 921.931 460.439C921.763 458.542 921.422 456.509 921.168 454.477C903.109 443.82 884.136 435.656 865.009 427.253C864.957 427.236 864.906 427.2 864.855 427.185C864.262 426.912 863.686 426.66 863.093 426.406C863.11 426.37 863.127 426.338 863.161 426.302C860.976 424.966 859.451 423.185 858.536 421.186C830.972 402.906 807.932 377.953 790.754 348.846C783.554 336.649 776.624 323.993 767.205 313.305C757.176 301.902 745.266 295.125 730.527 291.601C713.298 287.469 695.543 284.994 677.89 283.588C668.251 282.828 657.478 281.64 646.972 281.692C639.654 281.742 632.489 282.368 625.914 284.181C616.173 286.858 610.481 294.263 604.365 301.749C598.52 308.934 592.709 316.134 587.254 323.622C582.089 330.719 577.208 338.055 572.972 345.746C570.431 350.354 568.076 355.099 566.094 359.994C565.4 361.723 564.485 363.687 564.061 365.483C563.638 367.295 564.417 369.212 562.384 369.212C570.77 369.328 570.685 382.729 562.35 382.238C529.721 380.34 576.462 316.643 583.291 307.764C592.965 295.193 602.942 278.794 618.426 272.949C618.646 272.864 618.883 272.781 619.104 272.712C614.597 268.443 611.04 263.328 607.634 258.125C604.128 252.772 599.945 246.639 598.791 240.286C598.063 236.239 603.094 233.933 605.483 237.474C608.956 242.641 610.633 249.18 613.225 254.857C615.868 260.616 619.087 266.054 621.628 271.865C627.744 269.984 634.351 269.122 641.077 268.834C632.589 257.348 618.089 235.187 616.342 232.341C608.312 219.16 600.672 205.575 593.37 191.969C585.477 177.23 578.715 161.881 571.16 146.973C566.873 138.521 562.553 129.998 557.793 121.798C556.15 118.986 554.388 116.174 552.389 113.616C551.999 113.109 551.508 112.685 551.05 112.209C550.525 111.921 549.983 111.6 549.678 111.432C546.935 109.856 545.968 106.197 544.038 103.874C540.953 100.132 537.328 99.6914 532.686 99.6389C522.794 99.5373 512.864 99.9269 502.988 100.198C488.469 100.605 473.967 101.181 459.465 101.943C455.077 102.18 450.707 102.417 446.319 102.688C425.227 103.944 404.152 105.585 383.127 107.603C364.526 109.38 345.924 112.279 327.306 113.668C352.514 173.556 380.468 232.359 412.116 289.113C412.436 289.687 412.675 290.263 412.826 290.839ZM552.694 445.124C556.76 446.989 560.707 449.309 564.383 451.953C563.773 447.837 563.621 443.498 563.79 439.144C560.758 442.397 556.878 444.26 552.694 445.124ZM379.129 342.105C379.417 342.138 379.689 342.29 379.824 342.578C385.449 354.183 383.095 367.143 373.912 376.241C369.1 380.984 358.613 386.338 358.954 394.131C359.242 400.433 366.102 405.719 369.032 410.92C371.76 415.765 372.776 421.084 370.591 426.338C367.796 433.062 359.986 435.739 357.309 442.348C353.921 450.732 359.427 460.848 363.289 468.148C366.881 474.907 371.524 481.667 374.606 488.816C395.258 499.508 413.741 515.907 429.632 532.56C447.03 550.772 461.956 572.201 489.587 571.661C492.349 571.608 494.449 573.067 495.703 575.081C503.394 575.437 511.103 575.59 518.794 575.625C532.313 575.691 545.833 575.556 559.335 575.132C560.283 571.863 559.589 567.426 559.641 564.662C559.809 555.768 559.894 546.891 560.267 537.997C560.368 535.525 560.47 533.033 560.571 530.56C555.709 539.352 546.222 543.35 535.414 542.74C518.032 541.726 500.548 538.878 483.338 536.32C474.272 534.981 465.225 533.456 456.196 531.83C448.775 530.509 438.306 530.849 433.122 524.901C431.902 523.514 431.834 520.972 433.748 520.039C438.882 517.515 442.117 518.921 447.761 520.007C454.637 521.343 461.532 522.614 468.446 523.802C481.711 526.104 495.008 528.239 508.341 530.119C515.931 531.186 523.538 532.237 531.144 533.067C537.785 533.778 545.273 534.744 550.627 529.748C561.419 519.649 555.37 502.725 548.543 492.526C548.408 492.325 548.408 492.136 548.458 491.967C542.021 490.459 535.6 488.697 529.196 487.461C516.88 485.089 504.479 483.092 492.061 481.313C466.547 477.669 440.864 475.263 415.216 472.842C408.863 472.23 408.795 462.237 415.216 462.83C452.064 466.201 489.096 469.401 525.452 476.501C534.567 478.262 543.615 480.261 552.609 482.514C556.861 483.566 561.419 485.209 565.874 485.26C566.145 485.26 566.418 485.26 566.687 485.241C575.412 484.972 576.683 477.501 571.888 471.283C571.295 470.519 570.685 469.757 570.059 469.03C561.588 458.931 551.035 452.189 540.159 445.209C527.976 443.549 515.829 439.855 503.903 437.145C474.459 430.436 445.014 423.727 415.553 417.035C409.778 415.714 412.233 406.837 418.01 408.141C440.373 413.208 462.735 418.272 485.099 423.338L517.828 430.76C524.368 432.232 532.535 435.197 540.227 436.266C544.02 436.789 547.696 436.857 551.017 436.079C561.74 433.538 562.283 420.136 557.658 412.173C552.474 403.23 542.681 397.638 533.99 392.572C518.93 383.78 502.903 377.46 487.249 370.176C484.471 369.566 481.693 368.956 478.914 368.346C462.752 364.788 444.286 363.043 429.073 356.523C424.515 354.59 427.007 347.406 431.512 347.508C443.32 347.764 455.671 351.964 467.208 354.454C479.693 357.165 492.196 359.858 504.682 362.552C505.936 362.823 513.356 365.195 514.474 364.67C515.186 364.331 515.44 361.859 515.677 360.231C516.441 354.878 516.998 349.255 516.168 343.883C514.339 331.837 504.292 326.179 494.127 321.554C471.494 311.271 446.675 304.835 421.974 302.258C416.282 301.665 410.59 301.294 404.863 301.106C398.139 300.902 392.598 299.717 389.193 306.341C383.839 316.776 380.891 330.196 379.129 342.105ZM410.562 720.481C415.494 703.424 414.152 685.212 417.53 667.815C419.274 658.84 421.654 649.935 424.253 641.173C426.35 634.095 429.848 626.566 430.245 619.18C430.269 618.687 429.688 618.402 429.288 618.629C422.33 622.614 416.987 631.229 413.019 637.988C408.269 646.078 404.641 654.548 401.716 663.454C395.884 681.197 391.097 702.599 398.617 720.481C400.855 725.804 408.716 726.869 410.562 720.481ZM562.977 494.559C558.81 494.154 554.642 493.356 550.475 492.424C555.133 496.966 559.437 502.437 561.827 508.504C562.198 503.845 562.674 499.201 563.299 494.578C563.198 494.578 563.079 494.578 562.977 494.559ZM603.03 849.601C610.379 844.473 615.734 837.303 621.967 830.976C628.096 824.753 618.514 815.169 612.383 821.394C607.065 826.79 602.449 833.532 596.191 837.898C593.179 839.997 591.784 843.794 593.758 847.17C595.503 850.15 600.026 851.697 603.03 849.601ZM644.015 652.493C630.599 646.693 617.405 640.375 603.364 636.197C594.973 633.699 591.42 646.782 599.76 649.264C612.692 653.115 624.82 658.855 637.174 664.195C645.106 667.624 651.999 655.944 644.015 652.493ZM785.695 648.434C788.976 640.339 775.859 636.851 772.626 644.832C768.904 654.018 764.638 662.968 760.916 672.154C757.638 680.248 770.753 683.738 773.985 675.757C777.707 666.571 781.975 657.621 785.695 648.434ZM925.537 810.087C927.723 813.001 931.367 814.58 934.809 812.52C937.693 810.792 939.453 806.197 937.241 803.248C930.781 794.638 924.236 786.132 916.665 778.456C910.527 772.233 900.949 781.824 907.082 788.039C913.843 794.894 919.767 802.397 925.537 810.087ZM945.533 -96.9384C939.313 -92.6895 933.863 -87.5275 928.548 -82.2164C922.37 -76.0413 931.955 -66.4592 938.133 -72.6344C942.611 -77.1103 947.128 -81.6539 952.374 -85.2353C955.405 -87.3056 956.766 -91.1563 954.805 -94.5073C953.049 -97.5094 948.557 -99.0019 945.533 -96.9384ZM742.083 121.16C745.6 128.202 748.766 135.106 748.966 143.111C749.18 151.83 762.733 151.835 762.518 143.111C762.258 132.636 758.396 123.552 753.786 114.319C749.886 106.504 738.2 113.377 742.083 121.16ZM667.436 -54.0023C660.149 -58.8594 653.371 -47.1139 660.593 -42.2992C666.448 -38.3976 672.305 -34.4926 678.16 -30.5893C685.443 -25.7339 692.221 -37.4777 685.001 -42.2924C679.146 -46.1957 673.291 -50.099 667.436 -54.0023ZM991.211 252.252C992.454 260.865 1005.51 257.18 1004.28 248.65C1002.38 235.466 1000.05 222.457 996.473 209.616C994.132 201.213 981.061 204.804 983.404 213.219C986.981 226.061 989.307 239.07 991.211 252.252ZM1038.73 407.502C1047.45 407.318 1047.45 393.765 1038.73 393.949C1030.84 394.117 1023.07 396.194 1015.46 398.095C1006.99 400.211 1010.6 413.278 1019.06 411.163C1025.5 409.556 1032.05 407.645 1038.73 407.502ZM1056.27 720.24C1059.27 721.699 1062.34 723.012 1065.37 724.397C1071.44 727.171 1077.5 729.947 1083.56 732.731C1096.19 738.528 1108.81 744.344 1121.42 750.18C1146.66 761.865 1172.1 773.138 1197.41 784.695C1223.21 796.483 1248.94 808.427 1274.65 820.431C1286.76 826.085 1298.96 831.531 1311.14 837.037C1321.55 841.745 1334.42 849.972 1345.85 850.746C1346.44 850.787 1346.63 850.043 1346.3 849.662C1341.98 844.751 1335.09 841.894 1329.42 838.703C1323.62 835.44 1317.71 832.372 1311.83 829.259C1299.58 822.766 1287.31 816.325 1274.93 810.06C1250.18 797.535 1225.38 785.1 1200.58 772.68C1175.28 760.013 1150.02 747.261 1124.5 735.045C1112.49 729.292 1100.46 723.557 1088.43 717.839C1081.91 714.743 1075.38 711.651 1068.86 708.564C1066.04 707.231 1063.26 705.792 1060.38 704.6C1056.55 703.016 1053.64 703.339 1049.69 702.363C1043.25 700.774 1040.47 708.96 1045.41 712.525C1049.48 715.461 1051.62 717.972 1056.27 720.24ZM1146.75 859.212C1148.14 855.832 1145.23 851.722 1142.02 850.875C1138.17 849.862 1135.08 852.2 1133.68 855.609C1129.96 864.647 1124.67 872.94 1117.86 879.943C1111.77 886.201 1121.35 895.788 1127.44 889.527C1135.98 880.748 1142.11 870.488 1146.75 859.212ZM1213.31 641.666C1219.49 635.489 1209.91 625.907 1203.73 632.084L1186.17 649.647C1179.99 655.826 1189.57 665.408 1195.75 659.231L1213.31 641.666ZM1393.52 613.03C1406.15 616.733 1420.88 620.139 1429.49 630.912C1429.91 631.439 1430.61 630.763 1430.36 630.237C1419.34 607.387 1387.73 599.372 1365.84 591.367C1350.36 585.704 1334.48 581.007 1318.47 576.813C1320.07 558.542 1315.65 538.959 1314.12 520.777C1312.48 501.366 1311.14 481.904 1310.46 462.431C1309.76 442.568 1309.59 422.57 1310.25 402.701C1310.9 382.905 1313.47 363.352 1314.59 343.622C1314.7 341.714 1312.04 341.623 1311.47 343.2C1304.82 361.508 1301.98 381.789 1299.81 401.094C1297.58 420.981 1296.84 440.811 1297.13 460.814C1297.42 481.38 1298.62 501.898 1300.26 522.399C1301.04 532.116 1301.94 541.82 1302.79 551.531C1303.44 558.941 1303.74 566.292 1305.26 573.467C1295.6 571.097 1285.91 568.854 1276.26 566.673C1245.49 559.729 1214.58 553.285 1183.94 545.774C1168.89 542.09 1154.06 537.675 1139.09 533.755C1124.98 530.063 1110.1 525.587 1095.62 523.94C1090.45 523.351 1089.8 530.419 1093.22 532.818C1104.99 541.08 1120.61 546.833 1134.21 551.458C1147.85 556.099 1162.03 559.438 1176.01 562.875C1205.17 570.046 1234.6 575.91 1263.99 582.017C1293.34 588.118 1322.74 594.173 1351.76 601.7C1365.74 605.325 1379.67 608.964 1393.52 613.03ZM1462.72 250.446C1470.27 254.876 1477.08 243.158 1469.56 238.743C1459.72 232.969 1449.24 228.63 1438.67 224.399C1430.55 221.153 1427.06 234.265 1435.06 237.469C1444.56 241.27 1453.88 245.258 1462.72 250.446ZM1490.04 753.969C1497.61 758.356 1504.43 746.64 1496.88 742.267C1486.29 736.126 1474.68 732.028 1463.7 726.654C1455.89 722.829 1449.03 734.523 1456.86 738.357C1467.84 743.731 1479.45 747.827 1490.04 753.969ZM1502.33 468.146C1495.02 475.095 1485.25 478.367 1476.05 482.017C1468.02 485.197 1471.54 498.3 1479.65 495.086C1491.12 490.537 1502.8 486.385 1511.92 477.728C1518.25 471.707 1508.65 462.14 1502.33 468.146ZM1421.4 79.9768C1413.36 83.1313 1416.88 96.2337 1425 93.0471C1434.01 89.5131 1443.32 86.8228 1452.33 83.2888C1460.37 80.1343 1456.85 67.0336 1448.72 70.2186C1439.71 73.7525 1430.41 76.4428 1421.4 79.9768ZM1278.63 -74.2031C1270.09 -75.6432 1266.45 -62.5813 1275.03 -61.1329C1285.67 -59.3354 1296.16 -57.233 1306.25 -53.3263C1314.41 -50.1718 1317.91 -63.281 1309.86 -66.3949C1299.76 -70.3015 1289.28 -72.4057 1278.63 -74.2031ZM1231.46 301.189C1239.29 297.336 1232.42 285.654 1224.62 289.487C1216.4 293.528 1207.88 296.652 1198.91 298.561C1190.37 300.381 1194.01 313.444 1202.52 311.631C1212.61 309.48 1222.21 305.734 1231.46 301.189ZM1186.9 89.735C1178.47 87.4242 1174.9 100.501 1183.3 102.805C1198.08 106.854 1213.3 108.96 1228.19 112.564C1236.68 114.617 1240.27 101.545 1231.79 99.4949C1216.9 95.8898 1201.68 93.7874 1186.9 89.735ZM997.896 23.3791C989.317 24.9665 992.973 38.0266 1001.5 36.4494C1010.57 34.7705 1019.77 34.7434 1028.97 34.7383C1037.71 34.7349 1037.69 21.1818 1028.97 21.1852C1018.52 21.1903 1008.2 21.4732 997.896 23.3791ZM381.467 94.1855C403.61 92.0679 425.786 90.3737 447.996 89.1031C449.031 89.0506 450.046 88.9846 451.081 88.932C451.198 88.6966 451.351 88.4746 451.505 88.2374C458.754 77.5983 464.09 66.9608 468.715 54.9307C473.137 43.4783 477.423 31.6719 484.234 21.3377C492.001 9.56343 502.488 0.35072 513.981 -7.63374C520.952 -2.94607 527.422 2.54292 533.342 8.36059C539.571 14.4815 549.156 4.89947 542.925 -1.22314C537.665 -6.39364 532.051 -11.1694 526.116 -15.4844C532.969 -19.6486 539.961 -23.562 546.781 -27.4551C572.348 -42.04 598.52 -55.527 625.237 -67.8586C637.655 -73.6034 650.225 -78.7028 662.88 -83.8699C669.693 -86.6466 676.417 -90.2229 683.227 -93.4401C682.736 -98.2531 684.176 -103.64 687.869 -106.808C690.596 -109.129 692.714 -109.993 695.967 -111.635C696.695 -111.891 697.136 -112.043 697.339 -112.128C697.187 -112.094 696.746 -111.959 696.019 -111.721C694.29 -110.924 694.154 -111.162 695.611 -112.416C695.696 -115.159 701.102 -120.953 702.337 -123.782C706.64 -133.491 707.978 -143.758 714.331 -152.601C723.09 -164.782 737.795 -169.388 751.502 -165.256C752.924 -179.91 753.296 -195.207 758.819 -208.287C758.972 -208.641 759.463 -208.796 759.683 -208.406C765.443 -198.595 765.935 -187.67 766.375 -176.353C766.799 -165.731 766.394 -154.871 765.003 -144.317C765.884 -143.639 766.782 -142.994 767.714 -142.368C772.084 -139.488 776.794 -137.269 781.741 -135.624C791.16 -132.509 801.037 -131.153 810.914 -130.679C836.411 -129.459 862.687 -132.034 887.76 -136.405C913.121 -140.827 952.002 -147.468 974.568 -160.157C989.461 -168.524 1003.2 -178.742 1017.13 -188.635C1012.08 -204.899 1010.79 -222.382 1015.87 -236.122C1016.48 -237.765 1019.06 -238.07 1019.55 -236.122C1022.73 -223.009 1023.66 -209.829 1027.9 -196.869C1027.97 -196.682 1028.03 -196.477 1028.1 -196.293C1029.42 -197.189 1030.75 -198.072 1032.07 -198.953C1035.12 -200.969 1039.27 -199.459 1041.1 -196.581C1070.36 -150.483 1116.69 -147.84 1165.34 -139.605C1218.59 -130.594 1272.11 -120.87 1323.31 -103.234C1372.27 -86.3586 1419.06 -61.7936 1456.13 -25.0986C1464.52 -16.7905 1472.36 -7.9387 1479.77 1.30282C1472.6 2.20579 1465.5 3.61193 1458.48 5.816C1450.18 8.42497 1453.75 21.5054 1462.09 18.8846C1471.1 16.052 1480.22 14.6509 1489.43 13.953C1514.61 48.4083 1534.25 87.4768 1551.23 125.932C1583.81 199.662 1605.01 278.182 1614.77 358.124C1609.41 354.913 1603.96 351.855 1598.37 349.011C1590.6 345.062 1583.75 356.758 1591.53 360.714C1600.16 365.105 1608.55 369.945 1616.67 375.194C1620.22 410.186 1621.6 445.404 1620.76 480.566C1618.78 564.391 1607.46 650.674 1581.86 730.654C1569.31 769.907 1552.67 808.84 1527.89 842.011C1516.67 857.037 1503.93 870.59 1488.92 881.89C1481.66 887.379 1473.97 892.276 1465.85 896.408C1455.4 901.762 1441.78 903.524 1432.76 911.096C1429.8 913.589 1427.51 916.873 1425.78 920.584C1426.78 927.631 1426.9 934.696 1424.97 941.743C1424.36 943.948 1422.7 945.742 1420.65 946.606C1420.62 947.216 1420.62 947.808 1420.62 948.384C1420.62 948.656 1420.21 948.723 1420.16 948.454C1420.07 947.927 1419.99 947.402 1419.91 946.861C1419.24 947.08 1418.55 947.183 1417.84 947.183C1392.1 947.28 1366.34 946.653 1340.57 945.779C1342.56 939.675 1344.72 933.623 1346.79 927.519C1349.61 919.228 1336.51 915.703 1333.72 923.918C1331.3 931.053 1328.77 938.126 1326.51 945.288C1298.9 944.261 1271.3 943.028 1243.75 942.118C1185.15 940.168 1126.57 939.524 1067.95 938.289C976.922 936.359 885.232 932.409 794.064 936.273C790.911 929.581 787.382 923.044 784.037 916.443C780.089 908.654 768.4 915.52 772.334 923.284C774.66 927.87 777.069 932.399 779.357 936.976C760.893 937.935 742.447 939.202 724.04 940.932C692.631 943.878 661.525 949.113 630.15 952.367C598.251 955.686 567.043 955.095 535.397 949.826C529.704 948.877 526.35 945.437 524.961 941.167C524.912 941.15 524.876 941.118 524.844 941.066C523.218 939.168 521.691 937.595 520.117 936.221C518.235 935.002 516.202 933.967 513.813 933.053C509.358 931.358 504.716 930.325 500.006 929.63C494.822 928.853 489.57 928.783 484.386 928.141C480.017 927.582 475.746 926.75 471.479 925.736C463.802 923.906 456.518 921.517 449.267 918.347C442.948 915.588 437.24 911.623 431.851 907.302C420.704 899.153 411.049 888.753 402.61 877.942C397.697 871.623 393.072 865.067 388.871 858.241C381.552 846.414 375.318 834.132 369.016 821.748C366.729 818.078 364.641 814.321 362.734 810.483C375.05 806.855 387.485 803.897 400.542 803.687C409.27 803.546 409.268 789.993 400.542 790.133C385.567 790.372 371.403 793.871 357.329 798.038C356.643 796.217 355.986 794.382 355.378 792.524C353.701 788.646 352.311 784.663 351.159 780.631C350.483 778.801 349.804 776.972 349.126 775.142C347.602 768.806 346.077 762.453 344.535 756.1C341.469 745.935 339.048 735.618 337.267 725.165C335.777 718.287 334.625 711.358 333.845 704.344C331.474 687.352 329.542 670.394 329.407 653.215C329.61 642.627 330.288 632.055 331.44 621.535C331.931 614.385 332.761 607.27 333.879 600.205C335.336 589.702 336.776 579.302 339.199 568.932C341.011 561.92 342.824 554.904 344.637 547.891C349.16 533.272 354.497 518.938 360.648 504.927C360.985 504.048 362.698 502.115 363.73 502.098C364.509 502.081 365.595 502.793 365.239 503.743C365.204 503.826 365.172 503.928 365.136 504.012C365.492 503.216 365.831 502.403 366.186 501.607C366.491 500.861 367.677 499.372 368.592 499.389C368.643 499.389 368.695 499.389 368.761 499.404C368.524 499.237 368.304 499.015 368.084 498.762C362.002 491.562 358.054 482.09 353.701 473.755C350.092 466.877 346.687 459.626 345.704 451.85C344.842 445.024 346.009 438.297 350.295 432.774C355.174 426.489 364.357 423.541 359.257 414.46C353.463 404.126 344.942 395.164 353.43 383.424C357.75 377.443 364.594 374.159 369.676 368.956C375.521 362.942 378.301 354.895 378.147 346.678C377.791 346.881 377.317 346.781 377.147 346.271C372.234 331.431 375.792 315.135 380.824 300.682C383.568 292.84 389.381 290.687 396.139 290.299C366.866 233.122 339.472 175.028 315.057 115.598C314.244 113.649 313.448 111.703 312.653 109.753C311.466 106.839 313.973 102.961 316.87 102.316C337.979 97.6907 359.969 96.2168 381.467 94.1855Z" fill="black"/>
</g>
</svg>
