<svg xmlns="http://www.w3.org/2000/svg" xmlns:xlink="http://www.w3.org/1999/xlink" xmlns:lucid="lucid" width="3309" height="2311"><g transform="translate(-368 988)" lucid:page-tab-id="0_0"><path d="M0-1259.2h3676.8v2582.4H0z" fill="#fff"/><path d="M780 790h160v80H780z" stroke="#000" stroke-width="2" fill="#fff"/><use xlink:href="#a" transform="matrix(1,0,0,1,785,795) translate(6.625 27.525)"/><use xlink:href="#b" transform="matrix(1,0,0,1,785,795) translate(69.575 27.525)"/><use xlink:href="#c" transform="matrix(1,0,0,1,785,795) translate(95.525 27.525)"/><use xlink:href="#d" transform="matrix(1,0,0,1,785,795) translate(43.574999999999996 49.125)"/><path d="M2533.6-467.9l93.6 70.2-93.6 70.2-93.6-70.2z" stroke="#000" stroke-width="2" fill="#fff"/><use xlink:href="#e" transform="matrix(1,0,0,1,2445.0000000000005,-462.90000000000015) translate(54.07999999999999 67.61875)"/><path d="M2589.76-620c20.68 0 37.44 20.95 37.44 46.8 0 25.85-16.76 46.8-37.44 46.8h-112.32c-20.68 0-37.44-20.95-37.44-46.8 0-25.85 16.76-46.8 37.44-46.8z" stroke="#000" stroke-width="2" fill="#fff"/><use xlink:href="#f" transform="matrix(1,0,0,1,2445.0000000000005,-615) translate(25.025 45.9)"/><path d="M980-860h280v140H980z" stroke="#000" stroke-width="2" fill="#fff"/><use xlink:href="#g" transform="matrix(1,0,0,1,985,-855) translate(111.05 67.2125)"/><path d="M800 0h200v120H800z" stroke="#000" stroke-width="2" fill="#fff"/><use xlink:href="#h" transform="matrix(1,0,0,1,805,5) translate(56.074999999999996 59.0875)"/><path d="M2100-20h200v120h-200z" stroke="#000" stroke-width="2" fill="#fff"/><use xlink:href="#i" transform="matrix(1,0,0,1,2105,-15) translate(27.549999999999997 59.0875)"/><use xlink:href="#j" transform="matrix(1,0,0,1,2105,-15) translate(94.55 59.0875)"/><path d="M2380-11h200v120h-200z" stroke="#000" stroke-width="2" fill="#fff"/><use xlink:href="#k" transform="matrix(1,0,0,1,2385,-6) translate(71.5 59.0875)"/><path d="M2740-1.8h200v111h-200z" stroke="#000" stroke-width="2" fill="#fff"/><use xlink:href="#l" transform="matrix(1,0,0,1,2745,3.2000000000000455) translate(74.55 55.43125)"/><path d="M820 220h160v60H820z" stroke="#000" stroke-width="2" fill="#fff"/><use xlink:href="#m" transform="matrix(1,0,0,1,825,225) translate(7.099999999999994 30.025)"/><use xlink:href="#n" transform="matrix(1,0,0,1,825,225) translate(67.05 30.025)"/><path d="M1040 220h160v60h-160z" stroke="#000" stroke-width="2" fill="#fff"/><use xlink:href="#o" transform="matrix(1,0,0,1,1045,225) translate(4.150000000000006 30.025)"/><use xlink:href="#n" transform="matrix(1,0,0,1,1045,225) translate(70 30.025)"/><path d="M600 220h160v60H600z" stroke="#000" stroke-width="2" fill="#fff"/><use xlink:href="#p" transform="matrix(1,0,0,1,605,225) translate(24.625 30.025)"/><use xlink:href="#n" transform="matrix(1,0,0,1,605,225) translate(49.525 30.025)"/><path d="M1720 180h160v60h-160z" stroke="#000" stroke-width="2" fill="#fff"/><use xlink:href="#q" transform="matrix(1,0,0,1,1725,185) translate(47.5 30.025)"/><path d="M1431.9 180h160v60h-160z" stroke="#000" stroke-width="2" fill="#fff"/><use xlink:href="#r" transform="matrix(1,0,0,1,1436.9,185) translate(37.25 30.025)"/><path d="M1565.9 320c19.88 0 36 13.43 36 30s-16.12 30-36 30h-108c-19.88 0-36-13.43-36-30s16.12-30 36-30z" stroke="#000" stroke-width="2" fill="#fff"/><use xlink:href="#s" transform="matrix(1,0,0,1,1426.9,325) translate(38.60499999999999 17.525)"/><use xlink:href="#t" transform="matrix(1,0,0,1,1426.9,325) translate(110.45500000000001 17.525)"/><use xlink:href="#u" transform="matrix(1,0,0,1,1426.9,325) translate(46.05499999999999 39.125)"/><path d="M1436.5 414.33c19.88 0 36 13.43 36 30 0 16.56-16.12 30-36 30h-108c-19.88 0-36-13.44-36-30 0-16.57 16.12-30 36-30z" stroke="#000" stroke-width="2" fill="#fff"/><use xlink:href="#v" transform="matrix(1,0,0,1,1297.5,419.3255500865946) translate(5.474999999999994 30.025)"/><use xlink:href="#w" transform="matrix(1,0,0,1,1297.5,419.3255500865946) translate(60.77499999999999 30.025)"/><use xlink:href="#x" transform="matrix(1,0,0,1,1297.5,419.3255500865946) translate(92.67499999999998 30.025)"/><path d="M1691.5 414.33c19.88 0 36 13.43 36 30 0 16.56-16.12 30-36 30h-108c-19.88 0-36-13.44-36-30 0-16.57 16.12-30 36-30z" stroke="#000" stroke-width="2" fill="#fff"/><use xlink:href="#y" transform="matrix(1,0,0,1,1552.5,419.3255500865946) translate(13.574999999999989 30.025)"/><use xlink:href="#z" transform="matrix(1,0,0,1,1552.5,419.3255500865946) translate(85.52499999999999 30.025)"/><path d="M2004 262.5c19.88 0 36 17.9 36 40s-16.12 40-36 40h-108c-19.88 0-36-17.9-36-40s16.12-40 36-40z" stroke="#000" stroke-width="2" fill="#fff"/><use xlink:href="#A" transform="matrix(1,0,0,1,1865,267.5) translate(18.605 27.525)"/><use xlink:href="#B" transform="matrix(1,0,0,1,1865,267.5) translate(83.50500000000001 27.525)"/><use xlink:href="#C" transform="matrix(1,0,0,1,1865,267.5) translate(15.580000000000007 49.125)"/><use xlink:href="#D" transform="matrix(1,0,0,1,1865,267.5) translate(73.58000000000001 49.125)"/><use xlink:href="#E" transform="matrix(1,0,0,1,1865,267.5) translate(92.53 49.125)"/><use xlink:href="#F" transform="matrix(1,0,0,1,1865,267.5) translate(107.53 49.125)"/><path d="M1431.9 640h160v60h-160z" stroke="#000" stroke-width="2" fill="#fff"/><use xlink:href="#G" transform="matrix(1,0,0,1,1436.9,645) translate(6.6499999999999915 30.025)"/><use xlink:href="#H" transform="matrix(1,0,0,1,1436.9,645) translate(107.45 30.025)"/><path d="M1431.9 1070h160v60h-160z" stroke="#000" stroke-width="2" fill="#fff"/><use xlink:href="#I" transform="matrix(1,0,0,1,1436.9,1075) translate(27.099999999999994 17.525)"/><use xlink:href="#J" transform="matrix(1,0,0,1,1436.9,1075) translate(36.574999999999996 39.125)"/><path d="M1511.9 745.67l76.22 57.17L1511.9 860l-76.22-57.16z" stroke="#000" stroke-width="2" fill="#fff"/><use xlink:href="#K" transform="matrix(1,0,0,1,1440.682966608937,750.6744499134055) translate(13.129999999999997 57.05625)"/><use xlink:href="#L" transform="matrix(1,0,0,1,1440.682966608937,750.6744499134055) translate(27.08 57.05625)"/><use xlink:href="#M" transform="matrix(1,0,0,1,1440.682966608937,750.6744499134055) translate(66.03 57.05625)"/><path d="M1431.9 960h160v60h-160z" stroke="#000" stroke-width="2" fill="#fff"/><use xlink:href="#N" transform="matrix(1,0,0,1,1436.9,965) translate(37.025 30.025)"/><path d="M1512.9 940.5h-2v-19.58h2zm0-41.17h-2v-37.08h2z"/><path d="M1512.9 862.28h-2v-1.78l1 .75 1-.75zM1511.9 955.76l-4.64-14.26h9.28z"/><path d="M1511.9 959l-6-18.5h12zm-3.26-16.5l3.26 10.03 3.26-10.03z"/><use xlink:href="#O" transform="matrix(1,0,0,1,1497.2250000646943,899.3249997838258) translate(0 14.4)"/><path d="M1633.9 1101h-22.5v-2h20.5V960.66h2zm0-161.94h-2V803.84h-41.12v-2h43.12z"/><path d="M1590.8 803.84h-2.35l1.33-1-1.33-1h2.36zM1610.4 1104.64l-14.26-4.64 14.26-4.64z"/><path d="M1611.4 1106l-18.5-6 18.5-6zm-12.03-6l10.03 3.26v-6.52z"/><use xlink:href="#P" transform="matrix(1,0,0,1,1621.4250000000002,939.0604625954529) translate(0 14.4)"/><path d="M1511.9 1022v28.5" stroke="#000" stroke-width="2" fill="none"/><path d="M1512.9 1022.03h-2V1021h2z"/><path d="M1511.9 1065.76l-4.64-14.26h9.28z" stroke="#000" stroke-width="2"/><path d="M948 330c17.67 0 32 13.43 32 30s-14.33 30-32 30h-96c-17.67 0-32-13.43-32-30s14.33-30 32-30z" stroke="#000" stroke-width="2" fill="#fff"/><use xlink:href="#Q" transform="matrix(1,0,0,1,825,335) translate(32.529999999999994 17.525)"/><use xlink:href="#R" transform="matrix(1,0,0,1,825,335) translate(102.48 17.525)"/><use xlink:href="#S" transform="matrix(1,0,0,1,825,335) translate(12.529999999999996 39.125)"/><use xlink:href="#T" transform="matrix(1,0,0,1,825,335) translate(69.47999999999999 39.125)"/><path d="M948 440c17.67 0 32 13.43 32 30s-14.33 30-32 30h-96c-17.67 0-32-13.43-32-30s14.33-30 32-30z" stroke="#000" stroke-width="2" fill="#fff"/><use xlink:href="#U" transform="matrix(1,0,0,1,825,445.0000000000002) translate(10.099999999999994 30.025)"/><use xlink:href="#V" transform="matrix(1,0,0,1,825,445.0000000000002) translate(96.95 30.025)"/><path d="M1168 330c17.67 0 32 13.43 32 30s-14.33 30-32 30h-96c-17.67 0-32-13.43-32-30s14.33-30 32-30z" stroke="#000" stroke-width="2" fill="#fff"/><use xlink:href="#Q" transform="matrix(1,0,0,1,1045,335) translate(32.529999999999994 17.525)"/><use xlink:href="#R" transform="matrix(1,0,0,1,1045,335) translate(102.48 17.525)"/><use xlink:href="#W" transform="matrix(1,0,0,1,1045,335) translate(10.055000000000001 39.125)"/><use xlink:href="#T" transform="matrix(1,0,0,1,1045,335) translate(71.955 39.125)"/><path d="M1168 440c17.67 0 32 13.43 32 30s-14.33 30-32 30h-96c-17.67 0-32-13.43-32-30s14.33-30 32-30z" stroke="#000" stroke-width="2" fill="#fff"/><use xlink:href="#i" transform="matrix(1,0,0,1,1045,445.0000000000002) translate(12.054999999999987 17.525)"/><use xlink:href="#X" transform="matrix(1,0,0,1,1045,445.0000000000002) translate(79.05499999999999 17.525)"/><use xlink:href="#Y" transform="matrix(1,0,0,1,1045,445.0000000000002) translate(36.07999999999999 39.125)"/><path d="M728 330c17.67 0 32 13.43 32 30s-14.33 30-32 30h-96c-17.67 0-32-13.43-32-30s14.33-30 32-30z" stroke="#000" stroke-width="2" fill="#fff"/><use xlink:href="#Z" transform="matrix(1,0,0,1,605,335) translate(8.099999999999994 30.025)"/><use xlink:href="#aa" transform="matrix(1,0,0,1,605,335) translate(71 30.025)"/><path d="M820 560h160v60H820z" stroke="#000" stroke-width="2" fill="#fff"/><use xlink:href="#ab" transform="matrix(1,0,0,1,825,565) translate(17.75 30.025)"/><use xlink:href="#ac" transform="matrix(1,0,0,1,825,565) translate(84.7 30.025)"/><path d="M900 282v28.5" stroke="#000" stroke-width="2" fill="none"/><path d="M901 282.03h-2V281h2z"/><path d="M900 325.76l-4.64-14.26h9.28z" stroke="#000" stroke-width="2"/><path d="M1120 282v28.5" stroke="#000" stroke-width="2" fill="none"/><path d="M1121 282.03h-2V281h2z"/><path d="M1120 325.76l-4.64-14.26h9.28z" stroke="#000" stroke-width="2"/><path d="M680 282v28.5" stroke="#000" stroke-width="2" fill="none"/><path d="M681 282.03h-2V281h2z"/><path d="M680 325.76l-4.64-14.26h9.28z" stroke="#000" stroke-width="2"/><path d="M680 392v28.23" stroke="#000" stroke-width="2" fill="none"/><path d="M681 392.03h-2V391h2z"/><path d="M680 435.5l-4.64-14.27h9.28z" stroke="#000" stroke-width="2"/><path d="M680 440l90 70-90 70-90-70z" stroke="#000" stroke-width="2" fill="#fff"/><use xlink:href="#ad" transform="matrix(1,0,0,1,595,445) translate(39.55499999999999 59.0875)"/><use xlink:href="#ae" transform="matrix(1,0,0,1,595,445) translate(95.505 59.0875)"/><use xlink:href="#af" transform="matrix(1,0,0,1,595,445) translate(40.605000000000004 80.6875)"/><path d="M681 640.22h-2v-9.43h2zm0-31.03h-2v-26.93h2z"/><path d="M681 582.3h-2v-1.8l1 .77 1-.78zM680 655.48l-4.64-14.26h9.28z"/><path d="M680 658.72l-6-18.5h12zm-3.26-16.5l3.26 10.03 3.26-10.03z"/><use xlink:href="#ag" transform="matrix(1,0,0,1,620.025,609.1931183679785) translate(0 14.4)"/><use xlink:href="#ah" transform="matrix(1,0,0,1,620.025,609.1931183679785) translate(65 14.4)"/><use xlink:href="#ai" transform="matrix(1,0,0,1,620.025,609.1931183679785) translate(85 14.4)"/><path d="M900 502v38.5" stroke="#000" stroke-width="2" fill="none"/><path d="M901 502.03h-2V501h2z"/><path d="M900 555.76l-4.64-14.26h9.28z" stroke="#000" stroke-width="2"/><path d="M1040 560h160v60h-160z" stroke="#000" stroke-width="2" fill="#fff"/><use xlink:href="#i" transform="matrix(1,0,0,1,1045,565) translate(7.074999999999989 17.525)"/><use xlink:href="#aj" transform="matrix(1,0,0,1,1045,565) translate(74.07499999999999 17.525)"/><use xlink:href="#ak" transform="matrix(1,0,0,1,1045,565) translate(47.574999999999996 39.125)"/><path d="M1120 502v38.5" stroke="#000" stroke-width="2" fill="none"/><path d="M1121 502.03h-2V501h2z"/><path d="M1120 555.76l-4.64-14.26h9.28z" stroke="#000" stroke-width="2"/><path d="M1040 680h160v60h-160z" stroke="#000" stroke-width="2" fill="#fff"/><use xlink:href="#al" transform="matrix(1,0,0,1,1045,685) translate(38.05 17.525)"/><use xlink:href="#am" transform="matrix(1,0,0,1,1045,685) translate(6.6499999999999915 39.125)"/><use xlink:href="#H" transform="matrix(1,0,0,1,1045,685) translate(107.45 39.125)"/><path d="M1040 800h160v60h-160z" stroke="#000" stroke-width="2" fill="#fff"/><use xlink:href="#I" transform="matrix(1,0,0,1,1045,805) translate(27.099999999999994 17.525)"/><use xlink:href="#an" transform="matrix(1,0,0,1,1045,805) translate(44.05 39.125)"/><path d="M680 660l100 80-100 80-100-80z" stroke="#000" stroke-width="2" fill="#fff"/><use xlink:href="#ad" transform="matrix(1,0,0,1,585,665) translate(57.05499999999999 47.2125)"/><use xlink:href="#t" transform="matrix(1,0,0,1,585,665) translate(113.005 47.2125)"/><use xlink:href="#ao" transform="matrix(1,0,0,1,585,665) translate(38.105000000000004 68.8125)"/><use xlink:href="#ap" transform="matrix(1,0,0,1,585,665) translate(90.955 68.8125)"/><use xlink:href="#aq" transform="matrix(1,0,0,1,585,665) translate(30.30499999999999 90.41250000000001)"/><use xlink:href="#ar" transform="matrix(1,0,0,1,585,665) translate(67.205 90.41250000000001)"/><use xlink:href="#as" transform="matrix(1,0,0,1,585,665) translate(113.155 90.41250000000001)"/><use xlink:href="#n" transform="matrix(1,0,0,1,585,665) translate(57.07999999999999 112.01250000000002)"/><path d="M761 899.14v61.36h-2v-59.36h-24.33v-2zm-55.67 0v2H679v-78.86h2v76.86z"/><path d="M681 822.3h-2v-1.82l1 .8 1-.8zM760 975.76l-4.64-14.26h9.28z"/><path d="M760 979l-6-18.5h12zm-3.26-16.5l3.26 10.03 3.26-10.03z"/><use xlink:href="#O" transform="matrix(1,0,0,1,705.325,889.3403124237434) translate(0 14.4)"/><path d="M861 770.5h-2V741h-2.22v-2H861zM782.6 741v-2h51.23v2z"/><path d="M782.63 741h-2.28l1.25-1-1.25-1h2.28zM860 785.76l-4.64-14.26h9.28z"/><path d="M860 789l-6-18.5h12zm-3.26-16.5l3.26 10.03 3.26-10.03z"/><use xlink:href="#P" transform="matrix(1,0,0,1,833.8253905296791,729.2) translate(0 14.4)"/><path d="M861 901H761v59.5h-2V899h100v-27h2z"/><path d="M861 872.03h-2V871h2zM760 975.76l-4.64-14.26h9.28z"/><path d="M760 979l-6-18.5h12zm-3.26-16.5l3.26 10.03 3.26-10.03z"/><path d="M680 980h160v80H680z" stroke="#000" stroke-width="2" fill="#fff"/><use xlink:href="#at" transform="matrix(1,0,0,1,685,985) translate(7.549999999999997 38.4625)"/><use xlink:href="#au" transform="matrix(1,0,0,1,685,985) translate(88.5 38.4625)"/><path d="M680 1120h160v80H680z" stroke="#000" stroke-width="2" fill="#fff"/><use xlink:href="#av" transform="matrix(1,0,0,1,685,1125) translate(36.574999999999996 38.4625)"/><path d="M900 282v18h-90v117h90v3.5" stroke="#000" stroke-width="2" fill="none"/><path d="M901 282.03h-2V281h2z"/><path d="M900 435.76l-4.64-14.26h9.28z" stroke="#000" stroke-width="2"/><path d="M1120 282v18h-90v117h90v3.5" stroke="#000" stroke-width="2" fill="none"/><path d="M1121 282.03h-2V281h2z"/><path d="M1120 435.76l-4.64-14.26h9.28z" stroke="#000" stroke-width="2"/><path d="M1560-20h200v120h-200z" stroke="#000" stroke-width="2" fill="#fff"/><use xlink:href="#q" transform="matrix(1,0,0,1,1565,-15) translate(67.5 59.0875)"/><path d="M1660 102v38h-148.1v20.5" stroke="#000" stroke-width="2" fill="none"/><path d="M1661 102.03h-2V101h2z"/><path d="M1511.9 175.76l-4.64-14.26h9.28z" stroke="#000" stroke-width="2"/><path d="M1660 102v38h140v20.5" stroke="#000" stroke-width="2" fill="none"/><path d="M1661 102.03h-2V101h2z"/><path d="M1800 175.76l-4.64-14.26h9.28z" stroke="#000" stroke-width="2"/><path d="M1511.9 242v58.5" stroke="#000" stroke-width="2" fill="none"/><path d="M1512.9 242.03h-2V241h2z"/><path d="M1511.9 315.76l-4.64-14.26h9.28z" stroke="#000" stroke-width="2"/><path d="M1511.9 382v238.5" stroke="#000" stroke-width="2" fill="none"/><path d="M1512.9 382.03h-2V381h2z"/><path d="M1511.9 635.76l-4.64-14.26h9.28z" stroke="#000" stroke-width="2"/><path d="M1511.9 242v28h-129.4v124.82" stroke="#000" stroke-width="2" fill="none"/><path d="M1512.9 242.03h-2V241h2z"/><path d="M1382.5 410.1l-4.64-14.28h9.28z" stroke="#000" stroke-width="2"/><path d="M1511.9 242v28h125.6v124.82" stroke="#000" stroke-width="2" fill="none"/><path d="M1512.9 242.03h-2V241h2z"/><path d="M1637.5 410.1l-4.64-14.28h9.28z" stroke="#000" stroke-width="2"/><path d="M900 122v78.5" stroke="#000" stroke-width="2" fill="none"/><path d="M901 122.03h-2V121h2z"/><path d="M900 215.76l-4.64-14.26h9.28z" stroke="#000" stroke-width="2"/><path d="M900 122v58H680v20.5" stroke="#000" stroke-width="2" fill="none"/><path d="M901 122.03h-2V121h2z"/><path d="M680 215.76l-4.64-14.26h9.28z" stroke="#000" stroke-width="2"/><path d="M900 122v58h220v20.5" stroke="#000" stroke-width="2" fill="none"/><path d="M901 122.03h-2V121h2z"/><path d="M1120 215.76l-4.64-14.26h9.28z" stroke="#000" stroke-width="2"/><path d="M1511.9 702v23.92" stroke="#000" stroke-width="2" fill="none"/><path d="M1512.9 702.03h-2V701h2z"/><path d="M1511.9 741.2l-4.64-14.28h9.28z" stroke="#000" stroke-width="2"/><path d="M1302.5 540h160v60h-160z" stroke="#000" stroke-width="2" fill="#fff"/><use xlink:href="#aw" transform="matrix(1,0,0,1,1307.5,545) translate(22.775 17.525)"/><use xlink:href="#ax" transform="matrix(1,0,0,1,1307.5,545) translate(60.725 17.525)"/><use xlink:href="#ay" transform="matrix(1,0,0,1,1307.5,545) translate(50.55 39.125)"/><path d="M1557.5 540h160v60h-160z" stroke="#000" stroke-width="2" fill="#fff"/><use xlink:href="#y" transform="matrix(1,0,0,1,1562.5,545) translate(21.075000000000003 30.025)"/><use xlink:href="#H" transform="matrix(1,0,0,1,1562.5,545) translate(93.025 30.025)"/><path d="M1120 622v38.5" stroke="#000" stroke-width="2" fill="none"/><path d="M1121 622.03h-2V621h2z"/><path d="M1120 675.76l-4.64-14.26h9.28z" stroke="#000" stroke-width="2"/><path d="M1120 742v38.5" stroke="#000" stroke-width="2" fill="none"/><path d="M1121 742.03h-2V741h2z"/><path d="M1120 795.76l-4.64-14.26h9.28z" stroke="#000" stroke-width="2"/><path d="M1800 242v60.5h40.5" stroke="#000" stroke-width="2" fill="none"/><path d="M1801 242.03h-2V241h2z"/><path d="M1855.76 302.5l-14.26 4.64v-9.28z" stroke="#000" stroke-width="2"/><path d="M2004 365c19.88 0 36 17.9 36 40s-16.12 40-36 40h-108c-19.88 0-36-17.9-36-40s16.12-40 36-40z" stroke="#000" stroke-width="2" fill="#fff"/><use xlink:href="#y" transform="matrix(1,0,0,1,1865,370) translate(23.154999999999998 27.525)"/><use xlink:href="#az" transform="matrix(1,0,0,1,1865,370) translate(95.105 27.525)"/><use xlink:href="#aA" transform="matrix(1,0,0,1,1865,370) translate(58.505 49.125)"/><path d="M1800 242v163h40.5" stroke="#000" stroke-width="2" fill="none"/><path d="M1801 242.03h-2V241h2z"/><path d="M1855.76 405l-14.26 4.64v-9.28z" stroke="#000" stroke-width="2"/><path d="M2120 159h160v60h-160z" stroke="#000" stroke-width="2" fill="#fff"/><use xlink:href="#aB" transform="matrix(1,0,0,1,2125,164) translate(13.549999999999997 17.525)"/><use xlink:href="#aC" transform="matrix(1,0,0,1,2125,164) translate(60.5 17.525)"/><use xlink:href="#aD" transform="matrix(1,0,0,1,2125,164) translate(95.5 17.525)"/><use xlink:href="#ak" transform="matrix(1,0,0,1,2125,164) translate(47.574999999999996 39.125)"/><path d="M2120 279h160v60h-160z" stroke="#000" stroke-width="2" fill="#fff"/><use xlink:href="#al" transform="matrix(1,0,0,1,2125,284) translate(38.05 17.525)"/><use xlink:href="#am" transform="matrix(1,0,0,1,2125,284) translate(6.6499999999999915 39.125)"/><use xlink:href="#H" transform="matrix(1,0,0,1,2125,284) translate(107.45 39.125)"/><path d="M2120 399h160v60h-160z" stroke="#000" stroke-width="2" fill="#fff"/><use xlink:href="#I" transform="matrix(1,0,0,1,2125,404) translate(27.099999999999994 17.525)"/><use xlink:href="#an" transform="matrix(1,0,0,1,2125,404) translate(44.05 39.125)"/><path d="M2200 221v38.5" stroke="#000" stroke-width="2" fill="none"/><path d="M2201 221.03h-2V220h2z"/><path d="M2200 274.76l-4.64-14.26h9.28z" stroke="#000" stroke-width="2"/><path d="M2200 341v38.5" stroke="#000" stroke-width="2" fill="none"/><path d="M2201 341.03h-2V340h2z"/><path d="M2200 394.76l-4.64-14.26h9.28z" stroke="#000" stroke-width="2"/><path d="M2648 129c17.67 0 32 13.43 32 30s-14.33 30-32 30h-96c-17.67 0-32-13.43-32-30s14.33-30 32-30z" stroke="#000" stroke-width="2" fill="#fff"/><use xlink:href="#aE" transform="matrix(1,0,0,1,2525,134) translate(26.049999999999997 30.025)"/><use xlink:href="#aF" transform="matrix(1,0,0,1,2525,134) translate(78.05 30.025)"/><path d="M2648 229c17.67 0 32 13.43 32 30s-14.33 30-32 30h-96c-17.67 0-32-13.43-32-30s14.33-30 32-30z" stroke="#000" stroke-width="2" fill="#fff"/><use xlink:href="#Q" transform="matrix(1,0,0,1,2525,234) translate(32.529999999999994 17.525)"/><use xlink:href="#aG" transform="matrix(1,0,0,1,2525,234) translate(102.48 17.525)"/><use xlink:href="#aH" transform="matrix(1,0,0,1,2525,234) translate(27.029999999999994 39.125)"/><use xlink:href="#aI" transform="matrix(1,0,0,1,2525,234) translate(103.98 39.125)"/><path d="M2648 329c17.67 0 32 13.43 32 30s-14.33 30-32 30h-96c-17.67 0-32-13.43-32-30s14.33-30 32-30z" stroke="#000" stroke-width="2" fill="#fff"/><use xlink:href="#aE" transform="matrix(1,0,0,1,2525,334) translate(14.024999999999999 30.025)"/><use xlink:href="#aJ" transform="matrix(1,0,0,1,2525,334) translate(66.025 30.025)"/><use xlink:href="#aK" transform="matrix(1,0,0,1,2525,334) translate(96.025 30.025)"/><path d="M2480 111v48h20.5" stroke="#000" stroke-width="2" fill="none"/><path d="M2481 111.03h-2V110h2z"/><path d="M2515.76 159l-14.26 4.64v-9.28z" stroke="#000" stroke-width="2"/><path d="M2480 111v148h20.5" stroke="#000" stroke-width="2" fill="none"/><path d="M2481 111.03h-2V110h2z"/><path d="M2515.76 259l-14.26 4.64v-9.28z" stroke="#000" stroke-width="2"/><path d="M2480 111v248h20.5" stroke="#000" stroke-width="2" fill="none"/><path d="M2481 111.03h-2V110h2z"/><path d="M2515.76 359l-14.26 4.64v-9.28z" stroke="#000" stroke-width="2"/><path d="M2200 102v37.5" stroke="#000" stroke-width="2" fill="none"/><path d="M2201 102.03h-2V101h2z"/><path d="M2200 154.76l-4.64-14.26h9.28z" stroke="#000" stroke-width="2"/><path d="M3028 148.4c17.67 0 32 13.43 32 30s-14.33 30-32 30h-96c-17.67 0-32-13.43-32-30s14.33-30 32-30z" stroke="#000" stroke-width="2" fill="#fff"/><use xlink:href="#aL" transform="matrix(1,0,0,1,2905,153.4000000000001) translate(52.525 30.025)"/><path d="M760 1062v38.5" stroke="#000" stroke-width="2" fill="none"/><path d="M761 1062.03h-2V1061h2z"/><path d="M760 1115.76l-4.64-14.26h9.28z" stroke="#000" stroke-width="2"/><path d="M2900 247.4h160v80h-160z" stroke="#000" stroke-width="2" fill="#fff"/><use xlink:href="#aM" transform="matrix(1,0,0,1,2905,252.4000000000001) translate(6.099999999999994 38.4625)"/><use xlink:href="#aN" transform="matrix(1,0,0,1,2905,252.4000000000001) translate(101.9 38.4625)"/><path d="M2900 366.4h160v80h-160z" stroke="#000" stroke-width="2" fill="#fff"/><use xlink:href="#aO" transform="matrix(1,0,0,1,2905,371.4000000000001) translate(57.025 38.4625)"/><path d="M2900 477.4h160v80h-160z" stroke="#000" stroke-width="2" fill="#fff"/><use xlink:href="#y" transform="matrix(1,0,0,1,2905,482.4000000000003) translate(1.0499999999999972 38.4625)"/><use xlink:href="#E" transform="matrix(1,0,0,1,2905,482.4000000000003) translate(73 38.4625)"/><use xlink:href="#aP" transform="matrix(1,0,0,1,2905,482.4000000000003) translate(88 38.4625)"/><path d="M2900 600h160v80h-160z" stroke="#000" stroke-width="2" fill="#fff"/><use xlink:href="#ab" transform="matrix(1,0,0,1,2905,604.9999999999998) translate(23.575000000000003 38.4625)"/><use xlink:href="#H" transform="matrix(1,0,0,1,2905,604.9999999999998) translate(90.525 38.4625)"/><path d="M2840 111.2v67.2h40.5" stroke="#000" stroke-width="2" fill="none"/><path d="M2841 111.23h-2v-1.03h2z"/><path d="M2895.76 178.4l-14.26 4.64v-9.28z" stroke="#000" stroke-width="2"/><path d="M3065.94 179.4H3062v-2h3.94zm15.76 0h-7.88v-2h7.88zm15.77 0h-7.88v-2h7.87zm15.76 0h-7.88v-2h7.88zm220.68 0h-7.87v-2h7.88zm15.78 0h-7.9v-2h7.9zm11.82 0h-3.94v-2h3.94z"/><path d="M3062.03 179.4h-1.1l.07-.96v-.32l-.06-.72h1.1zM3376.76 178.4l-14.26 4.64v-9.28z"/><path d="M3380 178.4l-18.5 6v-12zm-16.5 3.26l10.03-3.26-10.03-3.26z"/><use xlink:href="#aQ" transform="matrix(1,0,0,1,3119.650004280528,167.60000000000008) translate(0 14.4)"/><use xlink:href="#aR" transform="matrix(1,0,0,1,3119.650004280528,167.60000000000008) translate(84.85 14.4)"/><use xlink:href="#aS" transform="matrix(1,0,0,1,3119.650004280528,167.60000000000008) translate(104.85 14.4)"/><use xlink:href="#aT" transform="matrix(1,0,0,1,3119.650004280528,167.60000000000008) translate(173.75 14.4)"/><path d="M2840 111.2v184h40.5" stroke="#000" stroke-width="2" fill="none"/><path d="M2841 111.23h-2v-1.03h2z"/><path d="M2895.76 295.2l-14.26 4.65v-9.27z" stroke="#000" stroke-width="2"/><path d="M3100 249.2h160v80h-160z" stroke="#000" stroke-width="2" fill="#fff"/><g><use xlink:href="#aU" transform="matrix(1,0,0,1,3105,254.20000000000005) translate(29.599999999999994 27.525)"/><use xlink:href="#aV" transform="matrix(1,0,0,1,3105,254.20000000000005) translate(10.074999999999989 49.125)"/><use xlink:href="#aW" transform="matrix(1,0,0,1,3105,254.20000000000005) translate(99.925 49.125)"/></g><path d="M3300 249.2h160v80h-160z" stroke="#000" stroke-width="2" fill="#fff"/><g><use xlink:href="#aX" transform="matrix(1,0,0,1,3305,254.20000000000005) translate(45.05 27.525)"/><use xlink:href="#aY" transform="matrix(1,0,0,1,3305,254.20000000000005) translate(29.599999999999994 49.125)"/></g><path d="M2840 111.2v295.2h40.5" stroke="#000" stroke-width="2" fill="none"/><path d="M2841 111.23h-2v-1.03h2z"/><path d="M2895.76 406.4l-14.26 4.64v-9.28z" stroke="#000" stroke-width="2"/><path d="M2840 111.2v406.2h40.5" stroke="#000" stroke-width="2" fill="none"/><path d="M2841 111.23h-2v-1.03h2z"/><path d="M2895.76 517.4l-14.26 4.64v-9.28z" stroke="#000" stroke-width="2"/><path d="M2980 559.4v21.1" stroke="#000" stroke-width="2" fill="none"/><path d="M2981 559.43h-2v-1.03h2z"/><path d="M2980 595.76l-4.64-14.26h9.28z" stroke="#000" stroke-width="2"/><path d="M1660-520l80 60-80 60-80-60z" stroke="#000" stroke-width="2" fill="#fff"/><g><use xlink:href="#aZ" transform="matrix(1,0,0,1,1585,-515) translate(25.554999999999996 48.775)"/><use xlink:href="#ba" transform="matrix(1,0,0,1,1585,-515) translate(77.555 48.775)"/><use xlink:href="#bb" transform="matrix(1,0,0,1,1585,-515) translate(91.505 48.775)"/><use xlink:href="#bc" transform="matrix(1,0,0,1,1585,-515) translate(34.08 70.375)"/><use xlink:href="#bd" transform="matrix(1,0,0,1,1585,-515) translate(55.029999999999994 70.375)"/><use xlink:href="#ai" transform="matrix(1,0,0,1,1585,-515) translate(57.529999999999994 91.97500000000001)"/></g><path d="M1873.4-240h280v60h-280z" stroke="#000" stroke-width="2" fill="#fff"/><g><use xlink:href="#be" transform="matrix(1,0,0,1,1878.3999999999999,-235.0000000000001) translate(84.075 30.025)"/><use xlink:href="#bf" transform="matrix(1,0,0,1,1878.3999999999999,-235.0000000000001) translate(125.025 30.025)"/><use xlink:href="#H" transform="matrix(1,0,0,1,1878.3999999999999,-235.0000000000001) translate(150.025 30.025)"/></g><path d="M1661-259.5h-2v-49.57h2zm0-71.18h-2v-67.07h2z"/><path d="M1661-397.72h-2v-1.78l1 .75 1-.75zM1660-244.24l-4.64-14.26h9.28z"/><path d="M1660-241l-6-18.5h12zm-3.26-16.5l3.26 10.03 3.26-10.03z"/><g><use xlink:href="#bg" transform="matrix(1,0,0,1,1606.6,-330.67500000000007) translate(0 14.4)"/><use xlink:href="#ai" transform="matrix(1,0,0,1,1606.6,-330.67500000000007) translate(71.85000000000001 14.4)"/></g><path d="M1520-240h280v60h-280z" stroke="#000" stroke-width="2" fill="#fff"/><g><use xlink:href="#be" transform="matrix(1,0,0,1,1525,-235.0000000000001) translate(87.1 30.025)"/><use xlink:href="#D" transform="matrix(1,0,0,1,1525,-235.0000000000001) translate(128.05 30.025)"/><use xlink:href="#H" transform="matrix(1,0,0,1,1525,-235.0000000000001) translate(147 30.025)"/></g><path d="M2014.4-259.5h-2v-189.7h2zM1742.67-459v-2h206.44v2z"/><path d="M1742.7-459h-2.37l1.34-1-1.34-1h2.36zM2013.4-244.24l-4.64-14.26h9.28z"/><path d="M2013.4-241l-6-18.5h12zm-3.26-16.5l3.26 10.03 3.26-10.03z"/><g><use xlink:href="#bh" transform="matrix(1,0,0,1,1949.1083333333333,-470.8) translate(0 14.4)"/><use xlink:href="#ai" transform="matrix(1,0,0,1,1949.1083333333333,-470.8) translate(40.900000000000006 14.4)"/></g><path d="M1381.9-620c22.1 0 40 13.43 40 30s-17.9 30-40 30h-120c-22.1 0-40-13.43-40-30s17.9-30 40-30z" stroke="#000" stroke-width="2" fill="#fff"/><g><use xlink:href="#bi" transform="matrix(1,0,0,1,1226.9,-615) translate(26.099999999999994 30.025)"/><use xlink:href="#n" transform="matrix(1,0,0,1,1226.9,-615) translate(88.05 30.025)"/></g><path d="M1720-620c22.1 0 40 13.43 40 30s-17.9 30-40 30h-120c-22.1 0-40-13.43-40-30s17.9-30 40-30z" stroke="#000" stroke-width="2" fill="#fff"/><g><use xlink:href="#bj" transform="matrix(1,0,0,1,1565,-615) translate(44.05 30.025)"/></g><path d="M1120-718v48h201.9v30.5" stroke="#000" stroke-width="2" fill="none"/><path d="M1121-717.97h-2V-719h2z"/><path d="M1321.9-624.24l-4.64-14.26h9.28z" stroke="#000" stroke-width="2"/><path d="M1120-718v48h540v30.5" stroke="#000" stroke-width="2" fill="none"/><path d="M1121-717.97h-2V-719h2z"/><path d="M1660-624.24l-4.64-14.26h9.28z" stroke="#000" stroke-width="2"/><path d="M1660-558v18.25" stroke="#000" stroke-width="2" fill="none"/><path d="M1661-557.97h-2V-559h2z"/><path d="M1660-524.5l-4.64-14.25h9.28z" stroke="#000" stroke-width="2"/><path d="M1120-718v618H900v80.5" stroke="#000" stroke-width="2" fill="none"/><path d="M1121-717.97h-2V-719h2z"/><path d="M900-4.24l-4.64-14.26h9.28z" stroke="#000" stroke-width="2"/><path d="M1121-101h540v61.5h-2V-99h-540v-619h2z"/><path d="M1121-717.97h-2V-719h2zM1660-24.24l-4.64-14.26h9.28z"/><path d="M1660-21l-6-18.5h12zm-3.26-16.5l3.26 10.03 3.26-10.03zM1121-101h1080v61.5h-2V-99H1119v-619h2z"/><path d="M1121-717.97h-2V-719h2zM2200-24.24l-4.64-14.26h9.28z"/><path d="M2200-21l-6-18.5h12zm-3.26-16.5l3.26 10.03 3.26-10.03zM1121-101h1360v70.5h-2V-99H1119v-619h2z"/><path d="M1121-717.97h-2V-719h2zM2480-15.24l-4.64-14.26h9.28z"/><path d="M2480-12l-6-18.5h12zm-3.26-16.5l3.26 10.03 3.26-10.03zM1121-101h1720v79.7h-2V-99H1119v-619h2z"/><path d="M1121-717.97h-2V-719h2zM2840-6.04l-4.64-14.26h9.28z"/><path d="M2840-2.8l-6-18.5h12zm-3.26-16.5L2840-9.27l3.26-10.03z"/><path d="M2426.4-780h200v104h-200z" stroke="#000" stroke-width="2" fill="#fff"/><g><use xlink:href="#bk" transform="matrix(1,0,0,1,2431.4000000000005,-775) translate(66.525 50.025)"/></g><path d="M2360-840h340v560h-340z" stroke="#000" stroke-width="2" fill-opacity="0"/><path d="M2459.7-900h147.8v42.27h-147.8z" fill="#fff" fill-opacity="0"/><g><use xlink:href="#bl" transform="matrix(1,0,0,1,2464.7000000000003,-894.9999999999999) translate(0 21.511111111111106)"/></g><path d="M3062 287.4h18.5" stroke="#000" stroke-width="2" fill="none"/><path d="M3062.03 288.4H3061v-2h1.03z"/><path d="M3095.76 287.4l-14.26 4.64v-9.28z" stroke="#000" stroke-width="2"/><path d="M3262 289.2h18.5" stroke="#000" stroke-width="2" fill="none"/><path d="M3262.03 290.2H3261v-2h1.03z"/><path d="M3295.76 289.2l-14.26 4.64v-9.28z" stroke="#000" stroke-width="2"/><defs><path d="M30-248c87 1 191-15 191 75 0 78-77 80-158 76V0H30v-248zm33 125c57 0 124 11 124-50 0-59-68-47-124-48v98" id="bm"/><path d="M100-194c62-1 85 37 85 99 1 63-27 99-86 99S16-35 15-95c0-66 28-99 85-99zM99-20c44 1 53-31 53-75 0-43-8-75-51-75s-53 32-53 75 10 74 51 75" id="bn"/><path d="M115-194c55 1 70 41 70 98S169 2 115 4C84 4 66-9 55-30l1 105H24l-1-265h31l2 30c10-21 28-34 59-34zm-8 174c40 0 45-34 45-75s-6-73-45-74c-42 0-51 32-51 76 0 43 10 73 51 73" id="bo"/><path d="M16-82v-28h88v28H16" id="bp"/><path d="M84 4C-5 8 30-112 23-190h32v120c0 31 7 50 39 49 72-2 45-101 50-169h31l1 190h-30c-1-10 1-25-2-33-11 22-28 36-60 37" id="bq"/><g id="a"><use transform="matrix(0.05,0,0,0.05,0,0)" xlink:href="#bm"/><use transform="matrix(0.05,0,0,0.05,12,0)" xlink:href="#bn"/><use transform="matrix(0.05,0,0,0.05,22,0)" xlink:href="#bo"/><use transform="matrix(0.05,0,0,0.05,32,0)" xlink:href="#bp"/><use transform="matrix(0.05,0,0,0.05,37.95,0)" xlink:href="#bq"/><use transform="matrix(0.05,0,0,0.05,47.95,0)" xlink:href="#bo"/></g><path d="M101-234c-31-9-42 10-38 44h38v23H63V0H32v-167H5v-23h27c-7-52 17-82 69-68v24" id="br"/><path d="M114-163C36-179 61-72 57 0H25l-1-190h30c1 12-1 29 2 39 6-27 23-49 58-41v29" id="bs"/><g id="b"><use transform="matrix(0.05,0,0,0.05,0,0)" xlink:href="#br"/><use transform="matrix(0.05,0,0,0.05,5,0)" xlink:href="#bn"/><use transform="matrix(0.05,0,0,0.05,15,0)" xlink:href="#bs"/></g><path d="M59-47c-2 24 18 29 38 22v24C64 9 27 4 27-40v-127H5v-23h24l9-43h21v43h35v23H59v120" id="bt"/><path d="M24-231v-30h32v30H24zM24 0v-190h32V0H24" id="bu"/><path d="M210-169c-67 3-38 105-44 169h-31v-121c0-29-5-50-35-48C34-165 62-65 56 0H25l-1-190h30c1 10-1 24 2 32 10-44 99-50 107 0 11-21 27-35 58-36 85-2 47 119 55 194h-31v-121c0-29-5-49-35-48" id="bv"/><path d="M117-194c89-4 53 116 60 194h-32v-121c0-31-8-49-39-48C34-167 62-67 57 0H25l-1-190h30c1 10-1 24 2 32 11-22 29-35 61-36" id="bw"/><path d="M177-190C167-65 218 103 67 71c-23-6-38-20-44-43l32-5c15 47 100 32 89-28v-30C133-14 115 1 83 1 29 1 15-40 15-95c0-56 16-97 71-98 29-1 48 16 59 35 1-10 0-23 2-32h30zM94-22c36 0 50-32 50-73 0-42-14-75-50-75-39 0-46 34-46 75s6 73 46 73" id="bx"/><g id="c"><use transform="matrix(0.05,0,0,0.05,0,0)" xlink:href="#bt"/><use transform="matrix(0.05,0,0,0.05,5,0)" xlink:href="#bu"/><use transform="matrix(0.05,0,0,0.05,8.95,0)" xlink:href="#bv"/><use transform="matrix(0.05,0,0,0.05,23.9,0)" xlink:href="#bu"/><use transform="matrix(0.05,0,0,0.05,27.849999999999994,0)" xlink:href="#bw"/><use transform="matrix(0.05,0,0,0.05,37.849999999999994,0)" xlink:href="#bx"/></g><path d="M206 0h-36l-40-164L89 0H53L-1-190h32L70-26l43-164h34l41 164 42-164h31" id="by"/><path d="M141-36C126-15 110 5 73 4 37 3 15-17 15-53c-1-64 63-63 125-63 3-35-9-54-41-54-24 1-41 7-42 31l-33-3c5-37 33-52 76-52 45 0 72 20 72 64v82c-1 20 7 32 28 27v20c-31 9-61-2-59-35zM48-53c0 20 12 33 32 33 41-3 63-29 60-74-43 2-92-5-92 41" id="bz"/><g id="d"><use transform="matrix(0.05,0,0,0.05,0,0)" xlink:href="#by"/><use transform="matrix(0.05,0,0,0.05,12.950000000000001,0)" xlink:href="#bz"/><use transform="matrix(0.05,0,0,0.05,22.950000000000003,0)" xlink:href="#bs"/><use transform="matrix(0.05,0,0,0.05,28.900000000000002,0)" xlink:href="#bw"/><use transform="matrix(0.05,0,0,0.05,38.900000000000006,0)" xlink:href="#bu"/><use transform="matrix(0.05,0,0,0.05,42.85000000000001,0)" xlink:href="#bw"/><use transform="matrix(0.05,0,0,0.05,52.85,0)" xlink:href="#bx"/></g><path d="M30-248c118-7 216 8 213 122C240-48 200 0 122 0H30v-248zM63-27c89 8 146-16 146-99s-60-101-146-95v194" id="bA"/><path d="M100-194c63 0 86 42 84 106H49c0 40 14 67 53 68 26 1 43-12 49-29l28 8c-11 28-37 45-77 45C44 4 14-33 15-96c1-61 26-98 85-98zm52 81c6-60-76-77-97-28-3 7-6 17-6 28h103" id="bB"/><path d="M96-169c-40 0-48 33-48 73s9 75 48 75c24 0 41-14 43-38l32 2c-6 37-31 61-74 61-59 0-76-41-82-99-10-93 101-131 147-64 4 7 5 14 7 22l-32 3c-4-21-16-35-41-35" id="bC"/><path d="M135-143c-3-34-86-38-87 0 15 53 115 12 119 90S17 21 10-45l28-5c4 36 97 45 98 0-10-56-113-15-118-90-4-57 82-63 122-42 12 7 21 19 24 35" id="bD"/><g id="e"><use transform="matrix(0.05,0,0,0.05,0,0)" xlink:href="#bA"/><use transform="matrix(0.05,0,0,0.05,12.950000000000001,0)" xlink:href="#bB"/><use transform="matrix(0.05,0,0,0.05,22.950000000000003,0)" xlink:href="#bC"/><use transform="matrix(0.05,0,0,0.05,31.950000000000003,0)" xlink:href="#bu"/><use transform="matrix(0.05,0,0,0.05,35.900000000000006,0)" xlink:href="#bD"/><use transform="matrix(0.05,0,0,0.05,44.900000000000006,0)" xlink:href="#bu"/><use transform="matrix(0.05,0,0,0.05,48.85000000000001,0)" xlink:href="#bn"/><use transform="matrix(0.05,0,0,0.05,58.85,0)" xlink:href="#bw"/></g><path d="M140-251c81 0 123 46 123 126C263-46 219 4 140 4 59 4 17-45 17-125s42-126 123-126zm0 227c63 0 89-41 89-101s-29-99-89-99c-61 0-89 39-89 99S79-25 140-24" id="bE"/><path d="M0 4l72-265h28L28 4H0" id="bF"/><path d="M160-131c35 5 61 23 61 61C221 17 115-2 30 0v-248c76 3 177-17 177 60 0 33-19 50-47 57zm-97-11c50-1 110 9 110-42 0-47-63-36-110-37v79zm0 115c55-2 124 14 124-45 0-56-70-42-124-44v89" id="bG"/><g id="f"><use transform="matrix(0.05,0,0,0.05,0,0)" xlink:href="#bE"/><use transform="matrix(0.05,0,0,0.05,14,0)" xlink:href="#bo"/><use transform="matrix(0.05,0,0,0.05,24,0)" xlink:href="#bt"/><use transform="matrix(0.05,0,0,0.05,29,0)" xlink:href="#bu"/><use transform="matrix(0.05,0,0,0.05,32.95,0)" xlink:href="#bn"/><use transform="matrix(0.05,0,0,0.05,42.95,0)" xlink:href="#bw"/><use transform="matrix(0.05,0,0,0.05,52.95,0)" xlink:href="#bD"/><use transform="matrix(0.05,0,0,0.05,61.95,0)" xlink:href="#bF"/><use transform="matrix(0.05,0,0,0.05,66.95,0)" xlink:href="#bG"/><use transform="matrix(0.05,0,0,0.05,78.95,0)" xlink:href="#bq"/><use transform="matrix(0.05,0,0,0.05,88.95,0)" xlink:href="#bt"/><use transform="matrix(0.05,0,0,0.05,93.95,0)" xlink:href="#bt"/><use transform="matrix(0.05,0,0,0.05,98.95,0)" xlink:href="#bn"/><use transform="matrix(0.05,0,0,0.05,108.95,0)" xlink:href="#bw"/><use transform="matrix(0.05,0,0,0.05,118.95,0)" xlink:href="#bD"/></g><path d="M197 0v-115H63V0H30v-248h33v105h134v-105h34V0h-34" id="bH"/><g id="g"><use transform="matrix(0.05,0,0,0.05,0,0)" xlink:href="#bH"/><use transform="matrix(0.05,0,0,0.05,12.950000000000001,0)" xlink:href="#bn"/><use transform="matrix(0.05,0,0,0.05,22.950000000000003,0)" xlink:href="#bv"/><use transform="matrix(0.05,0,0,0.05,37.900000000000006,0)" xlink:href="#bB"/></g><g id="h"><use transform="matrix(0.05,0,0,0.05,0,0)" xlink:href="#bm"/><use transform="matrix(0.05,0,0,0.05,12,0)" xlink:href="#bs"/><use transform="matrix(0.05,0,0,0.05,17.95,0)" xlink:href="#bn"/><use transform="matrix(0.05,0,0,0.05,27.950000000000003,0)" xlink:href="#bx"/><use transform="matrix(0.05,0,0,0.05,37.95,0)" xlink:href="#bs"/><use transform="matrix(0.05,0,0,0.05,43.900000000000006,0)" xlink:href="#bz"/><use transform="matrix(0.05,0,0,0.05,53.900000000000006,0)" xlink:href="#bv"/><use transform="matrix(0.05,0,0,0.05,68.85000000000001,0)" xlink:href="#bD"/></g><path d="M185-189c-5-48-123-54-124 2 14 75 158 14 163 119 3 78-121 87-175 55-17-10-28-26-33-46l33-7c5 56 141 63 141-1 0-78-155-14-162-118-5-82 145-84 179-34 5 7 8 16 11 25" id="bI"/><path d="M85-194c31 0 48 13 60 33l-1-100h32l1 261h-30c-2-10 0-23-3-31C134-8 116 4 85 4 32 4 16-35 15-94c0-66 23-100 70-100zm9 24c-40 0-46 34-46 75 0 40 6 74 45 74 42 0 51-32 51-76 0-42-9-74-50-73" id="bJ"/><g id="i"><use transform="matrix(0.05,0,0,0.05,0,0)" xlink:href="#bI"/><use transform="matrix(0.05,0,0,0.05,12,0)" xlink:href="#bt"/><use transform="matrix(0.05,0,0,0.05,17,0)" xlink:href="#bq"/><use transform="matrix(0.05,0,0,0.05,27,0)" xlink:href="#bJ"/><use transform="matrix(0.05,0,0,0.05,37,0)" xlink:href="#bB"/><use transform="matrix(0.05,0,0,0.05,47,0)" xlink:href="#bw"/><use transform="matrix(0.05,0,0,0.05,57,0)" xlink:href="#bt"/></g><g id="j"><use transform="matrix(0.05,0,0,0.05,0,0)" xlink:href="#bm"/><use transform="matrix(0.05,0,0,0.05,12,0)" xlink:href="#bz"/><use transform="matrix(0.05,0,0,0.05,22,0)" xlink:href="#bs"/><use transform="matrix(0.05,0,0,0.05,27.950000000000003,0)" xlink:href="#bt"/><use transform="matrix(0.05,0,0,0.05,32.95,0)" xlink:href="#bw"/><use transform="matrix(0.05,0,0,0.05,42.95,0)" xlink:href="#bB"/><use transform="matrix(0.05,0,0,0.05,52.95,0)" xlink:href="#bs"/><use transform="matrix(0.05,0,0,0.05,58.900000000000006,0)" xlink:href="#bD"/></g><path d="M205 0l-28-72H64L36 0H1l101-248h38L239 0h-34zm-38-99l-47-123c-12 45-31 82-46 123h93" id="bK"/><path d="M115-194c53 0 69 39 70 98 0 66-23 100-70 100C84 3 66-7 56-30L54 0H23l1-261h32v101c10-23 28-34 59-34zm-8 174c40 0 45-34 45-75 0-40-5-75-45-74-42 0-51 32-51 76 0 43 10 73 51 73" id="bL"/><g id="k"><use transform="matrix(0.05,0,0,0.05,0,0)" xlink:href="#bK"/><use transform="matrix(0.05,0,0,0.05,12,0)" xlink:href="#bL"/><use transform="matrix(0.05,0,0,0.05,22,0)" xlink:href="#bn"/><use transform="matrix(0.05,0,0,0.05,32,0)" xlink:href="#bq"/><use transform="matrix(0.05,0,0,0.05,42,0)" xlink:href="#bt"/></g><path d="M240 0l2-218c-23 76-54 145-80 218h-23L58-218 59 0H30v-248h44l77 211c21-75 51-140 76-211h43V0h-30" id="bM"/><g id="l"><use transform="matrix(0.05,0,0,0.05,0,0)" xlink:href="#bM"/><use transform="matrix(0.05,0,0,0.05,14.950000000000001,0)" xlink:href="#bn"/><use transform="matrix(0.05,0,0,0.05,24.950000000000003,0)" xlink:href="#bs"/><use transform="matrix(0.05,0,0,0.05,30.900000000000002,0)" xlink:href="#bB"/></g><path d="M106-169C34-169 62-67 57 0H25v-261h32l-1 103c12-21 28-36 61-36 89 0 53 116 60 194h-32v-121c2-32-8-49-39-48" id="bN"/><path d="M24 0v-261h32V0H24" id="bO"/><g id="m"><use transform="matrix(0.05,0,0,0.05,0,0)" xlink:href="#bI"/><use transform="matrix(0.05,0,0,0.05,12,0)" xlink:href="#bC"/><use transform="matrix(0.05,0,0,0.05,21,0)" xlink:href="#bN"/><use transform="matrix(0.05,0,0,0.05,31,0)" xlink:href="#bn"/><use transform="matrix(0.05,0,0,0.05,41,0)" xlink:href="#bn"/><use transform="matrix(0.05,0,0,0.05,51,0)" xlink:href="#bO"/></g><g id="n"><use transform="matrix(0.05,0,0,0.05,0,0)" xlink:href="#bo"/><use transform="matrix(0.05,0,0,0.05,10,0)" xlink:href="#bs"/><use transform="matrix(0.05,0,0,0.05,15.949999999999998,0)" xlink:href="#bn"/><use transform="matrix(0.05,0,0,0.05,25.950000000000003,0)" xlink:href="#bx"/><use transform="matrix(0.05,0,0,0.05,35.95,0)" xlink:href="#bs"/><use transform="matrix(0.05,0,0,0.05,41.900000000000006,0)" xlink:href="#bz"/><use transform="matrix(0.05,0,0,0.05,51.900000000000006,0)" xlink:href="#bv"/><use transform="matrix(0.05,0,0,0.05,66.85000000000001,0)" xlink:href="#bD"/></g><path d="M212-179c-10-28-35-45-73-45-59 0-87 40-87 99 0 60 29 101 89 101 43 0 62-24 78-52l27 14C228-24 195 4 139 4 59 4 22-46 18-125c-6-104 99-153 187-111 19 9 31 26 39 46" id="bP"/><g id="o"><use transform="matrix(0.05,0,0,0.05,0,0)" xlink:href="#bP"/><use transform="matrix(0.05,0,0,0.05,12.950000000000001,0)" xlink:href="#bn"/><use transform="matrix(0.05,0,0,0.05,22.950000000000003,0)" xlink:href="#bO"/><use transform="matrix(0.05,0,0,0.05,26.900000000000002,0)" xlink:href="#bO"/><use transform="matrix(0.05,0,0,0.05,30.85,0)" xlink:href="#bB"/><use transform="matrix(0.05,0,0,0.05,40.85,0)" xlink:href="#bx"/><use transform="matrix(0.05,0,0,0.05,50.85,0)" xlink:href="#bB"/></g><g id="p"><use transform="matrix(0.05,0,0,0.05,0,0)" xlink:href="#bK"/><use transform="matrix(0.05,0,0,0.05,12,0)" xlink:href="#bO"/><use transform="matrix(0.05,0,0,0.05,15.949999999999998,0)" xlink:href="#bO"/></g><path d="M30 0v-248h187v28H63v79h144v27H63v87h162V0H30" id="bQ"/><path d="M108 0H70L1-190h34L89-25l56-165h34" id="bR"/><g id="q"><use transform="matrix(0.05,0,0,0.05,0,0)" xlink:href="#bQ"/><use transform="matrix(0.05,0,0,0.05,12,0)" xlink:href="#bR"/><use transform="matrix(0.05,0,0,0.05,21,0)" xlink:href="#bB"/><use transform="matrix(0.05,0,0,0.05,31,0)" xlink:href="#bw"/><use transform="matrix(0.05,0,0,0.05,41,0)" xlink:href="#bt"/><use transform="matrix(0.05,0,0,0.05,46,0)" xlink:href="#bD"/></g><path d="M266 0h-40l-56-210L115 0H75L2-248h35L96-30l15-64 43-154h32l59 218 59-218h35" id="bS"/><g id="r"><use transform="matrix(0.05,0,0,0.05,0,0)" xlink:href="#bS"/><use transform="matrix(0.05,0,0,0.05,16.599999999999998,0)" xlink:href="#bB"/><use transform="matrix(0.05,0,0,0.05,26.599999999999994,0)" xlink:href="#bL"/><use transform="matrix(0.05,0,0,0.05,36.599999999999994,0)" xlink:href="#bu"/><use transform="matrix(0.05,0,0,0.05,40.55,0)" xlink:href="#bw"/><use transform="matrix(0.05,0,0,0.05,50.55,0)" xlink:href="#bz"/><use transform="matrix(0.05,0,0,0.05,60.54999999999999,0)" xlink:href="#bs"/><use transform="matrix(0.05,0,0,0.05,66.5,0)" xlink:href="#bD"/></g><path d="M233-177c-1 41-23 64-60 70L243 0h-38l-65-103H63V0H30v-248c88 3 205-21 203 71zM63-129c60-2 137 13 137-47 0-61-80-42-137-45v92" id="bT"/><g id="s"><use transform="matrix(0.05,0,0,0.05,0,0)" xlink:href="#bT"/><use transform="matrix(0.05,0,0,0.05,12.950000000000001,0)" xlink:href="#bB"/><use transform="matrix(0.05,0,0,0.05,22.950000000000003,0)" xlink:href="#bx"/><use transform="matrix(0.05,0,0,0.05,32.95,0)" xlink:href="#bu"/><use transform="matrix(0.05,0,0,0.05,36.900000000000006,0)" xlink:href="#bD"/><use transform="matrix(0.05,0,0,0.05,45.900000000000006,0)" xlink:href="#bt"/><use transform="matrix(0.05,0,0,0.05,50.900000000000006,0)" xlink:href="#bB"/><use transform="matrix(0.05,0,0,0.05,60.900000000000006,0)" xlink:href="#bs"/></g><g id="t"><use transform="matrix(0.05,0,0,0.05,0,0)" xlink:href="#br"/><use transform="matrix(0.05,0,0,0.05,5,0)" xlink:href="#bn"/><use transform="matrix(0.05,0,0,0.05,15,0)" xlink:href="#bs"/></g><g id="u"><use transform="matrix(0.05,0,0,0.05,0,0)" xlink:href="#bq"/><use transform="matrix(0.05,0,0,0.05,10,0)" xlink:href="#bo"/><use transform="matrix(0.05,0,0,0.05,20,0)" xlink:href="#bC"/><use transform="matrix(0.05,0,0,0.05,29,0)" xlink:href="#bn"/><use transform="matrix(0.05,0,0,0.05,39,0)" xlink:href="#bv"/><use transform="matrix(0.05,0,0,0.05,53.95,0)" xlink:href="#bu"/><use transform="matrix(0.05,0,0,0.05,57.900000000000006,0)" xlink:href="#bw"/><use transform="matrix(0.05,0,0,0.05,67.9,0)" xlink:href="#bx"/></g><g id="v"><use transform="matrix(0.05,0,0,0.05,0,0)" xlink:href="#bS"/><use transform="matrix(0.05,0,0,0.05,16.3,0)" xlink:href="#bz"/><use transform="matrix(0.05,0,0,0.05,26.3,0)" xlink:href="#bt"/><use transform="matrix(0.05,0,0,0.05,31.3,0)" xlink:href="#bC"/><use transform="matrix(0.05,0,0,0.05,40.3,0)" xlink:href="#bN"/></g><g id="w"><use transform="matrix(0.05,0,0,0.05,0,0)" xlink:href="#bO"/><use transform="matrix(0.05,0,0,0.05,3.95,0)" xlink:href="#bu"/><use transform="matrix(0.05,0,0,0.05,7.9,0)" xlink:href="#bR"/><use transform="matrix(0.05,0,0,0.05,16.9,0)" xlink:href="#bB"/></g><g id="x"><use transform="matrix(0.05,0,0,0.05,0,0)" xlink:href="#by"/><use transform="matrix(0.05,0,0,0.05,12.950000000000001,0)" xlink:href="#bB"/><use transform="matrix(0.05,0,0,0.05,22.950000000000003,0)" xlink:href="#bL"/><use transform="matrix(0.05,0,0,0.05,32.95,0)" xlink:href="#bu"/><use transform="matrix(0.05,0,0,0.05,36.900000000000006,0)" xlink:href="#bw"/><use transform="matrix(0.05,0,0,0.05,46.900000000000006,0)" xlink:href="#bz"/><use transform="matrix(0.05,0,0,0.05,56.900000000000006,0)" xlink:href="#bs"/><use transform="matrix(0.05,0,0,0.05,62.85,0)" xlink:href="#bD"/></g><path d="M145-31C134-9 116 4 85 4 32 4 16-35 15-94c0-59 17-99 70-100 32-1 48 14 60 33 0-11-1-24 2-32h30l-1 268h-32zM93-21c41 0 51-33 51-76s-8-73-50-73c-40 0-46 35-46 75s5 74 45 74" id="bU"/><g id="y"><use transform="matrix(0.05,0,0,0.05,0,0)" xlink:href="#bT"/><use transform="matrix(0.05,0,0,0.05,12.950000000000001,0)" xlink:href="#bB"/><use transform="matrix(0.05,0,0,0.05,22.950000000000003,0)" xlink:href="#bU"/><use transform="matrix(0.05,0,0,0.05,32.95,0)" xlink:href="#bq"/><use transform="matrix(0.05,0,0,0.05,42.95,0)" xlink:href="#bB"/><use transform="matrix(0.05,0,0,0.05,52.95,0)" xlink:href="#bD"/><use transform="matrix(0.05,0,0,0.05,61.95,0)" xlink:href="#bt"/></g><g id="z"><use transform="matrix(0.05,0,0,0.05,0,0)" xlink:href="#bs"/><use transform="matrix(0.05,0,0,0.05,5.95,0)" xlink:href="#bB"/><use transform="matrix(0.05,0,0,0.05,15.949999999999998,0)" xlink:href="#bC"/><use transform="matrix(0.05,0,0,0.05,24.95,0)" xlink:href="#bn"/><use transform="matrix(0.05,0,0,0.05,34.95,0)" xlink:href="#bs"/><use transform="matrix(0.05,0,0,0.05,40.900000000000006,0)" xlink:href="#bJ"/><use transform="matrix(0.05,0,0,0.05,50.900000000000006,0)" xlink:href="#bB"/><use transform="matrix(0.05,0,0,0.05,60.900000000000006,0)" xlink:href="#bJ"/></g><g id="A"><use transform="matrix(0.05,0,0,0.05,0,0)" xlink:href="#bG"/><use transform="matrix(0.05,0,0,0.05,12,0)" xlink:href="#bs"/><use transform="matrix(0.05,0,0,0.05,17.95,0)" xlink:href="#bn"/><use transform="matrix(0.05,0,0,0.05,27.950000000000003,0)" xlink:href="#by"/><use transform="matrix(0.05,0,0,0.05,40.9,0)" xlink:href="#bD"/><use transform="matrix(0.05,0,0,0.05,49.9,0)" xlink:href="#bB"/></g><g id="B"><use transform="matrix(0.05,0,0,0.05,0,0)" xlink:href="#bo"/><use transform="matrix(0.05,0,0,0.05,10,0)" xlink:href="#bs"/><use transform="matrix(0.05,0,0,0.05,15.949999999999998,0)" xlink:href="#bB"/><use transform="matrix(0.05,0,0,0.05,25.950000000000003,0)" xlink:href="#bR"/><use transform="matrix(0.05,0,0,0.05,34.95,0)" xlink:href="#bu"/><use transform="matrix(0.05,0,0,0.05,38.900000000000006,0)" xlink:href="#bn"/><use transform="matrix(0.05,0,0,0.05,48.900000000000006,0)" xlink:href="#bq"/><use transform="matrix(0.05,0,0,0.05,58.900000000000006,0)" xlink:href="#bD"/></g><g id="C"><use transform="matrix(0.05,0,0,0.05,0,0)" xlink:href="#bB"/><use transform="matrix(0.05,0,0,0.05,10,0)" xlink:href="#bR"/><use transform="matrix(0.05,0,0,0.05,19,0)" xlink:href="#bB"/><use transform="matrix(0.05,0,0,0.05,29,0)" xlink:href="#bw"/><use transform="matrix(0.05,0,0,0.05,39,0)" xlink:href="#bt"/><use transform="matrix(0.05,0,0,0.05,44,0)" xlink:href="#bD"/></g><g id="D"><use transform="matrix(0.05,0,0,0.05,0,0)" xlink:href="#bu"/><use transform="matrix(0.05,0,0,0.05,3.95,0)" xlink:href="#bw"/></g><use transform="matrix(0.05,0,0,0.05,0,0)" xlink:href="#bz" id="E"/><path d="M179-190L93 31C79 59 56 82 12 73V49c39 6 53-20 64-50L1-190h34L92-34l54-156h33" id="bV"/><g id="F"><use transform="matrix(0.05,0,0,0.05,0,0)" xlink:href="#bx"/><use transform="matrix(0.05,0,0,0.05,10,0)" xlink:href="#bz"/><use transform="matrix(0.05,0,0,0.05,20,0)" xlink:href="#bO"/><use transform="matrix(0.05,0,0,0.05,23.95,0)" xlink:href="#bO"/><use transform="matrix(0.05,0,0,0.05,27.899999999999995,0)" xlink:href="#bB"/><use transform="matrix(0.05,0,0,0.05,37.9,0)" xlink:href="#bV"/></g><g id="G"><use transform="matrix(0.05,0,0,0.05,0,0)" xlink:href="#bT"/><use transform="matrix(0.05,0,0,0.05,12.950000000000001,0)" xlink:href="#bB"/><use transform="matrix(0.05,0,0,0.05,22.950000000000003,0)" xlink:href="#bx"/><use transform="matrix(0.05,0,0,0.05,32.95,0)" xlink:href="#bu"/><use transform="matrix(0.05,0,0,0.05,36.900000000000006,0)" xlink:href="#bD"/><use transform="matrix(0.05,0,0,0.05,45.900000000000006,0)" xlink:href="#bt"/><use transform="matrix(0.05,0,0,0.05,50.900000000000006,0)" xlink:href="#bs"/><use transform="matrix(0.05,0,0,0.05,56.85,0)" xlink:href="#bz"/><use transform="matrix(0.05,0,0,0.05,66.85000000000001,0)" xlink:href="#bt"/><use transform="matrix(0.05,0,0,0.05,71.85000000000001,0)" xlink:href="#bu"/><use transform="matrix(0.05,0,0,0.05,75.80000000000001,0)" xlink:href="#bn"/><use transform="matrix(0.05,0,0,0.05,85.80000000000001,0)" xlink:href="#bw"/></g><g id="H"><use transform="matrix(0.05,0,0,0.05,0,0)" xlink:href="#br"/><use transform="matrix(0.05,0,0,0.05,5,0)" xlink:href="#bn"/><use transform="matrix(0.05,0,0,0.05,15,0)" xlink:href="#bs"/><use transform="matrix(0.05,0,0,0.05,20.95,0)" xlink:href="#bv"/></g><g id="I"><use transform="matrix(0.05,0,0,0.05,0,0)" xlink:href="#bT"/><use transform="matrix(0.05,0,0,0.05,12.950000000000001,0)" xlink:href="#bB"/><use transform="matrix(0.05,0,0,0.05,22.950000000000003,0)" xlink:href="#bx"/><use transform="matrix(0.05,0,0,0.05,32.95,0)" xlink:href="#bu"/><use transform="matrix(0.05,0,0,0.05,36.900000000000006,0)" xlink:href="#bD"/><use transform="matrix(0.05,0,0,0.05,45.900000000000006,0)" xlink:href="#bt"/><use transform="matrix(0.05,0,0,0.05,50.900000000000006,0)" xlink:href="#bs"/><use transform="matrix(0.05,0,0,0.05,56.85,0)" xlink:href="#bz"/><use transform="matrix(0.05,0,0,0.05,66.85000000000001,0)" xlink:href="#bt"/><use transform="matrix(0.05,0,0,0.05,71.85000000000001,0)" xlink:href="#bu"/><use transform="matrix(0.05,0,0,0.05,75.80000000000001,0)" xlink:href="#bn"/><use transform="matrix(0.05,0,0,0.05,85.80000000000001,0)" xlink:href="#bw"/></g><g id="J"><use transform="matrix(0.05,0,0,0.05,0,0)" xlink:href="#bP"/><use transform="matrix(0.05,0,0,0.05,12.950000000000001,0)" xlink:href="#bn"/><use transform="matrix(0.05,0,0,0.05,22.950000000000003,0)" xlink:href="#bv"/><use transform="matrix(0.05,0,0,0.05,37.900000000000006,0)" xlink:href="#bo"/><use transform="matrix(0.05,0,0,0.05,47.900000000000006,0)" xlink:href="#bO"/><use transform="matrix(0.05,0,0,0.05,51.85,0)" xlink:href="#bB"/><use transform="matrix(0.05,0,0,0.05,61.85,0)" xlink:href="#bt"/><use transform="matrix(0.05,0,0,0.05,66.85000000000001,0)" xlink:href="#bB"/></g><g id="K"><use transform="matrix(0.05,0,0,0.05,0,0)" xlink:href="#bu"/><use transform="matrix(0.05,0,0,0.05,3.95,0)" xlink:href="#br"/></g><g id="L"><use transform="matrix(0.05,0,0,0.05,0,0)" xlink:href="#bo"/><use transform="matrix(0.05,0,0,0.05,10,0)" xlink:href="#bz"/><use transform="matrix(0.05,0,0,0.05,20,0)" xlink:href="#bu"/><use transform="matrix(0.05,0,0,0.05,23.95,0)" xlink:href="#bJ"/></g><g id="M"><use transform="matrix(0.05,0,0,0.05,0,0)" xlink:href="#by"/><use transform="matrix(0.05,0,0,0.05,12.950000000000001,0)" xlink:href="#bB"/><use transform="matrix(0.05,0,0,0.05,22.950000000000003,0)" xlink:href="#bL"/><use transform="matrix(0.05,0,0,0.05,32.95,0)" xlink:href="#bu"/><use transform="matrix(0.05,0,0,0.05,36.900000000000006,0)" xlink:href="#bw"/><use transform="matrix(0.05,0,0,0.05,46.900000000000006,0)" xlink:href="#bz"/><use transform="matrix(0.05,0,0,0.05,56.900000000000006,0)" xlink:href="#bs"/></g><path d="M143 0L79-87 56-68V0H24v-261h32v163l83-92h37l-77 82L181 0h-38" id="bW"/><g id="N"><use transform="matrix(0.05,0,0,0.05,0,0)" xlink:href="#bP"/><use transform="matrix(0.05,0,0,0.05,12.950000000000001,0)" xlink:href="#bN"/><use transform="matrix(0.05,0,0,0.05,22.950000000000003,0)" xlink:href="#bB"/><use transform="matrix(0.05,0,0,0.05,32.95,0)" xlink:href="#bC"/><use transform="matrix(0.05,0,0,0.05,41.95,0)" xlink:href="#bW"/><use transform="matrix(0.05,0,0,0.05,50.95,0)" xlink:href="#bn"/><use transform="matrix(0.05,0,0,0.05,60.95,0)" xlink:href="#bq"/><use transform="matrix(0.05,0,0,0.05,70.95,0)" xlink:href="#bt"/></g><path d="M137-103V0h-34v-103L8-248h37l75 118 75-118h37" id="bX"/><g id="O"><use transform="matrix(0.05,0,0,0.05,0,0)" xlink:href="#bX"/><use transform="matrix(0.05,0,0,0.05,10.35,0)" xlink:href="#bB"/><use transform="matrix(0.05,0,0,0.05,20.35,0)" xlink:href="#bD"/></g><path d="M190 0L58-211 59 0H30v-248h39L202-35l-2-213h31V0h-41" id="bY"/><g id="P"><use transform="matrix(0.05,0,0,0.05,0,0)" xlink:href="#bY"/><use transform="matrix(0.05,0,0,0.05,12.950000000000001,0)" xlink:href="#bn"/></g><g id="Q"><use transform="matrix(0.05,0,0,0.05,0,0)" xlink:href="#bG"/><use transform="matrix(0.05,0,0,0.05,12,0)" xlink:href="#bB"/><use transform="matrix(0.05,0,0,0.05,22,0)" xlink:href="#bw"/><use transform="matrix(0.05,0,0,0.05,32,0)" xlink:href="#bB"/><use transform="matrix(0.05,0,0,0.05,42,0)" xlink:href="#br"/><use transform="matrix(0.05,0,0,0.05,47,0)" xlink:href="#bu"/><use transform="matrix(0.05,0,0,0.05,50.95,0)" xlink:href="#bt"/><use transform="matrix(0.05,0,0,0.05,55.95,0)" xlink:href="#bD"/></g><g id="R"><use transform="matrix(0.05,0,0,0.05,0,0)" xlink:href="#bt"/><use transform="matrix(0.05,0,0,0.05,5,0)" xlink:href="#bn"/></g><g id="S"><use transform="matrix(0.05,0,0,0.05,0,0)" xlink:href="#bD"/><use transform="matrix(0.05,0,0,0.05,9,0)" xlink:href="#bC"/><use transform="matrix(0.05,0,0,0.05,18,0)" xlink:href="#bN"/><use transform="matrix(0.05,0,0,0.05,28,0)" xlink:href="#bn"/><use transform="matrix(0.05,0,0,0.05,38,0)" xlink:href="#bn"/><use transform="matrix(0.05,0,0,0.05,48,0)" xlink:href="#bO"/></g><g id="T"><use transform="matrix(0.05,0,0,0.05,0,0)" xlink:href="#bD"/><use transform="matrix(0.05,0,0,0.05,9,0)" xlink:href="#bt"/><use transform="matrix(0.05,0,0,0.05,14,0)" xlink:href="#bq"/><use transform="matrix(0.05,0,0,0.05,24,0)" xlink:href="#bJ"/><use transform="matrix(0.05,0,0,0.05,34,0)" xlink:href="#bB"/><use transform="matrix(0.05,0,0,0.05,44,0)" xlink:href="#bw"/><use transform="matrix(0.05,0,0,0.05,54,0)" xlink:href="#bt"/><use transform="matrix(0.05,0,0,0.05,59,0)" xlink:href="#bD"/></g><path d="M30 0v-248h33v221h125V0H30" id="bZ"/><g id="U"><use transform="matrix(0.05,0,0,0.05,0,0)" xlink:href="#bZ"/><use transform="matrix(0.05,0,0,0.05,10,0)" xlink:href="#bn"/><use transform="matrix(0.05,0,0,0.05,20,0)" xlink:href="#bw"/><use transform="matrix(0.05,0,0,0.05,30,0)" xlink:href="#bx"/><use transform="matrix(0.05,0,0,0.05,40,0)" xlink:href="#bp"/><use transform="matrix(0.05,0,0,0.05,45.95,0)" xlink:href="#bt"/><use transform="matrix(0.05,0,0,0.05,50.95,0)" xlink:href="#bB"/><use transform="matrix(0.05,0,0,0.05,60.95,0)" xlink:href="#bs"/><use transform="matrix(0.05,0,0,0.05,66.9,0)" xlink:href="#bv"/></g><g id="V"><use transform="matrix(0.05,0,0,0.05,0,0)" xlink:href="#bo"/><use transform="matrix(0.05,0,0,0.05,10,0)" xlink:href="#bO"/><use transform="matrix(0.05,0,0,0.05,13.949999999999998,0)" xlink:href="#bz"/><use transform="matrix(0.05,0,0,0.05,23.95,0)" xlink:href="#bw"/><use transform="matrix(0.05,0,0,0.05,33.95,0)" xlink:href="#bD"/></g><g id="W"><use transform="matrix(0.05,0,0,0.05,0,0)" xlink:href="#bC"/><use transform="matrix(0.05,0,0,0.05,9,0)" xlink:href="#bn"/><use transform="matrix(0.05,0,0,0.05,19,0)" xlink:href="#bO"/><use transform="matrix(0.05,0,0,0.05,22.95,0)" xlink:href="#bO"/><use transform="matrix(0.05,0,0,0.05,26.899999999999995,0)" xlink:href="#bB"/><use transform="matrix(0.05,0,0,0.05,36.9,0)" xlink:href="#bx"/><use transform="matrix(0.05,0,0,0.05,46.9,0)" xlink:href="#bB"/></g><g id="X"><use transform="matrix(0.05,0,0,0.05,0,0)" xlink:href="#bm"/><use transform="matrix(0.05,0,0,0.05,12,0)" xlink:href="#bz"/><use transform="matrix(0.05,0,0,0.05,22,0)" xlink:href="#bs"/><use transform="matrix(0.05,0,0,0.05,27.950000000000003,0)" xlink:href="#bt"/><use transform="matrix(0.05,0,0,0.05,32.95,0)" xlink:href="#bw"/><use transform="matrix(0.05,0,0,0.05,42.95,0)" xlink:href="#bB"/><use transform="matrix(0.05,0,0,0.05,52.95,0)" xlink:href="#bs"/></g><g id="Y"><use transform="matrix(0.05,0,0,0.05,0,0)" xlink:href="#bm"/><use transform="matrix(0.05,0,0,0.05,12,0)" xlink:href="#bs"/><use transform="matrix(0.05,0,0,0.05,17.95,0)" xlink:href="#bn"/><use transform="matrix(0.05,0,0,0.05,27.950000000000003,0)" xlink:href="#bx"/><use transform="matrix(0.05,0,0,0.05,37.95,0)" xlink:href="#bs"/><use transform="matrix(0.05,0,0,0.05,43.900000000000006,0)" xlink:href="#bz"/><use transform="matrix(0.05,0,0,0.05,53.900000000000006,0)" xlink:href="#bv"/><use transform="matrix(0.05,0,0,0.05,68.85000000000001,0)" xlink:href="#bD"/></g><g id="Z"><use transform="matrix(0.05,0,0,0.05,0,0)" xlink:href="#bP"/><use transform="matrix(0.05,0,0,0.05,12.950000000000001,0)" xlink:href="#bn"/><use transform="matrix(0.05,0,0,0.05,22.950000000000003,0)" xlink:href="#bq"/><use transform="matrix(0.05,0,0,0.05,32.95,0)" xlink:href="#bs"/><use transform="matrix(0.05,0,0,0.05,38.900000000000006,0)" xlink:href="#bD"/><use transform="matrix(0.05,0,0,0.05,47.900000000000006,0)" xlink:href="#bB"/></g><g id="aa"><use transform="matrix(0.05,0,0,0.05,0,0)" xlink:href="#bD"/><use transform="matrix(0.05,0,0,0.05,9,0)" xlink:href="#bB"/><use transform="matrix(0.05,0,0,0.05,19,0)" xlink:href="#bO"/><use transform="matrix(0.05,0,0,0.05,22.95,0)" xlink:href="#bB"/><use transform="matrix(0.05,0,0,0.05,32.95,0)" xlink:href="#bC"/><use transform="matrix(0.05,0,0,0.05,41.95,0)" xlink:href="#bt"/><use transform="matrix(0.05,0,0,0.05,46.95,0)" xlink:href="#bu"/><use transform="matrix(0.05,0,0,0.05,50.900000000000006,0)" xlink:href="#bn"/><use transform="matrix(0.05,0,0,0.05,60.900000000000006,0)" xlink:href="#bw"/></g><g id="ab"><use transform="matrix(0.05,0,0,0.05,0,0)" xlink:href="#bP"/><use transform="matrix(0.05,0,0,0.05,12.950000000000001,0)" xlink:href="#bn"/><use transform="matrix(0.05,0,0,0.05,22.950000000000003,0)" xlink:href="#bw"/><use transform="matrix(0.05,0,0,0.05,32.95,0)" xlink:href="#bt"/><use transform="matrix(0.05,0,0,0.05,37.95,0)" xlink:href="#bz"/><use transform="matrix(0.05,0,0,0.05,47.95,0)" xlink:href="#bC"/><use transform="matrix(0.05,0,0,0.05,56.95,0)" xlink:href="#bt"/></g><g id="ac"><use transform="matrix(0.05,0,0,0.05,0,0)" xlink:href="#bn"/><use transform="matrix(0.05,0,0,0.05,10,0)" xlink:href="#br"/><use transform="matrix(0.05,0,0,0.05,14.65,0)" xlink:href="#br"/><use transform="matrix(0.05,0,0,0.05,19.65,0)" xlink:href="#bO"/><use transform="matrix(0.05,0,0,0.05,23.599999999999998,0)" xlink:href="#bu"/><use transform="matrix(0.05,0,0,0.05,27.549999999999997,0)" xlink:href="#bw"/><use transform="matrix(0.05,0,0,0.05,37.55,0)" xlink:href="#bB"/></g><g id="ad"><use transform="matrix(0.05,0,0,0.05,0,0)" xlink:href="#bP"/><use transform="matrix(0.05,0,0,0.05,12.950000000000001,0)" xlink:href="#bN"/><use transform="matrix(0.05,0,0,0.05,22.950000000000003,0)" xlink:href="#bB"/><use transform="matrix(0.05,0,0,0.05,32.95,0)" xlink:href="#bC"/><use transform="matrix(0.05,0,0,0.05,41.95,0)" xlink:href="#bW"/></g><g id="ae"><use transform="matrix(0.05,0,0,0.05,0,0)" xlink:href="#bq"/><use transform="matrix(0.05,0,0,0.05,10,0)" xlink:href="#bD"/><use transform="matrix(0.05,0,0,0.05,19,0)" xlink:href="#bB"/><use transform="matrix(0.05,0,0,0.05,29,0)" xlink:href="#bs"/></g><g id="af"><use transform="matrix(0.05,0,0,0.05,0,0)" xlink:href="#bs"/><use transform="matrix(0.05,0,0,0.05,5.95,0)" xlink:href="#bB"/><use transform="matrix(0.05,0,0,0.05,15.949999999999998,0)" xlink:href="#bx"/><use transform="matrix(0.05,0,0,0.05,25.950000000000003,0)" xlink:href="#bu"/><use transform="matrix(0.05,0,0,0.05,29.899999999999995,0)" xlink:href="#bD"/><use transform="matrix(0.05,0,0,0.05,38.9,0)" xlink:href="#bt"/><use transform="matrix(0.05,0,0,0.05,43.9,0)" xlink:href="#bs"/><use transform="matrix(0.05,0,0,0.05,49.85,0)" xlink:href="#bz"/><use transform="matrix(0.05,0,0,0.05,59.85,0)" xlink:href="#bt"/><use transform="matrix(0.05,0,0,0.05,64.85,0)" xlink:href="#bu"/><use transform="matrix(0.05,0,0,0.05,68.8,0)" xlink:href="#bn"/><use transform="matrix(0.05,0,0,0.05,78.8,0)" xlink:href="#bw"/></g><g id="ag"><use transform="matrix(0.05,0,0,0.05,0,0)" xlink:href="#bZ"/><use transform="matrix(0.05,0,0,0.05,10,0)" xlink:href="#bn"/><use transform="matrix(0.05,0,0,0.05,20,0)" xlink:href="#bx"/><use transform="matrix(0.05,0,0,0.05,30,0)" xlink:href="#bx"/><use transform="matrix(0.05,0,0,0.05,40,0)" xlink:href="#bB"/><use transform="matrix(0.05,0,0,0.05,50,0)" xlink:href="#bJ"/></g><path d="M33 0v-248h34V0H33" id="ca"/><g id="ah"><use transform="matrix(0.05,0,0,0.05,0,0)" xlink:href="#ca"/><use transform="matrix(0.05,0,0,0.05,5,0)" xlink:href="#bw"/></g><g id="ai"><use transform="matrix(0.05,0,0,0.05,0,0)" xlink:href="#bq"/><use transform="matrix(0.05,0,0,0.05,10,0)" xlink:href="#bD"/><use transform="matrix(0.05,0,0,0.05,19,0)" xlink:href="#bB"/><use transform="matrix(0.05,0,0,0.05,29,0)" xlink:href="#bs"/></g><g id="aj"><use transform="matrix(0.05,0,0,0.05,0,0)" xlink:href="#bm"/><use transform="matrix(0.05,0,0,0.05,12,0)" xlink:href="#bs"/><use transform="matrix(0.05,0,0,0.05,17.95,0)" xlink:href="#bn"/><use transform="matrix(0.05,0,0,0.05,27.950000000000003,0)" xlink:href="#bx"/><use transform="matrix(0.05,0,0,0.05,37.95,0)" xlink:href="#bs"/><use transform="matrix(0.05,0,0,0.05,43.900000000000006,0)" xlink:href="#bz"/><use transform="matrix(0.05,0,0,0.05,53.900000000000006,0)" xlink:href="#bv"/></g><g id="ak"><use transform="matrix(0.05,0,0,0.05,0,0)" xlink:href="#bA"/><use transform="matrix(0.05,0,0,0.05,12.950000000000001,0)" xlink:href="#bB"/><use transform="matrix(0.05,0,0,0.05,22.950000000000003,0)" xlink:href="#bt"/><use transform="matrix(0.05,0,0,0.05,27.950000000000003,0)" xlink:href="#bz"/><use transform="matrix(0.05,0,0,0.05,37.95,0)" xlink:href="#bu"/><use transform="matrix(0.05,0,0,0.05,41.900000000000006,0)" xlink:href="#bO"/><use transform="matrix(0.05,0,0,0.05,45.85000000000001,0)" xlink:href="#bD"/></g><g id="al"><use transform="matrix(0.05,0,0,0.05,0,0)" xlink:href="#bK"/><use transform="matrix(0.05,0,0,0.05,12,0)" xlink:href="#bo"/><use transform="matrix(0.05,0,0,0.05,22,0)" xlink:href="#bo"/><use transform="matrix(0.05,0,0,0.05,32,0)" xlink:href="#bO"/><use transform="matrix(0.05,0,0,0.05,35.95,0)" xlink:href="#bu"/><use transform="matrix(0.05,0,0,0.05,39.900000000000006,0)" xlink:href="#bC"/><use transform="matrix(0.05,0,0,0.05,48.900000000000006,0)" xlink:href="#bz"/><use transform="matrix(0.05,0,0,0.05,58.900000000000006,0)" xlink:href="#bw"/><use transform="matrix(0.05,0,0,0.05,68.9,0)" xlink:href="#bt"/></g><g id="am"><use transform="matrix(0.05,0,0,0.05,0,0)" xlink:href="#bT"/><use transform="matrix(0.05,0,0,0.05,12.950000000000001,0)" xlink:href="#bB"/><use transform="matrix(0.05,0,0,0.05,22.950000000000003,0)" xlink:href="#bx"/><use transform="matrix(0.05,0,0,0.05,32.95,0)" xlink:href="#bu"/><use transform="matrix(0.05,0,0,0.05,36.900000000000006,0)" xlink:href="#bD"/><use transform="matrix(0.05,0,0,0.05,45.900000000000006,0)" xlink:href="#bt"/><use transform="matrix(0.05,0,0,0.05,50.900000000000006,0)" xlink:href="#bs"/><use transform="matrix(0.05,0,0,0.05,56.85,0)" xlink:href="#bz"/><use transform="matrix(0.05,0,0,0.05,66.85000000000001,0)" xlink:href="#bt"/><use transform="matrix(0.05,0,0,0.05,71.85000000000001,0)" xlink:href="#bu"/><use transform="matrix(0.05,0,0,0.05,75.80000000000001,0)" xlink:href="#bn"/><use transform="matrix(0.05,0,0,0.05,85.80000000000001,0)" xlink:href="#bw"/></g><g id="an"><use transform="matrix(0.05,0,0,0.05,0,0)" xlink:href="#br"/><use transform="matrix(0.05,0,0,0.05,5,0)" xlink:href="#bu"/><use transform="matrix(0.05,0,0,0.05,8.95,0)" xlink:href="#bw"/><use transform="matrix(0.05,0,0,0.05,18.95,0)" xlink:href="#bu"/><use transform="matrix(0.05,0,0,0.05,22.9,0)" xlink:href="#bD"/><use transform="matrix(0.05,0,0,0.05,31.899999999999995,0)" xlink:href="#bN"/><use transform="matrix(0.05,0,0,0.05,41.9,0)" xlink:href="#bB"/><use transform="matrix(0.05,0,0,0.05,51.900000000000006,0)" xlink:href="#bJ"/></g><g id="ao"><use transform="matrix(0.05,0,0,0.05,0,0)" xlink:href="#bt"/><use transform="matrix(0.05,0,0,0.05,5,0)" xlink:href="#bu"/><use transform="matrix(0.05,0,0,0.05,8.95,0)" xlink:href="#bv"/><use transform="matrix(0.05,0,0,0.05,23.9,0)" xlink:href="#bu"/><use transform="matrix(0.05,0,0,0.05,27.849999999999994,0)" xlink:href="#bw"/><use transform="matrix(0.05,0,0,0.05,37.849999999999994,0)" xlink:href="#bx"/></g><g id="ap"><use transform="matrix(0.05,0,0,0.05,0,0)" xlink:href="#bC"/><use transform="matrix(0.05,0,0,0.05,9,0)" xlink:href="#bO"/><use transform="matrix(0.05,0,0,0.05,12.949999999999998,0)" xlink:href="#bz"/><use transform="matrix(0.05,0,0,0.05,22.95,0)" xlink:href="#bD"/><use transform="matrix(0.05,0,0,0.05,31.950000000000003,0)" xlink:href="#bN"/><use transform="matrix(0.05,0,0,0.05,41.95,0)" xlink:href="#bB"/><use transform="matrix(0.05,0,0,0.05,51.95,0)" xlink:href="#bD"/></g><g id="aq"><use transform="matrix(0.05,0,0,0.05,0,0)" xlink:href="#by"/><use transform="matrix(0.05,0,0,0.05,12.950000000000001,0)" xlink:href="#bu"/><use transform="matrix(0.05,0,0,0.05,16.900000000000002,0)" xlink:href="#bt"/><use transform="matrix(0.05,0,0,0.05,21.900000000000002,0)" xlink:href="#bN"/></g><g id="ar"><use transform="matrix(0.05,0,0,0.05,0,0)" xlink:href="#bn"/><use transform="matrix(0.05,0,0,0.05,10,0)" xlink:href="#bt"/><use transform="matrix(0.05,0,0,0.05,15,0)" xlink:href="#bN"/><use transform="matrix(0.05,0,0,0.05,25,0)" xlink:href="#bB"/><use transform="matrix(0.05,0,0,0.05,35,0)" xlink:href="#bs"/></g><g id="as"><use transform="matrix(0.05,0,0,0.05,0,0)" xlink:href="#bn"/><use transform="matrix(0.05,0,0,0.05,10,0)" xlink:href="#br"/><use transform="matrix(0.05,0,0,0.05,14.65,0)" xlink:href="#br"/><use transform="matrix(0.05,0,0,0.05,19.65,0)" xlink:href="#bO"/><use transform="matrix(0.05,0,0,0.05,23.599999999999998,0)" xlink:href="#bu"/><use transform="matrix(0.05,0,0,0.05,27.549999999999997,0)" xlink:href="#bw"/><use transform="matrix(0.05,0,0,0.05,37.55,0)" xlink:href="#bB"/></g><g id="at"><use transform="matrix(0.05,0,0,0.05,0,0)" xlink:href="#bP"/><use transform="matrix(0.05,0,0,0.05,12.950000000000001,0)" xlink:href="#bN"/><use transform="matrix(0.05,0,0,0.05,22.950000000000003,0)" xlink:href="#bB"/><use transform="matrix(0.05,0,0,0.05,32.95,0)" xlink:href="#bC"/><use transform="matrix(0.05,0,0,0.05,41.95,0)" xlink:href="#bW"/><use transform="matrix(0.05,0,0,0.05,50.95,0)" xlink:href="#bn"/><use transform="matrix(0.05,0,0,0.05,60.95,0)" xlink:href="#bq"/><use transform="matrix(0.05,0,0,0.05,70.95,0)" xlink:href="#bt"/></g><g id="au"><use transform="matrix(0.05,0,0,0.05,0,0)" xlink:href="#bD"/><use transform="matrix(0.05,0,0,0.05,9,0)" xlink:href="#bC"/><use transform="matrix(0.05,0,0,0.05,18,0)" xlink:href="#bs"/><use transform="matrix(0.05,0,0,0.05,23.95,0)" xlink:href="#bB"/><use transform="matrix(0.05,0,0,0.05,33.95,0)" xlink:href="#bB"/><use transform="matrix(0.05,0,0,0.05,43.95,0)" xlink:href="#bw"/></g><g id="av"><use transform="matrix(0.05,0,0,0.05,0,0)" xlink:href="#bP"/><use transform="matrix(0.05,0,0,0.05,12.950000000000001,0)" xlink:href="#bn"/><use transform="matrix(0.05,0,0,0.05,22.950000000000003,0)" xlink:href="#bv"/><use transform="matrix(0.05,0,0,0.05,37.900000000000006,0)" xlink:href="#bo"/><use transform="matrix(0.05,0,0,0.05,47.900000000000006,0)" xlink:href="#bO"/><use transform="matrix(0.05,0,0,0.05,51.85,0)" xlink:href="#bB"/><use transform="matrix(0.05,0,0,0.05,61.85,0)" xlink:href="#bt"/><use transform="matrix(0.05,0,0,0.05,66.85000000000001,0)" xlink:href="#bB"/></g><g id="aw"><use transform="matrix(0.05,0,0,0.05,0,0)" xlink:href="#bZ"/><use transform="matrix(0.05,0,0,0.05,10,0)" xlink:href="#bu"/><use transform="matrix(0.05,0,0,0.05,13.949999999999998,0)" xlink:href="#bR"/><use transform="matrix(0.05,0,0,0.05,22.95,0)" xlink:href="#bB"/></g><g id="ax"><use transform="matrix(0.05,0,0,0.05,0,0)" xlink:href="#bS"/><use transform="matrix(0.05,0,0,0.05,16.599999999999998,0)" xlink:href="#bB"/><use transform="matrix(0.05,0,0,0.05,26.599999999999994,0)" xlink:href="#bL"/><use transform="matrix(0.05,0,0,0.05,36.599999999999994,0)" xlink:href="#bu"/><use transform="matrix(0.05,0,0,0.05,40.55,0)" xlink:href="#bw"/><use transform="matrix(0.05,0,0,0.05,50.55,0)" xlink:href="#bz"/><use transform="matrix(0.05,0,0,0.05,60.54999999999999,0)" xlink:href="#bs"/></g><g id="ay"><use transform="matrix(0.05,0,0,0.05,0,0)" xlink:href="#bo"/><use transform="matrix(0.05,0,0,0.05,10,0)" xlink:href="#bO"/><use transform="matrix(0.05,0,0,0.05,13.949999999999998,0)" xlink:href="#bz"/><use transform="matrix(0.05,0,0,0.05,23.95,0)" xlink:href="#bV"/><use transform="matrix(0.05,0,0,0.05,32.95,0)" xlink:href="#bB"/><use transform="matrix(0.05,0,0,0.05,42.95,0)" xlink:href="#bs"/></g><g id="az"><use transform="matrix(0.05,0,0,0.05,0,0)" xlink:href="#bD"/><use transform="matrix(0.05,0,0,0.05,9,0)" xlink:href="#bu"/><use transform="matrix(0.05,0,0,0.05,12.949999999999998,0)" xlink:href="#bv"/><use transform="matrix(0.05,0,0,0.05,27.899999999999995,0)" xlink:href="#bu"/><use transform="matrix(0.05,0,0,0.05,31.849999999999994,0)" xlink:href="#bO"/><use transform="matrix(0.05,0,0,0.05,35.8,0)" xlink:href="#bz"/><use transform="matrix(0.05,0,0,0.05,45.8,0)" xlink:href="#bs"/></g><g id="aA"><use transform="matrix(0.05,0,0,0.05,0,0)" xlink:href="#bB"/><use transform="matrix(0.05,0,0,0.05,10,0)" xlink:href="#bR"/><use transform="matrix(0.05,0,0,0.05,19,0)" xlink:href="#bB"/><use transform="matrix(0.05,0,0,0.05,29,0)" xlink:href="#bw"/><use transform="matrix(0.05,0,0,0.05,39,0)" xlink:href="#bt"/><use transform="matrix(0.05,0,0,0.05,44,0)" xlink:href="#bD"/></g><g id="aB"><use transform="matrix(0.05,0,0,0.05,0,0)" xlink:href="#bT"/><use transform="matrix(0.05,0,0,0.05,12.950000000000001,0)" xlink:href="#bB"/><use transform="matrix(0.05,0,0,0.05,22.950000000000003,0)" xlink:href="#bU"/><use transform="matrix(0.05,0,0,0.05,32.95,0)" xlink:href="#bD"/></g><g id="aC"><use transform="matrix(0.05,0,0,0.05,0,0)" xlink:href="#bz"/><use transform="matrix(0.05,0,0,0.05,10,0)" xlink:href="#bw"/><use transform="matrix(0.05,0,0,0.05,20,0)" xlink:href="#bJ"/></g><g id="aD"><use transform="matrix(0.05,0,0,0.05,0,0)" xlink:href="#bn"/><use transform="matrix(0.05,0,0,0.05,10,0)" xlink:href="#bt"/><use transform="matrix(0.05,0,0,0.05,15,0)" xlink:href="#bN"/><use transform="matrix(0.05,0,0,0.05,25,0)" xlink:href="#bB"/><use transform="matrix(0.05,0,0,0.05,35,0)" xlink:href="#bs"/></g><g id="aE"><use transform="matrix(0.05,0,0,0.05,0,0)" xlink:href="#bK"/><use transform="matrix(0.05,0,0,0.05,12,0)" xlink:href="#bL"/><use transform="matrix(0.05,0,0,0.05,22,0)" xlink:href="#bn"/><use transform="matrix(0.05,0,0,0.05,32,0)" xlink:href="#bq"/><use transform="matrix(0.05,0,0,0.05,42,0)" xlink:href="#bt"/></g><g id="aF"><use transform="matrix(0.05,0,0,0.05,0,0)" xlink:href="#bR"/><use transform="matrix(0.05,0,0,0.05,9,0)" xlink:href="#bu"/><use transform="matrix(0.05,0,0,0.05,12.949999999999998,0)" xlink:href="#bD"/><use transform="matrix(0.05,0,0,0.05,21.95,0)" xlink:href="#bu"/><use transform="matrix(0.05,0,0,0.05,25.899999999999995,0)" xlink:href="#bn"/><use transform="matrix(0.05,0,0,0.05,35.9,0)" xlink:href="#bw"/></g><g id="aG"><use transform="matrix(0.05,0,0,0.05,0,0)" xlink:href="#bn"/><use transform="matrix(0.05,0,0,0.05,10,0)" xlink:href="#br"/></g><g id="aH"><use transform="matrix(0.05,0,0,0.05,0,0)" xlink:href="#bC"/><use transform="matrix(0.05,0,0,0.05,9,0)" xlink:href="#bN"/><use transform="matrix(0.05,0,0,0.05,19,0)" xlink:href="#bn"/><use transform="matrix(0.05,0,0,0.05,29,0)" xlink:href="#bn"/><use transform="matrix(0.05,0,0,0.05,39,0)" xlink:href="#bD"/><use transform="matrix(0.05,0,0,0.05,48,0)" xlink:href="#bu"/><use transform="matrix(0.05,0,0,0.05,51.95,0)" xlink:href="#bw"/><use transform="matrix(0.05,0,0,0.05,61.95,0)" xlink:href="#bx"/></g><g id="aI"><use transform="matrix(0.05,0,0,0.05,0,0)" xlink:href="#bq"/><use transform="matrix(0.05,0,0,0.05,10,0)" xlink:href="#bD"/></g><g id="aJ"><use transform="matrix(0.05,0,0,0.05,0,0)" xlink:href="#bt"/><use transform="matrix(0.05,0,0,0.05,5,0)" xlink:href="#bN"/><use transform="matrix(0.05,0,0,0.05,15,0)" xlink:href="#bB"/></g><g id="aK"><use transform="matrix(0.05,0,0,0.05,0,0)" xlink:href="#bt"/><use transform="matrix(0.05,0,0,0.05,5,0)" xlink:href="#bB"/><use transform="matrix(0.05,0,0,0.05,15,0)" xlink:href="#bz"/><use transform="matrix(0.05,0,0,0.05,25,0)" xlink:href="#bv"/></g><g id="aL"><use transform="matrix(0.05,0,0,0.05,0,0)" xlink:href="#bG"/><use transform="matrix(0.05,0,0,0.05,12,0)" xlink:href="#bO"/><use transform="matrix(0.05,0,0,0.05,15.949999999999998,0)" xlink:href="#bn"/><use transform="matrix(0.05,0,0,0.05,25.950000000000003,0)" xlink:href="#bx"/><use transform="matrix(0.05,0,0,0.05,35.95,0)" xlink:href="#bD"/></g><g id="aM"><use transform="matrix(0.05,0,0,0.05,0,0)" xlink:href="#bP"/><use transform="matrix(0.05,0,0,0.05,12.950000000000001,0)" xlink:href="#bn"/><use transform="matrix(0.05,0,0,0.05,22.950000000000003,0)" xlink:href="#bv"/><use transform="matrix(0.05,0,0,0.05,37.900000000000006,0)" xlink:href="#bv"/><use transform="matrix(0.05,0,0,0.05,52.85,0)" xlink:href="#bq"/><use transform="matrix(0.05,0,0,0.05,62.85,0)" xlink:href="#bw"/><use transform="matrix(0.05,0,0,0.05,72.85000000000001,0)" xlink:href="#bu"/><use transform="matrix(0.05,0,0,0.05,76.80000000000001,0)" xlink:href="#bt"/><use transform="matrix(0.05,0,0,0.05,81.80000000000001,0)" xlink:href="#bV"/></g><g id="aN"><use transform="matrix(0.05,0,0,0.05,0,0)" xlink:href="#bm"/><use transform="matrix(0.05,0,0,0.05,12,0)" xlink:href="#bz"/><use transform="matrix(0.05,0,0,0.05,22,0)" xlink:href="#bx"/><use transform="matrix(0.05,0,0,0.05,32,0)" xlink:href="#bB"/></g><path d="M63-220v92h138v28H63V0H30v-248h175v28H63" id="cb"/><path d="M140-251c81 0 123 46 123 126C263-53 228-8 163 1c7 30 30 48 69 40v23c-55 16-95-15-103-61C56-3 17-48 17-125c0-80 42-126 123-126zm0 227c63 0 89-41 89-101s-29-99-89-99c-61 0-89 39-89 99S79-25 140-24" id="cc"/><g id="aO"><use transform="matrix(0.05,0,0,0.05,0,0)" xlink:href="#cb"/><use transform="matrix(0.05,0,0,0.05,9.950000000000001,0)" xlink:href="#bK"/><use transform="matrix(0.05,0,0,0.05,21.950000000000003,0)" xlink:href="#cc"/></g><g id="aP"><use transform="matrix(0.05,0,0,0.05,0,0)" xlink:href="#bD"/><use transform="matrix(0.05,0,0,0.05,9,0)" xlink:href="#bB"/><use transform="matrix(0.05,0,0,0.05,19,0)" xlink:href="#bD"/><use transform="matrix(0.05,0,0,0.05,28,0)" xlink:href="#bD"/><use transform="matrix(0.05,0,0,0.05,37,0)" xlink:href="#bu"/><use transform="matrix(0.05,0,0,0.05,40.95,0)" xlink:href="#bn"/><use transform="matrix(0.05,0,0,0.05,50.95,0)" xlink:href="#bw"/></g><g id="aQ"><use transform="matrix(0.05,0,0,0.05,0,0)" xlink:href="#bs"/><use transform="matrix(0.05,0,0,0.05,5.95,0)" xlink:href="#bB"/><use transform="matrix(0.05,0,0,0.05,15.949999999999998,0)" xlink:href="#bJ"/><use transform="matrix(0.05,0,0,0.05,25.950000000000003,0)" xlink:href="#bu"/><use transform="matrix(0.05,0,0,0.05,29.899999999999995,0)" xlink:href="#bs"/><use transform="matrix(0.05,0,0,0.05,35.85,0)" xlink:href="#bB"/><use transform="matrix(0.05,0,0,0.05,45.85,0)" xlink:href="#bC"/><use transform="matrix(0.05,0,0,0.05,54.85,0)" xlink:href="#bt"/><use transform="matrix(0.05,0,0,0.05,59.85,0)" xlink:href="#bB"/><use transform="matrix(0.05,0,0,0.05,69.85,0)" xlink:href="#bJ"/></g><g id="aR"><use transform="matrix(0.05,0,0,0.05,0,0)" xlink:href="#bt"/><use transform="matrix(0.05,0,0,0.05,5,0)" xlink:href="#bn"/></g><path d="M141 0L90-78 38 0H4l68-98-65-92h35l48 74 47-74h35l-64 92 68 98h-35" id="cd"/><g id="aS"><use transform="matrix(0.05,0,0,0.05,0,0)" xlink:href="#bB"/><use transform="matrix(0.05,0,0,0.05,10,0)" xlink:href="#cd"/><use transform="matrix(0.05,0,0,0.05,19,0)" xlink:href="#bt"/><use transform="matrix(0.05,0,0,0.05,24,0)" xlink:href="#bB"/><use transform="matrix(0.05,0,0,0.05,34,0)" xlink:href="#bs"/><use transform="matrix(0.05,0,0,0.05,39.95,0)" xlink:href="#bw"/><use transform="matrix(0.05,0,0,0.05,49.95,0)" xlink:href="#bz"/><use transform="matrix(0.05,0,0,0.05,59.95,0)" xlink:href="#bO"/></g><g id="aT"><use transform="matrix(0.05,0,0,0.05,0,0)" xlink:href="#bD"/><use transform="matrix(0.05,0,0,0.05,9,0)" xlink:href="#bu"/><use transform="matrix(0.05,0,0,0.05,12.949999999999998,0)" xlink:href="#bt"/><use transform="matrix(0.05,0,0,0.05,17.95,0)" xlink:href="#bB"/></g><g id="aU"><use transform="matrix(0.05,0,0,0.05,0,0)" xlink:href="#bP"/><use transform="matrix(0.05,0,0,0.05,12.950000000000001,0)" xlink:href="#bn"/><use transform="matrix(0.05,0,0,0.05,22.950000000000003,0)" xlink:href="#bv"/><use transform="matrix(0.05,0,0,0.05,37.900000000000006,0)" xlink:href="#bv"/><use transform="matrix(0.05,0,0,0.05,52.85,0)" xlink:href="#bq"/><use transform="matrix(0.05,0,0,0.05,62.85,0)" xlink:href="#bw"/><use transform="matrix(0.05,0,0,0.05,72.85000000000001,0)" xlink:href="#bu"/><use transform="matrix(0.05,0,0,0.05,76.80000000000001,0)" xlink:href="#bt"/><use transform="matrix(0.05,0,0,0.05,81.80000000000001,0)" xlink:href="#bV"/></g><path d="M143 4C61 4 22-44 18-125c-5-107 100-154 193-111 17 8 29 25 37 43l-32 9c-13-25-37-40-76-40-61 0-88 39-88 99 0 61 29 100 91 101 35 0 62-11 79-27v-45h-74v-28h105v86C228-13 192 4 143 4" id="ce"/><g id="aV"><use transform="matrix(0.05,0,0,0.05,0,0)" xlink:href="#ce"/><use transform="matrix(0.05,0,0,0.05,14,0)" xlink:href="#bq"/><use transform="matrix(0.05,0,0,0.05,24,0)" xlink:href="#bu"/><use transform="matrix(0.05,0,0,0.05,27.950000000000003,0)" xlink:href="#bJ"/><use transform="matrix(0.05,0,0,0.05,37.95,0)" xlink:href="#bB"/><use transform="matrix(0.05,0,0,0.05,47.95,0)" xlink:href="#bO"/><use transform="matrix(0.05,0,0,0.05,51.900000000000006,0)" xlink:href="#bu"/><use transform="matrix(0.05,0,0,0.05,55.85,0)" xlink:href="#bw"/><use transform="matrix(0.05,0,0,0.05,65.85000000000001,0)" xlink:href="#bB"/><use transform="matrix(0.05,0,0,0.05,75.85000000000001,0)" xlink:href="#bD"/></g><g id="aW"><use transform="matrix(0.05,0,0,0.05,0,0)" xlink:href="#bo"/><use transform="matrix(0.05,0,0,0.05,10,0)" xlink:href="#bz"/><use transform="matrix(0.05,0,0,0.05,20,0)" xlink:href="#bx"/><use transform="matrix(0.05,0,0,0.05,30,0)" xlink:href="#bB"/></g><g id="aX"><use transform="matrix(0.05,0,0,0.05,0,0)" xlink:href="#bG"/><use transform="matrix(0.05,0,0,0.05,12,0)" xlink:href="#bs"/><use transform="matrix(0.05,0,0,0.05,17.95,0)" xlink:href="#bn"/><use transform="matrix(0.05,0,0,0.05,27.950000000000003,0)" xlink:href="#by"/><use transform="matrix(0.05,0,0,0.05,40.9,0)" xlink:href="#bD"/><use transform="matrix(0.05,0,0,0.05,49.9,0)" xlink:href="#bB"/></g><g id="aY"><use transform="matrix(0.05,0,0,0.05,0,0)" xlink:href="#bP"/><use transform="matrix(0.05,0,0,0.05,12.950000000000001,0)" xlink:href="#bn"/><use transform="matrix(0.05,0,0,0.05,22.950000000000003,0)" xlink:href="#bv"/><use transform="matrix(0.05,0,0,0.05,37.900000000000006,0)" xlink:href="#bv"/><use transform="matrix(0.05,0,0,0.05,52.85,0)" xlink:href="#bq"/><use transform="matrix(0.05,0,0,0.05,62.85,0)" xlink:href="#bw"/><use transform="matrix(0.05,0,0,0.05,72.85000000000001,0)" xlink:href="#bu"/><use transform="matrix(0.05,0,0,0.05,76.80000000000001,0)" xlink:href="#bt"/><use transform="matrix(0.05,0,0,0.05,81.80000000000001,0)" xlink:href="#bV"/></g><g id="aZ"><use transform="matrix(0.05,0,0,0.05,0,0)" xlink:href="#bC"/><use transform="matrix(0.05,0,0,0.05,9,0)" xlink:href="#bN"/><use transform="matrix(0.05,0,0,0.05,19,0)" xlink:href="#bB"/><use transform="matrix(0.05,0,0,0.05,29,0)" xlink:href="#bC"/><use transform="matrix(0.05,0,0,0.05,38,0)" xlink:href="#bW"/></g><g id="ba"><use transform="matrix(0.05,0,0,0.05,0,0)" xlink:href="#bu"/><use transform="matrix(0.05,0,0,0.05,3.95,0)" xlink:href="#br"/></g><g id="bb"><use transform="matrix(0.05,0,0,0.05,0,0)" xlink:href="#bw"/><use transform="matrix(0.05,0,0,0.05,10,0)" xlink:href="#bB"/><use transform="matrix(0.05,0,0,0.05,20,0)" xlink:href="#by"/></g><g id="bc"><use transform="matrix(0.05,0,0,0.05,0,0)" xlink:href="#bn"/><use transform="matrix(0.05,0,0,0.05,10,0)" xlink:href="#bs"/></g><g id="bd"><use transform="matrix(0.05,0,0,0.05,0,0)" xlink:href="#bB"/><use transform="matrix(0.05,0,0,0.05,10,0)" xlink:href="#cd"/><use transform="matrix(0.05,0,0,0.05,19,0)" xlink:href="#bu"/><use transform="matrix(0.05,0,0,0.05,22.95,0)" xlink:href="#bD"/><use transform="matrix(0.05,0,0,0.05,31.950000000000003,0)" xlink:href="#bt"/><use transform="matrix(0.05,0,0,0.05,36.95,0)" xlink:href="#bu"/><use transform="matrix(0.05,0,0,0.05,40.900000000000006,0)" xlink:href="#bw"/><use transform="matrix(0.05,0,0,0.05,50.900000000000006,0)" xlink:href="#bx"/></g><g id="be"><use transform="matrix(0.05,0,0,0.05,0,0)" xlink:href="#bI"/><use transform="matrix(0.05,0,0,0.05,12,0)" xlink:href="#bu"/><use transform="matrix(0.05,0,0,0.05,15.949999999999998,0)" xlink:href="#bx"/><use transform="matrix(0.05,0,0,0.05,25.950000000000003,0)" xlink:href="#bw"/></g><g id="bf"><use transform="matrix(0.05,0,0,0.05,0,0)" xlink:href="#bq"/><use transform="matrix(0.05,0,0,0.05,10,0)" xlink:href="#bo"/></g><g id="bg"><use transform="matrix(0.05,0,0,0.05,0,0)" xlink:href="#bQ"/><use transform="matrix(0.05,0,0,0.05,12,0)" xlink:href="#cd"/><use transform="matrix(0.05,0,0,0.05,21,0)" xlink:href="#bu"/><use transform="matrix(0.05,0,0,0.05,24.95,0)" xlink:href="#bD"/><use transform="matrix(0.05,0,0,0.05,33.95,0)" xlink:href="#bu"/><use transform="matrix(0.05,0,0,0.05,37.900000000000006,0)" xlink:href="#bt"/><use transform="matrix(0.05,0,0,0.05,42.900000000000006,0)" xlink:href="#bu"/><use transform="matrix(0.05,0,0,0.05,46.85000000000001,0)" xlink:href="#bw"/><use transform="matrix(0.05,0,0,0.05,56.85,0)" xlink:href="#bx"/></g><g id="bh"><use transform="matrix(0.05,0,0,0.05,0,0)" xlink:href="#bY"/><use transform="matrix(0.05,0,0,0.05,12.950000000000001,0)" xlink:href="#bB"/><use transform="matrix(0.05,0,0,0.05,22.950000000000003,0)" xlink:href="#by"/></g><g id="bi"><use transform="matrix(0.05,0,0,0.05,0,0)" xlink:href="#bI"/><use transform="matrix(0.05,0,0,0.05,12,0)" xlink:href="#bB"/><use transform="matrix(0.05,0,0,0.05,22,0)" xlink:href="#bz"/><use transform="matrix(0.05,0,0,0.05,32,0)" xlink:href="#bs"/><use transform="matrix(0.05,0,0,0.05,37.95,0)" xlink:href="#bC"/><use transform="matrix(0.05,0,0,0.05,46.95,0)" xlink:href="#bN"/></g><g id="bj"><use transform="matrix(0.05,0,0,0.05,0,0)" xlink:href="#bZ"/><use transform="matrix(0.05,0,0,0.05,10,0)" xlink:href="#bn"/><use transform="matrix(0.05,0,0,0.05,20,0)" xlink:href="#bx"/><use transform="matrix(0.05,0,0,0.05,30,0)" xlink:href="#bu"/><use transform="matrix(0.05,0,0,0.05,33.95,0)" xlink:href="#bw"/><use transform="matrix(0.05,0,0,0.05,43.95,0)" xlink:href="#bF"/><use transform="matrix(0.05,0,0,0.05,48.95,0)" xlink:href="#bD"/><use transform="matrix(0.05,0,0,0.05,57.95,0)" xlink:href="#bu"/><use transform="matrix(0.05,0,0,0.05,61.900000000000006,0)" xlink:href="#bx"/><use transform="matrix(0.05,0,0,0.05,71.9,0)" xlink:href="#bw"/><use transform="matrix(0.05,0,0,0.05,81.9,0)" xlink:href="#bq"/><use transform="matrix(0.05,0,0,0.05,91.9,0)" xlink:href="#bo"/></g><g id="bk"><use transform="matrix(0.05,0,0,0.05,0,0)" xlink:href="#bI"/><use transform="matrix(0.05,0,0,0.05,12,0)" xlink:href="#bC"/><use transform="matrix(0.05,0,0,0.05,21,0)" xlink:href="#bs"/><use transform="matrix(0.05,0,0,0.05,26.950000000000003,0)" xlink:href="#bB"/><use transform="matrix(0.05,0,0,0.05,36.95,0)" xlink:href="#bB"/><use transform="matrix(0.05,0,0,0.05,46.95,0)" xlink:href="#bw"/></g><g id="bl"><use transform="matrix(0.07469135802469135,0,0,0.07469135802469135,0,0)" xlink:href="#bZ"/><use transform="matrix(0.07469135802469135,0,0,0.07469135802469135,14.938271604938269,0)" xlink:href="#bB"/><use transform="matrix(0.07469135802469135,0,0,0.07469135802469135,29.876543209876537,0)" xlink:href="#bx"/><use transform="matrix(0.07469135802469135,0,0,0.07469135802469135,44.81481481481481,0)" xlink:href="#bB"/><use transform="matrix(0.07469135802469135,0,0,0.07469135802469135,59.753086419753075,0)" xlink:href="#bw"/><use transform="matrix(0.07469135802469135,0,0,0.07469135802469135,74.69135802469134,0)" xlink:href="#bJ"/></g></defs></g></svg>