<svg width="165" height="173" viewBox="0 0 165 173" fill="none" xmlns="http://www.w3.org/2000/svg">
<ellipse cx="82.5" cy="86.5" rx="82.5" ry="86.5" fill="white"/>
<path d="M83.16 50.12C68.4 50.12 54.24 52.76 39.84 57.44L47.16 72.44C61.68 68.12 72.96 67.28 82.2 67.28C91.8 67.28 109.08 68.36 109.08 81.8C99.84 78.68 88.68 76.76 76.56 76.76C54.12 76.76 33.96 82.52 33.96 100.88C33.96 116.84 46.32 123.2 66.12 123.2C82.8 123.2 96.6 119.36 109.08 113.24V122H129.72V86.36C129.48 59.6 112.68 50.12 83.16 50.12ZM109.08 100.04C98.52 104.6 83.16 108.08 72 108.08C61.32 108.08 54.48 107.48 54.48 100.04C54.48 92.84 63.72 90.2 79.08 90.2C92.16 90.2 101.88 92.24 109.08 94.52V100.04Z" fill="black"/>
</svg>
