<svg width="165" height="173" viewBox="0 0 165 173" fill="none" xmlns="http://www.w3.org/2000/svg">
<ellipse cx="82.5" cy="86.5" rx="82.5" ry="86.5" fill="white"/>
<path fill-rule="evenodd" clip-rule="evenodd" d="M128.047 94.6764C126.278 110.044 111.26 112.157 108.198 97.0357C108.623 96.8265 108.922 96.4295 108.838 95.6774C108.739 92.3662 109.63 88.8387 112.432 86.9175C115.327 84.935 118.766 84.6503 122.173 84.6032C128.669 84.2593 128.677 89.9615 128.047 94.6764M105.626 88.6406C103.584 88.6074 101.006 88.7549 99.2113 90.1095C98.6729 88.7046 97.3291 87.226 95.9897 86.4527C100.896 86.4663 105.929 85.8193 110.857 85.2886C109.697 86.1668 108.629 87.4674 107.952 88.9555C107.279 88.603 106.33 88.6642 105.626 88.6406M96.8451 97.1719C91.7076 117.752 77.3626 109.245 75.7569 106.671C72.8704 102.417 72.0807 91.9039 74.4276 89.0215C77.8248 86.3793 82.7424 86.8976 86.8304 86.721C94.3464 86.6175 99.7423 88.826 96.8451 97.1719M134.528 86.7203C132.986 86.5524 131.343 86.5558 129.932 87.3054C129.442 85.3564 128.02 83.7553 126.442 83.0772C126.247 82.8342 126.272 82.7 125.628 82.7553C121.637 81.6178 117.224 82.4019 113.452 83.7879C107.457 84.4865 101.163 85.081 95.1229 85.9815C89.379 83.4664 72.24 83.5528 71.3429 90.1724C69.9985 89.9997 67.6901 88.958 66.603 90.4888C58.3125 89.2517 49.8363 91.5295 41.5704 92.6693C39.4942 93.1306 38.5298 97.5039 40.8967 97.3784C42.2186 96.9622 40.7871 94.6751 42.5756 94.45C50.5498 93.3105 58.3394 91.7923 66.415 91.4145C66.1711 92.8857 71.7984 92.8238 71.8597 91.967C71.8719 91.973 71.8847 91.977 71.897 91.9823C70.6451 97.4543 72.0983 105.238 74.6958 108.537C78.3272 112.851 87.1951 113.87 91.0409 110.922C96.0282 108.161 100.952 94.8638 99.3639 90.5362C102.022 89.5703 104.678 89.7638 107.471 90.14C106.882 92.0446 105.901 96.7199 107.493 97.0786C107.437 106.308 115.584 111.839 122.864 107.85C129.168 104.528 131.148 94.5161 130.213 88.4987C131.049 90.0873 137.678 88.1473 134.528 86.7203" fill="black"/>
<path fill-rule="evenodd" clip-rule="evenodd" d="M83.9178 25.6432C84.5723 24.8652 85.5806 25.132 86.1926 25.7473C86.591 25.8704 86.9771 26.0535 87.3416 26.2959C88.1656 26.185 89.0294 26.185 89.8375 26.2161C90.0336 26.1008 90.2436 25.9982 90.4724 25.9101C92.1062 25.2836 93.5531 25.6018 94.7465 26.4406C95.3214 25.8702 96.0466 25.5122 96.9737 25.5663C97.8011 25.6148 98.3907 26.0232 98.8961 26.561C99.4 25.7989 100.215 25.2552 101.229 25.1795C102.648 25.0738 104.011 25.6704 105.142 26.5941C105.8 25.8019 106.698 25.3465 107.698 25.3421C108.356 25.2167 109.051 25.2662 109.679 25.465C110.59 25.7536 111.39 26.2944 112.027 26.9963C113.035 25.9838 114.269 25.2552 115.692 25.3614C117.534 25.501 119.06 26.9212 119.77 28.6692C121.016 29.1929 122.167 29.9398 123.129 31.0048C123.18 31.0609 123.229 31.1196 123.28 31.1786C123.798 31.3791 124.286 31.6634 124.716 32.0377C126.076 33.2253 126.38 34.944 125.929 36.6281C125.992 36.8976 126.046 37.1718 126.095 37.4458C127.37 37.649 128.527 38.4204 129.185 39.6763C130.086 41.3999 129.909 43.6716 128.933 45.317C128.514 46.0248 127.982 46.6212 127.384 47.1426C128.06 48.7536 127.735 50.6759 126.645 51.9788C126.379 52.4281 126.053 52.8335 125.686 53.2005C126.091 54.866 125.371 56.5844 123.933 57.4743L123.81 57.7972C123.79 57.8508 123.769 57.9042 123.747 57.9571C123.731 58.0257 123.712 58.092 123.692 58.1588C123.658 58.7498 123.472 59.3298 123.104 59.8763C122.35 60.9961 121.415 61.7264 120.92 63.0337L120.87 63.1711C120.657 63.7897 119.969 64.2262 119.383 64.0353C122.638 71.0472 124.345 78.8494 125.516 86.4956C126.101 90.3103 126.551 94.138 126.917 97.9805L127.276 101.807C127.591 105.208 127.872 108.62 127.874 112.033C127.878 119.752 125.773 127.178 121.254 133.32C116.981 139.127 110.933 143.336 104.101 144.993C97.0475 146.702 88.7731 146.029 82.4478 142.116C80.5828 140.966 82.2167 138.199 84.1143 139.125C87.7065 140.878 91.357 142.18 95.3389 142.472C99.2205 142.758 103.111 142.249 106.792 140.917C112.882 138.711 118.064 134.092 121.394 128.338C123.035 125.503 124.223 122.426 124.856 119.174C125.643 115.122 125.524 110.933 125.235 106.829L125.215 106.549C124.643 98.6412 123.889 90.6845 122.671 82.8554C121.594 75.9321 119.938 69.1491 117.788 62.5162C116.946 61.7386 116.004 61.0952 114.996 60.6066C107.614 60.2832 100.219 60.3777 92.8461 60.9119C86.5586 61.3704 80.3015 62.1462 74.0917 63.277L73.4265 63.3995C72.0518 63.6563 70.5253 63.8032 69.2299 64.3837C68.1188 64.8831 67.6684 65.8428 67.3883 67.0226C66.6834 70.007 66.576 73.2731 66.457 76.3334C66.3403 79.3248 66.604 82.3413 66.3753 85.3229C66.1816 87.8177 65.5724 90.3711 63.8101 92.1757C62.8882 93.1205 61.7538 93.6371 60.6895 94.3544C60.0009 94.8173 59.7091 95.2945 59.7978 96.1514C59.9892 98.0267 61.4294 100.389 59.8118 101.995C59.5271 102.277 59.0346 102.314 58.7545 101.995C58.087 101.234 57.165 100.654 56.3737 100.039C56.0423 99.7848 56.3177 99.2902 56.6935 99.4663C57.1883 99.6991 57.6925 99.9733 58.2083 100.213C57.0693 99.229 55.4494 98.7465 54.1003 98.46C53.4211 98.318 52.7069 98.2764 51.9997 98.3428C51.4768 98.6045 50.9423 98.8471 50.4078 99.0843C49.7286 99.3832 49.0424 99.6548 48.3515 99.9121C45.9544 101.961 44.8107 105.293 45.3102 108.552C45.5833 110.351 46.3745 112.307 47.866 113.358C49.6329 114.601 51.9997 114.067 53.9089 114.991C55.6969 115.855 56.7845 117.6 57.5991 119.407L57.9387 120.159C58.6948 121.825 59.472 123.446 60.5051 124.962C61.7001 126.717 63.1636 128.294 64.7601 129.648C65.5346 130.303 66.3601 130.893 67.2133 131.43L67.4466 131.575C68.3102 132.106 68.9288 132.613 68.9871 133.736C69.0058 134.128 68.77 134.485 68.4666 134.689C67.1595 135.558 65.8594 134.471 64.7718 133.712C63.5977 132.894 62.475 131.974 61.4364 130.97C59.4617 129.065 57.7532 126.803 56.4391 124.347C55.4378 122.477 54.8683 119.845 53.2857 118.396C52.3194 117.512 50.954 117.505 49.7473 117.343C48.6246 117.192 47.5626 116.947 46.5636 116.366C42.4999 113.999 41.3516 108.268 42.3156 103.839C42.4789 103.092 42.7077 102.365 42.9901 101.665C41.4776 101.929 39.7784 100.289 40.3923 98.6339C40.439 98.509 40.4926 98.3917 40.544 98.2715C39.5473 97.5836 38.7607 96.5409 38.3873 95.177C38.1959 94.4719 38.1679 93.7595 38.2683 93.0715C37.7851 92.7315 37.386 92.2636 37.1292 91.6883C36.3263 91.299 35.6144 90.7166 35.1896 89.8842C34.6014 88.7358 34.6761 87.6781 35.1242 86.7258C35.0612 86.6061 35.0005 86.4836 34.9422 86.3585C33.2967 85.2644 32.1483 83.3791 32.279 81.2883C32.321 80.5955 32.4844 79.9712 32.7365 79.4083C32.7155 79.3373 32.6945 79.2636 32.6758 79.1926C31.2987 78.4582 30.1596 77.2514 29.7535 75.6405C29.3474 74.0196 29.8259 72.4037 30.7828 71.1601C29.3824 70.0855 28.5398 68.5848 29.051 66.3151C29.2587 65.3923 29.6765 64.5523 30.2413 63.8448C30.239 63.823 30.2343 63.801 30.2297 63.7787L30.0986 63.6721C28.3698 62.2411 27.3759 60.4176 28.4371 58.1748C28.9132 57.1663 29.5925 56.4635 30.3907 56.0008L30.4304 55.8685C29.8586 54.5832 29.6648 53.1559 30.0593 51.6552C30.3814 50.4191 31.1446 49.4347 32.1203 48.7812C32.0549 48.2277 32.0643 47.6379 32.1693 46.9987C32.3444 45.9193 32.8555 44.9767 33.6024 44.3084C33.6304 44.1661 33.6654 44.0268 33.7051 43.887C33.9572 43.0328 34.4287 42.105 34.9749 41.4168C35.4253 40.8463 35.9295 40.6382 36.5457 40.6162C36.5084 40.0901 36.534 39.5561 36.6367 39.0151C36.9518 37.3456 37.9648 35.7761 39.4656 35.0637C40.0818 34.7723 40.7307 34.6869 41.3562 34.7576C41.8884 33.5825 42.9271 32.7308 44.2038 32.5472C44.701 32.4737 45.1631 32.4784 45.5879 32.5447C45.8283 32.427 46.0781 32.3219 46.3395 32.2262C46.5122 32.1625 46.6873 32.1038 46.8623 32.0453C47.4529 31.2765 48.2301 30.6618 49.1381 30.2924C50.1861 29.8639 51.2528 29.9077 52.1981 30.2676L52.4992 30.2015C52.9706 29.3447 53.7222 28.6812 54.8776 28.3801C56.1893 28.0398 57.5361 28.5147 58.5678 29.3792C58.5724 29.3792 58.5771 29.3792 58.5841 29.3765C59.1233 28.1108 60.0452 27.2294 61.5927 27.2906C62.5567 27.3298 63.4273 27.8319 64.0996 28.5468C64.473 28.4976 64.8465 28.4535 65.2222 28.4097C65.619 27.9222 66.0602 27.4671 66.548 27.0583C67.3463 26.3872 68.3849 26.4413 68.9731 27.3861C69.1015 27.5917 69.2205 27.7998 69.3396 28.0079L69.8787 27.9688C70.5136 27.0703 71.3796 26.4631 72.5653 26.4144C73.653 26.3676 74.4279 26.9261 75.0184 27.7068C75.4992 27.6946 75.9824 27.685 76.4655 27.6774C77.028 26.9944 77.6909 26.3921 78.4472 25.8927C79.026 25.5108 79.8803 25.6408 80.3494 26.15C80.6664 26.4962 80.9614 26.8575 81.2357 27.2316C81.9427 26.4002 82.8976 25.8525 83.9178 25.6432ZM49.5656 103.386C50.6556 102.735 52.1214 103.44 53.1764 103.993C54.4625 104.666 55.7392 105.682 56.5258 106.955C57.5972 108.689 55.0787 110.089 53.9513 108.534C53.2581 107.577 52.7049 106.613 51.8647 105.775C51.0967 105.007 49.9834 104.492 49.5422 103.479C49.5259 103.445 49.5306 103.405 49.5656 103.386Z" fill="black"/>
</svg>
