<svg id="Layer_1" data-name="Layer 1" xmlns="http://www.w3.org/2000/svg" viewBox="0 0 1703.49 314.87"><defs><style>.cls-1{fill:#f26722;}.cls-2{fill:#488fcc;}.cls-3{fill:#4790cd;}</style></defs><title>Artboard 2</title><path class="cls-1" d="M382.33,194.87a58.94,58.94,0,0,0,.86-9.84q.07-76.75,0-153.5c0-11.7,2-13.69,13.42-13.72,6.64,0,13.29,0,19.94,0,6.31,0,10,3.32,9.94,9.38-.6,60.39,2.75,120.88-1.49,181.15-4,56.3-49.81,94.89-105.09,91.26-56.05-3.68-96.42-48.32-94.61-104.63,2.08-65,66.68-111.63,126-90.82,1.08.39,2.17.77,3.25,1.2,24.46,9.71,27.24,13.74,27.24,39.6,0,4.91,0,9.83-.06,14.74-7.55,6.73-10.12,7-17.71.36-15.76-13.79-33.6-18.68-53.95-13.25a50.58,50.58,0,0,0-37,47.87c0,6.91-.77,13.89,1.09,20.71,9.76,35.72,54.27,51.3,83.92,29.1,11.15-8.34,16.84-20.66,20.39-33.75C379.84,205.55,380.85,201.82,382.33,194.87Z"/><path class="cls-1" d="M57.87,211.92c3.28,26.73,31.75,49.22,60.25,47.59,27.54-1.58,46.67-17.26,57-46.72,4.2-12,7.21-13.19,18-7.24.25.14.48.33.73.47,19.6,10.87,19.6,10.87,10.86,31.95-17.4,42-53,64.28-98.53,61.63C62.94,297.09,26.44,268.47,14.81,228c-12.39-43.15,4-88,41-112.5,34.58-22.86,83.21-20.79,115.13,5,12.32,9.94,21.57,22.41,29.39,36.08,2,3.43,1.93,5.07-1.69,7.41-37.79,24.51-75.43,49.27-113.17,73.87-5.73,3.73-10.34,2-13.74-3.74-4.44-7.42-8.94-14.8-13.42-22.19-1-5.65,3.57-7.45,7-9.77,21.34-14.33,42.76-28.54,64.14-42.81a40.14,40.14,0,0,0,3.59-2.41c2.1-1.75,5.91-2.44,5.34-6-.44-2.79-3.53-3.78-5.91-4.56-16.53-5.38-33.07-6.14-48.44,3.1-17.46,10.48-25.81,26.62-26.39,46.89C57.55,201.54,58.45,206.72,57.87,211.92Z"/><path class="cls-2" d="M809,159.36c-6.1-4.69-10.3-8.23-14.8-11.33-23.27-16-54.44-14.82-74.85,2.8-21.68,18.7-28.25,50.53-15.83,76.69,11.84,24.94,39.26,38.81,67,33.86,26.1-4.66,42.47-21.86,48.61-51a124.35,124.35,0,0,0,2.54-25.81c0-50.9.14-101.8-.18-152.7,0-7.33,2.12-9.76,9.24-9,7.41.81,17-3,21.78,1.46S854,38.61,854,46c.06,51.76.45,103.54-.36,155.29-.72,46-31.46,82.46-75.25,91.33-50.64,10.27-101-21.51-111.93-70.65C654.75,169.28,685,118.7,735.41,107c24.65-5.71,47.56-1.47,68.41,13.25,3.59,2.54,5.51,5.2,5.29,9.91C808.69,139.31,809,148.46,809,159.36Z"/><path class="cls-1" d="M632,173.06c-1,16.92,2.11,37.84-1.57,58.46-8,45.08-44,72.11-89.78,67.94-46.86-4.28-76.09-36.26-76.89-85.13-.55-33.23,0-66.47-.16-99.71,0-8.13,3.86-11.47,11.68-11.3,6.65.15,13.3,0,19.94,0,9.25.1,11.79,2.59,11.81,11.78,0,30.06,0,60.12,0,90.18,0,9.29,1.17,18.44,4.61,27.15,6.69,16.89,19.76,25.26,37.81,24.33,17.47-.89,32.57-12.77,36.86-29.12a83.36,83.36,0,0,0,2.29-21.48q-.09-45.07,0-90.17c0-10.13,2.54-12.61,12.81-12.67q9.11-.06,18.21,0c10.12.07,12.32,2.2,12.35,12.11C632,133.39,632,151.31,632,173.06Z"/><path class="cls-2" d="M1509.87,196c.12-40.32,28.69-77.83,69.18-87.86,44-10.91,85.67,7.27,107.55,46.7,2,3.63,1.65,5.26-1.77,7.48q-54.15,35.12-108.1,70.58c-3.07,2-4.55,2-6.84-1.24-13.23-18.71-13.39-18.72,5.35-31.36,21.79-14.7,43.56-29.45,65.63-43.72,5.82-3.77,5.1-5.81.45-9.75-25.13-21.26-66.88-15-86.52,13.1-25.79,36.94-5.51,91.88,38.09,103.2,33.28,8.64,64.79-8.74,78.74-43.44,5.29-13.15,4.92-12.31,17.72-6.65,9.36,4.14,9.21,9.06,6.12,17.14-16.21,42.4-46.16,64-90,64.3-39.26.27-75.41-23.94-89.39-59.91C1511.67,223.12,1509.67,211.22,1509.87,196Z"/><path class="cls-2" d="M1342.6,108.52c16.52,0,16.5,0,21.79,15.37q20.7,60.12,41.52,120.21c1.43,4.09,1.63,10.84,7,10.69,5.11-.16,5.3-6.78,6.77-11,14.88-42.44,29.78-84.87,44.31-127.42,2-5.87,4.45-8.56,10.87-8a152.34,152.34,0,0,0,19.93,0c5.24-.24,5.74,1.76,4.16,6.14-18.93,52.65-37.55,105.41-56.73,158-7,19.28-20.79,25.67-40.59,20.51-7.38-1.92-11.83-7.06-14.78-13.57C1379,262.13,1373.47,243.87,1367,226q-19.5-54.12-38.82-108.32c-3.25-9.09-3.23-9.1,6.6-9.13Z"/><path class="cls-2" d="M1127.77,149.43c0-29.2.16-58.39-.13-87.58-.07-6.06,1.63-8.3,7.74-7.68,7.69.79,17.68-3.15,22.57,1.56s1.29,14.78,1.55,22.48c.28,8.38.34,16.78,0,25.14-.23,5.09,1.66,6.35,6.46,6.26,15-.26,30.06.06,45.08-.18,4.86-.08,7.1.64,7.19,6.44.34,22.41.58,22.4-21.73,22.41-10.4,0-20.81.09-31.21,0-3.88-.06-5.83,1-5.73,5.37.71,30.31-1.47,60.68,1.25,91,1.56,17.21,8.63,24,25.52,26.21a150,150,0,0,0,25.93,1.11c4.59-.18,5.74,1.57,5.91,6,.86,22.4,1,22.32-21.54,22.43-12.49.06-24.79-.88-36.72-4.91-20.4-6.89-30.88-21.4-31.63-47.56-.85-29.45-.2-58.95-.2-88.42Z"/><path class="cls-2" d="M1074.15,290.29c-32,2.65-58.22-8.9-79.35-32.68-27.11-30.51-25.83-83,1.66-116.67,19.92-24.39,46-32.45,75.87-32.41h4.33c23.42,0,23.29,0,22,23.59-.23,4.29-1.63,5.25-5.58,5.26-10.66,0-21.31-.48-32,1.44-32.59,5.86-53.39,30.58-52.54,63.06.85,32.68,21.94,54.91,55.47,58.93a201.61,201.61,0,0,0,28.53,1.09c4.28-.1,5.91.94,6.09,5.68.9,22.72,1.07,22.72-21.92,22.72Z"/><path class="cls-3" d="M904.43,199.05c0-27.74.15-55.49-.12-83.23-.06-5.85,1.25-8.44,7.6-7.89a117.5,117.5,0,0,0,18.19,0c5.31-.35,7,1.48,6.88,6.83-.3,17.63-.11,35.26-.11,52.89,0,38.15-.14,76.3.14,114.44,0,6.29-1.29,9.13-8,8.25-7.91-1-18.52,3.54-23.11-1.94-3.9-4.67-1.37-14.86-1.4-22.61C904.38,243.56,904.43,221.31,904.43,199.05Z"/><path class="cls-3" d="M1292.92,198.84c0,27.74-.27,55.49.19,83.22.11,7.13-2.22,8.9-8.75,8.34a139.75,139.75,0,0,0-18.19,0c-4.41.2-6.05-1.21-6-5.85q.19-85.4,0-170.78c0-4.79,1.91-5.89,6.18-5.73a189.26,189.26,0,0,0,19.93,0c5.41-.37,6.84,1.51,6.8,6.81C1292.79,142.78,1292.92,170.81,1292.92,198.84Z"/><path class="cls-3" d="M1276.2,32.38a23.68,23.68,0,1,1-.11,47.36c-13.35-.09-23.34-10.24-23.36-23.75S1262.72,32.39,1276.2,32.38Z"/><path class="cls-3" d="M920.54,79.74a23.72,23.72,0,1,1,23.27-24.2A23.57,23.57,0,0,1,920.54,79.74Z"/></svg>