<svg id="Layer_1" data-name="Layer 1" xmlns="http://www.w3.org/2000/svg" viewBox="0 0 1000 936.21"><defs><style>.cls-1{fill:#f79656;}.cls-2{fill:#addbf6;}.cls-3{fill:#f26722;}.cls-4{fill:#c6dcf2;}.cls-5{fill:#b8d7f1;}.cls-6{fill:#fcc59f;}.cls-7{fill:#f9a267;}.cls-8{fill:#5ca3d9;}.cls-9{fill:#f89958;}.cls-10{fill:#f89e62;}.cls-11{fill:#fedeca;}.cls-12{fill:#faaf7c;}.cls-13{fill:#f79351;}.cls-14{fill:#f89c5f;}.cls-15{fill:#f89f64;}.cls-16{fill:#c1dbf2;}.cls-17{fill:#bbe6fb;}.cls-18{fill:#a3def9;}.cls-19{fill:#c3e9fb;}.cls-20{fill:#bde7fb;}.cls-21{fill:#c2dcf3;}.cls-22{fill:#5da5db;}.cls-23{fill:#f89a5b;}.cls-24{fill:#f89c5c;}.cls-25{fill:#a9e0f9;}.cls-26{fill:#bad9f2;}.cls-27{fill:#b0d3f0;}.cls-28{fill:#c9dff3;}.cls-29{fill:#fcc8a5;}.cls-30{fill:#b0e2fa;}.cls-31{fill:#afd2f0;}.cls-32{fill:#cdecfa;}.cls-33{fill:#c8def3;}.cls-34{fill:#f9a46a;}.cls-35{fill:#faaa74;}.cls-36{fill:#bae6fb;}.cls-37{fill:#f7914c;}.cls-38{fill:#cbecfa;}.cls-39{fill:#bce6fb;}.cls-40{fill:#bfdbf2;}.cls-41{fill:#c3ddf3;}.cls-42{fill:#f79757;}.cls-43{fill:#b8d5f0;}.cls-44{fill:#c5e9fb;}.cls-45{fill:#b1d2ef;}.cls-46{fill:#fcc9a5;}.cls-47{fill:#c0daf2;}.cls-48{fill:#c7def3;}.cls-49{fill:#fcc49e;}.cls-50{fill:#ade1fa;}.cls-51{fill:#b6d6f1;}.cls-52{fill:#cdecfc;}.cls-53{fill:#c0dcf3;}.cls-54{fill:#b1d3f0;}.cls-55{fill:#fab07e;}.cls-56{fill:#b9d9f2;}.cls-57{fill:#b1e3fa;}.cls-58{fill:#b3d4f0;}.cls-59{fill:#f9a166;}.cls-60{fill:#cde1f4;}.cls-61{fill:#b4e4fa;}.cls-62{fill:#f79555;}.cls-63{fill:#fcbf96;}.cls-64{fill:#9fc8ea;}.cls-65{fill:#bdd9f2;}.cls-66{fill:#b9e5fb;}.cls-67{fill:#f89b5b;}.cls-68{fill:#c7dff4;}.cls-69{fill:#c4ddf3;}.cls-70{fill:#d5effb;}.cls-71{fill:#cee2f5;}.cls-72{fill:#a2def9;}.cls-73{fill:#6fc6ef;}.cls-74{fill:#c1e8fb;}.cls-75{fill:#a7e0f9;}.cls-76{fill:#caebfa;}.cls-77{fill:#bee7fb;}.cls-78{fill:#c2e8fb;}.cls-79{fill:#b7e5fa;}.cls-80{fill:#abe1fa;}.cls-81{fill:#a1ddf9;}.cls-82{fill:#f47626;}.cls-83{fill:#4890cd;}.cls-84{fill:#6dc2ed;}.cls-85{fill:#5ea4da;}.cls-86{fill:#5aa1d8;}.cls-87{fill:#61a6db;}.cls-88{fill:#59b3e5;}.cls-89{fill:#5ba2d9;}.cls-90{fill:#63a7dc;}.cls-91{fill:#5ab6e6;}.cls-92{fill:#62a7dc;}.cls-93{fill:#50a4db;}.cls-94{fill:#579dd5;}.cls-95{fill:#569dd5;}.cls-96{fill:#56b2e4;}.cls-97{fill:#63bdeb;}.cls-98{fill:#66bfec;}.cls-99{fill:#61bcea;}.cls-100{fill:#56b0e3;}.cls-101{fill:#6eafe0;}.cls-102{fill:#58b2e4;}.cls-103{fill:#6fc4ee;}.cls-104{fill:#57b5e6;}.cls-105{fill:#60b9e8;}.cls-106{fill:#53aee1;}.cls-107{fill:#65bdea;}.cls-108{fill:#6ac1ed;}.cls-109{fill:#58b3e4;}</style></defs><title>Artboard 1</title><path class="cls-1" d="M41,805.12a10,10,0,0,1-2.77-.27,58.81,58.81,0,0,0-7.68-2.06c-3.6-.9-7.11-2.15-10.69-3.17-2.93-.85-5.9-1.59-8.85-2.37L6.36,796V633.52l2.41-.08.07,1c0,1.07-.08,2.15-.08,3.22V790.59c0,.81,0,1.62,0,2.42.11,2.06.46,2.48,2.44,3.14.51.18,1,.34,1.54.48,6.33,1.75,12.66,3.52,19,5.23,3.1.83,6.23,1.53,9.34,2.3a1.28,1.28,0,0,0,.22.57Z"/><path class="cls-2" d="M993.64,796c-1.24.74-2.33,1.7-3.94,1.7a12.09,12.09,0,0,0-2.64.76c-1.27.32-2.56.57-3.84.84l-1.06-.19a1.52,1.52,0,0,0,.12-.73l7-1.91c2-.57,2.68-1.3,2.76-3.4.07-1.75,0-3.5,0-5.25V638a13.86,13.86,0,0,0-.12-2.41,1.31,1.31,0,0,0-1.47-1.08,7.64,7.64,0,0,0-1.57.3c-2.19.64-4.37,1.3-6.56,2l-5.45.93-1.16-.19a35.88,35.88,0,0,1,4-1.54c2.3-.6,4.56-1.33,6.83-2s4.7-.35,7.07-.47Z"/><path class="cls-3" d="M41.09,804.16c-3.11-.77-6.24-1.47-9.34-2.3-6.34-1.71-12.67-3.48-19-5.23-.51-.14-1-.3-1.54-.48-2-.66-2.33-1.08-2.44-3.14,0-.8,0-1.61,0-2.42V637.66c0-1.07.05-2.15.08-3.22a10.46,10.46,0,0,1,4.36.41c4.22,1.27,8.5,2.38,12.76,3.54,3,.8,5.95,1.56,8.92,2.37,6.06,1.66,12.1,3.37,18.17,5,3.49.94,7,1.7,10.5,2.68,4.89,1.37,9.74,2.85,14.68,4.06s10.11,2.59,15.14,4c5.92,1.65,11.82,3.4,17.73,5.08a13,13,0,0,0,2,.25,3.45,3.45,0,0,0,.72.08c.94.91,2.15.7,3.29.78,1.39.47,2.76,1,4.18,1.4,3.21.87,6.46,1.61,9.67,2.48,6.57,1.8,13.12,3.66,19.69,5.45a19.43,19.43,0,0,0,2.77.37,32.49,32.49,0,0,0,3.7,1.49c4.41,1.18,8.84,2.25,13.27,3.36a3.58,3.58,0,0,0,1,.62c4,1,8,1.95,12,3,5.42,1.42,10.81,2.93,16.21,4.39,3.61,1,7.2,2.14,10.81,3.14s7,1.79,10.49,2.74,7,2,10.47,3c6.08,1.64,12.19,3.17,18.27,4.81,6.74,1.83,13.45,3.73,20.18,5.61,2.07.57,4.13,1.19,6.21,1.72,3.9,1,7.81,1.95,11.71,2.95q3.51.89,7,1.88c3.74,1.08,7.46,2.22,11.21,3.27a7.45,7.45,0,0,0,2,0c1.49-1.1.93-2.7.93-4.11q0-71.36,0-142.71c0-1.08,0-2.16-.06-3.23-.16-1.75-.73-2.28-2.44-2.71-4-1-8.07-2-12.08-3.12-5.7-1.57-11.33-3.42-17.08-4.74-3-.7-6-1.69-8.93-2.49-3.62-1-7.26-1.84-10.88-2.82s-7-2-10.48-2.93c-3.76-1-7.64-1.6-11.31-2.86-3.95-1.36-8-2.2-12-3.34-6.58-1.87-13.23-3.51-19.85-5.25-3.25-1.1-6.57-2-9.85-3-3.66-1.13-7.41-2-11.12-3-3.33-.9-6.64-1.9-10-2.77a11,11,0,0,0-2.37-.07c-3-.77-6-1.51-8.92-2.33-6.32-1.73-12.63-3.5-18.94-5.26-2.58-.71-5.14-1.44-7.72-2.13-4.27-1.12-8.55-2.22-12.82-3.33-.19-.18-.37-.45-.6-.51q-8.31-2.28-16.63-4.5l-17.4-4.69c-4.13-1.11-8.25-2.25-12.37-3.37-5.67-1.53-11.35-3-17-4.59a15.7,15.7,0,0,1-2.2-.95c-.07-1.47-.21-2.95-.21-4.43q0-72.51,0-145c0-1.08.06-2.16,0-3.23A8.78,8.78,0,0,0,55,339v-.39c.85-1.8,2.15-2,4-1.46,3.94,1.26,7.93,2.36,11.92,3.47,3.84,1.06,7.71,2,11.57,3l10.45,2.74c.78.17,1.57.28,2.34.5,4,1.13,7.89,2.3,11.85,3.42a11.64,11.64,0,0,0,2,.2l20.9,5.78a3,3,0,0,0,.67.43c5.71,1.5,11.48,2.79,17.11,4.52,5,1.54,10.08,2.81,15.14,4.12,2.6.67,5.18,1.39,7.77,2.09,6.21,1.71,12.42,3.43,18.64,5.12,5.69,1.55,11.39,3.06,17.09,4.6q7,1.9,14,3.86c4.13,1.14,8.25,2.33,12.39,3.44s8.32,2.13,12.46,3.24c3.77,1,7.5,2.15,11.26,3.15,5.83,1.55,11.7,3,17.52,4.57,8.68,2.37,17.32,4.89,26,7.24a54.23,54.23,0,0,1,6.55,1.88,1.64,1.64,0,0,0,2.28-1.54c.1-1.21.08-2.42.08-3.64V270c0-.94,0-1.88,0-2.82a2.88,2.88,0,0,0-2.57-3.11c-1.56-.38-3.16-.63-4.71-1.06-5.56-1.53-11.11-3.14-16.67-4.67a8.41,8.41,0,0,0-2,0c-3.77-.94-7.56-1.85-11.33-2.82-2.72-.7-5.44-1.46-8.15-2.23-3.35-1-6.68-2-10-2.91s-7-1.69-10.55-2.63-6.68-2-10-2.94-6.48-1.75-9.73-2.6c-3.89-1-7.79-2-11.68-3.06-3.5-.95-7-1.95-10.47-2.91l-12.81-3.49c-3.24-.88-6.47-1.78-9.71-2.65-3.76-1-7.54-2-11.3-3s-7.51-2-11.26-3c-3.5-1-7-1.86-10.49-2.82-4-1.1-8-2.23-12-3.35a5.83,5.83,0,0,0-1.33-.82c-4-1.13-8-2.22-12-3.3-3.74-1-7.49-2-11.24-3l-10-2.69-8.25-2.34-12.76-3.35L72,200.82l-10.67-3.06-11.56-3c-2.31-.6-4.63-1.16-6.92-1.82-3.45-1-6.87-2.08-10.31-3.08a9.15,9.15,0,0,0-2-.16q-8-2.15-16-4.26a2.7,2.7,0,0,1-2.07-2.24,24.84,24.84,0,0,1-.35-4.39q0-72.9,0-145.79c0-.94.05-1.89,0-2.83a3.51,3.51,0,0,1,2.27-3.85c1.55.38,3.11.73,4.64,1.16,3.32.94,6.63,2,10,2.87a5.59,5.59,0,0,0,1.58,0h0c.09.1.17.25.27.28,5,1.45,9.93,2.9,14.91,4.3,4.34,1.22,8.7,2.38,13.06,3.57,5,2.07,10.27,3,15.39,4.55,5.9,1.79,12,3,17.89,4.74s12,3,17.84,5c4.43,1.48,9.09,2.31,13.65,3.43a9.09,9.09,0,0,0,1.47.64c3.87,1,7.85,1.65,11.62,2.92,4.06,1.36,8.22,2.28,12.33,3.44,6.54,1.84,13.14,3.48,19.72,5.21a4.08,4.08,0,0,0,1,.6c4,1,8,2,12,3,2.2.55,4.4,1.09,6.58,1.72,3.72,1.08,7.39,2.32,11.13,3.34,6,1.64,12.14,3.1,18.19,4.75,5.54,1.51,11,3.18,16.67,4.31a8.42,8.42,0,0,0,1.48.65c4.95,1.2,9.88,2.48,14.75,4,3.83,1.21,7.81,1.94,11.71,2.93,3.64.93,7.27,1.91,10.9,2.87l6.15,1.6,10,2.59c5.29,1.49,10.58,3,15.88,4.46,4.38,1.22,8.78,2.4,13.18,3.6.21.16.39.41.62.48,5.82,1.52,11.65,3,17.45,4.56s11.59,3.28,17.38,4.92c3.22.91,6.44,1.82,9.66,2.69q6,1.62,12,3.19,5,1.34,10.08,2.63c1.31.32,2.62.61,3.92,1,3.62,1,7.2,2.14,10.85,3.05,4.59,1.15,4.61,1.08,4.61,5.86V792.29a22.09,22.09,0,0,0,0,2.82,3.83,3.83,0,0,0,2.56,3.23c1.12.41,2.37.48,3.52.83,5.66,1.72,11.29,3.52,17,5.22a42,42,0,0,0,4.74,1,1.64,1.64,0,0,0,2.07-1.38,10.5,10.5,0,0,0,.23-2c.06-2.55.1-5.11.1-7.67q0-323,0-645.93c0-.94,0-1.88,0-2.83,0-4.69.63-5.13,5.29-3.82,1.81.51,3.59,1.15,5.41,1.64,3.76,1,7.55,1.91,11.32,2.89,2.47.65,4.92,1.35,7.38,2,4,1.1,8,2.16,12,3.31,3.61,1,7.19,2.18,10.78,3.27,0,1.62.09,3.23.09,4.85q0,380.39,0,760.77c0,1.35-.08,2.69-.12,4-1.46-.1-3,.12-4.37-.35-3.82-1.32-7.76-2.11-11.63-3.19-5.42-1.52-10.87-2.92-16.29-4.4-4-1.09-8-2.28-12-3.36-5.82-1.56-11.67-3-17.49-4.61s-11.61-3.29-17.43-4.92q-4.65-1.31-9.32-2.53c-4.41-1.16-8.84-2.25-13.23-3.44-5.44-1.48-10.85-3.09-16.29-4.56-6.07-1.64-12.18-3.16-18.26-4.79-3.63-1-7.23-2.06-10.85-3.06q-4.84-1.35-9.71-2.63c-3.49-.92-7-1.78-10.49-2.73s-7-2-10.46-2.94a11.24,11.24,0,0,0-2.4-.12c-2.72-.71-5.44-1.42-8.15-2.15s-5.69-1.5-8.52-2.31c-3.21-.91-6.4-1.91-9.62-2.81a8.59,8.59,0,0,0-2-.07h0l-1.64-.79a10.36,10.36,0,0,0-4.41-1.73c-3.77-.94-7.54-1.89-11.28-2.93s-7.44-2.28-11.19-3.29S242.8,859,239,858.07c-2.47-.62-4.92-1.29-7.37-2-3.73-1.08-7.43-2.28-11.18-3.3-6.33-1.73-12.68-3.34-19-5-3.62-1-7.21-2.07-10.84-3-3.35-.91-6.74-1.69-10.1-2.58-4.14-1.1-8.27-2.26-12.41-3.38-5.68-1.54-11.37-3.05-17.06-4.59-4.53-1.22-9.08-2.36-13.57-3.72-4-1.21-8-2-12-3.35s-8.32-2.07-12.45-3.19c-8.66-2.37-17.28-4.93-26-7.19-2.34-.61-4.62-1.37-6.94-2-7-1.89-14-3.72-21-5.57-1-.28-2.07-.59-3.11-.87l-9.27-2.49c-.57-1-1.52-.82-2.42-.83h0C43.49,803.76,42.23,804.21,41.09,804.16Z"/><path class="cls-3" d="M562.51,115.05c-6.38,1.68-12.74,3.37-19.11,5-13,3.38-26,6.7-39,10.12a12.17,12.17,0,0,1-6.34,0q-27.74-7.12-55.51-14.14c-1.16-.3-2.32-.65-3.55-1-.12-1.56.89-2.54,1.54-3.65Q453.24,89.62,466,67.85q16.14-27.52,32.26-55.07c.73-1.23,1.22-2.67,2.52-3.52C503.2,12.31,561.38,112.06,562.51,115.05Z"/><path class="cls-4" d="M564.34,539.7a7.16,7.16,0,0,1,.69,1.81c.11,1.2,0,2.42,0,3.64V800.61c0,1.47,0,2.93,0,4.62A146.56,146.56,0,0,0,580,800.79c2.63-.95,5.37-1.59,8.07-2.34.51-.14,1.09-.07,1.59-.25,2.71-1,3.89-.42,3.74-4.61,0-.81,0-1.62,0-2.43V136.32c0-4.31-.06-4.57,4.92-5.71,1.17-.26,2.32-.62,3.47-1,.38-.11.74-.45,1.11-.45,4.11,0,7.74-2,11.68-2.85a109.56,109.56,0,0,0,11.22-3c0,.28,0,.57,0,.86a23.18,23.18,0,0,1-2.92,1.23c-3.62,1-7.28,1.77-10.9,2.75a41.47,41.47,0,0,0-4.09,1.57c-4,.21-7.51,2-11.35,2.71a2.88,2.88,0,0,0-2.29,3c0,2,0,4,0,6.07V792.71c0,.94,0,1.88,0,2.82-.13,2.05-.52,2.47-2.49,3.15s-4,.61-5.61,2.07c-1.37.19-2.85-.14-4,.93l-1.68.73c-2,.46-3.93.86-5.86,1.41-2.85.81-5.65,1.75-8.49,2.6a1.37,1.37,0,0,1-1.76-1.18c-.11-1.21-.13-2.42-.13-3.63q0-128.54,0-257.08C564.13,542.92,564.27,541.31,564.34,539.7Z"/><path class="cls-5" d="M513.42,925.35c0-1.48-.09-3-.09-4.45q0-380.59,0-761.21c0-1.48,0-3,.12-4.44a2.13,2.13,0,0,1,1.75-2c4.68-1.18,9.35-2.37,13.94-3.87a9.26,9.26,0,0,1,2-.24v.76a34.5,34.5,0,0,1-3.33,1.27q-5.74,1.5-11.51,2.87c-1.32.31-2.2.88-2,2.4,0,2.42-.09,4.85-.09,7.27q0,378.67,0,757.36c0,1.34.14,2.68.21,4-.09.11-.18.23-.28.34A5.28,5.28,0,0,0,513.42,925.35Z"/><path class="cls-6" d="M487.41,154.89c-3.59-1.09-7.17-2.23-10.78-3.27-4-1.15-8-2.21-12-3.31-2.46-.67-4.91-1.37-7.38-2-3.77-1-7.56-1.89-11.32-2.89-1.82-.49-3.6-1.13-5.41-1.64-4.66-1.31-5.25-.87-5.29,3.82,0,.95,0,1.89,0,2.83q0,323,0,645.93c0,2.56,0,5.12-.1,7.67a10.5,10.5,0,0,1-.23,2,1.64,1.64,0,0,1-2.07,1.38,42,42,0,0,1-4.74-1c-5.66-1.7-11.29-3.5-17-5.22-1.15-.35-2.4-.42-3.52-.83a8.16,8.16,0,0,1-1.87-1.4c.09-.35.19-.7.28-1.06a4.93,4.93,0,0,0,3.48,1.8,8.43,8.43,0,0,1,2.36.5c3.18,1,6.29,2.35,9.54,3.08A80.13,80.13,0,0,1,429,803.6a7.81,7.81,0,0,0,1.58.34c2.59.29,3.38-.37,3.49-3.07.09-2.15.07-4.31.07-6.47q0-323.8,0-647.62a30.79,30.79,0,0,1,.55-5.59c.29-1.49.95-1.85,2.31-1.4,2.81.92,5.84,1,8.51,2.46a7.79,7.79,0,0,0,2.37.42,7,7,0,0,1,2,.35c1.94,1,4.1,1.21,6.17,1.77,3.75,1,7.43,2.37,11.23,3.16s7.66,2.38,11.67,3a75.87,75.87,0,0,1,7.32,2.07A1.43,1.43,0,0,1,487.41,154.89Z"/><path class="cls-7" d="M406,795.88c-.09.36-.19.71-.28,1.06a8.16,8.16,0,0,1-.69-1.83,22.09,22.09,0,0,1,0-2.82V137.17c0-4.78,0-4.71-4.61-5.86-3.65-.91-7.23-2-10.85-3.05-1.3-.36-2.61-.65-3.92-1v-.81a16.7,16.7,0,0,1,7.05,1.56,3.86,3.86,0,0,0,1.51.53c3.18,0,5.9,1.8,9,2.21,1.83.24,2.53,1.17,2.72,3a31.59,31.59,0,0,1,.08,3.23q0,328,0,656.06C405.92,794,406,794.94,406,795.88Z"/><path class="cls-8" d="M564.34,539.7c-.07,1.61-.21,3.22-.21,4.83q0,128.55,0,257.08c0,1.21,0,2.42.13,3.63a1.37,1.37,0,0,0,1.76,1.18c2.84-.85,5.64-1.79,8.49-2.6,1.93-.55,3.9-1,5.86-1.41l.13.15c0,.25,0,.5,0,.76-1.68.45-3.38.85-5,1.36-2.68.83-5.32,1.77-8,2.56a6.64,6.64,0,0,1-2.4.1,1.53,1.53,0,0,1-1.54-1.55c-.08-1.48-.09-3-.09-4.45V149.66c0-2.29,0-4.58,0-6.87l.83,0c0,2.42,0,4.85,0,7.27V534.45C564.26,536.2,564.31,538,564.34,539.7Z"/><path class="cls-9" d="M282.9,258.33a8.41,8.41,0,0,1,2,0c5.56,1.53,11.11,3.14,16.67,4.67,1.55.43,3.15.68,4.71,1.06a2.88,2.88,0,0,1,2.57,3.11c.07.94,0,1.88,0,2.82V399.37c0,1.22,0,2.43-.08,3.64a1.64,1.64,0,0,1-2.28,1.54,54.23,54.23,0,0,0-6.55-1.88c-8.69-2.35-17.33-4.87-26-7.24-5.82-1.59-11.69-3-17.52-4.57-3.76-1-7.49-2.13-11.26-3.15-4.14-1.11-8.31-2.12-12.46-3.24s-8.26-2.3-12.39-3.44q-7-1.95-14-3.86c-5.7-1.54-11.4-3.05-17.09-4.6-6.22-1.69-12.43-3.41-18.64-5.12-2.59-.7-5.17-1.42-7.77-2.09-5.06-1.31-10.13-2.58-15.14-4.12-5.63-1.73-11.4-3-17.11-4.52a3,3,0,0,1-.67-.43l1.92-.25a7.78,7.78,0,0,1,1.61.12c3.61,1,7.21,2.1,10.83,3.09s7,1.81,10.5,2.71c.91.23,1.82.46,2.73.72,4.24,1.24,8.47,2.5,12.8,3.44,3.66.8,7.21,2.06,10.83,3.09q5,1.43,10.07,2.8c4.13,1.12,8.31,2,12.4,3.33,3.56,1.15,7.29,1.8,10.91,2.78s7.48,2.15,11.22,3.23a5.1,5.1,0,0,0,1.13.4c2.58.2,4.94,1.19,7.39,1.9,3.48,1,7.05,1.68,10.54,2.63s7.21,2.12,10.81,3.16a66.89,66.89,0,0,0,7.37,2c3.86.65,7.41,2.36,11.3,2.9a51.78,51.78,0,0,1,6.58,1.8c3.75,1.05,7.49,2.13,11.24,3.14q7.19,1.94,14.38,3.78a1,1,0,0,0,1.39-1,26.48,26.48,0,0,0,.1-2.82q0-64.6,0-129.23c0-4.15-.39-4.56-4.37-5.26a17,17,0,0,1-3.9-1,17.62,17.62,0,0,0-6.25-1.43,5.11,5.11,0,0,0-4.14-1.49l-1.5-.15a10.36,10.36,0,0,0-4.92-1.58h0A6.33,6.33,0,0,1,282.9,258.33Z"/><path class="cls-1" d="M203.77,534c6.62,1.74,13.27,3.38,19.85,5.25,4,1.14,8.06,2,12,3.34,3.67,1.26,7.55,1.87,11.31,2.86,3.51.92,7,2,10.48,2.93s7.26,1.85,10.88,2.82c3,.8,5.9,1.79,8.93,2.49,5.75,1.32,11.38,3.17,17.08,4.74,4,1.1,8.05,2.1,12.08,3.12,1.71.43,2.28,1,2.44,2.71.1,1.07.06,2.15.06,3.23q0,71.35,0,142.71c0,1.41.56,3-.93,4.11l-.06-.9c0-1.75.12-3.49.12-5.24q0-69.9,0-139.8c0-5.25,0-5.14-5-6.31-3.78-.89-7.49-2.11-11.22-3.19-.65-.18-1.29-.39-1.94-.56-4.52-1.23-9.05-2.49-13.59-3.68-3.76-1-7.55-1.85-11.32-2.82-2.47-.63-4.92-1.33-7.37-2-3.61-1-7.2-2.12-10.83-3.1s-7.54-1.92-11.3-2.89c-2.47-.64-4.92-1.31-7.37-2-3.62-1-7.23-2.09-10.85-3.08s-7.51-2-11.3-2.93a8.32,8.32,0,0,1-4-1.66Z"/><path class="cls-10" d="M307.14,876.92a11.24,11.24,0,0,1,2.4.12c3.5.93,7,2,10.46,2.94s7,1.81,10.49,2.73q4.86,1.29,9.71,2.63c3.62,1,7.22,2.09,10.85,3.06,6.08,1.63,12.19,3.15,18.26,4.79,5.44,1.47,10.85,3.08,16.29,4.56,4.39,1.19,8.82,2.28,13.23,3.44q4.67,1.23,9.32,2.53c5.82,1.63,11.61,3.33,17.43,4.92s11.67,3.05,17.49,4.61c4,1.08,8,2.27,12,3.36,5.42,1.48,10.87,2.88,16.29,4.4,3.87,1.08,7.81,1.87,11.63,3.19,1.33.47,2.91.25,4.37.35A1.17,1.17,0,0,1,486,926a25.39,25.39,0,0,1-3.92-.85c-4.15-1.12-8.28-2.27-12.41-3.42-1.29-.36-2.57-.77-3.86-1.14-1-.29-2.06-.57-3.11-.81a23,23,0,0,1-2.37-.43c-4.57-1.59-9.26-2.71-14-3.84-3.77-.92-7.46-2.19-11.17-3.32-2.31-.7-4.71-.83-7-1.76a65.36,65.36,0,0,0-9.3-2.61c-4.29-1.05-8.57-2.15-12.8-3.43-3.33-1-6.75-1.75-10.13-2.6-.52-.13-1.06-.2-1.57-.35-3.6-1.06-7.17-2.21-10.78-3.2s-7.29-1.79-10.92-2.76-7.46-2.13-11.2-3.2c-.9-.25-1.81-.47-2.72-.71l-4.26-1.14c-3.36-.93-6.7-1.92-10.08-2.79-4.15-1.06-8.33-2-12.39-3.36a25.53,25.53,0,0,0-3.13-.77c-.66-.14-1.35-.12-2-.31-3.34-1-6.66-2-10-3s-6.47-1.73-9.71-2.59A5.84,5.84,0,0,1,307.14,876.92Z"/><path class="cls-11" d="M282.9,258.33a6.33,6.33,0,0,0,.05.76,10.9,10.9,0,0,1-6.64-1.15,9.92,9.92,0,0,0-3.46-1c-1.49-.18-2.84-.86-4.24-1.13-3.44-.67-6.68-1.91-10-2.83-1.78-.49-3.75-.31-5.31-1.56a.6.6,0,0,0-.38-.13c-4.19.41-7.61-2.58-11.7-2.66-3.23-1.72-6.94-1.83-10.36-3s-6.79-2.48-10.46-2.68a11.85,11.85,0,0,1-2.32-.65c-2.2-.58-4.43-1.07-6.6-1.75s-4.47-1.89-7-1.71c-2.67-1.35-5.66-1.65-8.44-2.58-1.93-.64-3.75-1.46-5.82-1.4-3.5-1.83-7.61-1.59-11.14-3.32a3,3,0,0,0-1.13-.43c-3.84,0-7.32-1.68-10.85-2.78-3.31-1-6.75-1.49-10-2.71-2.59-1-5.47-1.24-8-2.51a.81.81,0,0,0-.39-.12c-3.74.22-7-1.8-10.51-2.44-2.76-.49-5.25-2-8.17-2-.76,0-1.52-1-2.28-1.45.86.19,1.72.44,2.6.57s2,.21,3,.3c4,1.12,8,2.25,12,3.35,3.49,1,7,1.87,10.49,2.82,3.75,1,7.5,2,11.26,3s7.54,2,11.3,3c3.24.87,6.47,1.77,9.71,2.65l12.81,3.49c3.49,1,7,2,10.47,2.91,3.89,1,7.79,2,11.68,3.06,3.25.85,6.5,1.69,9.73,2.6s6.67,2,10,2.94,7,1.69,10.55,2.63,6.69,1.95,10,2.91c2.71.77,5.43,1.53,8.15,2.23C275.34,256.48,279.13,257.39,282.9,258.33Z"/><path class="cls-12" d="M14.44,26.33a3.51,3.51,0,0,0-2.27,3.85c.07.94,0,1.89,0,2.83q0,72.88,0,145.79a24.84,24.84,0,0,0,.35,4.39,2.7,2.7,0,0,0,2.07,2.24c5.33,1.4,10.64,2.83,16,4.25q0,.38,0,.75a13.08,13.08,0,0,1-2.81-.14c-3.62-1-7.22-2.06-10.82-3.1-1-.3-2.06-.6-3.1-.87a3.35,3.35,0,0,1-2.71-3.12c-.08-.8-.08-1.61-.08-2.42q0-74.77,0-149.56c0-.27,0-.54,0-.81,0-.86,0-1.73,0-2.59a1.85,1.85,0,0,1,.07-.74c.53-.37,1-.77,1.6-1.13A1,1,0,0,1,14.44,26.33Z"/><path class="cls-13" d="M113.09,661.83a13,13,0,0,1-2-.25c-5.91-1.68-11.81-3.43-17.73-5.08-5-1.4-10.07-2.75-15.14-4s-9.79-2.69-14.68-4.06c-3.48-1-7-1.74-10.5-2.68-6.07-1.64-12.11-3.35-18.17-5-3-.81-6-1.57-8.92-2.37-4.26-1.16-8.54-2.27-12.76-3.54a10.46,10.46,0,0,0-4.36-.41c0-.33-.05-.67-.07-1,2-.69,3.93,0,5.84.52,4.54,1.19,9.08,2.39,13.6,3.64,3.36.93,6.68,2,10,2.92,3.62,1,7.27,1.85,10.89,2.83,1.55.41,3,1,4.61,1.44,3.63.94,7.31,1.74,10.94,2.71s7.21,2.1,10.81,3.17a4.67,4.67,0,0,0,.76.28c3.53.23,6.72,1.82,10.12,2.6,3.79.86,7.51,2.05,11.26,3.06s7.27,1.86,10.88,2.86c1.55.43,3,1,4.57,1.56C113.08,661.3,113.08,661.56,113.09,661.83Z"/><path class="cls-14" d="M307.89,713.4l.06.9a7.45,7.45,0,0,1-2,0c-3.75-1-7.47-2.19-11.21-3.27q-3.48-1-7-1.88c-3.9-1-7.81-1.94-11.71-2.95-2.08-.53-4.14-1.15-6.21-1.72-6.73-1.88-13.44-3.78-20.18-5.61-6.08-1.64-12.19-3.17-18.27-4.81-3.5-.93-7-2-10.47-3s-7-1.78-10.49-2.74-7.2-2.09-10.81-3.14l0-1c3.46,1.08,7.06,1.5,10.49,2.82,3.1,1.18,6.47,1.64,9.72,2.43.79.19,1.56.42,2.34.63,4.28,1.14,8.56,2.24,12.82,3.42,3.74,1,7.46,2.2,11.2,3.27,3.22.92,6.45,1.82,9.7,2.67,4.27,1.12,8.58,2.06,12.79,3.45,3.3,1.08,6.74,1.74,10.12,2.59.92.23,1.85.4,2.74.68,4.35,1.38,8.74,2.54,13.19,3.55,3.65.82,7.18,2.18,10.77,3.26A16.65,16.65,0,0,0,307.89,713.4Z"/><path class="cls-15" d="M55,338.59V339c0,1.62-.09,3.23-.09,4.84V489.11c0,1.48.06,2.95.09,4.43l-.12.12a9.77,9.77,0,0,1-.77-2.2,33.79,33.79,0,0,1,0-3.63q0-73.32,0-146.64c0-1.56-.57-3.26.75-4.62Z"/><path class="cls-16" d="M946.69,336.78c0,1.21.09,2.43.09,3.64V489.57c0,1.35,0,2.69-.07,4l-.89-.08c0-1.34.09-2.69.09-4q0-74.46,0-148.91c0-1.2-.11-2.41-.18-3.62l.23-.23C946.2,336.76,946.45,336.78,946.69,336.78Z"/><path class="cls-17" d="M989.62,27.89q0,15.33,0,30.65V179.92c0,1.34,0,2.68-.06,4-.26,0-.51,0-.76,0l-.17-.13q0-78,0-155.93Z"/><path class="cls-18" d="M692.93,712c0,.21,0,.42,0,.64s-.11.65-.16,1c-1.27-1.39-.68-3.09-.68-4.64q-.06-70,0-140a31.61,31.61,0,0,1,0-3.23,8.71,8.71,0,0,1,.65-1.83c0,2.15.08,4.3.08,6.45v136.8C692.85,708.79,692.9,710.4,692.93,712Z"/><path class="cls-19" d="M692.93,712c0-1.62-.08-3.23-.08-4.84V570.38c0-2.15-.05-4.3-.07-6.45h.4l.4,0,.08.11c0,1.48,0,3,0,4.44q0,69.47,0,138.92C693.6,708.91,694.11,710.6,692.93,712Z"/><path class="cls-20" d="M693.67,266.43c0,2,0,4,0,6.05V398c0,1.21,0,2.42.06,3.63,0,1,.72,1.35,1.58,1.49-.56.94-1.45.77-2.31.71,0-1.35-.1-2.69-.1-4V271a31.6,31.6,0,0,1,.07-3.23,4.75,4.75,0,0,1,.69-1.39Z"/><path class="cls-21" d="M674,110.87a10.07,10.07,0,0,1,2-1.23c2.92-.9,5.85-1.81,8.83-2.47a34.16,34.16,0,0,0,6.94-1.91,9.35,9.35,0,0,1,2.32-.54c.66-.11,1.44.06,2-.23,3-1.6,6.43-1.72,9.58-2.84,3.37-1.2,6.93-1.85,10.4-2.75.78-.2,1.55-.42,2.31-.68a112.92,112.92,0,0,1,13.16-3.39c.65-.14,1.28-.4,1.92-.59L744.6,91c0,.29,0,.59,0,.88a14.76,14.76,0,0,1-2.15,1c-3.46,1-6.94,1.89-10.4,2.84-1.93.53-3.83,1.14-5.77,1.64-3.86,1-7.75,1.94-11.61,3a16.68,16.68,0,0,0-2.52,1.14c-1.58.3-3.18.51-4.72.92-3.64,1-7.25,2-10.88,3q-6.6,1.82-13.21,3.59c-2.72.73-5.44,1.44-8.18,2.11A3.06,3.06,0,0,1,674,110.87Z"/><path class="cls-15" d="M55.84,493.56a15.7,15.7,0,0,0,2.2.95c5.66,1.55,11.34,3.06,17,4.59,4.12,1.12,8.24,2.26,12.37,3.37l17.4,4.69q8.33,2.23,16.63,4.5c.23.06.41.33.6.51l-1.75.16-7.38-1.9c-3-.78-6-1.55-8.91-2.36-2.06-.56-4.11-1.18-6.15-1.78-2.3-.69-4.7-.82-7-1.75a59.54,59.54,0,0,0-9.25-2.6,134.3,134.3,0,0,1-13.52-3.68,14.21,14.21,0,0,0-1.55-.42c-3.11-.75-6.22-1.48-9.32-2.26a2.93,2.93,0,0,1-2.38-1.92l.12-.12Z"/><path class="cls-14" d="M385.59,126.48v.81q-5-1.31-10.08-2.63-6-1.57-12-3.19c-3.22-.87-6.44-1.78-9.66-2.69-5.79-1.64-11.57-3.34-17.38-4.92s-11.63-3-17.45-4.56c-.23-.07-.41-.32-.62-.48l1.78-.23a20.47,20.47,0,0,1,5.47,1.25,97,97,0,0,0,9.67,2.74q6.65,1.56,13.17,3.56a56.42,56.42,0,0,0,7.37,2c3.85.65,7.41,2.34,11.29,2.89a31.35,31.35,0,0,1,6.95,1.93C377.85,124.4,382,124.42,385.59,126.48Z"/><path class="cls-22" d="M674,110.87a3.06,3.06,0,0,0,1.17.24c2.74-.67,5.46-1.38,8.18-2.11q6.61-1.77,13.21-3.59c3.63-1,7.24-2.08,10.88-3,1.54-.41,3.14-.62,4.72-.92l2.55,0c-2.37,1.28-5.14,1.1-7.61,2.24-2.28,1-4.91,1.31-7.35,2s-5.23.88-7.76,2c-2.29,1-4.9,1.25-7.31,2.14s-4.91,1.09-7.35,1.91c-3.79,1.28-7.79,1.93-11.68,2.93a76.39,76.39,0,0,0-9.27,2.68c-3.14,1.25-6.62,1.09-9.63,2.64l0-.84c1.34-.5,2.66-1.07,4-1.49,2.75-.85,5.52-1.62,8.28-2.42a1.46,1.46,0,0,0,.66-.07,2.59,2.59,0,0,0,2.45-.8c1.43-.3,2.9-.48,4.29-.91,2.5-.79,5.21-1,7.41-2.67Z"/><path class="cls-23" d="M123.61,56.18c-4.56-1.12-9.22-2-13.65-3.43-5.87-2-11.93-3.18-17.84-5s-12-3-17.89-4.74c-5.12-1.54-10.43-2.48-15.39-4.55l1.8-.22a14.46,14.46,0,0,1,2.39.3c3.73,1.07,7.44,2.21,11.16,3.31,2.43.72,4.93,1,7.36,1.89,3.51,1.25,7.25,1.85,10.88,2.78,3.24.83,6.49,1.63,9.68,2.64,4,1.25,8,2.21,12,3.25,1.42.37,2.8.9,4.22,1.31,1.78.52,3.58,1,5.37,1.48Z"/><path class="cls-24" d="M234.38,86.11c-5.64-1.13-11.13-2.8-16.67-4.31-6.05-1.65-12.15-3.11-18.19-4.75-3.74-1-7.41-2.26-11.13-3.34-2.18-.63-4.38-1.17-6.58-1.72-4-1-8-2-12-3a3.83,3.83,0,0,1-1-.61l1.89-.11a18,18,0,0,1,6.27,1.24c1.38.5,2.83.78,4.25,1.15,2.71.71,5.43,1.39,8.13,2.14,3.6,1,7.17,2.12,10.78,3.1s7.51,1.91,11.26,2.88c2.58.66,5.16,1.33,7.72,2.07,3.6,1,7.16,2.16,10.75,3.2,1.53.44,3.09.76,4.63,1.14C234.41,85.49,234.4,85.8,234.38,86.11Z"/><path class="cls-25" d="M823,528.38a4.18,4.18,0,0,0-.8.07c-3.45,1-6.85,2.21-10.35,3s-7.08,2.36-10.83,2.71a3.61,3.61,0,0,0-1.17.26c-4.57,1.95-9.43,2.84-14.25,3.92-1.16.27-2.28.77-3.42,1.16a16.67,16.67,0,0,1-5.89,1.1c-.73-.07-1.4,0-1.76.77h0l-2.63-.12a16,16,0,0,1,2.84-1.41c6.44-1.72,12.91-3.34,19.36-5,2.58-.67,5.17-1.31,7.74-2,4.1-1.16,8.18-2.38,12.28-3.57a8.59,8.59,0,0,0,4.26-.75,9.49,9.49,0,0,1,4.64-.85Q823,528,823,528.38Z"/><path class="cls-26" d="M743,699.86a7.44,7.44,0,0,0,2.39-.25c3.3-1.55,6.91-2,10.35-3.05,4.08-1.23,8.25-2.16,12.37-3.24.77-.2,1.52-.48,2.27-.75a7.41,7.41,0,0,1,1.48-.6c6.12-.76,11.72-3.57,17.81-4.4,3.39-1.69,7.28-1.64,10.73-3.11l2.5,0c-1.34.53-2.67,1-4,1.59-.59.24-1.16.52-1.74.79h0a6.57,6.57,0,0,0-1.6,0q-8.12,2.19-16.22,4.43c-1.29.36-2.57.75-3.86,1.13L767,694.89a3.55,3.55,0,0,0-.8,0c-6.15,1.67-12.3,3.38-18.47,5-1.53.4-3.13.55-4.7.82l-.15-.19A4.27,4.27,0,0,0,743,699.86Z"/><path class="cls-27" d="M693,403.79c.86.06,1.75.23,2.31-.71l9.24-2.49c1.67-.46,3.32-1,5-1.42,1.28-.35,2.57-.66,3.85-1a6.36,6.36,0,0,0,1.57-.26c2-1.15,4.41-1.11,6.5-1.92,3.5-1.36,7.33-1.53,10.72-3.2,4.36,0,8.1-2.76,12.46-2.71v.79L722.84,397c-2.33.66-4.65,1.36-7,2-3.77,1-7.58,1.83-11.34,2.85-2,.56-4,1.36-6,2.05h0l-3.31.75a2,2,0,0,1-2.39-.63Z"/><path class="cls-28" d="M802.89,684.5l-2.5,0c.19-.18.39-.5.59-.51,4.18-.2,7.84-2.63,12-2.82,3.22-1.71,6.91-1.83,10.32-3a47,47,0,0,1,10.4-2.73c1.55-.14,3-1.06,4.55-1.47,5.14-1.4,10.31-2.72,15.47-4.07,0,.31,0,.62,0,.93a20.12,20.12,0,0,1-2.53,1.12c-3.47,1-7,1.9-10.44,2.84a5.32,5.32,0,0,0-1.2,0q-6.95,1.86-13.88,3.77c-6.57,1.81-13.12,3.67-19.69,5.45A25.59,25.59,0,0,1,802.89,684.5Z"/><path class="cls-29" d="M120.3,512.33l1.75-.16c4.27,1.11,8.55,2.21,12.82,3.33,2.58.69,5.14,1.42,7.72,2.13,6.31,1.76,12.62,3.53,18.94,5.26,3,.82,5.94,1.56,8.92,2.33,0,.24.05.49.08.73-1.06,0-2.29.27-3.17-.15-3.17-1.56-6.67-1.89-10-2.87-3.54-1-7.05-2.43-10.8-2.77a9.87,9.87,0,0,1-3.07-.91,11.5,11.5,0,0,0-5-1.33,1.92,1.92,0,0,1-.8-.11c-2.42-1.2-5.12-1.45-7.66-2.2a37.62,37.62,0,0,0-7-1.87C122.12,513.65,121.22,512.82,120.3,512.33Z"/><path class="cls-30" d="M771.92,541.26l2.63.12c-.09.09-.17.24-.29.27l-11.17,3c-.77.21-1.52.49-2.27.76a9,9,0,0,1-1.49.61c-5.17.75-10.05,2.6-15.06,4a23.34,23.34,0,0,1-3.58.4,1.52,1.52,0,0,0-1.75.72h0l-1.63.77a3.21,3.21,0,0,1-.76.06c-1.13.07-2.38-.38-3.28.74l-.82,0,0-.91c4.75-1.37,9.49-2.75,14.24-4.09,4.12-1.17,8.25-2.29,12.37-3.43,3.23-.89,6.44-1.84,9.69-2.66A19.81,19.81,0,0,1,771.92,541.26Z"/><path class="cls-31" d="M775.33,82.91c4.47-1.38,9.12-2.08,13.47-3.85,6.12-.78,11.78-3.36,17.83-4.48A81.33,81.33,0,0,0,817,71.51a16,16,0,0,1,5.12-.86l1.76.11a9,9,0,0,1-1.81.72A43.56,43.56,0,0,0,814.11,74h0a7.09,7.09,0,0,0-1.6,0c-5.4,1.46-10.8,2.93-16.19,4.45a19,19,0,0,0-2.54,1.12,29.55,29.55,0,0,0-3.9.57c-3.69,1-7.32,2.22-11,3.24a20.5,20.5,0,0,1-3.53.37C775.34,83.47,775.33,83.19,775.33,82.91Z"/><path class="cls-10" d="M170.64,68.27l-1.89.11c-6.58-1.72-13.18-3.36-19.72-5.2-4.11-1.16-8.27-2.08-12.33-3.44-3.77-1.27-7.75-2-11.62-2.92a9.09,9.09,0,0,1-1.47-.64l.06-1c3.46,1,7,1.56,10.45,2.81a87,87,0,0,0,9.29,2.34c.78.19,1.57.36,2.34.57,4.64,1.26,9.26,2.56,13.9,3.8,2.84.76,5.54,2,8.53,2.24C169,67.05,169.82,67.82,170.64,68.27Z"/><path class="cls-32" d="M777.85,243.05a4.18,4.18,0,0,1-1,.65c-2.18.61-4.38,1.17-6.58,1.74s-4.16,1.7-6.55,1.75c-1.66,0-3.3,1-5,1.52-2,.65-4.07,1.28-6.11,1.92-.25.08-.5.28-.75.28-4.11-.09-7.6,2.55-11.68,2.67a10.33,10.33,0,0,0-2.26.79c-1,.28-2.06.47-3.09.7v-.83c4.1-2,8.64-2.59,13-3.88,4.83-1.45,9.81-2.35,14.55-4.15,1.43-.25,2.88-.44,4.29-.78,3.37-.81,6.72-1.7,10.08-2.56Z"/><path class="cls-20" d="M734.88,254.23v.84l-2.31.12-.91.7c-.76.27-1.5.6-2.27.81-1.68.44-3.39.76-5.06,1.25s-3.52,1.34-5.46,1.25a1.48,1.48,0,0,0-.79.1c-2.9,1.53-6.17,1.76-9.24,2.69a93.05,93.05,0,0,1-14.34,3.66l-.09-.08v-.84a5.13,5.13,0,0,1,1.05-.52A121.11,121.11,0,0,0,710.65,260c1.17-.19,2.35-.33,3.5-.58,1.68-.37,3.34-.79,5-1.25,3.57-1,7.16-1.92,10.68-3.06A14.16,14.16,0,0,1,734.88,254.23Z"/><path class="cls-21" d="M769.63,382.82c.2-.17.4-.46.62-.48,2.43-.17,4.64-1.19,7-1.75,4.68-1.13,9.29-2.45,13.87-3.9a13,13,0,0,1,2-.33,16.74,16.74,0,0,0,2.37-.39c2.79-.91,5.46-2.26,8.49-2.27,2.11-1.35,4.63-1.28,6.91-2a8.44,8.44,0,0,1,1.6-.21l1.73.06c-.21.17-.39.43-.62.5q-9.12,2.51-18.26,5c-3.36.9-6.75,1.73-10.11,2.66s-7,2-10.47,2.95a19.83,19.83,0,0,1-3.2.31l-1.82-.08Z"/><path class="cls-33" d="M814.16,371.55l-1.73-.06a3.23,3.23,0,0,1,1-.68c3.32-.89,6.65-1.74,10-2.6.77-.2,1.55-.4,2.3-.66a106.5,106.5,0,0,1,13.5-3.47c.64-.14,1.26-.41,1.9-.6l11.06-3.24c0,.32,0,.63.05.94-1.58,1.51-3.72,1.3-5.62,1.83l-21.92,6.14a8.86,8.86,0,0,0-4.91,1.52c-1.14.06-2.32-.09-3.29.73Z"/><path class="cls-14" d="M55,338.59l-.15-2c1.84-1.57,3.81-.66,5.72-.24s3.62.95,5.41,1.46L77.13,341c1,.29,2.1.42,3.1.78,4.16,1.48,8.67,1.8,12.65,3.83,0,.26,0,.53,0,.79l-10.45-2.74c-3.86-1-7.73-2-11.57-3-4-1.11-8-2.21-11.92-3.47C57.12,336.55,55.82,336.79,55,338.59Z"/><path class="cls-34" d="M234.38,86.11c0-.31,0-.62.05-.92,3.43,1,7,1.52,10.38,2.81a66.77,66.77,0,0,0,7.31,2c3.61.91,7.25,1.72,10.85,2.69,3.45.93,6.87,2,10.3,3,0,.3,0,.59,0,.88-3.63-1-7.26-1.94-10.9-2.87-3.9-1-7.88-1.72-11.71-2.93-4.87-1.53-9.8-2.81-14.75-4A8.42,8.42,0,0,1,234.38,86.11Z"/><path class="cls-35" d="M153.41,672.39a19.43,19.43,0,0,1-2.77-.37c-6.57-1.79-13.12-3.65-19.69-5.45-3.21-.87-6.46-1.61-9.67-2.48-1.42-.38-2.79-.93-4.18-1.4l0-.85a6.86,6.86,0,0,1,2,.27,13.47,13.47,0,0,0,5,1.34,3.69,3.69,0,0,1,1.55.33c1.94,1,4.09,1.2,6.14,1.75,3.6,1,7.14,2.15,10.73,3.16,1.54.44,3.15.6,4.69,1a49,49,0,0,0,8.1,2.11c.22,0,.4.32.6.5Z"/><path class="cls-14" d="M133.31,217.91c-1-.09-2-.14-3-.3s-1.74-.38-2.6-.57c-3.47-.91-6.94-1.78-10.39-2.72-3.83-1-7.64-2.18-11.46-3.27a12.63,12.63,0,0,0-1.93-.47,21.62,21.62,0,0,1-7.18-2.29l2-.16,10,2.69c3.75,1,7.5,2,11.24,3,4,1.08,8,2.17,12,3.3A5.83,5.83,0,0,1,133.31,217.91Z"/><path class="cls-36" d="M922.49,501.73c-6.45,1.65-13,3.09-19.32,5-4.06,1.25-8.24,2.07-12.27,3.42a16.39,16.39,0,0,1-3.15.46l-.09-.1a4.37,4.37,0,0,0,.06-.72c5.78-1.54,11.56-3.07,17.34-4.63,4.75-1.28,9.49-2.61,14.24-3.88,1-.27,2.1-.34,3.15-.51C922.46,501.12,922.48,501.42,922.49,501.73Z"/><path class="cls-37" d="M170.53,526c0-.24-.06-.49-.08-.73a11,11,0,0,1,2.37.07c3.34.87,6.65,1.87,10,2.77,3.71,1,7.46,1.82,11.12,3,3.28,1,6.6,1.88,9.85,3l-1.86.13c-2-.37-4-.62-5.89-1.13-3.36-.89-6.66-2-10-2.9C180.87,528.67,175.69,527.32,170.53,526Z"/><path class="cls-38" d="M823,528.38q0-.37,0-.75c4.37-1.3,8.72-2.65,13.1-3.87s9.06-2.41,13.61-3.57c1.29-.33,2.62-.5,3.93-.75l2.51.08c-.2.17-.38.49-.59.5-4,.23-7.62,2.19-11.53,2.94-2,.39-4,1.36-6.13,1.58-1.93.2-3.79,1.14-5.69,1.72-2.15.65-4.44.73-6.49,1.86C825,528.53,823.94,528.31,823,528.38Z"/><path class="cls-39" d="M941.22,198.66A22.84,22.84,0,0,1,934,201a3,3,0,0,0-1.17.2c-2,1.19-4.4,1.12-6.49,1.93-3.49,1.37-7.32,1.53-10.7,3.21-3-.1-5.6,1.65-8.52,2v-.81L914,205.5l13.36-3.8c3.49-.92,7-1.87,10.48-2.77,1-.26,2.11-.39,3.16-.59Z"/><path class="cls-40" d="M775.33,82.91c0,.28,0,.56,0,.83A30.71,30.71,0,0,1,772,85.13c-3.2.92-6.42,1.73-9.64,2.59a6.81,6.81,0,0,0-5,1.48c-1.36.21-2.82-.11-4,.83l-8.76,1.85,0-.88c1-.23,2.1-.38,3.1-.71a127.67,127.67,0,0,1,13.87-3.57c1.17-.24,2.27-.79,3.42-1.11C768.42,84.66,771.82,83.57,775.33,82.91Z"/><path class="cls-18" d="M856.19,519.52l-2.51-.08c1.08-.48,2.16-1,3.22-1.45.59-.28,1.16-.58,1.74-.87.78-.14,1.58-.22,2.34-.43,4.33-1.21,8.66-2.44,13-3.66,1.29-.22,2.58-.42,3.87-.67s2.83-.58,4.24-.87c0,.24,0,.48,0,.73-4,1.18-7.93,2.45-11.92,3.53-3.23.88-6.52,1.51-9.76,2.33C859,518.44,857.58,519,856.19,519.52Z"/><path class="cls-41" d="M989.62,27.89l-.94,0c-1.69-1.39-3.56-1-5.39-.44-5.81,1.62-11.6,3.3-17.41,4.92a23.48,23.48,0,0,1-2.77.44l-1.19-.22a23.58,23.58,0,0,1,7.22-2.33,7.53,7.53,0,0,0,1.57-.31c4.68-1.6,9.47-2.83,14.23-4.17a8.29,8.29,0,0,1,2.36-.36,2.81,2.81,0,0,1,1.83.56C989.52,26.43,989.47,27.25,989.62,27.89Z"/><path class="cls-31" d="M975.71,637.48l1.16.19a1.16,1.16,0,0,1-.34.22c-5.8,1.55-11.62,3.06-17.41,4.66a17.43,17.43,0,0,0-2.85,1.39,18,18,0,0,0-6.19,1.24,14.29,14.29,0,0,1-5.77,1.25v-.77c4.26-1.2,8.5-2.45,12.77-3.6,3.87-1,7.77-1.95,11.65-2.94a8.18,8.18,0,0,0,1.9-.64A9.93,9.93,0,0,1,975.71,637.48Z"/><path class="cls-42" d="M30.61,190.43q0-.37,0-.75a9.83,9.83,0,0,1,2,.17c3.44,1,6.86,2.09,10.31,3.08,2.29.66,4.61,1.22,6.92,1.82l11.56,3,0,.87a26.83,26.83,0,0,1-7-1.49c-3.53-1.11-7.17-1.88-10.76-2.82-1-.26-2-.6-3.06-.88-1.67-.45-3.35-.84-5-1.34S32.24,191,30.61,190.43Z"/><path class="cls-43" d="M659,115.29c-2.76.8-5.53,1.57-8.28,2.42-1.36.42-2.68,1-4,1.49-4.66.31-8.9,2.32-13.4,3.31a37.7,37.7,0,0,0-4.39,1.57h0l-3.2.09c0-.29,0-.58,0-.86a15.48,15.48,0,0,0,2.37-.44c5.33-1.84,10.95-2.7,16.26-4.52,3.43-1.17,7.13-1.28,10.4-2.95a6.87,6.87,0,0,1,2.39-.26Z"/><path class="cls-44" d="M777.85,243.05l-1.09-.18,3.54-1.38,2.39-.84c1.14-.12,2.34,0,3.3-.81a1.51,1.51,0,0,0,.66-.09,8.77,8.77,0,0,0,4.93-1.57,30.29,30.29,0,0,0,3.17-.49c3.5-.9,7-1.87,10.47-2.81L807,235a8,8,0,0,1-3.62,1.61c-2.07.49-4.09,1.21-6.13,1.84-.26.08-.5.29-.75.29-4.11-.06-7.6,2.56-11.68,2.69a4.26,4.26,0,0,0-1.88.64A9.93,9.93,0,0,1,777.85,243.05Z"/><path class="cls-45" d="M874,354.56c6.29-1.63,12.59-3.23,18.86-4.91,2.29-.61,4.4-2,6.91-1.65l1.76.13a10.34,10.34,0,0,1-1.81.72,43.23,43.23,0,0,0-7.92,2.46l-14.58,4-3.16.14-.12-.15A4.74,4.74,0,0,0,874,354.56Z"/><path class="cls-46" d="M320.19,108.59l-1.78.23c-4.4-1.2-8.8-2.38-13.18-3.6-5.3-1.47-10.59-3-15.88-4.46,0-.27,0-.53,0-.79,2.61.48,5.28.65,7.7,2a7.94,7.94,0,0,0,1.94.36c1.29.3,2.56.65,3.84,1l5,1.34a1.36,1.36,0,0,0,.4,0c2.18,0,3.76,1.83,6.07,1.77A9.62,9.62,0,0,1,320.19,108.59Z"/><path class="cls-18" d="M732.43,551.74l0,.91,0,0c-.9,0-1.86-.15-2.41.85h0c-.9,0-1.83-.16-2.46.74l-1.53.1c-.93-.05-1.89-.22-2.48.79h0l-1.66.75a52.65,52.65,0,0,0-6.14,1.59,15,15,0,0,1-5.06.95,1.52,1.52,0,0,0-1.73.71h0c-.89,0-1.84-.13-2.42.83h0l-2.56-.12a2.15,2.15,0,0,0,.11-.71c2.71-.7,5.44-1.37,8.14-2.12,6.05-1.69,12.09-3.44,18.14-5.13A9.38,9.38,0,0,1,732.43,551.74Z"/><path class="cls-24" d="M199.66,684.27l0,1c-5.4-1.46-10.79-3-16.21-4.39-4-1-8-2-12-3a3.58,3.58,0,0,1-1-.62l1.88-.12a19.52,19.52,0,0,1,7,1.56,21,21,0,0,0,3.09.83c1.16.3,2.33.56,3.48.87q6,1.59,12,3.23C198.44,683.78,199.05,684.05,199.66,684.27Z"/><path class="cls-47" d="M961.92,32.62l1.19.22-7.45,2.41a10.91,10.91,0,0,0-2,.16c-3.87,1.08-7.71,2.25-11.59,3.31-3,.8-6,1.47-9,2.2l-1.09-.2a23.36,23.36,0,0,1,7.18-2.34,4.28,4.28,0,0,0,1.55-.31c1.9-1.13,4.09-1.18,6.13-1.76,1.4-.39,2.78-.89,4.19-1.28,1-.29,2.07-.45,3.1-.69a11.22,11.22,0,0,0,2.68-.69A10.81,10.81,0,0,1,961.92,32.62Z"/><path class="cls-48" d="M692.8,713.63c.05-.32.1-.65.16-1a2.44,2.44,0,0,0,2.22.53c4.45-1.44,8.94-2.69,13.47-3.87,3-.77,6-1.5,8.87-2.46.89-.29,1.82-.42,2.73-.63l1.84.13c-1.61.57-3.21,1.24-4.86,1.7-3.58,1-7.21,1.82-10.8,2.83s-7.38,2.22-11.08,3.31A2.17,2.17,0,0,1,692.8,713.63Z"/><path class="cls-49" d="M60.64,38.27l-1.8.22c-4.36-1.19-8.72-2.35-13.06-3.57-5-1.4-9.94-2.85-14.91-4.3-.1,0-.18-.18-.27-.28a10.53,10.53,0,0,1,5.9.8c1.33.57,2.91.53,4.25,1.09,3.6,1.52,7.58,1.73,11.16,3.32a8,8,0,0,0,2.37.43A12.9,12.9,0,0,1,60.64,38.27Z"/><path class="cls-29" d="M307.14,876.92a5.84,5.84,0,0,0,.05.73,10.43,10.43,0,0,1-3.1-.33c-3.43-1.47-7.17-1.76-10.66-2.94a15.6,15.6,0,0,0-1.86-.62c-3.78-.75-7.46-1.89-11.15-3-.58-.18-1-.77-1.54-1.17a8.59,8.59,0,0,1,2,.07c3.22.9,6.41,1.9,9.62,2.81,2.83.81,5.68,1.55,8.52,2.31S304.42,876.21,307.14,876.92Z"/><path class="cls-50" d="M882.86,214.65c-4.07,1.22-8.07,2.84-12.23,3.55-4.33.75-8.28,2.94-12.74,3l-1.74-.08c1.26-1.26,3-.8,4.54-1.32,2.52-.85,5.16-1.33,7.72-2.09,2.15-.65,4.25-1.47,6.37-2.22h0c1.28-.23,2.57-.45,3.85-.7s2.82-.58,4.23-.87Z"/><path class="cls-51" d="M564.25,142.75l-.83,0v0a1.51,1.51,0,0,0-2-.82q-4.87,1.28-9.71,2.66c-3.22.92-6.42,1.93-9.65,2.84a10.14,10.14,0,0,1-2,.13c0-.26,0-.52,0-.78,2.42-.75,4.7-2,7.35-1.87,3.4-1.73,7.27-1.9,10.77-3.28a10.19,10.19,0,0,1,4.76-.58C563.89,141.16,564.27,141.81,564.25,142.75Z"/><path class="cls-20" d="M966.3,192.12c-2.4.77-4.78,1.59-7.19,2.3A60.88,60.88,0,0,1,952.9,196c-3.93.74-7.58,2.71-11.68,2.63l-.25-.32,13.74-4c2-.59,4.09-1.2,6.16-1.69,1.41-.33,2.87-.47,4.31-.69Z"/><path class="cls-52" d="M922.49,501.73c0-.31,0-.61,0-.92,1.36-.48,2.71-1,4.08-1.42.88-.27,1.82-.39,2.71-.64,3.71-1,7.4-2.12,11.12-3.11a21.74,21.74,0,0,1,3.14-.4h1.62l.08.06c-1.22,1.35-3.05.53-4.48,1.31a13.45,13.45,0,0,1-4.45,1.67C931.53,498.88,927.11,500.7,922.49,501.73Z"/><path class="cls-53" d="M823.87,70.76l-1.76-.11a8.81,8.81,0,0,1,2-1.2c3.7-1,7.42-1.86,11.13-2.82,1.41-.36,2.78-.84,4.17-1.27,1.77-.54,3.51-1.25,5.42-1.08V65Z"/><path class="cls-54" d="M880.44,54.6c4-1.22,8-2.79,12.13-3.54,3.5-.65,6.74-2.38,10.37-2.31l.26.3a5,5,0,0,0-.27.57c-1.8.5-3.59,1-5.4,1.51q-7.35,2-14.73,3.87a18.77,18.77,0,0,1-2.37.33C880.43,55.09,880.44,54.84,880.44,54.6Z"/><path class="cls-55" d="M131.87,356l-1.92.25-20.9-5.78c0-.23,0-.47,0-.71a31.44,31.44,0,0,1,3.51.43q3.67.87,7.29,1.94c3.68,1.07,7.33,2.19,11,3.32A5.25,5.25,0,0,1,131.87,356Z"/><path class="cls-56" d="M880.44,54.6c0,.24,0,.49,0,.73-3.93,1.18-7.84,2.42-11.79,3.5-3,.84-6.15,1.49-9.23,2.22,0-.26,0-.52,0-.78a25.9,25.9,0,0,1,5.67-1.76c3.87-.89,7.68-2,11.47-3.26A10,10,0,0,1,880.44,54.6Z"/><path class="cls-54" d="M944.31,645.66v.77l-6.63,2.36c-3.36.85-6.72,1.73-10.08,2.54-1.42.34-2.87.55-4.3.82,0-.26,0-.53,0-.8,5.36-1.45,10.65-3.16,16.1-4.26C941.07,646.75,942.47,645.42,944.31,645.66Z"/><path class="cls-49" d="M14.44,26.33A1,1,0,0,0,12.83,26c-.55.36-1.07.76-1.6,1.13.73-2.12,1.56-2.71,3.35-2.22,1.53.42,3.06.87,4.55,1.41,2.87,1.06,5.89,1.59,8.8,2.47a12.75,12.75,0,0,1,2.68,1.6,5.59,5.59,0,0,1-1.58,0c-3.32-.92-6.63-1.93-10-2.87C17.55,27.06,16,26.71,14.44,26.33Z"/><path class="cls-16" d="M918.44,342.41c3.39-.67,6.55-2.17,10-2.58,2.09-.24,4.07-1.26,6.13-1.83a25.76,25.76,0,0,1,3.17-.47l1.73.09a6.76,6.76,0,0,1-1.37.74c-3.6.91-7.29,1.56-10.81,2.73a53.34,53.34,0,0,1-8.86,2.19l-.08-.1A6.49,6.49,0,0,0,918.44,342.41Z"/><path class="cls-57" d="M835.16,227.59c-.89.3-1.76.63-2.66.9-2,.64-4.09,1.25-6.14,1.87a4,4,0,0,1-1.15.36c-2.37-.1-4.44.89-6.58,1.68a4.3,4.3,0,0,1-1.2.11l-2.61-.13a177.73,177.73,0,0,1,20.28-5.67l.1.13A6.28,6.28,0,0,0,835.16,227.59Z"/><path class="cls-50" d="M907.13,207.43v.81c-3.39.56-6.48,2.22-10,2.54-1.54.15-3,1-4.52,1.46-2.17.6-4.37,1.08-6.56,1.62,0-.3,0-.6,0-.9s.07-.43.09-.65a2.37,2.37,0,0,0,.75-.09c1.16-.05,2.37.15,3.33-.74a89.15,89.15,0,0,0,8.83-2.39Z"/><path class="cls-58" d="M878.83,663.46c4-1.22,8.07-2.49,12.14-3.63a25.58,25.58,0,0,1,3.93-.48h1.67l.12.16c-1.76.5-3.52,1-5.27,1.52-3.42,1-6.82,2.06-10.24,3a11.47,11.47,0,0,1-2.36.17C878.82,664,878.82,663.72,878.83,663.46Z"/><path class="cls-59" d="M172.26,677.12l-1.88.12c-4.43-1.11-8.86-2.18-13.27-3.36a32.49,32.49,0,0,1-3.7-1.49l2.49,0c4.6.76,8.89,2.75,13.53,3.39A10.43,10.43,0,0,1,172.26,677.12Z"/><path class="cls-60" d="M722.1,706.36l-1.85-.13c.92-1.05,2.34-.42,3.36-.94,3.36-1.7,7.26-1.49,10.64-3.15a14.73,14.73,0,0,1,3.88-.7v.8c-4.17,1.24-8.33,2.52-12.51,3.69A24.18,24.18,0,0,1,722.1,706.36Z"/><path class="cls-61" d="M856.21,222c-.1.09-.18.24-.29.26-5.65,1.26-11.13,3.12-16.74,4.53a4.13,4.13,0,0,1-.79,0V226l7.28-2.39c1.13-.27,2.24-.57,3.38-.79,1.76-.34,3.54-.64,5.32-.95l1.78,0Z"/><path class="cls-47" d="M878.83,663.46c0,.26,0,.52,0,.77-4.07,1.22-8.13,2.48-12.22,3.64a20.44,20.44,0,0,1-3.14.42v-.8a54.74,54.74,0,0,1,8.83-2.45,11.23,11.23,0,0,0,2.63-.91A7.36,7.36,0,0,1,878.83,663.46Z"/><path class="cls-59" d="M109,349.8c0,.24,0,.48,0,.71a11.64,11.64,0,0,1-2-.2c-4-1.12-7.9-2.29-11.85-3.42-.77-.22-1.56-.33-2.34-.5,0-.26,0-.53,0-.79a16.29,16.29,0,0,1,6.24,1.22,9.57,9.57,0,0,0,2.66.84A29.37,29.37,0,0,1,109,349.8Z"/><path class="cls-62" d="M61.31,198.63l0-.87L72,200.82l5.68,1.62-1.87.14a41.14,41.14,0,0,1-4.33-.71c-2.57-.7-5-1.72-7.72-2A7.88,7.88,0,0,1,61.31,198.63Z"/><path class="cls-63" d="M289.34,100c0,.26,0,.52,0,.79l-10-2.59-6.15-1.6c0-.29,0-.58,0-.88,4.26,1,8.52,1.92,12.76,3A25.93,25.93,0,0,1,289.34,100Z"/><path class="cls-17" d="M988.8,185.58a7.25,7.25,0,0,1-1.7.92c-3.24.75-6.22,2.47-9.65,2.5a9.06,9.06,0,0,0-2.3.66l-1.07-.13A7.7,7.7,0,0,1,977.7,188c2.69-.68,5.34-1.55,8-2.34,1.45.16,2.18-.85,3-1.81l.17.13Z"/><path class="cls-64" d="M744.59,390.91v-.79a12.22,12.22,0,0,1,5.9-1.75,8.49,8.49,0,0,0,2.23-.63c.88,0,1.82.09,2.38-.85h0l2.52.08c-.06.22-.12.45-.17.68-3.77,1.06-7.53,2.12-11.31,3.16A7.92,7.92,0,0,1,744.59,390.91Z"/><path class="cls-14" d="M75.82,202.58l1.87-.14,12.76,3.35c0,.26,0,.52,0,.78a7.74,7.74,0,0,1-1.6-.08c-4-1.06-8-2.13-12-3.24A3.68,3.68,0,0,1,75.82,202.58Z"/><path class="cls-54" d="M932,40.72l1.09.2a1.73,1.73,0,0,0-.14.71h0a11.91,11.91,0,0,0-2.4.16c-3.36.89-6.7,1.9-10.06,2.82a25.53,25.53,0,0,1-2.78.43l-.24-.32C922.15,42.63,927.1,41.7,932,40.72Z"/><path class="cls-21" d="M673.84,110.84c-2.2,1.63-4.91,1.88-7.41,2.67-1.39.43-2.86.61-4.29.91l-1.75-.08c.54-.36,1.07-1,1.64-1C666.07,113,669.7,110.67,673.84,110.84Z"/><path class="cls-54" d="M902.94,48.75a24.67,24.67,0,0,1,7.22-2.31,6.44,6.44,0,0,0,2.29-.66,11.1,11.1,0,0,1,5.06-1.06l.24.32c-4,1.77-8.43,2.34-12.57,3.79a9.17,9.17,0,0,1-2,.22Z"/><path class="cls-65" d="M856.19,359.45a19.67,19.67,0,0,1,2.21-.84c2.79-.71,5.71-1,8.35-2.3a4.41,4.41,0,0,1,1.56-.12V357c-3.85,1.73-8,2.28-12,3.36l-.13-.17Q856.18,359.81,856.19,359.45Z"/><path class="cls-66" d="M517.38,926.2l-.78,0-2.45,0h0a4.62,4.62,0,0,0-.06-.74c.1-.11.19-.23.28-.34,1.13-.28,2.26-.54,3.38-.83L523,923l3.18-.05.06.87-.78,0c-1.13.07-2.37-.34-3.27.75l-.77,0-1.65.77a6.31,6.31,0,0,0-.76.07Z"/><path class="cls-16" d="M863.46,667.49v.8a30.13,30.13,0,0,1-9.67,2.53c0-.31,0-.62,0-.93a35.76,35.76,0,0,0,6.67-2A10.3,10.3,0,0,1,863.46,667.49Z"/><path class="cls-40" d="M757.62,387l-2.52-.08c.2-.17.4-.5.6-.5,3.4,0,6.3-2.31,9.75-2l1.11.17C763.61,385.46,760.78,386.82,757.62,387Z"/><path class="cls-67" d="M90.45,206.57c0-.26,0-.52,0-.78l8.25,2.34-2,.16A10.08,10.08,0,0,1,90.45,206.57Z"/><path class="cls-51" d="M905.46,656.11c1.16-1.16,2.66-.6,4-.81l1.69-.76h2.42l.1.13c-1.62,1.41-3.58,1.58-5.59,1.55l-2.56,0Z"/><path class="cls-11" d="M282.93,259.09a10.36,10.36,0,0,1,4.92,1.58A4.76,4.76,0,0,1,282.93,259.09Z"/><path class="cls-11" d="M289.35,260.82a5.11,5.11,0,0,1,4.14,1.49A4.71,4.71,0,0,1,289.35,260.82Z"/><path class="cls-57" d="M807,235l-1.77-.12c1.16-1.11,2.64-.76,4-.86,0,.28,0,.55,0,.83Z"/><path class="cls-16" d="M912,344.09l3-.15,1,.06.1.13c-1.2,1-2.66.66-4,.83l-.11-.15A5.79,5.79,0,0,0,912,344.09Z"/><path class="cls-65" d="M852.19,361.18c0-.31,0-.62-.05-.94l2.32-.09,1.67,0,.13.17C855,361.26,853.56,361,852.19,361.18Z"/><path class="cls-16" d="M941.9,336l1.53-.08,2.5.06h0c0,.26,0,.52,0,.77l-.23.23-3.78-.15Z"/><path class="cls-56" d="M855.38,61.06l1.48-.09,1.89.15-3.32.81Z"/><path class="cls-56" d="M849.72,62.69l2.26-.13,1.11.18c-1,.88-2.2.72-3.38.75C849.71,63.22,849.71,63,849.72,62.69Z"/><path class="cls-68" d="M923.31,651.35c0,.27,0,.54,0,.8a1.23,1.23,0,0,1-.66.06l-2.55-.06-.09-.1C920.93,651,922.16,651.36,923.31,651.35Z"/><path class="cls-51" d="M531.13,149.94v-.76l1.49-.1,1.76.11C533.46,150.15,532.26,149.9,531.13,149.94Z"/><path class="cls-57" d="M838.39,226v.8l-1.49.07-1.7,0-.1-.13C836.06,225.84,837.25,226,838.39,226Z"/><path class="cls-54" d="M914.4,653.73l.73-.07,2.46,0,.12.16c-1,.8-2.17.66-3.31.69Z"/><path class="cls-58" d="M899,657.8l2.24-.13,1.19.21c-1,.81-2.22.7-3.38.78l-.1-.13C899,658.29,899,658,899,657.8Z"/><path class="cls-20" d="M733.28,552.62c.9-1.12,2.15-.67,3.28-.74C735.65,552.93,734.42,552.59,733.28,552.62Z"/><path class="cls-36" d="M882.05,512.22c0-.25,0-.49,0-.73l1.46-.16,1.73.06.12.13C884.43,512.5,883.2,512.2,882.05,512.22Z"/><path class="cls-45" d="M868.31,357v-.79l1.51-.08,1.68,0,.12.16C870.64,357.12,869.46,357,868.31,357Z"/><path class="cls-35" d="M113.09,661.83c0-.27,0-.53,0-.8,1.17,0,2.37-.11,3.38.7l-2.66.18A3.45,3.45,0,0,1,113.09,661.83Z"/><path class="cls-13" d="M113.81,661.91l2.66-.18a1,1,0,0,1,.66.11l0,.85C116,662.61,114.75,662.82,113.81,661.91Z"/><path class="cls-19" d="M704.05,559.85l2.56.12c-.88,1.09-2.13.68-3.25.77v-.81A3.25,3.25,0,0,1,704.05,559.85Z"/><path class="cls-44" d="M814.82,232.38l2.61.13c-.92,1-2.16.68-3.3.76v-.81l.34-.08Z"/><path class="cls-18" d="M697.69,562.35l-1.53.1-1.74-.15c.94-1,2.15-.71,3.3-.71Z"/><path class="cls-19" d="M697.69,562.35l0-.76a2.13,2.13,0,0,1,.71-.09l2.43,0,.11.11C700.07,562.67,698.83,562.32,697.69,562.35Z"/><path class="cls-49" d="M11.16,27.82c0,.86,0,1.73,0,2.59A1.68,1.68,0,0,1,11.16,27.82Z"/><path class="cls-53" d="M858.75,61.12,856.86,61a3,3,0,0,1,2.56-.7c0,.26,0,.52,0,.78A1.34,1.34,0,0,1,858.75,61.12Z"/><path class="cls-53" d="M849.72,62.69c0,.27,0,.53,0,.8a1.12,1.12,0,0,1-.63.06l-1.78-.07-.07-.07C847.88,62.57,848.81,62.66,849.72,62.69Z"/><path class="cls-56" d="M844.86,65v-.76l.7-.07,1.72.06A2.48,2.48,0,0,1,844.86,65Z"/><path class="cls-44" d="M809.26,234.85c0-.28,0-.55,0-.83v0l2.45,0,.07.08C811.11,235,810.18,234.89,809.26,234.85Z"/><path class="cls-21" d="M659,115.29l-1.87-.15a3,3,0,0,1,2.54-.72c0,.27,0,.53,0,.8A1.46,1.46,0,0,1,659,115.29Z"/><path class="cls-21" d="M540,146.8c0,.26,0,.52,0,.78a1.53,1.53,0,0,1-.67.06l-1.9-.17A2.93,2.93,0,0,1,540,146.8Z"/><path class="cls-36" d="M887.75,510.65c-.6.83-1.51.79-2.37.87l-.12-.12a6.62,6.62,0,0,0,0-.77h0l2.36-.07Z"/><path class="cls-51" d="M537.46,147.47l1.9.17-2.56.75c0-.28,0-.56,0-.83A3.85,3.85,0,0,1,537.46,147.47Z"/><path class="cls-57" d="M814.13,232.46v.81a4.49,4.49,0,0,0-.73.06l-1.73-.09A2.48,2.48,0,0,1,814.13,232.46Z"/><path class="cls-17" d="M973.42,190.41l-2.32.15-.2-.31,2.52-.63Z"/><path class="cls-43" d="M659.69,115.22c0-.27,0-.53,0-.8a5.4,5.4,0,0,1,.69-.08l1.75.08A2.59,2.59,0,0,1,659.69,115.22Z"/><path class="cls-50" d="M882.86,214.65v-.74a1.72,1.72,0,0,1,.71-.09l1.86.11A2.88,2.88,0,0,1,882.86,214.65Z"/><path class="cls-40" d="M755.1,386.89c-.56.94-1.5.82-2.38.85C753.27,386.78,754.2,386.88,755.1,386.89Z"/><path class="cls-20" d="M730.07,553.52c.55-1,1.51-.84,2.41-.85C731.89,553.55,731,553.49,730.07,553.52Z"/><path class="cls-20" d="M727.61,554.25c.63-.9,1.56-.77,2.46-.74C729.44,554.4,728.52,554.29,727.61,554.25Z"/><path class="cls-20" d="M723.6,555.14c.59-1,1.55-.84,2.48-.79A3,3,0,0,1,723.6,555.14Z"/><path class="cls-50" d="M885.43,213.93l-1.86-.11a3.38,3.38,0,0,0,.23-.63l2.26-.23c0,.3,0,.6,0,.9A3.05,3.05,0,0,1,885.43,213.93Z"/><path class="cls-66" d="M706.6,560c.58-1,1.53-.81,2.42-.83C708.43,560.05,707.5,560,706.6,560Z"/><path class="cls-18" d="M703.36,559.93v.81a6.79,6.79,0,0,0-.78,0l-1.71-.12A2.65,2.65,0,0,1,703.36,559.93Z"/><path class="cls-17" d="M966.3,192.12l-1.12-.17,2.51-.83.09.12c0,.25,0,.5,0,.75Z"/><path class="cls-40" d="M767.24,383.67q.35,0,.69-.06l1.73.06a2.61,2.61,0,0,1-2.42.79Z"/><path class="cls-48" d="M917.59,653.69l-2.46,0a2.91,2.91,0,0,1,2.51-.73A6.33,6.33,0,0,1,917.59,653.69Z"/><path class="cls-54" d="M917.59,653.69a6.33,6.33,0,0,0,0-.76l.72-.08,1.74.12c-.59.85-1.51.82-2.39.88Z"/><path class="cls-48" d="M913.58,654.54h-2.42c.59-.92,1.53-.81,2.43-.81C913.59,654,913.59,654.27,913.58,654.54Z"/><path class="cls-58" d="M903.08,657a3.72,3.72,0,0,1,.67-.08l1.78.09a2.69,2.69,0,0,1-2.45.84Z"/><path class="cls-58" d="M896.61,658.58l.67-.07,1.71,0,.1.13-2.4.85-.12-.16C896.59,659.1,896.61,658.84,896.61,658.58Z"/><path class="cls-45" d="M871.55,355.41c.24,0,.48-.06.72-.1h1.64l.12.15-2.41.83-.12-.16A5.81,5.81,0,0,0,871.55,355.41Z"/><path class="cls-45" d="M903.88,346.45l.73-.05,1.87.19-2.58.71C903.89,347,903.89,346.73,903.88,346.45Z"/><path class="cls-69" d="M903.88,346.45c0,.28,0,.57,0,.85h0l-2.39,0-.08-.08C902.05,346.38,903,346.45,903.88,346.45Z"/><path class="cls-16" d="M907.12,345.7l1.46-.13.93.05.12.17a3,3,0,0,1-2.51.7Z"/><path class="cls-69" d="M907.12,345.7v.79a1.29,1.29,0,0,1-.64.1l-1.87-.19A2.79,2.79,0,0,1,907.12,345.7Z"/><path class="cls-16" d="M909.55,344.86l.71-.06h1.67l.11.15-2.41.83-.12-.17C909.53,345.37,909.55,345.12,909.55,344.86Z"/><path class="cls-26" d="M740.56,700.65a6.2,6.2,0,0,0,.74-.08h1.62l.15.19-2.41.84-.15-.21A6,6,0,0,0,740.56,700.65Z"/><path class="cls-26" d="M738.13,702.24v-.8a6.52,6.52,0,0,0,.77,0l1.61,0,.15.21Z"/><path class="cls-16" d="M916,343.26l.71-.07h1.67l.08.1a2.8,2.8,0,0,1-2.4.85L916,344A6.23,6.23,0,0,0,916,343.26Z"/><path class="cls-70" d="M514.15,926.22l2.45,0C515.35,927.2,515.35,927.2,514.15,926.22Z"/><path class="cls-71" d="M941.9,336c0,.28,0,.56,0,.84v0h-2.45l-.05-.06C940.06,335.85,941,336,941.9,336Z"/><path class="cls-71" d="M945.93,336l-2.5-.06C944.28,335.05,945.12,334.9,945.93,336Z"/><path class="cls-53" d="M855.38,61.06c0,.29,0,.58,0,.87v0l-1.65,0-.07-.07Z"/><path class="cls-53" d="M853.09,62.74,852,62.56l1.72-.77.07.07c0,.26,0,.51,0,.77A1.36,1.36,0,0,1,853.09,62.74Z"/><path class="cls-53" d="M847.28,64.27l-1.72-.06,1.67-.8.07.07c0,.27,0,.53,0,.79Z"/><path class="cls-21" d="M534.34,148.34l1.64-.78a5.09,5.09,0,0,1,0,.78l-1.55.06Z"/><path class="cls-21" d="M769.66,383.67l-1.73-.06,1.7-.79,0,.05C769.67,383.14,769.66,383.4,769.66,383.67Z"/><path class="cls-21" d="M534.38,149.19l-1.76-.11,1.72-.74.06.06a7.12,7.12,0,0,0,0,.8Z"/><path class="cls-41" d="M988.8,185.58l0-1.6c.25,0,.5,0,.76,0Z"/><path class="cls-60" d="M740.51,701.39l-1.61,0,1.66-.76A6,6,0,0,1,740.51,701.39Z"/><path class="cls-30" d="M774.54,541.39c.36-.77,1-.84,1.76-.77Z"/><path class="cls-20" d="M738.94,551.06a1.52,1.52,0,0,1,1.75-.72Z"/><path class="cls-20" d="M737.32,551.82l1.63-.77Z"/><path class="cls-20" d="M722,555.88l1.66-.75Z"/><path class="cls-66" d="M709,559.13a1.52,1.52,0,0,1,1.73-.71Z"/><path class="cls-19" d="M700.87,560.66l1.71.12-1.61.81-.11-.11v-.81Z"/><path class="cls-19" d="M694.42,562.3l1.74.15-1.68.74-.1-.09a3.55,3.55,0,0,0,0-.8Z"/><path class="cls-20" d="M971.1,190.56l-1.72.66v-.76l1.51-.21Z"/><path class="cls-21" d="M767.24,383.67v.79a1.44,1.44,0,0,1-.68.08l-1.11-.17Z"/><path class="cls-60" d="M742.92,700.57H741.3l1.69-.71A4.27,4.27,0,0,1,742.92,700.57Z"/><path class="cls-17" d="M969.38,190.46v.76q-.35,0-.69.06l-.91,0-.09-.12Z"/><path class="cls-44" d="M811.67,233.23l1.73.1-1.64.81-.07-.08c0-.28,0-.56,0-.83Z"/><path class="cls-69" d="M901.5,348.13l-1.76-.13,1.69-.75.08.08a4.29,4.29,0,0,0,0,.8Z"/><path class="cls-70" d="M519.8,925.39l1.65-.77c0,.26,0,.52,0,.78H519.8Z"/><path class="cls-65" d="M873.91,355.31h-1.64l1.7-.75A4.74,4.74,0,0,1,873.91,355.31Z"/><path class="cls-61" d="M835.2,226.84l1.7,0-1.74.73A6.28,6.28,0,0,1,835.2,226.84Z"/><path class="cls-51" d="M896.61,658.58c0,.26,0,.52,0,.77H894.9Z"/><path class="cls-51" d="M899,658.53l-1.71,0,1.76-.71C899,658,899,658.29,899,658.53Z"/><path class="cls-70" d="M517.38,926.2l1.66-.74Z"/><path class="cls-51" d="M903.08,657v.85a1.06,1.06,0,0,1-.61.06l-1.19-.21Z"/><path class="cls-61" d="M856.15,221.11l1.74.08-1.68.79-.06-.06c0-.28,0-.55,0-.82Z"/><path class="cls-51" d="M905.53,657l-1.78-.09,1.71-.78.07.07c0,.27,0,.54,0,.81Z"/><path class="cls-20" d="M973.42,190.41v-.79a1.88,1.88,0,0,1,.66-.09l1.07.13Z"/><path class="cls-69" d="M911.93,344.81h-1.67l1.71-.71A5.79,5.79,0,0,1,911.93,344.81Z"/><path class="cls-48" d="M911.16,654.54l-1.69.76Z"/><path class="cls-68" d="M920.1,653l-1.74-.12,1.64-.8.09.1V653Z"/><path class="cls-33" d="M856.13,360.17l-1.67,0,1.73-.7Q856.18,359.81,856.13,360.17Z"/><path class="cls-71" d="M939.51,337.63l-1.73-.1,1.65-.8.05.06c0,.28,0,.56,0,.84Z"/><path class="cls-65" d="M871.55,355.41a5.81,5.81,0,0,1,0,.72l-1.68,0Z"/><path class="cls-69" d="M918.39,343.18h-1.67l1.72-.78A6.49,6.49,0,0,1,918.39,343.18Z"/><path class="cls-5" d="M536,148.33a4.91,4.91,0,0,0,0-.77h.81c0,.27,0,.55,0,.83h0Z"/><path class="cls-52" d="M946,494.5l-.81.81-.08-.06v-.8h.81Z"/><path class="cls-19" d="M694.48,563.19l-.82.8-.08-.1.8-.79Z"/><path class="cls-52" d="M945.82,493.53l.89.08-.7.89-.08-.06c0-.29,0-.58,0-.87Z"/><path class="cls-20" d="M694.5,265.65l-.83.78-.06,0,.8-.82Z"/><path class="cls-69" d="M909.55,344.86c0,.26,0,.51,0,.76l-.93-.05Z"/><path class="cls-71" d="M946,336.74c0-.25,0-.51,0-.77l.76.81C946.45,336.78,946.2,336.76,946,336.74Z"/><path class="cls-51" d="M913.58,654.54c0-.27,0-.54,0-.81h.81v.81a1.62,1.62,0,0,1-.72.13Z"/><path class="cls-32" d="M731.66,255.89l.91-.7Z"/><path class="cls-20" d="M967.78,191.24l.91,0-.93.71C967.76,191.74,967.77,191.49,967.78,191.24Z"/><path class="cls-70" d="M514.09,925.48a4.62,4.62,0,0,1,.06.74l-.73-.87A5.28,5.28,0,0,1,514.09,925.48Z"/><path class="cls-69" d="M916,343.26a6.23,6.23,0,0,1,0,.74l-1-.06Z"/><path class="cls-1" d="M46.79,805.76l9.27,2.49c1,.28,2.07.59,3.11.87,7,1.85,14,3.68,21,5.57,2.32.63,4.6,1.39,6.94,2,8.69,2.26,17.31,4.82,26,7.19,4.13,1.12,8.4,1.83,12.45,3.19s8,2.14,12,3.35c4.49,1.36,9,2.5,13.57,3.72,5.69,1.54,11.38,3.05,17.06,4.59,4.14,1.12,8.27,2.28,12.41,3.38,3.36.89,6.75,1.67,10.1,2.58,3.63,1,7.22,2.07,10.84,3,6.34,1.7,12.69,3.31,19,5,3.75,1,7.45,2.22,11.18,3.3,2.45.71,4.9,1.38,7.37,2,3.76.95,7.57,1.77,11.32,2.78s7.44,2.24,11.19,3.29,7.51,2,11.28,2.93a10.36,10.36,0,0,1,4.41,1.73l-3.2,0h0l-1.66-.73c-5-1.14-9.89-2.41-14.77-3.92-3.58-1.11-7.3-1.78-10.93-2.75s-7.23-2.08-10.84-3.13a5.71,5.71,0,0,0-1.13-.41c-3.68-.2-7-2-10.53-2.67s-7-1.91-10.48-2.85c-3.76-1-7.53-2-11.29-3-3.25-.86-6.52-1.63-9.72-2.64-4-1.26-8-2.21-12-3.28-3.77-1-7.48-2.19-11.27-3.08-4.05-1-8-2.42-12.05-3.21-2.61-.5-5.14-1.5-7.76-2.12-3.65-.87-7.21-2.12-10.84-3.1s-7.55-1.84-11.32-2.8c-2.08-.53-4.13-1.17-6.19-1.76-3.74-1.07-7.47-2.17-11.22-3.22-3.49-1-7-1.91-10.49-2.85l-11.67-3.09c-3.63-1-7.25-1.93-10.88-2.88-.78-.21-1.57-.38-2.35-.58-4.54-1.21-9.09-2.37-13.61-3.64-3.75-1.05-7.45-2.25-11.19-3.33-2.58-.75-5.18-1.4-7.77-2.11a7.65,7.65,0,0,1-1.08-.52l.33-.38,3.06.19h0C45,805.83,45.89,805.74,46.79,805.76Z"/><path class="cls-29" d="M274,868.76l3.2,0,1.64.79C277.21,869.68,275.45,870.24,274,868.76Z"/><path class="cls-29" d="M272.37,868l1.66.73A1.48,1.48,0,0,1,272.37,868Z"/><path class="cls-72" d="M804.43,847.74l-1.46.13a1.57,1.57,0,0,0-1.77.75h0c-.9,0-1.86-.15-2.45.8-9.1,2.62-18.24,5-27.43,7.3l-2.65-.11a29.14,29.14,0,0,1,3.61-1.53c3.85-1.07,7.74-2,11.59-3.05,5.78-1.59,11.54-3.28,17.33-4.86a18.43,18.43,0,0,1,3.18-.31Z"/><path class="cls-73" d="M603.88,902c-.26,0-.51,0-.77,0a7,7,0,0,0-4.87,1.59h0c-3.5-.26-6.57,1.2-9.71,2.41v0l-1.61.08-.81-.07v-.78c2.7-.78,5.39-1.68,8.13-2.32,4.17-1,8.29-2.11,12.38-3.36,1-.31,2.08-.54,3.11-.81,3.64-.93,7.36-1.62,10.88-2.89a29.83,29.83,0,0,1,7.82-1.52c.07.13.16.26.24.38l-.62.72c-1.57.26-3.16.44-4.7.78-4.42,1-8.64,2.72-13.11,3.56A46.9,46.9,0,0,0,603.88,902Z"/><path class="cls-36" d="M938,811.51a24.74,24.74,0,0,1-7.17,2.35,11.45,11.45,0,0,0-2.3.6c-3.64,1.26-7.39,2.22-11.09,3.15-4.11,1-8.2,2.13-12.29,3.24a18.4,18.4,0,0,1-2,.33l-1.87-.13a35.38,35.38,0,0,1,3.71-1.48c6.08-1.69,12.17-3.3,18.25-4.94a2.72,2.72,0,0,0,2.46-.75c.78-.16,1.56-.28,2.32-.46l8.81-2.09Z"/><path class="cls-74" d="M675.06,883.35a4.73,4.73,0,0,1-.75,0l-2.43,0-.14-.18c4.07-2.08,8.65-2.49,12.94-3.89,3.91-1.27,7.92-2.25,11.91-3.27,1.66-.43,3.37-.63,5.06-.94l.16.2a4.29,4.29,0,0,0-.08.71,4.76,4.76,0,0,0-1.58.2c-3.71,1.92-8.11,1.58-11.78,3.61-4.28.28-8.13,2.44-12.4,2.75Z"/><path class="cls-75" d="M768.68,856.6l2.66.11c-.1.09-.18.24-.29.27l-11.13,3c-2.56.69-5.1,1.44-7.66,2.12a16.27,16.27,0,0,1-2,.28l-1.71-.05,1.66-.78,1.66-.78c4-1.14,8.08-2.33,12.14-3.39C765.54,857,767.13,856.85,768.68,856.6Z"/><path class="cls-76" d="M603.88,902a46.9,46.9,0,0,1,6.37-2.17c4.47-.84,8.69-2.57,13.11-3.56,1.54-.34,3.13-.52,4.7-.78l1.75.07c-.09.1-.18.25-.29.27a68.69,68.69,0,0,0-8,2.13c-1.51.48-3.14.61-4.6,1.21-3,1.22-6.21,1.26-9.14,2.65C606.73,902.29,605.21,901.91,603.88,902Z"/><path class="cls-77" d="M726.9,868.87a6.49,6.49,0,0,1-1.37.73c-2.31.56-4.58,1.35-6.86,1.9-2.93.71-5.81,1.66-8.78,2.21l-3.22,0-.11-.15,7.31-2.36c3.2.06,6-1.26,8.89-2.44h2.43Z"/><path class="cls-77" d="M901.33,821.05l1.87.13c-2.37.77-4.72,1.59-7.1,2.31-2,.6-4.08,1.12-6.15,1.6-1.53.36-3.11.58-4.66.87,0-.24,0-.48,0-.72l4.14-1.64c2.7-.57,5.43-.88,8-2A15.26,15.26,0,0,1,901.33,821.05Z"/><path class="cls-25" d="M804.43,847.74l0-.89,6.51-2.24,4.25-.8,4.65-.82c0,.25,0,.5,0,.75-1,.26-2.06.49-3.07.79A100.45,100.45,0,0,1,804.43,847.74Z"/><path class="cls-78" d="M839.29,838.17a26.15,26.15,0,0,1-3.17,1.5c-1.75.57-3.57,1-5.36,1.41-2.56.65-5.13,1.28-7.69,1.91l-.08-.09v-.84a2.31,2.31,0,0,1,.66-.44c4.63-1.19,9.28-2.37,13.92-3.54Z"/><path class="cls-17" d="M982.16,799.15l1.06.19c-2.75,1-5.34,2.45-8.38,2.45a4,4,0,0,0-1.9.61,10.39,10.39,0,0,1-5.07,1.06l-.21-.29c4.37-2,9.13-2.66,13.71-3.95A4.15,4.15,0,0,1,982.16,799.15Z"/><path class="cls-66" d="M938,811.51l-1.14-.18q7.1-2,14.2-4a6.78,6.78,0,0,1,1.2-.12l.27.36c-2.45,1-4.77,2.42-7.58,2.34a3.88,3.88,0,0,0-1.89.59A9.88,9.88,0,0,1,938,811.51Z"/><path class="cls-79" d="M876.39,828.39c-1.62.52-3.24,1.07-4.88,1.57a32.16,32.16,0,0,0-3.39,1,7.94,7.94,0,0,1-3.86.67l0-.71,12.11-3.3C876.39,827.86,876.39,828.12,876.39,828.39Z"/><path class="cls-80" d="M726.9,868.87l-1.71-.06a16.91,16.91,0,0,1,2.44-1.15c2.52-.73,5.06-1.37,7.6-2a12.91,12.91,0,0,1,2-.21l.28.3a24.7,24.7,0,0,1-7.52,2.32A19.58,19.58,0,0,0,726.9,868.87Z"/><path class="cls-66" d="M963.72,805c-3.73.85-7.3,2.36-11.17,2.59l-.27-.36,1.72-.7,9.72-2.35Z"/><path class="cls-66" d="M549.86,916.68a5.48,5.48,0,0,1-1.34.83c-3.33.83-6.67,1.6-10,2.38l-.2-.28c3.54-1.88,7.51-2.28,11.32-3.24Z"/><path class="cls-78" d="M584.52,907.64a3.38,3.38,0,0,1-.95.64c-1.75.46-3.51.9-5.28,1.26-1.39.28-2.81.42-4.22.63l-.2-.29c3-.77,5.73-2.3,8.9-2.32Z"/><path class="cls-81" d="M857.12,833.4c-3,.85-5.78,2.26-8.94,2.36l-1-.2c3.16-1.08,6.26-2.4,9.68-2.51Z"/><path class="cls-79" d="M588.53,906c3.14-1.21,6.21-2.67,9.71-2.41C595.12,904.87,592,906.31,588.53,906Z"/><path class="cls-66" d="M558.74,914.24c-2.64,2-5.8,2.06-8.88,2.44l-.23-.31a42.71,42.71,0,0,1,8.89-2.43Z"/><path class="cls-74" d="M666.16,885.79l-2.31.1-1.66,0-.14-.17c3.2-1,6.24-2.51,9.69-2.44l.14.18a5.67,5.67,0,0,0-.06.71l-2.3.11-.93.71a6.32,6.32,0,0,1-.75.06Z"/><path class="cls-78" d="M574.07,910.17a17.78,17.78,0,0,1-8.17,2.31c0-.23,0-.46,0-.69,1.39-.36,2.77-.73,4.17-1.06s2.53-.57,3.79-.85Z"/><path class="cls-66" d="M565.91,911.79c0,.23,0,.46,0,.69a12.43,12.43,0,0,1-7.16,1.76l-.22-.3Z"/><path class="cls-80" d="M748.56,862.31l1.72.05c-2.11,1.71-4.69,1.56-7.18,1.77l-.23-.33c.58-.21,1.17-.4,1.73-.65s1.08-.53,1.61-.8h0Z"/><path class="cls-81" d="M864.29,830.91l0,.7c-2.43.39-4.6,1.86-7.14,1.79l-.25-.34,5-2.26h0Z"/><path class="cls-74" d="M638.67,893.06c-.24,0-.48.05-.73.06h-1.63l-.16-.2c1.63-1.46,3.65-1.56,5.68-1.59l.14.18a5.35,5.35,0,0,0-.07.7l-2.29.12Z"/><path class="cls-74" d="M662.12,886.58l-.75.06-1.67.79h0l-3.17.07-.11-.13a10.67,10.67,0,0,1,5.62-1.67l.13.17A4.37,4.37,0,0,0,662.12,886.58Z"/><path class="cls-80" d="M743.1,864.13c-1.61,1.47-3.62,1.53-5.63,1.62l-.27-.3a1.58,1.58,0,0,0,.12-.68v0c2,.43,3.67-.86,5.56-1Z"/><path class="cls-74" d="M651.61,889.81l-2.33.1-1.9-.18,5.77-1.63.14.19a4.77,4.77,0,0,0,0,.76h0Z"/><path class="cls-74" d="M706.59,874.47a5.81,5.81,0,0,0-.72,0l-.89.74-.77,0-2.4,0-.15-.19a9.94,9.94,0,0,1,4.9-1.55l.11.15A4.17,4.17,0,0,0,706.59,874.47Z"/><path class="cls-79" d="M598.24,903.58a7,7,0,0,1,4.87-1.59A5.4,5.4,0,0,1,598.24,903.58Z"/><path class="cls-74" d="M645.14,891.45a4.71,4.71,0,0,0-.75,0l-2.42,0-.14-.18a10.23,10.23,0,0,1,4.92-1.53l0,.85h0Z"/><path class="cls-17" d="M963.72,805v-.82a7.34,7.34,0,0,1,3.94-1l.21.29Z"/><path class="cls-74" d="M629.81,895.51l-1.75-.07.62-.72,0,0,3.41-1,.14.17a4.39,4.39,0,0,0-.07.72c-.24,0-.48.05-.73.06l-.88.73A6.81,6.81,0,0,1,629.81,895.51Z"/><path class="cls-78" d="M844.11,837.35c-1.21,1.13-2.71.62-4.11.73,0-.26,0-.51,0-.77a2,2,0,0,1,.73-.08H844Z"/><path class="cls-66" d="M538.51,919.89l-2.5.71-1.65,0c1.1-1.22,2.62-.69,3.95-.95Z"/><path class="cls-74" d="M636.24,893.88l-2.31.09-1.66,0-.13-.17c1.2-.92,2.65-.67,4-.85l.16.2Q636.26,893.51,636.24,893.88Z"/><path class="cls-74" d="M656.46,888.2l-1.54.07-1.63,0-.14-.18c.94-.9,2.13-.74,3.28-.75l.11.13A3.36,3.36,0,0,0,656.46,888.2Z"/><path class="cls-78" d="M819.79,843.74c0-.25,0-.5,0-.75a1.6,1.6,0,0,1,.72-.1H823l.08.09C822.16,844.05,820.93,843.71,819.79,843.74Z"/><path class="cls-38" d="M706.59,874.47a4.17,4.17,0,0,1,.08-.71l3.22,0C709,874.76,707.73,874.38,706.59,874.47Z"/><path class="cls-79" d="M880.43,827.56l-2.28.11-1.06-.15c1-.87,2.19-.7,3.35-.76C880.44,827,880.44,827.29,880.43,827.56Z"/><path class="cls-76" d="M656.46,888.2a3.36,3.36,0,0,1,.08-.71l3.17-.07C658.83,888.55,657.59,888.13,656.46,888.2Z"/><path class="cls-66" d="M531.93,922.16l-2.36.12-1-.18c1-.91,2.17-.7,3.32-.73C531.94,921.64,531.94,921.9,531.93,922.16Z"/><path class="cls-78" d="M846.52,836.51c-.61.85-1.53.78-2.41.84l-.1-.11a6.3,6.3,0,0,0,0-.75h0l2.33-.1Z"/><path class="cls-25" d="M798.77,849.41c.59-.95,1.55-.79,2.45-.8C800.6,849.5,799.67,849.42,798.77,849.41Z"/><path class="cls-38" d="M701.81,875.35l2.4,0c-.63.88-1.57.78-2.48.75A4.29,4.29,0,0,1,701.81,875.35Z"/><path class="cls-76" d="M671.82,884.14a5.67,5.67,0,0,1,.06-.71l2.43,0C673.66,884.27,672.73,884.18,671.82,884.14Z"/><path class="cls-81" d="M840,837.31c0,.26,0,.51,0,.77l-.71.09-1.72-.09C838.19,837.19,839.1,837.25,840,837.31Z"/><path class="cls-76" d="M646.77,890.66l0-.85.31-.1.32,0,1.9.18A3,3,0,0,1,646.77,890.66Z"/><path class="cls-76" d="M642,891.52l2.42,0c-.65.86-1.58.77-2.49.73A5.35,5.35,0,0,1,642,891.52Z"/><path class="cls-79" d="M584.52,907.64l-1.75-.08,2.51-.77c0,.27,0,.54,0,.81A6.79,6.79,0,0,1,584.52,907.64Z"/><path class="cls-70" d="M531.93,922.16c0-.26,0-.52,0-.79h0l2.4,0,.06.07C533.77,922.3,532.83,922.18,531.93,922.16Z"/><path class="cls-79" d="M885.3,825.24c0,.24,0,.48,0,.72a6.12,6.12,0,0,0-.74,0l-1.71-.06A2.55,2.55,0,0,1,885.3,825.24Z"/><path class="cls-77" d="M880.43,827.56c0-.27,0-.53,0-.8l.32-.07h.33l1.74,0,0,0C882.26,827.68,881.33,827.57,880.43,827.56Z"/><path class="cls-70" d="M528.62,922.1l1,.18-1.67.71,0,0a6.28,6.28,0,0,0,0-.75A3.47,3.47,0,0,1,528.62,922.1Z"/><path class="cls-70" d="M527.89,923.79h-1.62l-.06-.87h0l1.63,0,0,0C527.9,923.26,527.89,923.53,527.89,923.79Z"/><path class="cls-25" d="M801.2,848.62a1.57,1.57,0,0,1,1.77-.75Z"/><path class="cls-77" d="M882.84,825.94l1.71.06-1.67.78,0,0a7.18,7.18,0,0,0,0-.8Z"/><path class="cls-77" d="M877.09,827.52l1.06.15-1.76.72c0-.27,0-.53,0-.79A1.79,1.79,0,0,1,877.09,827.52Z"/><path class="cls-76" d="M666.16,885.79l1.68-.77Z"/><path class="cls-76" d="M662.12,886.58a4.37,4.37,0,0,1,.06-.72l1.67,0Z"/><path class="cls-76" d="M659.7,887.43l1.67-.79Z"/><path class="cls-76" d="M653.29,888.29l1.63,0-1.68.78A4.77,4.77,0,0,1,653.29,888.29Z"/><path class="cls-76" d="M651.61,889.81l1.63-.77Z"/><path class="cls-76" d="M645.14,891.45l1.63-.79Z"/><path class="cls-78" d="M847.19,835.56l1,.2-1.66.75-.12-.12a3.64,3.64,0,0,0,.07-.74A5.9,5.9,0,0,1,847.19,835.56Z"/><path class="cls-76" d="M636.24,893.88q0-.37.06-.75h1.64Z"/><path class="cls-76" d="M632.27,894l1.66,0-1.73.7A4.39,4.39,0,0,1,632.27,894Z"/><path class="cls-78" d="M586.93,906.09l1.61-.08-1.59.84-.05-.06C586.92,906.56,586.93,906.33,586.93,906.09Z"/><path class="cls-78" d="M585.3,907.6c0-.27,0-.54,0-.81h1.62l.05.06Z"/><path class="cls-70" d="M534.36,920.56l1.65,0-1.61.81-.06-.07c0-.26,0-.52,0-.79Z"/><path class="cls-38" d="M705,875.26l.89-.74Z"/><path class="cls-76" d="M668.59,885l.93-.71Z"/><path class="cls-76" d="M630.59,895.46l.88-.73Z"/><path class="cls-76" d="M638.67,893.06l.94-.72Z"/><path class="cls-76" d="M675.06,883.35l.91-.73Z"/><path class="cls-82" d="M44.37,804.93l-3.06-.19a1.37,1.37,0,0,1-.22-.58C42.23,804.21,43.49,803.76,44.37,804.93Z"/><path class="cls-83" d="M810.91,844.61l-6.51,2.24a18.43,18.43,0,0,0-3.18.31c-5.79,1.58-11.55,3.27-17.33,4.86-3.85,1.06-7.74,2-11.59,3.05a29.14,29.14,0,0,0-3.61,1.53c-1.56.25-3.15.36-4.66.76-4.06,1.06-8.1,2.25-12.14,3.39-2.09-.15-4.15-.22-5.68,1.59h0c-3.17,0-6.29.28-8.9,2.4v0a10.46,10.46,0,0,0-4.66.59c-1.48.51-3.07.69-4.57,1.14-1.87.55-3.92.71-5.33,2.31h0a12.52,12.52,0,0,0-6.2.87c-.86.33-1.77.54-2.65.8a6.47,6.47,0,0,0-3.91.66,8.12,8.12,0,0,1-1.86.77c-3.89,1-7.81,1.82-11.69,2.84-5,1.32-9.9,3.27-15.1,4-3.26,1.66-7,1.84-10.36,3.12-2.49.94-5.24,1.08-7.67,2.28-4.08,0-7.58,2.68-11.69,2.67-.62,0-1.24.49-1.86.73a6.37,6.37,0,0,1-1.9.64c-3.94.18-7.24,2.9-11.24,2.78a1,1,0,0,0-.38.15,14.48,14.48,0,0,1-4.59,1.35c-1.2.19-2.77.17-3.4,1.71l.18.22a29.42,29.42,0,0,0-7.82,1.51c-3.52,1.27-7.24,2-10.88,2.89-1,.27-2.08.5-3.11.81-4.09,1.25-8.21,2.4-12.38,3.36-2.74.64-5.43,1.54-8.13,2.31L573,908.86q-6.16,1.7-12.35,3.35c-3.1.85-6.19,1.74-9.3,2.53-3.75,1-7.6,1.6-11.26,2.79-4.46,1.44-9,2.53-13.52,3.74-1.3.35-2.63.55-3.52,1.7l-5.28,1.34c-1.12.29-2.25.55-3.38.83-.07-1.35-.21-2.69-.21-4q0-378.68,0-757.36c0-2.42.06-4.85.09-7.27a7.93,7.93,0,0,1,4-1.74,37.4,37.4,0,0,0,5.79-1.59,8,8,0,0,1,1.91-.6c3.42,0,6.47-1.61,9.69-2.42,5.17-1.3,10.29-2.87,15.48-4.13.78-.19,1.53-.48,2.3-.69q4.82-1.29,9.63-2.54a1.07,1.07,0,0,1,.4,0v0c0,2.29,0,4.58,0,6.87V801.34c0,1.49,0,3,.09,4.45a1.53,1.53,0,0,0,1.54,1.55,6.64,6.64,0,0,0,2.4-.1c2.69-.79,5.33-1.73,8-2.56,1.66-.51,3.36-.91,5-1.36l1.64-.79h0l1.7-.77,2.32-.12c2.16-.66,4.34-1.3,6.5-2a3.12,3.12,0,0,0,2.42-3.29c0-1.22,0-2.43,0-3.64V136.37a2.49,2.49,0,0,1,1.65-2.54,43.36,43.36,0,0,1,5-1.56c2.84-.66,5.54-1.89,8.47-2.2.11,0,.2-.17.3-.27,3.35-1.33,7.06-1.41,10.33-3a3.74,3.74,0,0,1,1.58-.21c2.49-.06,4.57-1.21,6.61-2.47h0a16.89,16.89,0,0,0,3.57-.21c3.73-1,7.42-2.09,11.13-3.13,1-.28,2.07-.47,3.11-.7,3-1.55,6.49-1.39,9.63-2.64a76.39,76.39,0,0,1,9.27-2.68c3.89-1,7.89-1.65,11.68-2.93,2.44-.82,5-1.05,7.35-1.91s5-1.15,7.31-2.14c2.53-1.1,5.2-1.22,7.76-2s5.07-1,7.35-2c2.47-1.14,5.24-1,7.61-2.24,3.35-1.29,7-1.41,10.31-3a7.81,7.81,0,0,1,2-.25,13.77,13.77,0,0,0,2.33-.49,133.94,133.94,0,0,1,13-3.62c3.74-.9,7.41-2.11,11.11-3.18l1.69-.71,2.34-.11c.91,0,1.85.16,2.44-.79h0l1.65-.77c.25,0,.51,0,.76-.06a9.94,9.94,0,0,0,2.39-.12c3.17-.95,6.17-2.48,9.56-2.61,2.06-1.43,4.61-1.16,6.86-2a55.94,55.94,0,0,1,6.9-1.93c2.3-.53,4.49-1.54,6.9-1.71.22,0,.42-.31.63-.48,5-1.41,10-2.89,15-4,1.32-.29,2.63-.52,3.48-1.73h0c1.47-.08,3.09.23,4.37-.3,3.49-1.45,7.24-1.88,10.78-3.12,2.36-.84,4.85-1.41,7.28-2.12,4-1.16,8-2,12-3.1,3.75-1,7.43-2.23,11.2-3.13,4.55-1.08,9-2.32,13.51-3.69,2.42-.74,5-.9,7.28-2.14a1.63,1.63,0,0,1,.8-.11,15.29,15.29,0,0,0,5.83-1.39c2.88-1.06,6-1.18,8.83-2.58a2.58,2.58,0,0,1,.8-.1A22,22,0,0,0,904,49.83a8.43,8.43,0,0,0,1.6-.13c3.59-1,7.17-2,10.75-3,1-.29,2-.65,3.07-.91,3.33-.87,6.68-1.65,10-2.59A24.85,24.85,0,0,0,933,41.63h0a15.87,15.87,0,0,0,3.17-.14c2.58-.58,5.13-1.3,7.68-2,3.94-1.13,7.86-2.32,11.79-3.49a25.28,25.28,0,0,0,3.92-.68c3.44-1.14,7.11-1.46,10.4-3.09a7,7,0,0,1,2-.26,7,7,0,0,0,2-.33c3.56-1.64,7.56-1.8,11.14-3.37,1.31-.57,2,.05,2.12,1.47,0,.67,0,1.34,0,2v149c0,3.39,0,3.39-3.33,4.79-2.84.67-5.68,1.3-8.51,2-2.45.64-4.85,1.45-7.31,2.07s-5,2-7.72,1.88c-3.25,1.66-6.91,2-10.34,3.09s-6.91,2-10.38,2.94c-2.3.63-4.63,1.18-6.92,1.83-1.79.5-3.56,1.09-5.33,1.64-4,.93-8.09,1.8-12.1,2.81-5,1.27-9.92,3.2-15.1,4a4.68,4.68,0,0,0-1.1.5c-1.44.28-2.9.49-4.32.87-1.93.51-4,.87-5.55,2.24l-2.26.11a5.49,5.49,0,0,0-.81,0l-1.67.75a6.34,6.34,0,0,0-.75.07l-.91.71c-2.9.07-5.73.37-8,2.48h0c-1.47.09-3.1-.21-4.38.32-3.51,1.44-7.27,1.85-10.81,3.16-2.74,1-5.7,1.44-8.55,2.2-1.8.47-3.58,1.08-5.37,1.62-1.7.33-3.58.3-5.08,1.05-3.18,1.58-6.8,1.33-10,2.85-1.63.79-3.76.51-5.45,1.24-3.47,1.49-7.26,1.78-10.77,3.16-2.09.83-4.47.77-6.51,1.93a5.72,5.72,0,0,1-2,.26,9.11,9.11,0,0,0-2,.33,102.78,102.78,0,0,1-14.27,4c-.24,0-.42.32-.63.49l-.74.07-1.63.78h0a2.87,2.87,0,0,0-2.5.72l-1.54.09c-.9,0-1.84-.13-2.43.8h0l-1.67.75c-1.17.2-2.37.29-3.51.59-4.21,1.15-8.4,2.36-12.59,3.54a33.94,33.94,0,0,0-3.52.55c-1.8.48-3.54,1.17-5.34,1.66-3.2.87-6.43,1.61-9.63,2.47-6.29,1.69-12.56,3.44-18.84,5.14-1,.28-2.08.45-3.12.66l-1.64.79c-.26,0-.52,0-.77.06l-1.67.72-2.38.08-1.65.75c-.26,0-.51,0-.77.06l-.87.73-1.54.09a7.53,7.53,0,0,0-3.93.67,9.37,9.37,0,0,1-3.76,1.36c-3.19,0-5.87,1.81-9,2.1a3.09,3.09,0,0,0-2.75,3c-.11,1.34-.06,2.69-.07,4q0,63,0,126.1c0,2-.26,4-.44,6a2.61,2.61,0,0,0,2.34,3.15,5.5,5.5,0,0,0,5.41-1.8h0a14.86,14.86,0,0,0,6.33-.77c2.65-.91,5.45-1.39,8.06-2.38s5.88-.67,8.43-2.35c4,.05,7.22-3,11.25-2.67,2.75-1.52,5.9-1.63,8.85-2.44,1.28-.36,2.48-1.26,3.76-1.34,3.52-.24,6.64-1.94,10.05-2.52a12.76,12.76,0,0,0,3.21-1.54,14.24,14.24,0,0,0,4.71-.82,26.39,26.39,0,0,1,4.57-1.44c3.08-.8,6.26-1.31,9.25-2.35,5.92-2.07,12-3.31,18.06-5,6.39-1.81,12.77-3.76,19.31-5.06a14.84,14.84,0,0,0,2.24-.84l1-.66,2.29-.13c.91,0,1.84.12,2.49-.75a4.74,4.74,0,0,0,.75-.06l.91-.73a4.23,4.23,0,0,0,.71,0,12.68,12.68,0,0,0,2.4-.17c3.48-.93,7-1.84,10.4-2.94s7.08-1.48,10.37-3.08a6.68,6.68,0,0,1,2-.27,6.94,6.94,0,0,0,2-.33c3.55-1.64,7.47-2,11.13-3.32a95.77,95.77,0,0,1,10.82-2.76c1.32-.31,2.63-.53,3.48-1.74l14.58-4c1.47-.08,3.1.21,4.38-.32,3.5-1.46,7.29-1.79,10.8-3.17,2.09-.82,4.49-.75,6.53-1.93.42-.25,1-.13,1.58-.23a12.92,12.92,0,0,0,3.51-.78c3.27-1.69,7.14-1.29,10.34-3.11a93.28,93.28,0,0,0,14.31-3.94,1.23,1.23,0,0,1,1.77,1c.08,1.07.08,2.15.08,3.22V488.38c0,.94,0,1.88,0,2.82a2.29,2.29,0,0,1-1.81,2.37,82.68,82.68,0,0,0-10.78,3.17,6.41,6.41,0,0,1-1.6.13,5.09,5.09,0,0,0-1.57.31c-3.43,1.63-7.24,1.93-10.79,3.18-2.24.79-4.66,1.15-6.9,2.06-4.28-.17-7.81,2.9-12.08,2.78-3.41,1.67-7.25,1.86-10.77,3.23-2.1.82-4.5.75-6.52,1.95a2.43,2.43,0,0,1-1.18.19c-2.66,0-4.89,1.18-7.09,2.46-4.32,1.22-8.65,2.45-13,3.66-.76.21-1.56.29-2.34.43a8.61,8.61,0,0,0-4.71.65,21.83,21.83,0,0,1-3.44,1c-3.61,1-7.24,1.89-10.8,3a15.48,15.48,0,0,1-4.25,1,8.68,8.68,0,0,0-2.31.57c-1.79.54-3.55,1.19-5.37,1.63a119.29,119.29,0,0,0-12.31,3.4,6.33,6.33,0,0,0-1.31.84c-4.1,1.19-8.18,2.41-12.28,3.57-2.57.73-5.16,1.37-7.74,2-6.45,1.67-12.92,3.29-19.36,5a16,16,0,0,0-2.84,1.41,19.81,19.81,0,0,0-3.19.3c-3.25.82-6.46,1.77-9.69,2.66-4.12,1.14-8.25,2.26-12.37,3.43-4.75,1.34-9.49,2.72-14.24,4.09a9.38,9.38,0,0,0-2,.15c-6.05,1.69-12.09,3.44-18.14,5.13-2.7.75-5.43,1.42-8.14,2.12a24.19,24.19,0,0,0-4.77.47,33.12,33.12,0,0,1-4.62,1.29c-2.23.3-3.27,1.55-3.5,3.79-.12,1.2-.06,2.42-.06,3.63V687.46c0,7.81.09,15.62,0,23.43-.07,4.29,1.26,4.56,4.84,4.26a10.09,10.09,0,0,0,2.3-.68c.77-.26,1.5-.62,2.27-.83,4.65-1.24,9.32-2.45,14-3.67,3.11-.81,6.17-2,9.27-2.59,3.43-.66,6.68-1.84,10.07-2.6,5.09-1.14,10.1-2.67,15.13-4.08,1.67-.46,3.28-1.33,5-1.54,3.75-.45,7.21-1.95,10.87-2.71a17.94,17.94,0,0,0,3.31-1.4,9.77,9.77,0,0,0,5.06-1,4.93,4.93,0,0,1,1.88-.63c4-.33,7.56-2.74,11.68-2.72.49,0,1-.44,1.48-.59,1-.31,2-.55,3.06-.83,2-.56,4.25-.67,5.8-2.4h0a27.6,27.6,0,0,0,4.75-.43c3.72-1,7.37-2.27,11.08-3.32,2.56-.73,5.17-1.25,7.75-1.91q2.52-.63,5-1.38A11.62,11.62,0,0,1,828,679c3.89-.28,7.41-2.08,11.23-2.65l1.63-.78h0a12.38,12.38,0,0,0,1.61-.06c3.83-.59,7.33-2.54,11.25-2.8.13,0,.24-.12.37-.16,1.27-.4,2.53-.88,3.83-1.17,3.38-.78,6.61-2,10.05-2.68,5.1-1,9.92-3.17,15.13-3.87a7.45,7.45,0,0,0,1.11-.46c1.15-.34,2.3-.66,3.46-1a15.59,15.59,0,0,0,3.47-1c3.11-1.74,6.88-1.19,10-3,4.09-.05,7.59-2.68,11.7-2.66.62,0,1.23-.52,1.86-.74s1.53-.48,2.3-.7c1.79-.52,3.59-1,5.39-1.55a11.69,11.69,0,0,1,2.27-.77c3.78-.27,7.21-1.93,10.87-2.67a16.9,16.9,0,0,0,3.29-1.41c1.06-.08,2.27.17,3.14-.27,3-1.53,6.42-1.51,9.48-2.81a31.48,31.48,0,0,1,4.6-1.1,7.73,7.73,0,0,0,1.38-.69,8.59,8.59,0,0,1,1.91-.55c4.29-.25,8-2.76,12.38-2.87a1.57,1.57,0,0,0,.75-.23c1.64-1,3.53-1.09,5.33-1.54,1.62-.42,3.46-.61,4.6-2.16,2.19-.65,4.37-1.31,6.56-2a7.64,7.64,0,0,1,1.57-.3,1.31,1.31,0,0,1,1.47,1.08A13.86,13.86,0,0,1,992,638V787.86c0,1.75.05,3.5,0,5.25-.08,2.1-.72,2.83-2.76,3.4l-7,1.91c-1.45.1-3-.12-4.32.39-2,.8-4.09,1.09-6.11,1.7-5.58,1.7-11.18,3.3-16.87,4.54a3.48,3.48,0,0,0-1,.64c-2.74.59-5.58.71-8.15,2a8.59,8.59,0,0,1-2.35.45,22.85,22.85,0,0,0-2.36.44c-2.19.62-4.35,1.33-6.54,1.95-3,.84-5.92,1.63-8.88,2.44l-1.69.79a3.51,3.51,0,0,0-.72.07,9.84,9.84,0,0,0-2,.22c-4,1.38-8.33,1.81-12.26,3.54-4.18.16-7.82,2.66-12,2.77a2.59,2.59,0,0,0-1.14.33c-2,1.11-4.31,1.36-6.48,2a10.75,10.75,0,0,0-1.76.81c-3.07.8-6.13,1.65-9.22,2.4a33.33,33.33,0,0,0-7.23,2.13,4.15,4.15,0,0,1-1.55.3c-2.83.13-5.3,1.37-7.82,2.47h0a16,16,0,0,0-2.78.24c-4.78,1.23-9.54,2.54-14.31,3.79a5.22,5.22,0,0,0-3.13,1.63,6.28,6.28,0,0,1-.75,0,9.93,9.93,0,0,0-5.13.71,9.1,9.1,0,0,1-2.7.8c-3.93.24-7.26,2.84-11.25,2.81-.37,0-.73.34-1.11.46-1,.31-2,.62-3.08.85C815.25,842.65,812.9,843.14,810.91,844.61Z"/><path class="cls-84" d="M954,805.69a3.48,3.48,0,0,1,1-.64c5.69-1.24,11.29-2.84,16.87-4.54,2-.61,4.11-.9,6.11-1.7,1.29-.51,2.87-.29,4.32-.39a1.52,1.52,0,0,1-.12.73,4.15,4.15,0,0,0-.79.07c-4.58,1.29-9.34,1.92-13.71,3.95a7.34,7.34,0,0,0-3.94,1L954,806.49C954,806.22,954,806,954,805.69Z"/><path class="cls-85" d="M982.32,636.74c-1.14,1.55-3,1.74-4.6,2.16-1.8.45-3.69.54-5.33,1.54a1.57,1.57,0,0,1-.75.23c-4.33.11-8.09,2.62-12.38,2.87a8.59,8.59,0,0,0-1.91.55l-1.08-.15a17.43,17.43,0,0,1,2.85-1.39c5.79-1.6,11.61-3.11,17.41-4.66a1.16,1.16,0,0,0,.34-.22Z"/><path class="cls-14" d="M55.84,493.56l-.87,0c0-1.48-.09-3-.09-4.43V343.82c0-1.61.06-3.22.09-4.84a8.78,8.78,0,0,1,.61,1.88c.1,1.07,0,2.15,0,3.23q0,72.53,0,145C55.63,490.61,55.77,492.09,55.84,493.56Z"/><path class="cls-82" d="M46.79,805.76c-.9,0-1.83.07-2.42-.83C45.27,804.94,46.22,804.8,46.79,805.76Z"/><path class="cls-86" d="M610.43,129.8c-.1.1-.19.26-.3.27-2.93.31-5.63,1.54-8.47,2.2a43.36,43.36,0,0,0-5,1.56,2.49,2.49,0,0,0-1.65,2.54V792.71c0,1.21,0,2.42,0,3.64a3.12,3.12,0,0,1-2.42,3.29c-2.16.71-4.34,1.35-6.5,2,0-.3,0-.6-.05-.9,1.58-1.46,3.73-1.43,5.61-2.07s2.36-1.1,2.49-3.15c.06-.94,0-1.88,0-2.82V141.48c0-2,0-4,0-6.07a2.88,2.88,0,0,1,2.29-3c3.84-.7,7.4-2.5,11.35-2.71Z"/><path class="cls-87" d="M610.43,129.8l-2.59-.08a41.47,41.47,0,0,1,4.09-1.57c3.62-1,7.28-1.79,10.9-2.75a23.18,23.18,0,0,0,2.92-1.23l3.2-.09c-2,1.26-4.12,2.41-6.61,2.47a3.74,3.74,0,0,0-1.58.21C617.49,128.39,613.78,128.47,610.43,129.8Z"/><path class="cls-8" d="M586.06,800.75c0,.3,0,.6.05.9l-2.32.12h-1.65l-.09-.09C583.21,800.61,584.69,800.94,586.06,800.75Z"/><path class="cls-8" d="M580.37,802.41l1.68-.73.09.09a5,5,0,0,0,0,.77h0l-1.59,0Z"/><path class="cls-8" d="M563.41,142.77a1.07,1.07,0,0,0-.4,0q-4.82,1.26-9.63,2.54c-.77.21-1.52.5-2.3.69-5.19,1.26-10.31,2.83-15.48,4.13-3.22.81-6.27,2.4-9.69,2.42a8,8,0,0,0-1.91.6,37.4,37.4,0,0,1-5.79,1.59,7.93,7.93,0,0,0-4,1.74c-.16-1.52.72-2.09,2-2.4q5.76-1.38,11.51-2.87a34.5,34.5,0,0,0,3.33-1.27c1.13,0,2.33.21,3.25-.75h0a2.68,2.68,0,0,0,2.43-.82h0l2.56-.75a1.53,1.53,0,0,0,.67-.06,10.14,10.14,0,0,0,2-.13c3.23-.91,6.43-1.92,9.65-2.84s6.46-1.81,9.71-2.66A1.51,1.51,0,0,1,563.41,142.77Z"/><path class="cls-86" d="M580.5,802.56l1.59,0-1.64.79C580.46,803.06,580.47,802.81,580.5,802.56Z"/><path class="cls-88" d="M874,513c2.2-1.28,4.43-2.49,7.09-2.46a2.43,2.43,0,0,0,1.18-.19c2-1.2,4.42-1.13,6.52-1.95,3.52-1.37,7.36-1.56,10.77-3.23,4.27.12,7.8-2.95,12.08-2.78,2.24-.91,4.66-1.27,6.9-2.06,3.55-1.25,7.36-1.55,10.79-3.18a5.09,5.09,0,0,1,1.57-.31,6.41,6.41,0,0,0,1.6-.13,82.68,82.68,0,0,1,10.78-3.17,2.29,2.29,0,0,0,1.81-2.37c0-.94,0-1.88,0-2.82V342.09c0-1.07,0-2.15-.08-3.22a1.23,1.23,0,0,0-1.77-1,93.28,93.28,0,0,1-14.31,3.94c-3.2,1.82-7.07,1.42-10.34,3.11a12.92,12.92,0,0,1-3.51.78c-.53.1-1.16,0-1.58.23-2,1.18-4.44,1.11-6.53,1.93-3.51,1.38-7.3,1.71-10.8,3.17-1.28.53-2.91.24-4.38.32a43.23,43.23,0,0,1,7.92-2.46,10.34,10.34,0,0,0,1.81-.72h0a2.51,2.51,0,0,0,2.4-.84h0l2.58-.71a1.29,1.29,0,0,0,.64-.1,3,3,0,0,0,2.51-.7L912,345c1.37-.17,2.83.15,4-.83a2.8,2.8,0,0,0,2.4-.85,53.34,53.34,0,0,0,8.86-2.19c3.52-1.17,7.21-1.82,10.81-2.73a6.76,6.76,0,0,0,1.37-.74h0a2.7,2.7,0,0,0,2.43-.83v0l3.78.15c.07,1.21.18,2.42.18,3.62q0,74.46,0,148.91c0,1.34-.06,2.69-.09,4l.06,0-.75.87h0l-1.62.79a21.74,21.74,0,0,0-3.14.4c-3.72,1-7.41,2.08-11.12,3.11-.89.25-1.83.37-2.71.64-1.37.43-2.72.94-4.08,1.42-1.05.17-2.13.24-3.15.51-4.75,1.27-9.49,2.6-14.24,3.88-5.78,1.56-11.56,3.09-17.34,4.63-.9,0-1.82-.1-2.42.79h0l-1.77.7-1.46.16c-1.41.29-2.82.6-4.24.87S875.25,512.81,874,513Z"/><path class="cls-89" d="M983.85,185.46c3.31-1.4,3.33-1.4,3.33-4.79V31.72c0-.67,0-1.34,0-2-.09-1.42-.81-2-2.12-1.47-3.58,1.57-7.58,1.73-11.14,3.37a7,7,0,0,1-2,.33,7,7,0,0,0-2,.26c-3.29,1.63-7,1.95-10.4,3.09a25.28,25.28,0,0,1-3.92.68l0-.72,7.45-2.41a23.48,23.48,0,0,0,2.77-.44c5.81-1.62,11.6-3.3,17.41-4.92,1.83-.51,3.7-.95,5.39.44q0,78,0,155.93c-.78,1-1.51,2-3,1.81Z"/><path class="cls-87" d="M768.19,695.05a17.94,17.94,0,0,1-3.31,1.4c-3.66.76-7.12,2.26-10.87,2.71-1.69.21-3.3,1.08-5,1.54-5,1.41-10,2.94-15.13,4.08-3.39.76-6.64,1.94-10.07,2.6-3.1.6-6.16,1.78-9.27,2.59-4.66,1.22-9.33,2.43-14,3.67-.77.21-1.5.57-2.27.83a10.09,10.09,0,0,1-2.3.68c-3.58.3-4.91,0-4.84-4.26.12-7.81,0-15.62,0-23.43V568.32c0-1.21-.06-2.43.06-3.63.23-2.24,1.27-3.49,3.5-3.79a33.12,33.12,0,0,0,4.62-1.29,24.19,24.19,0,0,1,4.77-.47,2.15,2.15,0,0,1-.11.71,3.25,3.25,0,0,0-.69.08,2.65,2.65,0,0,0-2.49.73h0a2.77,2.77,0,0,0-2.44.83,2.13,2.13,0,0,0-.71.09c-1.15,0-2.36-.26-3.3.71h0a1.54,1.54,0,0,0-1.63,1.62h0a8.22,8.22,0,0,0-.66,1.83,31.61,31.61,0,0,0,0,3.23q0,70,0,140c0,1.55-.59,3.25.68,4.64a2.17,2.17,0,0,0,2.55.57c3.7-1.09,7.37-2.27,11.08-3.31s7.22-1.84,10.8-2.83c1.65-.46,3.25-1.13,4.86-1.7a24.15,24.15,0,0,0,3.53-.43c4.18-1.17,8.34-2.45,12.51-3.69l2.53-.64,2.41-.84c1.57-.27,3.17-.42,4.7-.82,6.17-1.63,12.32-3.34,18.47-5a3.55,3.55,0,0,1,.8,0Z"/><path class="cls-18" d="M692.78,563.92a1.54,1.54,0,0,1,1.63-1.62,3.55,3.55,0,0,1,0,.8l-.8.79-.4,0Z"/><path class="cls-27" d="M694.41,265.57l-.8.82a4.75,4.75,0,0,0-.69,1.39,31.6,31.6,0,0,0-.07,3.23V399.75c0,1.35.06,2.69.1,4l-.17.15c-1-1-.73-2.24-.73-3.41q0-65.52,0-131a16.44,16.44,0,0,1,.15-2.81,2.21,2.21,0,0,1,2.22-1.95Z"/><path class="cls-90" d="M753.48,90.94c-3.7,1.07-7.37,2.28-11.11,3.18a133.94,133.94,0,0,0-13,3.62,13.77,13.77,0,0,1-2.33.49,7.81,7.81,0,0,0-2,.25c-3.27,1.6-7,1.72-10.31,3l-2.55,0a16.68,16.68,0,0,1,2.52-1.14c3.86-1,7.75-2,11.61-3,1.94-.5,3.84-1.11,5.77-1.64,3.46-1,6.94-1.86,10.4-2.84a14.76,14.76,0,0,0,2.15-1L753.39,90l.17.2A3.36,3.36,0,0,0,753.48,90.94Z"/><path class="cls-87" d="M646.76,120c-1,.23-2.09.42-3.11.7-3.71,1-7.4,2.17-11.13,3.13a16.89,16.89,0,0,1-3.57.21,37.7,37.7,0,0,1,4.39-1.57c4.5-1,8.74-3,13.4-3.31C646.74,119.48,646.75,119.76,646.76,120Z"/><path class="cls-91" d="M814.14,529.23a6.33,6.33,0,0,1,1.31-.84,119.29,119.29,0,0,1,12.31-3.4c1.82-.44,3.58-1.09,5.37-1.63a8.68,8.68,0,0,1,2.31-.57,15.48,15.48,0,0,0,4.25-1c3.56-1.13,7.19-2,10.8-3a21.83,21.83,0,0,0,3.44-1,8.61,8.61,0,0,1,4.71-.65c-.58.29-1.15.59-1.74.87-1.06.49-2.14,1-3.22,1.45-1.31.25-2.64.42-3.93.75-4.55,1.16-9.09,2.31-13.61,3.57s-8.73,2.57-13.1,3.87a9.49,9.49,0,0,0-4.64.85A8.59,8.59,0,0,1,814.14,529.23Z"/><path class="cls-92" d="M839.2,676.36c-3.82.57-7.34,2.37-11.23,2.65a11.62,11.62,0,0,0-2.25.83q-2.47.75-5,1.38c-2.58.66-5.19,1.18-7.75,1.91-3.71,1-7.36,2.33-11.08,3.32a27.6,27.6,0,0,1-4.75.43c.58-.27,1.15-.55,1.74-.79,1.33-.54,2.66-1.06,4-1.59a25.59,25.59,0,0,0,3.16-.46c6.57-1.78,13.12-3.64,19.69-5.45q6.93-1.9,13.88-3.77a5.32,5.32,0,0,1,1.2,0c0,.27,0,.53,0,.8h0Z"/><path class="cls-92" d="M768.19,695.05l-1.15-.16,8.43-2.43c1.29-.38,2.57-.77,3.86-1.13q8.1-2.24,16.22-4.43a6.57,6.57,0,0,1,1.6,0c-1.55,1.73-3.76,1.84-5.8,2.4-1,.28-2.05.52-3.06.83-.51.15-1,.59-1.48.59-4.12,0-7.65,2.39-11.68,2.72a4.93,4.93,0,0,0-1.88.63A9.77,9.77,0,0,1,768.19,695.05Z"/><path class="cls-93" d="M694.41,264.73a2.21,2.21,0,0,0-2.22,1.95,16.44,16.44,0,0,0-.15,2.81q0,65.52,0,131c0,1.17-.32,2.45.73,3.41a2,2,0,0,0,2.39.64l3.31-.75a5.5,5.5,0,0,1-5.41,1.8,2.61,2.61,0,0,1-2.34-3.15c.18-2,.44-4,.44-6q0-63.06,0-126.1c0-1.35,0-2.7.07-4a3.09,3.09,0,0,1,2.75-3c3.09-.29,5.77-2.11,9-2.1a9.37,9.37,0,0,0,3.76-1.36,7.53,7.53,0,0,1,3.93-.67c0,.28,0,.56,0,.84a121.11,121.11,0,0,1-15.19,4.19A5.13,5.13,0,0,0,694.41,264.73Z"/><path class="cls-93" d="M758.41,387.82a12.76,12.76,0,0,1-3.21,1.54c-3.41.58-6.53,2.28-10.05,2.52-1.28.08-2.48,1-3.76,1.34-2.95.81-6.1.92-8.85,2.44-4-.3-7.28,2.72-11.25,2.67-2.55,1.68-5.68,1.3-8.43,2.35s-5.41,1.47-8.06,2.38a14.86,14.86,0,0,1-6.33.77c2-.69,4-1.49,6-2.05,3.76-1,7.57-1.87,11.34-2.85,2.34-.6,4.66-1.3,7-2l21.75-6.06a7.92,7.92,0,0,0,1.55-.1c3.78-1,7.54-2.1,11.31-3.16Z"/><path class="cls-94" d="M840.84,675.58c0-.27,0-.53,0-.8,3.48-.94,7-1.85,10.44-2.84a20.12,20.12,0,0,0,2.53-1.12,30.13,30.13,0,0,0,9.67-2.53,20.44,20.44,0,0,0,3.14-.42c4.09-1.16,8.15-2.42,12.22-3.64a11.47,11.47,0,0,0,2.36-.17c3.42-1,6.82-2,10.24-3,1.75-.52,3.51-1,5.27-1.52l2.4-.85c1.16-.08,2.38,0,3.38-.78a1.06,1.06,0,0,0,.61-.06,2.69,2.69,0,0,0,2.45-.84h0l2.57-.77c2,0,4-.14,5.59-1.55a1.62,1.62,0,0,0,.72-.13c1.14,0,2.33.11,3.31-.69.88-.06,1.8,0,2.39-.88h0l2.55-.76a1.23,1.23,0,0,0,.66-.06c1.43-.27,2.88-.48,4.3-.82,3.36-.81,6.72-1.69,10.08-2.54l1.07.17a16.9,16.9,0,0,1-3.29,1.41c-3.66.74-7.09,2.4-10.87,2.67a11.69,11.69,0,0,0-2.27.77c-1.8.53-3.6,1-5.39,1.55-.77.22-1.54.43-2.3.7s-1.24.74-1.86.74c-4.11,0-7.61,2.61-11.7,2.66-3.07,1.79-6.84,1.24-10,3a15.59,15.59,0,0,1-3.47,1c-1.16.31-2.31.63-3.46,1a7.45,7.45,0,0,1-1.11.46c-5.21.7-10,2.9-15.13,3.87-3.44.66-6.67,1.9-10.05,2.68-1.3.29-2.56.77-3.83,1.17-.13,0-.24.16-.37.16-3.92.26-7.42,2.21-11.25,2.8A12.38,12.38,0,0,1,840.84,675.58Z"/><path class="cls-85" d="M904,49.83a22,22,0,0,1-7.19,2.34,2.58,2.58,0,0,0-.8.1c-2.79,1.4-6,1.52-8.83,2.58a15.29,15.29,0,0,1-5.83,1.39,1.63,1.63,0,0,0-.8.11c-2.27,1.24-4.86,1.4-7.28,2.14-4.47,1.37-9,2.61-13.51,3.69-3.77.9-7.45,2.12-11.2,3.13-4,1.07-8,1.94-12,3.1-2.43.71-4.92,1.28-7.28,2.12-3.54,1.24-7.29,1.67-10.78,3.12-1.28.53-2.9.22-4.37.3a43.56,43.56,0,0,1,7.95-2.47,9,9,0,0,0,1.81-.72l21-5.72a2.48,2.48,0,0,0,2.42-.77h0l1.8-.72a1.12,1.12,0,0,0,.63-.06c1.18,0,2.4.13,3.38-.75a1.36,1.36,0,0,0,.66-.11l1.67-.73v0l3.32-.81a1.34,1.34,0,0,0,.66-.07c3.08-.73,6.18-1.38,9.23-2.22,4-1.08,7.86-2.32,11.79-3.5A18.77,18.77,0,0,0,882.8,55q7.38-1.89,14.73-3.87c1.81-.48,3.6-1,5.4-1.51Z"/><path class="cls-95" d="M795.6,79.68c-.21.17-.41.46-.63.48-2.41.17-4.6,1.18-6.9,1.71a55.94,55.94,0,0,0-6.9,1.93c-2.25.81-4.8.54-6.86,2-3.39.13-6.39,1.66-9.56,2.61a9.94,9.94,0,0,1-2.39.12c0-.26,0-.52,0-.78,3.22-.86,6.44-1.67,9.64-2.59a30.71,30.71,0,0,0,3.32-1.39,20.5,20.5,0,0,0,3.53-.37c3.69-1,7.32-2.22,11-3.24a29.55,29.55,0,0,1,3.9-.57Z"/><path class="cls-85" d="M795.6,79.68l-1.82-.12a19,19,0,0,1,2.54-1.12c5.39-1.52,10.79-3,16.19-4.45a7.09,7.09,0,0,1,1.6,0c-.85,1.21-2.16,1.44-3.48,1.73C805.56,76.79,800.59,78.27,795.6,79.68Z"/><path class="cls-96" d="M710.65,260c0-.28,0-.56,0-.84l1.54-.09.87-.73c.26,0,.51-.05.77-.06l1.65-.75,2.38-.08,1.67-.72c.25,0,.51-.05.77-.06l1.64-.79c1-.21,2.1-.38,3.12-.66,6.28-1.7,12.55-3.45,18.84-5.14,3.2-.86,6.43-1.6,9.63-2.47,1.8-.49,3.54-1.18,5.34-1.66a33.94,33.94,0,0,1,3.52-.55c0,.27,0,.53,0,.79-4.74,1.8-9.72,2.7-14.55,4.15-4.32,1.29-8.86,1.87-13,3.88a13.94,13.94,0,0,0-5,.89c-3.52,1.14-7.11,2.07-10.68,3.06-1.66.46-3.32.88-5,1.25C713,259.69,711.82,259.83,710.65,260Z"/><path class="cls-97" d="M762.39,246.21c0-.26,0-.52,0-.79,4.19-1.18,8.38-2.39,12.59-3.54,1.14-.3,2.34-.39,3.51-.59l1.59,0,.21.22-3.54,1.38c-3.36.86-6.71,1.75-10.08,2.56C765.27,245.77,763.82,246,762.39,246.21Z"/><path class="cls-87" d="M758.41,387.82l-1-.17c0-.23.11-.46.17-.68,3.16-.15,6-1.51,8.94-2.43a1.44,1.44,0,0,0,.68-.08,2.61,2.61,0,0,0,2.42-.79l1.84-.72a19.83,19.83,0,0,0,3.2-.31c3.51-.93,7-2,10.47-2.95s6.75-1.76,10.11-2.66q9.13-2.47,18.26-5c.23-.07.41-.33.62-.5l2.29-.15.15.18a5.81,5.81,0,0,0-.05.72,14.84,14.84,0,0,1-2.24.84c-6.54,1.3-12.92,3.25-19.31,5.06-6,1.7-12.14,2.94-18.06,5-3,1-6.17,1.55-9.25,2.35a26.39,26.39,0,0,0-4.57,1.44A14.24,14.24,0,0,1,758.41,387.82Z"/><path class="cls-40" d="M771.5,383l-1.84.72c0-.27,0-.53,0-.8Z"/><path class="cls-89" d="M877.19,355.32c-.85,1.21-2.16,1.43-3.48,1.74a95.77,95.77,0,0,0-10.82,2.76c-3.66,1.32-7.58,1.68-11.13,3.32a6.94,6.94,0,0,1-2,.33,6.68,6.68,0,0,0-2,.27c-3.29,1.6-6.93,2-10.37,3.08s-6.92,2-10.4,2.94a12.68,12.68,0,0,1-2.4.17v-.78L846.57,363c1.9-.53,4-.32,5.62-1.83,1.37-.21,2.85.08,4.07-.84,4-1.08,8.2-1.63,12-3.36,1.15,0,2.33.14,3.31-.69l2.41-.83Z"/><path class="cls-87" d="M824.65,369.15v.78a4.23,4.23,0,0,1-.71,0l-.91.73a4.77,4.77,0,0,1-.76.06l-2.41,0-.12-.13A8.86,8.86,0,0,1,824.65,369.15Z"/><path class="cls-87" d="M819.79,371.51l-2.29.13-.9-.06-.15-.18c1-.82,2.15-.67,3.29-.73l.12.13A5.51,5.51,0,0,0,819.79,371.51Z"/><path class="cls-18" d="M885.3,510.62c.6-.89,1.52-.83,2.42-.79a4.37,4.37,0,0,1-.06.72Z"/><path class="cls-98" d="M983.85,185.46l1.85.2c-2.66.79-5.31,1.66-8,2.34a7.7,7.7,0,0,0-3.62,1.53,1.88,1.88,0,0,0-.66.09l-2.52.63-1.52.21-1.69.66-2.51.83c-1.44.22-2.9.36-4.31.69-2.07.49-4.11,1.1-6.16,1.69l-13.74,4c-1.05.2-2.12.33-3.16.59-3.5.9-7,1.85-10.48,2.77,0-.25,0-.51,0-.76,1.77-.55,3.54-1.14,5.33-1.64,2.29-.65,4.62-1.2,6.92-1.83,3.47-.95,7-1.82,10.38-2.94s7.09-1.43,10.34-3.09c2.75.1,5.15-1.24,7.72-1.88s4.86-1.43,7.31-2.07C978.17,186.76,981,186.13,983.85,185.46Z"/><path class="cls-99" d="M927.34,200.94c0,.25,0,.51,0,.76L914,205.5l-6.84,1.93-8.07,1.66c0-.29,0-.58,0-.87a4.68,4.68,0,0,1,1.1-.5c5.18-.77,10.05-2.7,15.1-4C919.25,202.74,923.3,201.87,927.34,200.94Z"/><path class="cls-90" d="M762.38,87.72c0,.26,0,.52,0,.78-.25,0-.51,0-.76.06l-1.65.77h0l-2.35.09-.19-.22A6.81,6.81,0,0,1,762.38,87.72Z"/><path class="cls-90" d="M757.51,90.12l-2.34.11h-1.61l-.17-.2c1.2-.94,2.66-.62,4-.83l.19.21A4.31,4.31,0,0,0,757.51,90.12Z"/><path class="cls-8" d="M938.75,649l-1.07-.17,6.63-2.36a14.29,14.29,0,0,0,5.77-1.25,18,18,0,0,1,6.19-1.24l1.08.15a7.73,7.73,0,0,1-1.38.69,31.48,31.48,0,0,0-4.6,1.1c-3.06,1.3-6.48,1.28-9.48,2.81C941,649.13,939.81,648.88,938.75,649Z"/><path class="cls-100" d="M789,238.08c.21-.17.39-.44.63-.49a102.78,102.78,0,0,0,14.27-4,9.11,9.11,0,0,1,2-.33,5.72,5.72,0,0,0,2-.26c2-1.16,4.42-1.1,6.51-1.93,3.51-1.38,7.3-1.67,10.77-3.16,1.69-.73,3.82-.45,5.45-1.24,3.2-1.52,6.82-1.27,10-2.85,1.5-.75,3.38-.72,5.08-1.05v.82L838.39,226c-1.14,0-2.33-.15-3.29.72a177.73,177.73,0,0,0-20.28,5.67h-.35l-.34.08a2.48,2.48,0,0,0-2.46.78h0a2.71,2.71,0,0,0-2.44.81v0c-1.38.1-2.86-.25-4,.86-3.49.94-7,1.91-10.47,2.81a30.29,30.29,0,0,1-3.17.49Z"/><path class="cls-97" d="M789,238.08l2.57.1a8.77,8.77,0,0,1-4.93,1.57c0-.27,0-.55,0-.82h0l1.63-.78Z"/><path class="cls-97" d="M782.6,239.74l1.54-.08,1.85.18c-1,.86-2.16.69-3.3.81l-.18-.2A2.82,2.82,0,0,0,782.6,239.74Z"/><path class="cls-100" d="M786,239.84l-1.85-.18a2.84,2.84,0,0,1,2.5-.73c0,.27,0,.55,0,.82A1.51,1.51,0,0,1,786,239.84Z"/><path class="cls-97" d="M782.69,240.65l-2.39.84-.21-.22a3,3,0,0,0,.08-.73h0l2.34-.09Z"/><path class="cls-101" d="M955.66,35.25l0,.72c-3.93,1.17-7.85,2.36-11.79,3.49-2.55.73-5.1,1.45-7.68,2a15.87,15.87,0,0,1-3.17.14,1.73,1.73,0,0,1,.14-.71c3-.73,6-1.4,9-2.2,3.88-1.06,7.72-2.23,11.59-3.31A10.91,10.91,0,0,1,955.66,35.25Z"/><path class="cls-91" d="M845.67,223.6v-.82c1.79-.54,3.57-1.15,5.37-1.62,2.85-.76,5.81-1.19,8.55-2.2,3.54-1.31,7.3-1.72,10.81-3.16,1.28-.53,2.91-.23,4.38-.32-2.12.75-4.22,1.57-6.37,2.22-2.56.76-5.2,1.24-7.72,2.09-1.5.52-3.28.06-4.54,1.32h0l-1.79.76c-1.78.31-3.56.61-5.32.95C847.91,223,846.8,223.33,845.67,223.6Z"/><path class="cls-91" d="M874.78,215.48c2.26-2.11,5.09-2.41,8-2.48l.88,0,.15.16a3.38,3.38,0,0,1-.23.63,1.72,1.72,0,0,0-.71.09c-1.41.29-2.82.6-4.23.87S876.06,215.25,874.78,215.48Z"/><path class="cls-71" d="M943.5,495.24l1.62-.79v.8Z"/><path class="cls-101" d="M904,49.83l-1.07-.21a5,5,0,0,1,.27-.57,9.17,9.17,0,0,0,2-.22c4.14-1.45,8.53-2,12.57-3.79a25.53,25.53,0,0,0,2.78-.43c3.36-.92,6.7-1.93,10.06-2.82a11.91,11.91,0,0,1,2.4-.16,24.85,24.85,0,0,1-3.58,1.61c-3.31.94-6.66,1.72-10,2.59-1,.26-2,.62-3.07.91-3.58,1-7.16,2-10.75,3A8.43,8.43,0,0,1,904,49.83Z"/><path class="cls-102" d="M899,208.22c0,.29,0,.58,0,.87a89.15,89.15,0,0,1-8.83,2.39l-1.06-.15c1.6-1.37,3.62-1.73,5.55-2.24C896.14,208.71,897.6,208.5,899,208.22Z"/><path class="cls-91" d="M889.17,211.33l1.06.15c-1,.89-2.17.69-3.33.74,0-.26,0-.52,0-.78Z"/><path class="cls-91" d="M883.68,212.29a6.34,6.34,0,0,1,.75-.07l1.64,0,.08.11c0,.22,0,.43-.09.65l-2.26.23-.15-.16C883.67,212.79,883.68,212.54,883.68,212.29Z"/><path class="cls-102" d="M886.91,211.44c0,.26,0,.52,0,.78a2.37,2.37,0,0,1-.75.09l-.08-.11c0-.24,0-.48,0-.73A5.49,5.49,0,0,1,886.91,211.44Z"/><path class="cls-50" d="M854.37,221.86l1.79-.76c0,.27,0,.54,0,.82Z"/><path class="cls-103" d="M523,923c.89-1.15,2.22-1.35,3.52-1.7,4.52-1.21,9.06-2.3,13.52-3.74,3.66-1.19,7.51-1.84,11.26-2.79,3.11-.79,6.2-1.68,9.3-2.53q6.18-1.66,12.35-3.35l13.14-3.63V906l-.84.78h0l-2.51.77c-3.17,0-5.93,1.55-8.9,2.32-1.26.28-2.53.55-3.79.85s-2.78.7-4.17,1.06l-7.39,2.15a42.71,42.71,0,0,0-8.89,2.43c-3.81,1-7.78,1.36-11.32,3.24-1.33.26-2.85-.27-3.95.95h0c-.9,0-1.81,0-2.42.82h0c-1.15,0-2.36-.18-3.32.73a3.47,3.47,0,0,0-.72.1l-1.67.73h0Z"/><path class="cls-70" d="M525.49,923.82c-.89,1.12-2.13.7-3.27.75C523.12,923.48,524.36,923.89,525.49,923.82Z"/><path class="cls-58" d="M908.09,656.22l-2.57.77c0-.27,0-.54,0-.81Z"/><path class="cls-54" d="M922.64,652.21l-2.55.76v-.82Z"/><path class="cls-18" d="M883.53,511.33l1.77-.7a6.62,6.62,0,0,1,0,.77Z"/><path class="cls-18" d="M698.43,561.5a2.77,2.77,0,0,1,2.44-.83c0,.27,0,.54,0,.81Z"/><path class="cls-56" d="M849.08,63.55l-1.8.72c0-.26,0-.52,0-.79Z"/><path class="cls-57" d="M809.24,234a2.71,2.71,0,0,1,2.44-.81c0,.27,0,.55,0,.83Z"/><path class="cls-45" d="M903.9,347.29a2.51,2.51,0,0,1-2.4.84,4.29,4.29,0,0,1,0-.8Z"/><path class="cls-16" d="M941.93,336.8a2.7,2.7,0,0,1-2.43.83c0-.28,0-.56,0-.84Z"/><path class="cls-56" d="M855.42,61.9l-1.67.73c0-.26,0-.51,0-.77Z"/><path class="cls-51" d="M536.81,148.38a2.68,2.68,0,0,1-2.43.82,7.12,7.12,0,0,1,0-.8l1.55-.06Z"/><path class="cls-71" d="M945.13,494.44l.75-.87c0,.29,0,.58,0,.87h-.8Z"/><path class="cls-79" d="M585.28,906.8l.84-.78.81.07c0,.24,0,.47,0,.7Z"/><path class="cls-76" d="M628.72,894.75l0,0c-.08-.12-.17-.25-.24-.38l-.18-.21Z"/><path class="cls-104" d="M887.66,823.5a10.75,10.75,0,0,1,1.76-.81c2.17-.62,4.45-.87,6.48-2a2.59,2.59,0,0,1,1.14-.33c4.2-.11,7.84-2.61,12-2.77,3.93-1.73,8.23-2.16,12.26-3.54a9.84,9.84,0,0,1,2-.22c0,.26,0,.52,0,.78-6.08,1.64-12.17,3.25-18.25,4.94a35.38,35.38,0,0,0-3.71,1.48,15.26,15.26,0,0,0-3.87.58c-2.59,1.09-5.32,1.4-8,2Z"/><path class="cls-105" d="M954,805.69c0,.27,0,.53,0,.8l-1.72.69a6.78,6.78,0,0,0-1.2.12q-7.11,2-14.2,4l-8.81,2.09c-.76.18-1.54.3-2.32.45l-.1-.11a5,5,0,0,0,.06-.77c3-.81,5.93-1.6,8.88-2.44,2.19-.62,4.35-1.33,6.54-1.95a22.85,22.85,0,0,1,2.36-.44,8.59,8.59,0,0,0,2.35-.45C948.41,806.4,951.25,806.28,954,805.69Z"/><path class="cls-105" d="M923.29,814.63c0-.26,0-.52,0-.78a3.51,3.51,0,0,1,.72-.07l1.63,0,.1.11A2.7,2.7,0,0,1,923.29,814.63Z"/><path class="cls-106" d="M628.72,894.75l-.46-.62c.63-1.54,2.2-1.52,3.4-1.71a14.48,14.48,0,0,0,4.59-1.35,1,1,0,0,1,.38-.15c4,.12,7.3-2.6,11.24-2.78a6.37,6.37,0,0,0,1.9-.64c.62-.24,1.24-.74,1.86-.73,4.11,0,7.61-2.62,11.69-2.67,2.43-1.2,5.18-1.34,7.67-2.28,3.39-1.28,7.1-1.46,10.36-3.12,5.2-.68,10.07-2.63,15.1-4,3.88-1,7.8-1.88,11.69-2.84a8.12,8.12,0,0,0,1.86-.77,6.47,6.47,0,0,1,3.91-.66c0,.25,0,.51,0,.77l-7.31,2.36a9.94,9.94,0,0,0-4.9,1.55c-1.7.3-3.41.5-5.07.93-4,1-8,2-11.91,3.27-4.29,1.4-8.87,1.81-12.94,3.89-3.45-.07-6.49,1.48-9.69,2.44a10.67,10.67,0,0,0-5.62,1.67c-1.15,0-2.34-.15-3.28.75l-5.77,1.62-.32,0-.31.1a10.23,10.23,0,0,0-4.92,1.53c-2,0-4.05.13-5.68,1.59-1.36.18-2.81-.07-4,.85Z"/><path class="cls-107" d="M746.21,862.34c1.53-1.81,3.59-1.74,5.68-1.59l-1.66.78-1.66.78Z"/><path class="cls-108" d="M722.76,868.81c1.41-1.6,3.46-1.76,5.33-2.31,1.5-.45,3.09-.63,4.57-1.14a10.46,10.46,0,0,1,4.66-.59,1.58,1.58,0,0,1-.12.68,12.9,12.9,0,0,0-2,.21c-2.54.63-5.08,1.27-7.6,2a16.91,16.91,0,0,0-2.44,1.15Z"/><path class="cls-108" d="M713.87,871.25c0-.26,0-.52,0-.77.88-.26,1.79-.47,2.65-.8a12.52,12.52,0,0,1,6.2-.87C719.9,870,717.07,871.31,713.87,871.25Z"/><path class="cls-97" d="M887.66,823.5l1.78.1-4.14,1.64a2.55,2.55,0,0,0-2.46.7h0l-1.76.75h-.33l-.32.07c-1.16.06-2.37-.11-3.35.76a1.79,1.79,0,0,0-.69.08l-12.11,3.3-2.45-.1c2.52-1.1,5-2.34,7.82-2.47a4.15,4.15,0,0,0,1.55-.3,33.33,33.33,0,0,1,7.23-2.13C881.53,825.15,884.59,824.3,887.66,823.5Z"/><path class="cls-109" d="M810.91,844.61c2-1.47,4.34-2,6.68-2.48,1-.23,2.06-.54,3.08-.85.38-.12.74-.47,1.11-.46,4,0,7.32-2.57,11.25-2.81a9.1,9.1,0,0,0,2.7-.8,9.93,9.93,0,0,1,5.13-.71,4.43,4.43,0,0,1-.11.73,2,2,0,0,0-.73.08c-.92-.06-1.83-.12-2.45.77-4.64,1.17-9.29,2.35-13.92,3.54a2.31,2.31,0,0,0-.66.44,2.88,2.88,0,0,0-2.46.83,1.74,1.74,0,0,0-.72.09l-4.65.83Z"/><path class="cls-25" d="M820.53,842.89a2.88,2.88,0,0,1,2.46-.83v.84Z"/><path class="cls-97" d="M841.61,836.46a5.22,5.22,0,0,1,3.13-1.63c4.77-1.25,9.53-2.56,14.31-3.79a16,16,0,0,1,2.78-.24l-5,2.26c-3.42.1-6.52,1.42-9.68,2.5a5.9,5.9,0,0,0-.72.09c-.89,0-1.82-.06-2.4.84h0Z"/><path class="cls-107" d="M737.31,864.75c2.61-2.12,5.73-2.37,8.9-2.4-.53.27-1.06.56-1.61.8s-1.15.44-1.73.65C741,863.89,739.29,865.18,737.31,864.75Z"/><path class="cls-81" d="M841.61,836.46l2.45,0a6.3,6.3,0,0,1,0,.75h-3.26a4.43,4.43,0,0,0,.11-.73A6.28,6.28,0,0,0,841.61,836.46Z"/><path class="cls-81" d="M844.07,836.49c.58-.9,1.51-.83,2.4-.84a3.64,3.64,0,0,1-.07.74Z"/><path class="cls-66" d="M531.94,921.37c.61-.85,1.52-.81,2.42-.82,0,.27,0,.53,0,.79Z"/><path class="cls-79" d="M881.09,826.69l1.76-.75a7.18,7.18,0,0,1,0,.8Z"/><path class="cls-66" d="M526.23,922.93l1.67-.73a6.28,6.28,0,0,1,0,.75Z"/><path class="cls-100" d="M782.51,240.45l-2.34.09c.59-.93,1.53-.81,2.43-.8A2.82,2.82,0,0,1,782.51,240.45Z"/><path class="cls-95" d="M757.51,90.12a4.31,4.31,0,0,1,.09-.71l2.35-.08C759.36,90.28,758.42,90.14,757.51,90.12Z"/><path class="cls-89" d="M819.79,371.51a5.51,5.51,0,0,1,.07-.71l2.41,0C821.63,371.63,820.7,371.54,819.79,371.51Z"/><path class="cls-95" d="M760,89.33l1.65-.77Z"/><path class="cls-95" d="M753.56,90.23h1.61l-1.69.71A3.36,3.36,0,0,1,753.56,90.23Z"/><path class="cls-93" d="M715.49,257.55l-1.65.75Z"/><path class="cls-100" d="M788.27,238.15l-1.63.78Z"/><path class="cls-94" d="M839.2,676.36l1.63-.78Z"/><path class="cls-93" d="M719.54,256.75l-1.67.72Z"/><path class="cls-93" d="M722,255.9l-1.64.79Z"/><path class="cls-104" d="M925.65,813.76l-1.63,0,1.69-.79A5,5,0,0,1,925.65,813.76Z"/><path class="cls-86" d="M582.09,802.54a5,5,0,0,1,0-.77h1.65Z"/><path class="cls-100" d="M780.17,240.54a3,3,0,0,1-.08.73l-1.59,0Z"/><path class="cls-96" d="M886.1,211.47c0,.25,0,.49,0,.73l-1.64,0Z"/><path class="cls-93" d="M713.07,258.36l-.87.73Z"/><path class="cls-89" d="M823,370.7l.91-.73Z"/><path class="cls-96" d="M883.68,212.29c0,.25,0,.5,0,.74l-.88,0Z"/><path class="cls-89" d="M816.6,371.58l.9.06-1,.66A5.81,5.81,0,0,1,816.6,371.58Z"/></svg>