<svg id="Layer_1" data-name="Layer 1" xmlns="http://www.w3.org/2000/svg" viewBox="0 0 1920 722"><defs><style>.cls-1{fill:blue;opacity:0.16;}</style></defs><title>aaa0</title><path class="cls-1" d="M-50.5-364.5c269.47-24.41,489.69,91.92,536,251,38.53,132.37-50.45,269.88-112,365-62.54,96.65-139.63,215.78-259,220-129.81,4.59-222.56-129.79-251-171-118.76-172.06-75.36-367-66-405C-168.89-241.08-88.61-328-50.5-364.5Z"/><path class="cls-1" d="M1829.16,541.42c-119.06-95.61-269-65.36-278.93-63.2C1418.29,507,1293.32,620,1283.29,761.51c-15.78,222.75,266.18,334.14,284.38,341,41.09,15.56,195,73.81,299.63-2.18C2012.41,995,1999,677.77,1829.16,541.42Z"/><path class="cls-1" d="M1374.5-312.5c-97.77,111.94-147.52,300.2-69,431,121.48,202.36,520.63,218.33,694,8,104.4-126.65,130.14-339.25,27-472C1882.94-530.26,1537.36-499,1374.5-312.5Z"/></svg>