<svg xmlns="http://www.w3.org/2000/svg" width="1920" height="1830.873" viewBox="0 0 1920 1830.873">
  <g id="Group_1" data-name="Group 1" transform="translate(0 0)">
    <path id="Path_2" data-name="Path 2" d="M0,749.622" fill="none" stroke="#707070" stroke-width="1"/>
    <path id="Subtraction_4" data-name="Subtraction 4" d="M1168.134,1769.706c-15.71,0-31.727-.612-47.6-1.819-16.036-1.219-32.322-3.075-48.4-5.515-16.269-2.469-32.733-5.6-48.933-9.3-16.413-3.75-32.963-8.181-49.192-13.17V1306h605.285c12.292,37.385,18.6,75.058,18.736,111.972a324.251,324.251,0,0,1-4.593,55.785,316.716,316.716,0,0,1-75.216,156.618c-25.867,29.389-57.442,54.89-93.848,75.794-35.865,20.594-75.992,36.491-119.268,47.25A568.32,568.32,0,0,1,1168.134,1769.706Z" transform="translate(-974 -1306)" fill="rgba(153,0,255,0.09)"/>
    <path id="Subtraction_3" data-name="Subtraction 3" d="M652.249,1836.137h-.041c-16.44,0-33.014-.6-49.262-1.771-16.077-1.162-32.226-2.919-48-5.221a631.005,631.005,0,0,1-91.159-20.213,574.44,574.44,0,0,1-83.193-32.276,508.343,508.343,0,0,1-73.4-43.182,439.971,439.971,0,0,1-61.784-52.928,393.692,393.692,0,0,1-25.964-29.757,366.392,366.392,0,0,1-22.376-31.759,344.3,344.3,0,0,1-18.559-33.617A327.943,327.943,0,0,1,164,1550.084a315.9,315.9,0,0,1-12.351-157.771,330.642,330.642,0,0,1,9.664-39.951,349.694,349.694,0,0,1,14.566-38.765c1.12-2.52,2.292-5.076,3.484-7.6H798v514.831a700.556,700.556,0,0,1-84.571,12.622C693.091,1835.232,672.508,1836.135,652.249,1836.137Z" transform="translate(1122 -1306)" fill="rgba(153,0,255,0.09)"/>
    <path id="Subtraction_1" data-name="Subtraction 1" d="M832.132,1124.073h-.039a674.645,674.645,0,0,1-154.272-18.312A749.69,749.69,0,0,1,521.3,1049.688c-17.782-8.673-35.378-18.11-52.3-28.05-16.675-9.8-33.1-20.317-48.821-31.272C404.666,979.553,389.465,968.058,375,956.2c-14.3-11.724-28.219-24.083-41.372-36.734-13.03-12.532-25.614-25.645-37.4-38.973-11.7-13.233-22.895-26.988-33.265-40.885A579.463,579.463,0,0,1,209.5,753.414c-7.379-14.7-14.064-29.721-19.87-44.654-5.82-14.968-10.893-30.194-15.077-45.254a442.029,442.029,0,0,1-10.118-45.527,408.241,408.241,0,0,1-5-45.473,380.241,380.241,0,0,1,.292-45.09,359.4,359.4,0,0,1,5.744-44.38A343.254,343.254,0,0,1,223.734,347.9a351.1,351.1,0,0,1,37.217-43.666c26.771-26.67,58.324-49.642,93.783-68.28,34.858-18.321,73.388-32.406,114.519-41.862a577.539,577.539,0,0,1,129.179-14.225c19.111,0,38.642.888,58.048,2.638,19.577,1.766,39.473,4.45,59.136,7.979,19.883,3.568,39.988,8.081,59.756,13.414,20.033,5.4,40.189,11.779,59.908,18.944v901.217C834.2,1124.07,833.17,1124.073,832.132,1124.073Z" transform="translate(1084.72 548.528)" fill="rgba(153,0,255,0.09)"/>
    <path id="Subtraction_5" data-name="Subtraction 5" d="M1165.219,949.873h-.018a408.159,408.159,0,0,1-93.318-11.074,453.37,453.37,0,0,1-94.667-33.911c-1.063-.518-2.145-1.051-3.217-1.584V381.6a361.814,361.814,0,0,1,50.194-3.45,408.151,408.151,0,0,1,93.318,11.075,453.394,453.394,0,0,1,94.672,33.913,459.694,459.694,0,0,1,61.193,35.9,432.056,432.056,0,0,1,52.373,42.918A395.581,395.581,0,0,1,1368.5,550.3a350.619,350.619,0,0,1,32.344,52.185,301.828,301.828,0,0,1,21.135,54.438,256.709,256.709,0,0,1,9.13,55.1,223.359,223.359,0,0,1-3.671,54.181,208.355,208.355,0,0,1-57.838,108.307,235.414,235.414,0,0,1-56.805,41.371,287.475,287.475,0,0,1-69.356,25.366A349.579,349.579,0,0,1,1165.219,949.873Z" transform="translate(-974 881)" fill="rgba(153,0,255,0.09)"/>
  </g>
</svg>
